<?xml version="1.0" encoding="utf-8"?>
<!-- Generator: Adobe Illustrator 16.0.0, SVG Export Plug-In . SVG Version: 6.00 Build 0)  -->
<!DOCTYPE svg PUBLIC "-//W3C//DTD SVG 1.1//EN" "http://www.w3.org/Graphics/SVG/1.1/DTD/svg11.dtd">
<svg version="1.1" id="Layer_1" xmlns="http://www.w3.org/2000/svg" xmlns:xlink="http://www.w3.org/1999/xlink" x="0px" y="0px"
	 width="80.169px" height="70.836px" viewBox="0 0 80.169 70.836" enable-background="new 0 0 80.169 70.836" xml:space="preserve">
<g>
	<g>
		<circle fill="#48768D" cx="14.97" cy="10.905" r="8.288"/>
		<circle fill="#48768D" cx="64.699" cy="11.991" r="8.288"/>
		<circle fill="#48768D" cx="39.835" cy="11.179" r="10.014"/>
		<path fill="#48768D" d="M64.699,22.863c-5.105,0-9.613,2.667-12.314,6.733c-3.252-3.268-7.674-5.281-12.549-5.281
			c-4.666,0-8.919,1.842-12.127,4.866c-2.639-4.443-7.355-7.404-12.737-7.404C6.703,21.777,0,28.763,0,37.379
			c0,0.979,0.091,1.936,0.256,2.865c4.513,2.285,9.756,3.596,15.352,3.596c2.105,0,4.156-0.195,6.143-0.549
			c0.008,1.141,0.114,2.254,0.307,3.336c1.273,0.646,2.598,1.225,3.962,1.734l0.403-2.25l-1.188-2.219l1.188-2.219l-0.444-2.477
			l1.815-1.742l0.343-2.493l2.265-1.096l1.097-2.266l2.493-0.343l1.742-1.814l2.477,0.444l2.218-1.188l2.219,1.188l2.477-0.444
			l1.742,1.814l2.492,0.343l1.098,2.266l2.264,1.096l0.344,2.493l1.814,1.742l-0.443,2.477l1.188,2.219l-1.188,2.219l0.424,2.367
			c0.879-0.322,1.748-0.66,2.592-1.039c0.24-1.074,0.391-2.184,0.447-3.32c2.383,0.52,4.871,0.809,7.439,0.809
			c5.023,0,9.762-1.057,13.943-2.926c0.252-1.137,0.391-2.32,0.391-3.537C79.669,29.849,72.966,22.863,64.699,22.863z"/>
		<path fill="#48768D" d="M54.238,44.155l-1.078-2.018l0.402-2.252l-1.648-1.584l-0.313-2.266l-2.059-0.997l-0.998-2.06
			l-2.266-0.311l-1.584-1.65l-2.252,0.403l-2.016-1.078l-2.017,1.078l-2.251-0.403l-1.585,1.65l-2.266,0.311l-0.997,2.06
			l-2.059,0.997l-0.313,2.266l-1.649,1.584l0.404,2.252l-1.08,2.018l1.08,2.016l-0.404,2.252l1.649,1.584l0.313,2.266l2.059,0.998
			l0.997,2.059l2.266,0.313l1.585,1.648l0.727-0.131l-3.497,13.678l3.525-2.268l2.925,2.268l0.588-12.166l0.588,12.166l2.924-2.268
			l3.525,2.268l-3.496-13.678l0.727,0.131l1.584-1.648l2.266-0.313l0.998-2.059l2.059-0.998l0.313-2.266l1.648-1.584L53.16,46.17
			L54.238,44.155z M40.427,54.762c-5.955,0-10.801-4.846-10.801-10.799c0-5.957,4.846-10.801,10.801-10.801
			c5.956,0,10.801,4.844,10.801,10.801C51.228,49.917,46.382,54.762,40.427,54.762z"/>
		<path fill="#48768D" d="M40.427,33.812c-5.597,0-10.15,4.552-10.15,10.152c0,5.596,4.554,10.148,10.15,10.148
			c5.598,0,10.151-4.553,10.151-10.148C50.578,38.364,46.025,33.812,40.427,33.812z M40.427,51.909
			c-4.389,0-7.947-3.559-7.947-7.947s3.559-7.947,7.947-7.947c4.389,0,7.948,3.559,7.948,7.947S44.816,51.909,40.427,51.909z"/>
	</g>
	<g>
		<g>
			<circle fill="#D7F0FB" cx="15.47" cy="9.74" r="8.288"/>
			<circle fill="#D7F0FB" cx="65.199" cy="10.826" r="8.288"/>
			<circle fill="#D7F0FB" cx="40.335" cy="10.014" r="10.014"/>
			<path fill="#D7F0FB" d="M65.199,21.698c-5.105,0-9.613,2.667-12.314,6.733c-3.252-3.268-7.674-5.281-12.549-5.281
				c-4.666,0-8.919,1.842-12.127,4.866c-2.639-4.443-7.355-7.404-12.737-7.404C7.203,20.612,0.5,27.598,0.5,36.213
				c0,0.98,0.091,1.936,0.256,2.865c4.513,2.287,9.756,3.598,15.352,3.598c2.105,0,4.156-0.195,6.143-0.549
				c0.008,1.139,0.114,2.254,0.307,3.336c1.273,0.645,2.598,1.223,3.962,1.734l0.403-2.25l-1.188-2.219l1.188-2.219l-0.444-2.477
				l1.815-1.742l0.343-2.494l2.265-1.096l1.097-2.266l2.493-0.343l1.742-1.814l2.477,0.444l2.218-1.188l2.219,1.188l2.477-0.444
				l1.742,1.814l2.492,0.343l1.098,2.266l2.264,1.096l0.344,2.494l1.814,1.742l-0.443,2.477l1.188,2.219l-1.188,2.219l0.424,2.365
				c0.879-0.32,1.748-0.66,2.592-1.037c0.24-1.074,0.391-2.186,0.447-3.322c2.383,0.521,4.871,0.809,7.439,0.809
				c5.023,0,9.762-1.055,13.943-2.924c0.252-1.137,0.391-2.32,0.391-3.539C80.169,28.684,73.466,21.698,65.199,21.698z"/>
			<path fill="#D7F0FB" d="M54.738,42.989l-1.078-2.016l0.402-2.252l-1.648-1.584l-0.313-2.266l-2.059-0.997l-0.998-2.06
				l-2.266-0.311l-1.584-1.65l-2.252,0.403l-2.016-1.078l-2.017,1.078l-2.251-0.403l-1.585,1.65l-2.266,0.311l-0.997,2.06
				l-2.059,0.997l-0.313,2.266l-1.649,1.584l0.404,2.252l-1.08,2.016l1.08,2.018l-0.404,2.25l1.649,1.584l0.313,2.268l2.059,0.996
				l0.997,2.059l2.266,0.313l1.585,1.65l0.727-0.131l-3.497,13.678l3.525-2.268l2.925,2.268l0.588-12.168l0.588,12.168l2.924-2.268
				l3.525,2.268l-3.496-13.678l0.727,0.131l1.584-1.65l2.266-0.313l0.998-2.059l2.059-0.996l0.313-2.268l1.648-1.584l-0.402-2.25
				L54.738,42.989z M40.927,53.598c-5.956,0-10.801-4.846-10.801-10.801s4.846-10.8,10.801-10.8c5.955,0,10.801,4.845,10.801,10.8
				S46.882,53.598,40.927,53.598z"/>
			<path fill="#D7F0FB" d="M40.927,32.646c-5.597,0-10.151,4.553-10.151,10.151s4.554,10.15,10.151,10.15
				c5.598,0,10.15-4.553,10.15-10.15S46.525,32.646,40.927,32.646z M40.927,50.745c-4.389,0-7.948-3.559-7.948-7.949
				c0-4.389,3.559-7.947,7.948-7.947c4.389,0,7.947,3.558,7.947,7.947C48.875,47.186,45.316,50.745,40.927,50.745z"/>
		</g>
	</g>
</g>
</svg>
