<?xml version="1.0" encoding="utf-8"?>
<!-- Generator: Adobe Illustrator 16.0.0, SVG Export Plug-In . SVG Version: 6.00 Build 0)  -->
<!DOCTYPE svg PUBLIC "-//W3C//DTD SVG 1.1//EN" "http://www.w3.org/Graphics/SVG/1.1/DTD/svg11.dtd">
<svg version="1.1" id="Layer_1" xmlns="http://www.w3.org/2000/svg" xmlns:xlink="http://www.w3.org/1999/xlink" x="0px" y="0px"
	 width="180.574px" height="252px" viewBox="0 0 180.574 252" enable-background="new 0 0 180.574 252" xml:space="preserve">
<g>
	<circle opacity="0.7" fill="#2C4B5C" cx="58.167" cy="120.263" r="51.5"/>
	<circle opacity="0.7" fill="#2C4B5C" cx="58.167" cy="193.833" r="58.167"/>
	<path opacity="0.7" fill="#2C4B5C" d="M136.14,212.833c0,7.18-5.82,13-13,13H34.473c-7.18,0-13-5.82-13-13V21.5
		c0-7.18,5.82-13,13-13h88.667c7.18,0,13,5.82,13,13V212.833z"/>
	<circle opacity="0.7" fill="#2C4B5C" cx="21.473" cy="152.115" r="12.167"/>
	<circle fill="#5FA4C7" cx="64.833" cy="108.615" r="51.5"/>
	<circle fill="#5FA4C7" cx="64.834" cy="182.782" r="58.167"/>
	<circle fill="#5FA4C7" cx="136.98" cy="152.115" r="27.5"/>
	<circle fill="#5FA4C7" cx="148.474" cy="120.263" r="12.167"/>
	<circle fill="#5FA4C7" cx="25.5" cy="141.782" r="12.167"/>
	<path fill="#5FA4C7" d="M144.64,204.333c0,7.18-5.82,13-13,13H42.973c-7.18,0-13-5.82-13-13V13c0-7.18,5.82-13,13-13h88.667
		c7.18,0,13,5.82,13,13V204.333z"/>
	<rect x="38.307" y="14.667" fill="#266080" width="98" height="188"/>
	<g opacity="0.3">
		<defs>
			<rect id="SVGID_1_" x="38.307" y="14.667" opacity="0.3" width="98" height="188"/>
		</defs>
		<clipPath id="SVGID_2_">
			<use xlink:href="#SVGID_1_"  overflow="visible"/>
		</clipPath>
		<polygon clip-path="url(#SVGID_2_)" fill="#327EA8" points="153.799,115.305 140.413,115.305 140.413,205.101 138.652,205.101 
			138.652,117.375 133.376,117.375 133.376,107.946 125.265,107.946 125.265,205.101 123.827,205.101 123.827,142.43 110.44,142.43 
			110.44,205.101 109.61,205.101 109.61,125.101 107.591,125.101 107.591,109.557 103.331,109.557 103.331,125.101 102.501,125.101 
			102.501,116.796 89.115,116.796 89.115,125.101 88.284,125.101 88.284,109.557 70.929,109.557 70.929,125.101 67.79,125.101 
			67.79,205.101 67.375,205.101 67.375,121.428 63.821,121.428 63.821,119.466 62.148,119.466 62.148,118.731 59.851,118.731 
			59.851,119.466 53.573,119.466 53.573,118.731 51.19,118.731 51.19,119.466 49.604,119.466 49.604,121.428 46.465,121.428 
			46.465,205.101 45.634,205.101 45.634,109.218 36.687,101.171 25.14,109.218 25.14,205.101 24.31,205.101 24.31,137.124 
			21.17,137.124 21.17,131.873 6.954,131.873 6.954,137.124 3.814,137.124 3.814,205.829 4.118,205.829 4.118,206.167 
			152.217,206.167 152.217,205.921 153.799,205.921 		"/>
	</g>
	<g>
		<defs>
			<path id="SVGID_3_" d="M58.612,57.61c0.492-0.286,2.446-1.014,3.551-1.591c1.102-0.581,4.652-2.025,5.138-2.025
				c0.491,0,6.611,0.145,7.468-0.29c0.857-0.435,4.171-1.047,5.147,2.134c0.978,3.18-1.105,1.919-2.083,2.492
				c-0.981,0.58,0.366,1.882,0.853,1.882c0.491,0,2.2,1.88,3.059,1.88s2.94,1.014,2.94,1.014s2.079,1.881,3.183,1.881
				c1.102,0,2.967,2.244,4.191,0.801c1.221-1.449,1.805-4.418,3.031-4.129c1.223,0.293,2.57,1.447,4.159,1.447
				s4.53-0.289,5.021,0.434c0.492,0.723-3.306,3.182-3.063,3.76c0.248,0.576,0.738,0.436,1.963-1.301
				c1.221-1.736,3.059-1.736,4.526-2.168c1.47-0.436,2.206,2.311,2.451,3.178c0.242,0.867,1.345,2.459,2.202,4.341
				c0.857,1.88,1.708,4.481,2.691,6.509c0.98,2.027-0.115,6.088,0.868,7.389c0.977,1.305,3.54,2.446,4.15,4.182
				c0.614,1.736,2.081,3.469,2.572,3.617c0.492,0.142,2.57,3.467,2.693,4.333c0.119,0.868-0.735,2.751,1.22,2.897
				c1.964,0.143,3.676-1.016,4.289-1.304c0.61-0.286,5.385-2.46,5.996-1.594c0.613,0.868-0.855,4.632-0.977,5.646
				c-0.123,1.01-3.676,5.928-3.799,7.229c-0.119,1.305-2.202,3.621-3.546,3.908c-1.349,0.285-4.164,4.339-5.144,5.642
				c-0.979,1.299-2.572,4.189-3.306,4.479c-0.733,0.291-1.3,4.133-0.932,4.715c0.366,0.574,0.44,3.242,1.546,4.4
				c1.101,1.158,1.467,2.023,0.977,3.037c-0.489,1.008,0.248,3.324,0,5.205c-0.243,1.877-2.324,3.752-2.815,4.328
				c-0.485,0.58-2.813,2.18-3.794,3.625c-0.983,1.447-1.834,2.752-1.592,3.471c0.242,0.729,1.225,4.34,1.1,5.207
				c-0.116,0.869-3.364,1.314-4.346,1.891c-0.98,0.58,0.436,2.449,0.678,3.605s-1.715,3.041-2.572,4.051
				c-0.859,1.012-3.184,4.48-4.771,5.785c-1.592,1.303-3.886,1.041-5.479,0.896c-1.588-0.145-4.195,1.273-4.808,1.996
				c-0.614,0.725-1.465,0.578-2.689-0.143c-1.226-0.727-1.35-1.736-1.469-3.332c-0.123-1.59-0.491-2.602-0.491-2.602
				s-0.366-2.455-1.473-3.611c-1.1-1.162-1.468-2.461-2.078-3.332c-0.61-0.865,1.133-3.332,1.01-4.924
				c-0.125-1.592-2.235-3.459-2.845-4.473c-0.614-1.016-1.84-3.764-2.331-4.775c-0.485-1.014-1.1-3.035-0.977-5.928
				c0.126-2.893,1.366-4.586,2.348-5.455c0.984-0.867,0.594-1.92-0.264-3.654c-0.857-1.738,0.125-4.635-0.616-5.643
				c-0.732-1.012-1.868-6.662-3.216-7.529c-1.348-0.869-2.777-0.859-2.044-2.883c0.736-2.026,0-4.05,1.227-5.353
				c1.223-1.301,0.609-2.168-0.736-3.039c-1.347-0.867-0.856-1.299-1.958-0.287c-1.104,1.012-2.572,1.592-3.425,0.576
				c-0.858-1.012-0.615-2.602-2.208-3.76c-1.592-1.153-4.141-0.758-4.756-0.471c-0.61,0.293-1.853,2.785-3.569,3.074
				c-1.711,0.291-2.936-0.145-4.651-0.145c-1.711,0-3.184,0.145-3.426,1.16c-0.242,1.01-0.61,1.59-1.712,0.576
				c-1.105-1.012-3.306-3.328-3.306-3.328s-2.034-3.988-2.648-5.729c-0.611-1.732-2.737-1.791-5.063-3.094
				c-2.326-1.301-0.981-2.746-1.226-4.192c-0.245-1.446-1.468-2.025-0.858-2.171c0.613-0.146,0.491-1.154,1.835-3.182
				c1.349-2.023,0.49-4.194,0.249-5.352c-0.249-1.156-1.471-2.891-0.249-4.771c1.226-1.881,1.992-6.367,2.969-7.524
				c0.982-1.156,3.888-2.313,5.233-3.032c1.348-0.728,0.491-2.604,1.225-4.773c0.733-2.169,1.838-3.183,2.206-3.183
				c0.366,0,1.725-1.501,3.178-2.455C55.55,57.029,58.123,57.898,58.612,57.61z M112.106,117.052
				c-0.332-0.625-2.449-0.438-2.816,0.289c-0.366,0.724-0.734,4.046,0.367,4.337C110.759,121.967,112.718,118.209,112.106,117.052z"
				/>
		</defs>
		<clipPath id="SVGID_4_">
			<use xlink:href="#SVGID_3_"  overflow="visible"/>
		</clipPath>
		<g opacity="0.2" clip-path="url(#SVGID_4_)">
			<circle fill="none" stroke="#FFFFFF" stroke-width="0.75" stroke-miterlimit="10" cx="92.032" cy="110.433" r="4.725"/>
			<circle fill="none" stroke="#FFFFFF" stroke-width="0.75" stroke-miterlimit="10" cx="92.032" cy="110.433" r="7.02"/>
			<circle fill="none" stroke="#FFFFFF" stroke-width="0.75" stroke-miterlimit="10" cx="92.032" cy="110.433" r="9.313"/>
			<circle fill="none" stroke="#FFFFFF" stroke-width="0.75" stroke-miterlimit="10" cx="92.032" cy="110.434" r="11.608"/>
			<circle fill="none" stroke="#FFFFFF" stroke-width="0.75" stroke-miterlimit="10" cx="92.032" cy="110.433" r="13.902"/>
			<circle fill="none" stroke="#FFFFFF" stroke-width="0.75" stroke-miterlimit="10" cx="92.032" cy="110.434" r="16.196"/>
			<circle fill="none" stroke="#FFFFFF" stroke-width="0.75" stroke-miterlimit="10" cx="92.032" cy="110.433" r="18.489"/>
			<circle fill="none" stroke="#FFFFFF" stroke-width="0.75" stroke-miterlimit="10" cx="92.032" cy="110.433" r="20.784"/>
			<circle fill="none" stroke="#FFFFFF" stroke-width="0.75" stroke-miterlimit="10" cx="92.032" cy="110.433" r="23.078"/>
			<circle fill="none" stroke="#FFFFFF" stroke-width="0.75" stroke-miterlimit="10" cx="92.032" cy="110.433" r="25.373"/>
			<circle fill="none" stroke="#FFFFFF" stroke-width="0.75" stroke-miterlimit="10" cx="92.032" cy="110.434" r="27.667"/>
			<circle fill="none" stroke="#FFFFFF" stroke-width="0.75" stroke-miterlimit="10" cx="92.032" cy="110.433" r="29.96"/>
			<circle fill="none" stroke="#FFFFFF" stroke-width="0.75" stroke-miterlimit="10" cx="92.032" cy="110.434" r="32.254"/>
			<circle fill="none" stroke="#FFFFFF" stroke-width="0.75" stroke-miterlimit="10" cx="92.032" cy="110.433" r="34.548"/>
			<circle fill="none" stroke="#FFFFFF" stroke-width="0.75" stroke-miterlimit="10" cx="92.032" cy="110.434" r="36.842"/>
			<circle fill="none" stroke="#FFFFFF" stroke-width="0.75" stroke-miterlimit="10" cx="92.032" cy="110.434" r="39.137"/>
			<circle fill="none" stroke="#FFFFFF" stroke-width="0.75" stroke-miterlimit="10" cx="92.032" cy="110.434" r="41.43"/>
			<circle fill="none" stroke="#FFFFFF" stroke-width="0.75" stroke-miterlimit="10" cx="92.032" cy="110.434" r="43.725"/>
			<circle fill="none" stroke="#FFFFFF" stroke-width="0.75" stroke-miterlimit="10" cx="92.032" cy="110.434" r="46.02"/>
			<circle fill="none" stroke="#FFFFFF" stroke-width="0.75" stroke-miterlimit="10" cx="92.032" cy="110.434" r="48.313"/>
			<circle fill="none" stroke="#FFFFFF" stroke-width="0.75" stroke-miterlimit="10" cx="92.032" cy="110.433" r="50.607"/>
			<circle fill="none" stroke="#FFFFFF" stroke-width="0.75" stroke-miterlimit="10" cx="92.032" cy="110.434" r="52.901"/>
			<circle fill="none" stroke="#FFFFFF" stroke-width="0.75" stroke-miterlimit="10" cx="92.032" cy="110.434" r="55.196"/>
			<circle fill="none" stroke="#FFFFFF" stroke-width="0.75" stroke-miterlimit="10" cx="92.032" cy="110.433" r="57.489"/>
			<circle fill="none" stroke="#FFFFFF" stroke-width="0.75" stroke-miterlimit="10" cx="92.032" cy="110.433" r="59.784"/>
			<circle fill="none" stroke="#FFFFFF" stroke-width="0.75" stroke-miterlimit="10" cx="92.032" cy="110.433" r="62.077"/>
			<circle fill="none" stroke="#FFFFFF" stroke-width="0.75" stroke-miterlimit="10" cx="92.032" cy="110.434" r="64.372"/>
			<circle fill="none" stroke="#FFFFFF" stroke-width="0.75" stroke-miterlimit="10" cx="92.032" cy="110.433" r="66.665"/>
			<circle fill="none" stroke="#FFFFFF" stroke-width="0.75" stroke-miterlimit="10" cx="92.032" cy="110.433" r="68.96"/>
			<circle fill="none" stroke="#FFFFFF" stroke-width="0.75" stroke-miterlimit="10" cx="92.032" cy="110.434" r="71.254"/>
			<circle fill="none" stroke="#FFFFFF" stroke-width="0.75" stroke-miterlimit="10" cx="92.032" cy="110.433" r="73.548"/>
			<circle fill="none" stroke="#FFFFFF" stroke-width="0.75" stroke-miterlimit="10" cx="92.032" cy="110.434" r="75.842"/>
			<circle fill="none" stroke="#FFFFFF" stroke-width="0.75" stroke-miterlimit="10" cx="92.032" cy="110.433" r="78.136"/>
			<circle fill="none" stroke="#FFFFFF" stroke-width="0.75" stroke-miterlimit="10" cx="92.032" cy="110.434" r="80.43"/>
			<circle fill="none" stroke="#FFFFFF" stroke-width="0.75" stroke-miterlimit="10" cx="92.032" cy="110.434" r="82.725"/>
			<circle fill="none" stroke="#FFFFFF" stroke-width="0.75" stroke-miterlimit="10" cx="92.032" cy="110.433" r="85.018"/>
			<circle fill="none" stroke="#FFFFFF" stroke-width="0.75" stroke-miterlimit="10" cx="92.032" cy="110.434" r="87.313"/>
			<circle fill="none" stroke="#FFFFFF" stroke-width="0.75" stroke-miterlimit="10" cx="92.032" cy="110.433" r="89.606"/>
			<circle fill="none" stroke="#FFFFFF" stroke-width="0.75" stroke-miterlimit="10" cx="92.032" cy="110.434" r="91.901"/>
			<circle fill="none" stroke="#FFFFFF" stroke-width="0.75" stroke-miterlimit="10" cx="92.032" cy="110.433" r="94.195"/>
			<circle fill="none" stroke="#FFFFFF" stroke-width="0.75" stroke-miterlimit="10" cx="92.032" cy="110.433" r="96.489"/>
			<circle fill="none" stroke="#FFFFFF" stroke-width="0.75" stroke-miterlimit="10" cx="92.032" cy="110.433" r="98.783"/>
			<circle fill="none" stroke="#FFFFFF" stroke-width="0.75" stroke-miterlimit="10" cx="92.032" cy="110.433" r="101.077"/>
			<circle fill="none" stroke="#FFFFFF" stroke-width="0.75" stroke-miterlimit="10" cx="92.032" cy="110.434" r="103.371"/>
			<circle fill="none" stroke="#FFFFFF" stroke-width="0.75" stroke-miterlimit="10" cx="92.032" cy="110.433" r="105.665"/>
			<circle fill="none" stroke="#FFFFFF" stroke-width="0.75" stroke-miterlimit="10" cx="92.032" cy="110.434" r="107.959"/>
			<circle fill="none" stroke="#FFFFFF" stroke-width="0.75" stroke-miterlimit="10" cx="92.032" cy="110.433" r="110.253"/>
			<circle fill="none" stroke="#FFFFFF" stroke-width="0.75" stroke-miterlimit="10" cx="92.032" cy="110.433" r="112.548"/>
			<circle fill="none" stroke="#FFFFFF" stroke-width="0.75" stroke-miterlimit="10" cx="92.032" cy="110.433" r="114.841"/>
			<circle fill="none" stroke="#FFFFFF" stroke-width="0.75" stroke-miterlimit="10" cx="92.032" cy="110.433" r="117.136"/>
			<circle fill="none" stroke="#FFFFFF" stroke-width="0.75" stroke-miterlimit="10" cx="92.032" cy="110.433" r="119.429"/>
			<circle fill="none" stroke="#FFFFFF" stroke-width="0.75" stroke-miterlimit="10" cx="92.032" cy="110.433" r="121.724"/>
		</g>
	</g>
	<g>
		<g>
			<polygon fill="#FFFFFF" points="73.675,135.898 38.307,202.667 72.789,135.435 			"/>
		</g>
		<g>
			<polygon fill="#FFFFFF" points="136.307,14.667 115.579,55.511 114.692,55.048 			"/>
		</g>
	</g>
	<ellipse opacity="0.7" fill="#2C4B5C" cx="135.907" cy="203.421" rx="44.667" ry="9.589"/>
	<path fill="#73614D" d="M125.442,48.99c1.842,0.73,2.273,1.141,3.918,4.133c1.743,3.176,2.75,2.661,3.645,7.849
		c1.699,10.912,3.963,13.573,3.443,15.652c-0.715,2.729,3.354,15.251,4.874,17.934c1.655,3.22,5.591,6.172,6.038,8.317
		c0.402,1.834,1.788,2.997,2.325,4.339c0.454,1.135,0.685,1.731,1.26,3.726c3.396,3.902,4.952,4.344,9.115,6.426
		c3.803,1.879,6.529,3.131,8.855,6.753c5.099,7.737,6.485,12.388,6.351,19.319c-0.135,7.245-1.162,16.548-0.582,18.112
		c0.717,1.879,1.586,3.776,1.4,6.943c-0.117,1.971-1.152,3.85-1.926,4.559c-0.34,0.311-0.551,0.175-0.477-0.213
		c0.13-0.668,0.128-1.516-0.271-2.568c-0.672-1.767-2.059-4.83-0.426-8.676c0.672-1.923,0.355-5.151,0.383-8.512
		c0.024-2.712,0.128-8.385-0.428-11.881c-0.285,2.854-0.902,6.196-2.012,10.051c-0.486,1.676-1.694,6.322-1.945,8.251
		c-0.252,1.929-0.219,4.108,0.049,4.913c0.722,2.014,0.655,3.857,0.286,4.982c-0.368,1.122-0.755,3.906-0.771,5.014
		s-0.134,4.796-0.347,6.412c-0.511,3.071-0.827,12.152-0.273,13.227c1.074,2.062,0.386,3.052,0.05,4.393
		c-0.353,1.242-0.335,2.433-0.017,2.902c0.57,1.006,0.872,1.156-0.135,2.146c-1.006,0.989-3.863,0.894-5.034,0.772
		c-0.843-0.086-0.187-1.654,0.321-2.455c0.082-2.367,1.537-5.419,1.191-6.032c-0.363-0.576,0.436-2.246,0.953-3.354
		c0.037-2.061,0.359-5.638,0.271-7.396c-0.101-2.348-0.207-6.546,0.15-8.502c0.227-1.239-0.025-2.356-0.52-3.08
		c-0.688-1.013-0.262-3.522-0.352-5.222c0-0.536-0.318-2.828-0.23-3.723c0.082-1.538-1.816-11.025-3.039-15.764
		c-0.418,1.187-0.969,3.234-1.209,4.808c-0.308,2.021-0.925,3.34-0.907,4.573c0.085,1.832-0.445,3.271-0.497,4.196
		c-0.051,0.925,0.856,2.604,1.234,3.854c0.375,1.25-1.251,4.556-1.508,4.984c-0.258,0.428-0.558,1.646-0.72,2.209
		c-0.257,0.891-1.542,1.884-1.729,2.414c-2.08,5.702-5.377,14.642-5.33,18.688c0.044,1.878-0.381,1.587-0.516,1.924
		c-0.715,1.788-1.363,1.677-1.744,2.056c-0.381,0.381-0.939,1.61-0.85,1.924c0.27,1.186,0.85,1.633-0.045,2.684
		c-1.185,1.253-3.175,0.895-4.74,0.647c-1.565-0.245-0.135-2.771,0.515-3.823c0.993-1.708,1.513-2.111,2.007-2.28
		c0.268-0.112,0.206-0.312,0.133-0.435c-0.033-0.05-0.061-0.1-0.083-0.146c-0.29-0.649,1.99-4.942,3.242-8.408
		c1.208-3.131,4.606-13.238,4.361-18.437c-0.04-0.91-0.524-1.461-0.328-2.146c0.036-0.139,0.025-0.218,0-0.306
		c-0.456-1.27-0.231-3.151-0.085-4.529c0.025-0.196-0.023-0.406-0.088-0.555c-0.448-1.064-0.457-2.359-0.551-3.588
		c-0.122-1.579-1.746-8.402-2.65-11.47c-1.184-0.177-1.948-0.438-2.956-0.855c-0.644,3.872-1.715,4.756-2.265,8.479
		c-0.625,3.757-1.576,11.182-0.939,13.06c0.303,0.938,0.771,2.146,0.336,4.996c-0.234,1.778-0.805,1.577-1.007,2.517
		c-0.704,3.991-0.904,14.858-0.771,16.703c-0.009,1.922,1.175,3.056,0.888,4.001c-0.035,0.133-0.056,0.297,0.02,0.438
		c0.389,0.77,0.779,1.507,0.313,2.292c-0.561,0.938-1.88,2.974-1.298,4.986c0.181,0.961,0.667,0.894,0.962,1.543
		c0.15,0.328,0.978,1.8-0.133,2.503c-2.125,1.409-5.154,0.985-6.184,0.94c-0.389-0.04-0.898-0.612-0.541-1.617
		c-0.306-0.065-0.631-0.152-0.991-0.262c-0.765-0.232-0.983-0.986-1.196-1.908c-0.076-0.33-0.023-0.617,0.146-0.883
		c1.442-2.242,1.436-6.873,1.475-7.674c0.045-0.894,1.186-4.338,1.096-4.964c-0.496-2.114-1.301-10.065-1.523-17.021
		c0.008-0.471-0.158-0.839-0.286-1.162c-0.647-1.379-0.838-2.678-0.963-3.953c-0.261-3.131-0.069-4.121,0.382-4.948
		c0.178-0.336,0.313-1.098,0.28-1.479c-0.349-3.702-0.616-10.676-1.534-13.162c-1.257-3.257-2.221-7.292-2.438-10.863
		c-0.048-0.78-0.296-1.251-0.512-1.627c-0.592-0.951-0.758-1.632-0.758-2.176c0-0.943-0.295-2.372-1.101-4.385
		c-0.806-2.012,0.626-4.74,1.072-5.858c0.269-0.664,1.038-2.324,1.743-3.946c0.631-1.481,0.673-3.165,0.631-3.873
		c-0.197-2.922-0.605-6.198-0.986-8.19c-2.416-9.593-3.891-22.74-4.494-34.614c-0.502-9.856-2.76-11.576-4.625-12.338
		c-3.676,0.83-2.859,1.373-11.748,1.239c-0.432,0-0.69,0-1.865,0.898s-1.884,1.126-2.541,1.126c-1.41,0-2.038-0.598-2.379-1.054
		c-1.032,0.078-1.414-0.229-1.462-0.628c-0.29-2.885,1.744-3.556,2.64-4.203c0.782-0.627,1.789-1.901,4.248-3.646
		c2.459-1.743,2.482-2.013,3.556-4.83c0.737-2.153,2.045-2.315,3.317-2.483c-0.527-1.718-1.334-3.802-1.864-4.515
		c-0.805-0.85-1.722-3.198,0.224-3.511c0.916-0.157,3.153,0.716,2.639,2.214s-0.717,1.744-0.291,2.393
		c0.303,0.461,0.753,1.09,1.254,1.585c1.123-1.555,1.259-4.144,1.094-4.537c-0.18-0.425-0.826-2.214,2.126-2.994
		c1.25-0.33,2.995,0.49,2.458,2.145c-0.246,0.581-0.402,0.961-1.431,1.521c-0.313,0.156-0.896,1.744-0.47,2.303
		c0.301,0.394,0.764,0.877,1.131,1.339c0.332-0.844,0.864-2.114,1.307-1.496c0.407,0.57,1.936,2.06,2.049,3.604
		C125.29,48.819,125.318,48.938,125.442,48.99z M139.198,182.982c0.031-2.518,0.007-5.214-0.779-6.93
		c0.076,2.341,0.268,6.498,0.209,7.802c-0.063,1.427,0.114,5.787,0.529,6.828C139.337,188.839,139.198,185.341,139.198,182.982z"/>
	<path fill="#C7893F" d="M137.137,80.586c0.091-1.244,1.323-2.444,1.651-2.903c0.355-0.499,0.785,0.525,1.052,1.205
		c0.297-0.372,0.671-0.762,0.911-1.08c0.344-0.45-0.125-1.729-0.377-1.855c-0.829-0.451-0.955-0.758-1.154-1.227
		c-0.432-1.333,0.975-1.994,1.981-1.729c2.38,0.63,1.858,2.071,1.714,2.414c-0.133,0.317-0.023,2.403,0.882,3.656
		c0.403-0.398,0.767-0.905,1.01-1.277c0.343-0.523,0.181-0.721-0.233-1.929c-0.416-1.207,1.388-1.91,2.127-1.784
		c1.566,0.253,0.828,2.145,0.18,2.83c-0.428,0.574-1.078,2.254-1.502,3.639c1.025,0.136,2.08,0.266,2.674,2.002
		c0.865,2.271,0.883,2.487,2.865,3.893c1.982,1.406,2.793,2.434,3.425,2.938c0.721,0.523,2.36,1.063,2.126,3.389
		c-0.039,0.321-0.346,0.569-1.178,0.507c-0.274,0.367-0.781,0.85-1.918,0.85c-0.527,0-1.102-0.184-2.048-0.908
		s-1.155-0.725-1.503-0.725c-7.164,0.107-6.506-0.329-9.471-0.998c-1.503,0.613-3.322,2-3.727,9.943
		c-0.484,9.57-1.676,20.168-3.621,27.899c-0.309,1.605-0.637,4.246-0.796,6.602c-0.034,0.571,0,1.928,0.509,3.122
		c0.568,1.307,1.189,2.645,1.404,3.181c0.36,0.901,1.514,3.1,0.864,4.722c-0.648,1.622-0.888,2.773-0.888,3.533
		c0,0.439-0.133,0.988-0.609,1.754c-0.174,0.304-0.373,0.684-0.414,1.313c-0.174,2.878-0.949,6.13-1.964,8.756
		c-0.739,2.004-0.954,7.623-1.235,10.607c-0.027,0.309,0.082,0.921,0.226,1.191c0.364,0.667,0.518,1.465,0.308,3.989
		c-0.101,1.028-0.256,2.075-0.776,3.187c-0.103,0.26-0.237,0.557-0.229,0.936c-0.18,5.607-0.828,12.016-1.229,13.72
		c-0.071,0.505,0.847,3.28,0.884,4.002c0.031,0.644,0.026,4.377,1.189,6.184c0.137,0.215,0.179,0.446,0.116,0.712
		c-0.171,0.743-0.347,1.351-0.964,1.538c-0.289,0.089-0.553,0.158-0.799,0.211c0.289,0.811-0.121,1.271-0.436,1.304
		c-0.829,0.035-3.271,0.378-4.983-0.758c-0.896-0.567-0.229-1.753-0.106-2.018c0.237-0.523,0.629-0.469,0.773-1.244
		c0.469-1.622-0.596-3.262-1.045-4.019c-0.377-0.633-0.063-1.228,0.252-1.848c0.06-0.114,0.044-0.245,0.017-0.353
		c-0.232-0.763,0.722-1.676,0.714-3.226c0.107-1.486-0.055-10.245-0.622-13.463c-0.162-0.757-0.622-0.594-0.812-2.027
		c-0.352-2.298,0.027-3.271,0.271-4.028c0.512-1.514-0.254-7.497-0.758-10.525c-0.443-3.001-1.306-3.712-1.825-6.833
		c-0.813,0.337-1.429,0.547-2.384,0.688c-0.727,2.474-2.037,7.972-2.135,9.245c-0.076,0.99-0.082,2.033-0.444,2.893
		c-0.052,0.119-0.093,0.288-0.07,0.446c0.118,1.111,0.3,2.628-0.067,3.65c-0.021,0.071-0.031,0.135,0,0.247
		c0.156,0.552-0.234,0.996-0.266,1.729c-0.197,4.189,2.542,12.336,3.515,14.86c1.01,2.793,2.849,6.253,2.613,6.776
		c-0.018,0.039-0.041,0.078-0.066,0.118c-0.06,0.099-0.108,0.26,0.106,0.35c0.398,0.138,0.818,0.462,1.619,1.839
		c0.522,0.848,1.676,2.884,0.414,3.082s-2.865,0.486-3.822-0.521c-0.719-0.849-0.252-1.209-0.035-2.163
		c0.072-0.253-0.379-1.244-0.684-1.551c-0.309-0.307-0.83-0.216-1.408-1.658c-0.107-0.271-0.449-0.036-0.413-1.55
		c0.036-3.262-2.621-10.467-4.296-15.063c-0.152-0.428-1.189-1.229-1.396-1.946c-0.131-0.454-0.372-1.437-0.579-1.781
		c-0.208-0.346-1.518-3.009-1.215-4.017s1.035-2.361,0.992-3.106c-0.04-0.745-0.469-1.904-0.399-3.381
		c0.015-0.995-0.483-2.059-0.731-3.687c-0.193-1.269-0.638-2.919-0.975-3.875c-0.985,3.818-2.515,11.465-2.449,12.705
		c0.072,0.721-0.185,2.568-0.185,3.001c-0.073,1.369,0.27,3.393-0.284,4.208c-0.396,0.584-0.602,1.484-0.419,2.482
		c0.288,1.577,0.202,4.961,0.122,6.854c-0.072,1.417,0.188,4.299,0.219,5.96c0.416,0.894,1.061,2.239,0.768,2.704
		c-0.279,0.495,0.895,2.953,0.961,4.862c0.409,0.646,0.937,1.909,0.259,1.979c-0.944,0.097-3.247,0.174-4.058-0.624
		c-0.812-0.797-0.568-0.919-0.109-1.73c0.258-0.378,0.271-1.338-0.014-2.338c-0.27-1.081-0.824-1.879,0.041-3.541
		c0.446-0.866,0.191-8.186-0.221-10.661c-0.17-1.302-0.266-4.275-0.279-5.168s-0.324-3.136-0.622-4.042
		c-0.298-0.905-0.352-2.393,0.229-4.014c0.217-0.649,0.244-2.406,0.041-3.96c-0.203-1.556-1.176-5.3-1.568-6.65
		c-0.895-3.106-1.391-5.802-1.621-8.102c-0.449,2.818-0.363,7.39-0.346,9.576c0.022,2.708-0.231,5.31,0.311,6.86
		c1.314,3.101,0.197,5.569-0.344,6.992c-0.322,0.849-0.324,1.531-0.22,2.07c0.061,0.313-0.11,0.422-0.384,0.171
		c-0.623-0.572-1.458-2.085-1.552-3.674c-0.15-2.552,0.552-4.082,1.128-5.596c0.469-1.262-0.36-8.759-0.469-14.599
		c-0.107-5.587,1.01-9.335,5.119-15.571c1.874-2.919,4.072-3.929,7.137-5.443c3.355-1.678,4.611-2.034,7.348-5.18
		c0.462-1.606,0.648-2.087,1.016-3.002c0.432-1.081,1.549-2.019,1.873-3.496c0.36-1.73,3.533-4.109,4.865-6.705
		c1.227-2.162,4.508-12.255,3.931-14.454c-0.419-1.676,1.405-3.82,2.776-12.616c0.719-4.181,1.531-3.766,2.936-6.325
		c1.325-2.413,1.674-2.743,3.158-3.331C137.106,80.743,137.13,80.649,137.137,80.586z M125.952,194.99
		c0.336-0.839,0.479-4.354,0.427-5.505c-0.046-1.05,0.108-4.401,0.169-6.287c-0.635,1.384-0.652,3.556-0.629,5.585
		C125.919,190.684,125.808,193.504,125.952,194.99z"/>
</g>
</svg>
