<?xml version="1.0" encoding="utf-8"?>
<!-- Generator: Adobe Illustrator 16.0.0, SVG Export Plug-In . SVG Version: 6.00 Build 0)  -->
<!DOCTYPE svg PUBLIC "-//W3C//DTD SVG 1.1//EN" "http://www.w3.org/Graphics/SVG/1.1/DTD/svg11.dtd">
<svg version="1.1" xmlns="http://www.w3.org/2000/svg" xmlns:xlink="http://www.w3.org/1999/xlink" x="0px" y="0px" width="1182px"
	 height="560px" viewBox="0 0 1182 560" enable-background="new 0 0 1182 560" xml:space="preserve">
<g id="Layer_2">
	<rect x="1.892" y="0" fill="#5DB8D9" width="1180.108" height="560"/>
</g>
<g id="Layer_1">
	<g>
		<g>
			<defs>
				<path id="SVGID_1_" d="M536.169,182.447c1.464-0.853,7.286-3.021,10.578-4.739c3.281-1.732,13.859-6.035,15.305-6.035
					c1.461,0,19.693,0.431,22.247-0.863c2.554-1.296,12.427-3.12,15.333,6.356c2.912,9.473-3.294,5.717-6.205,7.425
					c-2.923,1.728,1.09,5.605,2.54,5.605c1.462,0,6.556,5.6,9.112,5.6s8.76,3.02,8.76,3.02s6.191,5.604,9.482,5.604
					c3.283,0,8.837,6.684,12.484,2.386c3.639-4.318,5.38-13.162,9.031-12.301c3.644,0.874,7.654,4.312,12.388,4.312
					c4.737,0,13.496-0.861,14.96,1.291c1.469,2.154-9.852,9.478-9.124,11.202c0.735,1.716,2.198,1.297,5.847-3.876
					c3.635-5.172,9.11-5.172,13.484-6.458c4.378-1.298,6.571,6.883,7.301,9.466c0.723,2.584,4.009,7.326,6.562,12.932
					c2.556,5.6,5.088,13.35,8.019,19.39c2.921,6.039-0.343,18.136,2.586,22.01c2.909,3.887,10.544,7.287,12.363,12.458
					c1.829,5.172,6.199,10.333,7.661,10.776c1.469,0.42,7.658,10.327,8.023,12.907c0.357,2.586-2.188,8.195,3.635,8.633
					c5.851,0.424,10.949-3.027,12.779-3.886c1.815-0.852,16.037-7.327,17.858-4.747c1.828,2.586-2.546,13.798-2.906,16.816
					c-0.367,3.011-10.949,17.661-11.319,21.535c-0.354,3.887-6.559,10.788-10.562,11.644c-4.019,0.849-12.403,12.925-15.322,16.805
					c-2.916,3.871-7.663,12.48-9.848,13.343c-2.187,0.865-3.872,12.312-2.773,14.045c1.089,1.71,1.311,9.658,4.603,13.109
					c3.279,3.449,4.37,6.027,2.91,9.047c-1.456,3.001,0.738,9.903,0,15.505c-0.724,5.593-6.926,11.176-8.388,12.894
					c-1.444,1.729-8.38,6.494-11.301,10.798c-2.931,4.313-5.463,8.199-4.741,10.342c0.72,2.17,3.648,12.928,3.272,15.511
					c-0.345,2.59-10.021,3.916-12.946,5.632c-2.919,1.728,1.297,7.296,2.019,10.741c0.724,3.445-5.106,9.059-7.661,12.066
					c-2.559,3.014-9.484,13.349-14.212,17.235c-4.744,3.88-11.578,3.101-16.323,2.668c-4.727-0.429-12.494,3.794-14.32,5.948
					c-1.829,2.158-4.364,1.723-8.013-0.425c-3.651-2.165-4.021-5.173-4.376-9.927c-0.366-4.736-1.462-7.75-1.462-7.75
					s-1.091-7.313-4.387-10.758c-3.276-3.463-4.373-7.331-6.189-9.925c-1.817-2.579,3.374-9.929,3.008-14.669
					c-0.372-4.742-6.658-10.305-8.476-13.323c-1.829-3.025-5.481-11.212-6.942-14.227c-1.445-3.019-3.277-9.042-2.911-17.658
					c0.375-8.619,4.069-13.662,6.994-16.251c2.931-2.584,1.769-5.719-0.788-10.887c-2.555-5.179,0.375-13.805-1.834-16.808
					c-2.182-3.017-5.563-19.848-9.58-22.431c-4.015-2.59-8.272-2.562-6.091-8.588c2.191-6.035,0-12.063,3.654-15.946
					c3.643-3.874,1.816-6.458-2.192-9.053c-4.013-2.582-2.551-3.87-5.834-0.855c-3.289,3.013-7.663,4.743-10.202,1.717
					c-2.557-3.014-1.833-7.751-6.576-11.2c-4.744-3.438-12.337-2.258-14.168-1.401c-1.816,0.871-5.52,8.297-10.633,9.158
					c-5.098,0.866-8.746-0.432-13.856-0.432c-5.098,0-9.484,0.432-10.206,3.455c-0.723,3.008-1.817,4.737-5.102,1.716
					c-3.291-3.013-9.847-9.912-9.847-9.912s-6.059-11.883-7.887-17.065c-1.821-5.161-8.154-5.335-15.082-9.217
					c-6.929-3.875-2.922-8.182-3.652-12.489c-0.729-4.308-4.373-6.032-2.556-6.467c1.827-0.434,1.463-3.438,5.468-9.478
					c4.02-6.028,1.461-12.495,0.741-15.942c-0.741-3.444-4.381-8.611-0.741-14.214c3.653-5.604,5.936-18.967,8.846-22.416
					c2.928-3.444,11.582-6.892,15.589-9.032c4.014-2.167,1.462-7.756,3.648-14.221c2.183-6.46,5.474-9.48,6.572-9.48
					c1.091,0,5.139-4.471,9.466-7.314C527.047,180.715,534.711,183.306,536.169,182.447z M695.529,359.525
					c-0.99-1.863-7.301-1.304-8.393,0.86c-1.089,2.156-2.186,12.053,1.092,12.919C691.509,374.166,697.349,362.973,695.529,359.525z
					"/>
			</defs>
			<clipPath id="SVGID_2_">
				<use xlink:href="#SVGID_1_"  overflow="visible"/>
			</clipPath>
			<g opacity="0.4" clip-path="url(#SVGID_2_)">
				<path fill="none" stroke="#FFFFFF" stroke-width="0.75" stroke-miterlimit="10" d="M649.803,339.807
					c0,7.773-6.303,14.081-14.076,14.081c-7.775,0-14.078-6.308-14.078-14.081s6.303-14.075,14.078-14.075
					C643.5,325.731,649.803,332.033,649.803,339.807z"/>
				<circle fill="none" stroke="#FFFFFF" stroke-width="0.75" stroke-miterlimit="10" cx="635.727" cy="339.807" r="20.911"/>
				<path fill="none" stroke="#FFFFFF" stroke-width="0.75" stroke-miterlimit="10" d="M635.727,367.552
					c-15.324,0-27.746-12.419-27.746-27.745c0-15.319,12.422-27.745,27.746-27.745c15.322,0,27.742,12.426,27.742,27.745
					C663.469,355.133,651.049,367.552,635.727,367.552z"/>
				<path fill="none" stroke="#FFFFFF" stroke-width="0.75" stroke-miterlimit="10" d="M635.727,374.388
					c-19.096,0-34.579-15.484-34.579-34.581c0-19.095,15.483-34.579,34.579-34.579c19.097,0,34.578,15.484,34.578,34.579
					C670.305,358.903,654.823,374.388,635.727,374.388z"/>
				<circle fill="none" stroke="#FFFFFF" stroke-width="0.75" stroke-miterlimit="10" cx="635.727" cy="339.806" r="41.414"/>
				<circle fill="none" stroke="#FFFFFF" stroke-width="0.75" stroke-miterlimit="10" cx="635.727" cy="339.809" r="48.248"/>
				<circle fill="none" stroke="#FFFFFF" stroke-width="0.75" stroke-miterlimit="10" cx="635.727" cy="339.807" r="55.08"/>
				<path fill="none" stroke="#FFFFFF" stroke-width="0.75" stroke-miterlimit="10" d="M635.727,401.723
					c-34.193,0-61.915-27.725-61.915-61.916c0-34.194,27.722-61.916,61.915-61.916c34.195,0,61.913,27.722,61.913,61.916
					C697.64,373.998,669.922,401.723,635.727,401.723z"/>
				<circle fill="none" stroke="#FFFFFF" stroke-width="0.75" stroke-miterlimit="10" cx="635.727" cy="339.805" r="68.748"/>
				<path fill="none" stroke="#FFFFFF" stroke-width="0.75" stroke-miterlimit="10" d="M635.727,415.39
					c-41.743,0-75.582-33.839-75.582-75.583c0-41.741,33.839-75.585,75.582-75.585c41.74,0,75.584,33.844,75.584,75.585
					C711.311,381.551,677.467,415.39,635.727,415.39z"/>
				<path fill="none" stroke="#FFFFFF" stroke-width="0.75" stroke-miterlimit="10" d="M635.727,422.225
					c-45.516,0-82.418-36.904-82.418-82.418c0-45.517,36.903-82.416,82.418-82.416c45.517,0,82.419,36.899,82.419,82.416
					C718.146,385.32,681.243,422.225,635.727,422.225z"/>
				<path fill="none" stroke="#FFFFFF" stroke-width="0.75" stroke-miterlimit="10" d="M635.727,429.059
					c-49.292,0-89.251-39.963-89.251-89.252c0-49.294,39.959-89.25,89.251-89.25c49.289,0,89.248,39.956,89.248,89.25
					C724.975,389.096,685.016,429.059,635.727,429.059z"/>
				<path fill="none" stroke="#FFFFFF" stroke-width="0.75" stroke-miterlimit="10" d="M635.727,435.895
					c-53.065,0-96.087-43.022-96.087-96.088c0-53.063,43.022-96.084,96.087-96.084c53.064,0,96.085,43.021,96.085,96.084
					C731.812,392.872,688.791,435.895,635.727,435.895z"/>
				<circle fill="none" stroke="#FFFFFF" stroke-width="0.75" stroke-miterlimit="10" cx="635.727" cy="339.806" r="102.919"/>
				<path fill="none" stroke="#FFFFFF" stroke-width="0.75" stroke-miterlimit="10" d="M635.727,449.56
					c-60.614,0-109.754-49.135-109.754-109.753c0-60.612,49.14-109.752,109.754-109.752c60.611,0,109.75,49.14,109.75,109.752
					C745.477,400.425,696.338,449.56,635.727,449.56z"/>
				<path fill="none" stroke="#FFFFFF" stroke-width="0.75" stroke-miterlimit="10" d="M635.727,456.399
					c-64.388,0-116.588-52.204-116.588-116.593c0-64.388,52.2-116.588,116.588-116.588c64.388,0,116.587,52.2,116.587,116.588
					C752.313,404.195,700.114,456.399,635.727,456.399z"/>
				<circle fill="none" stroke="#FFFFFF" stroke-width="0.75" stroke-miterlimit="10" cx="635.727" cy="339.809" r="123.421"/>
				<path fill="none" stroke="#FFFFFF" stroke-width="0.75" stroke-miterlimit="10" d="M635.727,470.064
					c-71.938,0-130.256-58.322-130.256-130.258c0-71.935,58.318-130.255,130.256-130.255c71.938,0,130.255,58.32,130.255,130.255
					C765.981,411.742,707.665,470.064,635.727,470.064z"/>
				<path fill="none" stroke="#FFFFFF" stroke-width="0.75" stroke-miterlimit="10" d="M635.727,476.9
					c-75.711,0-137.09-61.383-137.09-137.094s61.378-137.088,137.09-137.088c75.711,0,137.088,61.377,137.088,137.088
					S711.438,476.9,635.727,476.9z"/>
				<circle fill="none" stroke="#FFFFFF" stroke-width="0.75" stroke-miterlimit="10" cx="635.727" cy="339.808" r="143.923"/>
				<circle fill="none" stroke="#FFFFFF" stroke-width="0.75" stroke-miterlimit="10" cx="635.727" cy="339.805" r="150.757"/>
				<path fill="none" stroke="#FFFFFF" stroke-width="0.75" stroke-miterlimit="10" d="M635.727,497.4
					c-87.035,0-157.593-70.562-157.593-157.594c0-87.031,70.558-157.589,157.593-157.589c87.033,0,157.592,70.558,157.592,157.589
					C793.318,426.839,722.76,497.4,635.727,497.4z"/>
				<path fill="none" stroke="#FFFFFF" stroke-width="0.75" stroke-miterlimit="10" d="M635.727,504.236
					c-90.81,0-164.425-73.619-164.425-164.43c0-90.806,73.615-164.425,164.425-164.425c90.807,0,164.425,73.619,164.425,164.425
					C800.151,430.617,726.533,504.236,635.727,504.236z"/>
				<path fill="none" stroke="#FFFFFF" stroke-width="0.75" stroke-miterlimit="10" d="M635.727,511.068
					c-94.583,0-171.261-76.674-171.261-171.262c0-94.582,76.678-171.258,171.261-171.258c94.585,0,171.258,76.676,171.258,171.258
					C806.984,434.395,730.312,511.068,635.727,511.068z"/>
				<path fill="none" stroke="#FFFFFF" stroke-width="0.75" stroke-miterlimit="10" d="M635.727,517.903
					c-98.357,0-178.093-79.739-178.093-178.097c0-98.355,79.735-178.095,178.093-178.095s178.095,79.739,178.095,178.095
					C813.821,438.164,734.084,517.903,635.727,517.903z"/>
				<path fill="none" stroke="#FFFFFF" stroke-width="0.75" stroke-miterlimit="10" d="M635.727,524.732
					c-102.132,0-184.928-82.793-184.928-184.926c0-102.132,82.796-184.926,184.928-184.926
					c102.126,0,184.926,82.794,184.926,184.926C820.652,441.939,737.853,524.732,635.727,524.732z"/>
				<circle fill="none" stroke="#FFFFFF" stroke-width="0.75" stroke-miterlimit="10" cx="635.727" cy="339.807" r="191.761"/>
				<path fill="none" stroke="#FFFFFF" stroke-width="0.75" stroke-miterlimit="10" d="M635.727,538.398
					c-109.681,0-198.597-88.913-198.597-198.592c0-109.678,88.916-198.596,198.597-198.596
					c109.678,0,198.596,88.917,198.596,198.596C834.322,449.485,745.404,538.398,635.727,538.398z"/>
				<path fill="none" stroke="#FFFFFF" stroke-width="0.75" stroke-miterlimit="10" d="M635.727,545.236
					c-113.455,0-205.429-91.975-205.429-205.43c0-113.452,91.974-205.429,205.429-205.429c113.452,0,205.428,91.978,205.428,205.429
					C841.154,453.262,749.179,545.236,635.727,545.236z"/>
				<path fill="none" stroke="#FFFFFF" stroke-width="0.75" stroke-miterlimit="10" d="M635.727,552.073
					c-117.229,0-212.265-95.037-212.265-212.267c0-117.228,95.035-212.265,212.265-212.265
					c117.229,0,212.265,95.037,212.265,212.265C847.991,457.036,752.955,552.073,635.727,552.073z"/>
				<path fill="none" stroke="#FFFFFF" stroke-width="0.75" stroke-miterlimit="10" d="M635.727,558.904
					c-121.002,0-219.098-98.098-219.098-219.098c0-121.003,98.095-219.098,219.098-219.098
					c121.003,0,219.094,98.094,219.094,219.098C854.82,460.807,756.729,558.904,635.727,558.904z"/>
				<path fill="none" stroke="#FFFFFF" stroke-width="0.75" stroke-miterlimit="10" d="M635.727,565.742
					c-124.777,0-225.931-101.16-225.931-225.936c0-124.774,101.154-225.93,225.931-225.93c124.773,0,225.931,101.156,225.931,225.93
					C861.657,464.582,760.5,565.742,635.727,565.742z"/>
				<path fill="none" stroke="#FFFFFF" stroke-width="0.75" stroke-miterlimit="10" d="M635.727,572.573
					c-128.551,0-232.767-104.214-232.767-232.767c0-128.55,104.216-232.766,232.767-232.766
					c128.549,0,232.768,104.216,232.768,232.766C868.494,468.359,764.275,572.573,635.727,572.573z"/>
				<path fill="none" stroke="#FFFFFF" stroke-width="0.75" stroke-miterlimit="10" d="M635.727,579.408
					c-132.326,0-239.6-107.271-239.6-239.602c0-132.326,107.273-239.598,239.6-239.598c132.325,0,239.599,107.272,239.599,239.598
					C875.325,472.138,768.052,579.408,635.727,579.408z"/>
				<path fill="none" stroke="#FFFFFF" stroke-width="0.75" stroke-miterlimit="10" d="M635.727,586.245
					c-136.099,0-246.436-110.332-246.436-246.438c0-136.099,110.337-246.434,246.436-246.434
					c136.102,0,246.437,110.335,246.437,246.434C882.163,475.913,771.828,586.245,635.727,586.245z"/>
				<path fill="none" stroke="#FFFFFF" stroke-width="0.75" stroke-miterlimit="10" d="M635.727,593.076
					c-139.873,0-253.269-113.395-253.269-253.27c0-139.873,113.396-253.267,253.269-253.267
					c139.874,0,253.266,113.395,253.266,253.267C888.992,479.682,775.601,593.076,635.727,593.076z"/>
				<path fill="none" stroke="#FFFFFF" stroke-width="0.75" stroke-miterlimit="10" d="M635.727,599.912
					c-143.649,0-260.103-116.454-260.103-260.105c0-143.646,116.454-260.101,260.103-260.101
					c143.648,0,260.103,116.456,260.103,260.101C895.829,483.458,779.375,599.912,635.727,599.912z"/>
				<path fill="none" stroke="#FFFFFF" stroke-width="0.75" stroke-miterlimit="10" d="M635.727,606.742
					c-147.423,0-266.938-119.515-266.938-266.936c0-147.422,119.515-266.937,266.938-266.937
					c147.422,0,266.934,119.514,266.934,266.937C902.66,487.228,783.148,606.742,635.727,606.742z"/>
				<path fill="none" stroke="#FFFFFF" stroke-width="0.75" stroke-miterlimit="10" d="M635.727,613.58
					c-151.198,0-273.77-122.576-273.77-273.773c0-151.195,122.572-273.77,273.77-273.77c151.194,0,273.771,122.575,273.771,273.77
					C909.497,491.004,786.921,613.58,635.727,613.58z"/>
				<path fill="none" stroke="#FFFFFF" stroke-width="0.75" stroke-miterlimit="10" d="M635.727,620.41
					c-154.972,0-280.605-125.63-280.605-280.604c0-154.971,125.633-280.605,280.605-280.605
					c154.971,0,280.604,125.634,280.604,280.605C916.33,494.78,790.697,620.41,635.727,620.41z"/>
				<path fill="none" stroke="#FFFFFF" stroke-width="0.75" stroke-miterlimit="10" d="M635.727,627.246
					c-158.746,0-287.438-128.694-287.438-287.439c0-158.748,128.693-287.438,287.438-287.438
					c158.745,0,287.438,128.691,287.438,287.438C923.164,498.552,794.472,627.246,635.727,627.246z"/>
				<path fill="none" stroke="#FFFFFF" stroke-width="0.75" stroke-miterlimit="10" d="M635.727,634.076
					c-162.521,0-294.273-131.75-294.273-294.27c0-162.518,131.752-294.273,294.273-294.273
					c162.518,0,294.274,131.755,294.274,294.273C930.001,502.326,798.244,634.076,635.727,634.076z"/>
				<path fill="none" stroke="#FFFFFF" stroke-width="0.75" stroke-miterlimit="10" d="M635.727,640.914
					c-166.295,0-301.106-134.81-301.106-301.107c0-166.294,134.811-301.106,301.106-301.106
					c166.292,0,301.107,134.812,301.107,301.106C936.834,506.104,802.019,640.914,635.727,640.914z"/>
				<path fill="none" stroke="#FFFFFF" stroke-width="0.75" stroke-miterlimit="10" d="M635.727,647.75
					c-170.07,0-307.941-137.876-307.941-307.943c0-170.066,137.871-307.94,307.941-307.94c170.067,0,307.942,137.874,307.942,307.94
					C943.669,509.874,805.794,647.75,635.727,647.75z"/>
				<path fill="none" stroke="#FFFFFF" stroke-width="0.75" stroke-miterlimit="10" d="M635.727,654.582
					c-173.844,0-314.776-140.932-314.776-314.775c0-173.842,140.932-314.774,314.776-314.774s314.775,140.932,314.775,314.774
					C950.502,513.65,809.57,654.582,635.727,654.582z"/>
				<path fill="none" stroke="#FFFFFF" stroke-width="0.75" stroke-miterlimit="10" d="M635.727,661.417
					c-177.617,0-321.608-143.991-321.608-321.61c0-177.617,143.991-321.609,321.608-321.609
					c177.616,0,321.608,143.992,321.608,321.609C957.335,517.426,813.343,661.417,635.727,661.417z"/>
				<path fill="none" stroke="#FFFFFF" stroke-width="0.75" stroke-miterlimit="10" d="M635.727,668.248
					c-181.391,0-328.443-147.047-328.443-328.441c0-181.39,147.052-328.439,328.443-328.439
					c181.392,0,328.443,147.05,328.443,328.439C964.17,521.201,817.118,668.248,635.727,668.248z"/>
				<path fill="none" stroke="#FFFFFF" stroke-width="0.75" stroke-miterlimit="10" d="M635.727,675.085
					c-185.167,0-335.277-150.113-335.277-335.278C300.449,154.645,450.56,4.53,635.727,4.53
					c185.166,0,335.275,150.115,335.275,335.277C971.002,524.972,820.893,675.085,635.727,675.085z"/>
				<path fill="none" stroke="#FFFFFF" stroke-width="0.75" stroke-miterlimit="10" d="M635.727,681.916
					c-188.94,0-342.11-153.168-342.11-342.109c0-188.938,153.17-342.109,342.11-342.109c188.938,0,342.112,153.171,342.112,342.109
					C977.839,528.748,824.665,681.916,635.727,681.916z"/>
				<path fill="none" stroke="#FFFFFF" stroke-width="0.75" stroke-miterlimit="10" d="M635.727,688.754
					c-192.714,0-348.944-156.23-348.944-348.947c0-192.713,156.23-348.946,348.944-348.946
					c192.715,0,348.943,156.233,348.943,348.946C984.67,532.523,828.441,688.754,635.727,688.754z"/>
				<path fill="none" stroke="#FFFFFF" stroke-width="0.75" stroke-miterlimit="10" d="M635.727,695.584
					c-196.49,0-355.78-159.289-355.78-355.777c0-196.486,159.29-355.778,355.78-355.778c196.487,0,355.78,159.292,355.78,355.778
					C991.507,536.295,832.214,695.584,635.727,695.584z"/>
				<path fill="none" stroke="#FFFFFF" stroke-width="0.75" stroke-miterlimit="10" d="M998.34,339.807
					c0,200.264-162.351,362.613-362.613,362.613c-200.263,0-362.613-162.35-362.613-362.613
					c0-200.263,162.35-362.614,362.613-362.614C835.989-22.808,998.34,139.544,998.34,339.807z"/>
			</g>
		</g>
		<path fill="#FFFFFF" d="M405.308,370.717h-50.372c-1.538,0-2.786,1.344-2.786,3.002v88.071c0,1.66,1.248,3.004,2.786,3.004h50.372
			c1.539,0,2.786-1.344,2.786-3.004v-88.071C408.094,372.061,406.846,370.717,405.308,370.717z M367.917,374.158h24.409
			c0.237,0,0.429,0.192,0.429,0.429c0,0.235-0.192,0.428-0.429,0.428h-24.409c-0.236,0-0.428-0.192-0.428-0.428
			C367.49,374.351,367.681,374.158,367.917,374.158z M386.201,462.065h-12.158c-0.854,0-1.546-0.694-1.546-1.548
			c0-0.854,0.692-1.547,1.546-1.547h12.158c0.854,0,1.547,0.692,1.547,1.547C387.748,461.371,387.055,462.065,386.201,462.065z
			 M405.242,455.476h-50.239V377.06h50.239V455.476z"/>
		<g>
			<path fill="#FFFFFF" d="M841.915,152.421h134.148v78.549h4.453v-76.176c0-3.825-3.455-6.925-7.718-6.925H845.182
				c-4.264,0-7.718,3.1-7.718,6.925v76.176h4.451V152.421z"/>
			<path fill="#FFFFFF" d="M989.802,231.993H944.12c-0.261,0.455-0.73,0.775-1.293,0.775h-67.678c-0.563,0-1.032-0.32-1.293-0.775
				h-45.683h-3.066v3.066c0,1.694,1.373,3.067,3.066,3.067h161.628c1.694,0,3.067-1.373,3.067-3.067v-3.066H989.802z"/>
		</g>
		<path fill="#FFFFFF" d="M888.305,400.739h-47.336c-1.726,0-3.123,1.397-3.123,3.122v63.463c0,1.722,1.397,3.119,3.123,3.119
			h47.336c1.722,0,3.119-1.397,3.119-3.119v-63.463C891.424,402.137,890.026,400.739,888.305,400.739z M864.636,469.529
			c-0.898,0-1.625-0.728-1.625-1.625s0.727-1.626,1.625-1.626s1.625,0.729,1.625,1.626S865.534,469.529,864.636,469.529z
			 M888.677,465.242h-48.084v-61.381h48.084V465.242z"/>
		<g>
			<g>
				
					<line fill="none" stroke="#FFFFFF" stroke-width="0.75" stroke-miterlimit="10" x1="635.727" y1="339.807" x2="471.875" y2="419.675"/>
				<g>
					<circle fill="#FFFFFF" cx="472.002" cy="419.613" r="2.82"/>
				</g>
			</g>
		</g>
		<g>
			<g>
				
					<line fill="none" stroke="#FFFFFF" stroke-width="0.75" stroke-miterlimit="10" x1="635.727" y1="339.807" x2="796.61" y2="222.128"/>
				<g>
					<circle fill="#FFFFFF" cx="796.497" cy="222.212" r="2.82"/>
				</g>
			</g>
		</g>
		<g>
			<g>
				
					<line fill="none" stroke="#FFFFFF" stroke-width="0.75" stroke-miterlimit="10" x1="635.727" y1="339.807" x2="796.463" y2="434.236"/>
				<g>
					<circle fill="#FFFFFF" cx="796.341" cy="434.166" r="2.82"/>
				</g>
			</g>
		</g>
		<circle fill="#FFFFFF" cx="635.727" cy="339.807" r="14.775"/>
		<g>
			<path fill="none" stroke="#FFFFFF" stroke-miterlimit="10" stroke-dasharray="2.0044,4.0087" d="M473.671,417.024
				c0,50.736-41.132,91.868-91.87,91.868c-50.738,0-91.87-41.132-91.87-91.868c0-50.74,41.132-91.871,91.87-91.871
				C432.539,325.153,473.671,366.284,473.671,417.024z"/>
		</g>
		<g>
			<path fill="none" stroke="#FFFFFF" stroke-miterlimit="10" stroke-dasharray="2.0006,4.0012" d="M1025.519,192.999
				c0,64.357-52.173,116.53-116.529,116.53c-64.361,0-116.531-52.173-116.531-116.53c0-64.359,52.17-116.531,116.531-116.531
				C973.346,76.467,1025.519,128.639,1025.519,192.999z"/>
		</g>
		<g>
			<path fill="none" stroke="#FFFFFF" stroke-miterlimit="10" stroke-dasharray="2.0001,4.0002" d="M935.301,435.594
				c0,39.024-31.639,70.665-70.665,70.665c-39.027,0-70.665-31.641-70.665-70.665c0-39.029,31.638-70.665,70.665-70.665
				C903.662,364.929,935.301,396.564,935.301,435.594z"/>
		</g>
		<circle fill="#FFFFFF" cx="284.06" cy="417.023" r="45.139"/>
		<path fill="#FFFFFF" d="M823.84,147.869c0,33.284-26.979,60.266-60.265,60.266c-33.282,0-60.265-26.982-60.265-60.266
			c0-33.285,26.982-60.266,60.265-60.266C796.861,87.603,823.84,114.584,823.84,147.869z"/>
		<circle fill="#FFFFFF" cx="962.456" cy="442.952" r="49.487"/>
		<circle fill="#FFFFFF" cx="266.15" cy="393.466" r="28.933"/>
		<path fill="#FFFFFF" d="M777.946,119.055c0,22.936-18.597,41.53-41.53,41.53c-22.937,0-41.532-18.594-41.532-41.53
			c0-22.937,18.596-41.531,41.532-41.531C759.35,77.523,777.946,96.118,777.946,119.055z"/>
		<circle fill="#FFFFFF" cx="945.981" cy="422.233" r="34.535"/>
		<g>
			<path fill="#D6DE23" d="M252.019,412.863v-2.556l3.266-3.172c7.857-7.479,11.407-11.454,11.455-16.093
				c0-3.124-1.515-6.012-6.106-6.012c-2.793,0-5.112,1.42-6.532,2.604l-1.325-2.935c2.13-1.799,5.159-3.124,8.709-3.124
				c6.626,0,9.419,4.544,9.419,8.946c0,5.68-4.118,10.271-10.603,16.519l-2.461,2.272v0.095h13.821v3.455H252.019z"/>
			<path fill="#D6DE23" d="M296.747,397.148c0,10.461-3.881,16.235-10.697,16.235c-6.011,0-10.082-5.633-10.176-15.809
				c0-10.319,4.449-15.999,10.697-15.999C293.055,381.576,296.747,387.351,296.747,397.148z M280.038,397.622
				c0,7.999,2.461,12.543,6.248,12.543c4.26,0,6.295-4.97,6.295-12.827c0-7.573-1.941-12.543-6.248-12.543
				C282.689,384.795,280.038,389.244,280.038,397.622z"/>
			<path fill="#5DB8D9" d="M289.965,400.335c0-1.775-0.035-3.23-0.142-4.649h2.733l0.142,2.768h0.106
				c0.958-1.632,2.556-3.158,5.395-3.158c2.342,0,4.117,1.42,4.862,3.442h0.071c0.533-0.958,1.207-1.703,1.917-2.235
				c1.029-0.781,2.165-1.207,3.798-1.207c2.271,0,5.643,1.49,5.643,7.453v10.115h-3.052v-9.725c0-3.301-1.207-5.288-3.727-5.288
				c-1.774,0-3.159,1.313-3.691,2.839c-0.142,0.426-0.248,0.994-0.248,1.562v10.612h-3.053V402.57c0-2.732-1.207-4.72-3.584-4.72
				c-1.952,0-3.372,1.562-3.869,3.123c-0.177,0.461-0.249,0.993-0.249,1.526v10.363h-3.052V400.335z"/>
		</g>
		<g>
			<rect x="252.241" y="417.754" fill="none" width="61.055" height="30.696"/>
			<path fill="#5DB8D9" d="M253.045,425.229v-7.138h1.006l2.287,3.611c0.529,0.837,0.942,1.589,1.281,2.319l0.021-0.011
				c-0.085-0.953-0.106-1.821-0.106-2.934v-2.986h0.868v7.138h-0.932l-2.266-3.622c-0.498-0.794-0.975-1.609-1.334-2.382
				l-0.032,0.01c0.053,0.9,0.074,1.759,0.074,2.944v3.05H253.045z"/>
			<path fill="#5DB8D9" d="M260.934,418.092v4.226c0,1.599,0.709,2.276,1.663,2.276c1.059,0,1.737-0.698,1.737-2.276v-4.226h0.932
				v4.162c0,2.192-1.154,3.092-2.7,3.092c-1.461,0-2.563-0.836-2.563-3.05v-4.204H260.934z"/>
			<path fill="#5DB8D9" d="M272.878,422.095c-0.053-0.995-0.117-2.191-0.106-3.081h-0.032c-0.244,0.836-0.54,1.726-0.9,2.711
				l-1.26,3.463h-0.699l-1.154-3.399c-0.339-1.006-0.625-1.928-0.826-2.774h-0.021c-0.021,0.89-0.074,2.086-0.138,3.155l-0.19,3.061
				h-0.879l0.498-7.138h1.175l1.218,3.452c0.296,0.879,0.54,1.663,0.72,2.404h0.032c0.18-0.72,0.435-1.504,0.752-2.404l1.271-3.452
				h1.175l0.445,7.138h-0.9L272.878,422.095z"/>
			<path fill="#5DB8D9" d="M275.376,418.188c0.402-0.085,1.038-0.148,1.684-0.148c0.921,0,1.514,0.159,1.959,0.519
				c0.371,0.275,0.593,0.699,0.593,1.261c0,0.688-0.455,1.292-1.207,1.567v0.021c0.678,0.17,1.472,0.731,1.472,1.79
				c0,0.614-0.243,1.08-0.604,1.43c-0.498,0.455-1.302,0.667-2.467,0.667c-0.635,0-1.123-0.042-1.43-0.085V418.188z M276.298,421.11
				h0.836c0.975,0,1.546-0.509,1.546-1.197c0-0.836-0.636-1.164-1.567-1.164c-0.424,0-0.667,0.031-0.815,0.063V421.11z
				 M276.298,424.53c0.18,0.032,0.445,0.043,0.773,0.043c0.953,0,1.832-0.35,1.832-1.388c0-0.974-0.836-1.377-1.842-1.377h-0.763
				V424.53z"/>
			<path fill="#5DB8D9" d="M284.812,421.883h-2.774v2.573h3.092v0.773h-4.014v-7.138h3.855v0.773h-2.934v2.256h2.774V421.883z"/>
			<path fill="#5DB8D9" d="M286.325,418.188c0.466-0.096,1.133-0.148,1.769-0.148c0.985,0,1.62,0.18,2.065,0.582
				c0.36,0.318,0.562,0.806,0.562,1.355c0,0.943-0.593,1.567-1.345,1.822v0.031c0.551,0.19,0.879,0.699,1.048,1.44
				c0.233,0.995,0.402,1.684,0.551,1.959h-0.953c-0.116-0.201-0.275-0.815-0.477-1.705c-0.211-0.984-0.593-1.355-1.43-1.387h-0.868
				v3.092h-0.921V418.188z M287.247,421.438h0.942c0.985,0,1.61-0.54,1.61-1.355c0-0.921-0.667-1.324-1.642-1.334
				c-0.445,0-0.762,0.042-0.911,0.084V421.438z"/>
			<path fill="#5DB8D9" d="M300.366,421.587c0,2.456-1.493,3.759-3.314,3.759c-1.885,0-3.208-1.461-3.208-3.621
				c0-2.267,1.408-3.749,3.314-3.749C299.106,417.976,300.366,419.469,300.366,421.587z M294.828,421.703
				c0,1.525,0.826,2.891,2.276,2.891c1.461,0,2.288-1.345,2.288-2.965c0-1.419-0.741-2.901-2.277-2.901
				C295.59,418.728,294.828,420.136,294.828,421.703z"/>
			<path fill="#5DB8D9" d="M301.562,418.092h3.844v0.773h-2.923v2.372h2.7V422h-2.7v3.229h-0.921V418.092z"/>
			<path fill="#D6DE23" d="M252.918,434.696c0.413,0.254,1.017,0.466,1.652,0.466c0.942,0,1.493-0.498,1.493-1.218
				c0-0.667-0.381-1.049-1.345-1.419c-1.165-0.413-1.885-1.017-1.885-2.023c0-1.111,0.921-1.938,2.308-1.938
				c0.731,0,1.26,0.17,1.578,0.35l-0.254,0.752c-0.233-0.127-0.709-0.339-1.355-0.339c-0.974,0-1.345,0.582-1.345,1.069
				c0,0.667,0.434,0.995,1.419,1.377c1.207,0.466,1.821,1.048,1.821,2.097c0,1.101-0.815,2.054-2.499,2.054
				c-0.688,0-1.44-0.201-1.821-0.455L252.918,434.696z"/>
			<path fill="#D6DE23" d="M264.281,432.684c-0.053-0.995-0.117-2.191-0.106-3.081h-0.032c-0.244,0.836-0.54,1.726-0.9,2.711
				l-1.26,3.463h-0.699l-1.154-3.399c-0.339-1.006-0.625-1.928-0.826-2.774h-0.021c-0.021,0.89-0.074,2.086-0.138,3.155l-0.19,3.061
				h-0.879l0.498-7.138h1.175l1.218,3.452c0.296,0.879,0.54,1.663,0.72,2.404h0.032c0.18-0.72,0.435-1.504,0.752-2.404l1.271-3.452
				h1.175l0.445,7.138h-0.9L264.281,432.684z"/>
			<path fill="#D6DE23" d="M267.827,433.573l-0.741,2.245h-0.953l2.425-7.138h1.112l2.436,7.138h-0.985l-0.762-2.245H267.827z
				 M270.167,432.854l-0.699-2.055c-0.159-0.466-0.265-0.89-0.371-1.303h-0.021c-0.106,0.424-0.222,0.858-0.36,1.292l-0.699,2.065
				H270.167z"/>
			<path fill="#D6DE23" d="M273.153,428.776c0.466-0.096,1.133-0.148,1.769-0.148c0.985,0,1.62,0.18,2.065,0.583
				c0.36,0.317,0.562,0.805,0.562,1.355c0,0.942-0.593,1.566-1.345,1.821v0.031c0.551,0.19,0.879,0.699,1.048,1.44
				c0.233,0.995,0.402,1.684,0.551,1.959h-0.953c-0.116-0.201-0.275-0.815-0.477-1.705c-0.211-0.984-0.593-1.355-1.43-1.387h-0.868
				v3.092h-0.921V428.776z M274.075,432.027h0.942c0.985,0,1.61-0.54,1.61-1.355c0-0.921-0.667-1.324-1.642-1.334
				c-0.445,0-0.762,0.042-0.911,0.084V432.027z"/>
			<path fill="#D6DE23" d="M280.301,429.465h-2.171v-0.784h5.284v0.784h-2.181v6.354h-0.932V429.465z"/>
			<path fill="#D6DE23" d="M286.453,428.766c0.445-0.074,1.027-0.138,1.769-0.138c0.911,0,1.578,0.212,2.001,0.593
				c0.392,0.339,0.625,0.858,0.625,1.493c0,0.646-0.191,1.154-0.551,1.525c-0.487,0.519-1.281,0.783-2.182,0.783
				c-0.275,0-0.529-0.011-0.741-0.063v2.859h-0.921V428.766z M287.374,432.207c0.201,0.053,0.456,0.074,0.763,0.074
				c1.112,0,1.79-0.54,1.79-1.524c0-0.942-0.667-1.398-1.684-1.398c-0.402,0-0.709,0.032-0.868,0.074V432.207z"/>
			<path fill="#D6DE23" d="M293.007,428.681v2.986h3.452v-2.986h0.932v7.138h-0.932v-3.347h-3.452v3.347h-0.921v-7.138H293.007z"/>
			<path fill="#D6DE23" d="M305.089,432.176c0,2.457-1.493,3.759-3.314,3.759c-1.885,0-3.208-1.461-3.208-3.621
				c0-2.267,1.408-3.749,3.314-3.749C303.829,428.564,305.089,430.058,305.089,432.176z M299.551,432.292
				c0,1.525,0.826,2.891,2.277,2.891c1.461,0,2.287-1.345,2.287-2.965c0-1.419-0.741-2.901-2.277-2.901
				C300.313,429.316,299.551,430.725,299.551,432.292z"/>
			<path fill="#D6DE23" d="M306.285,435.818v-7.138h1.006l2.287,3.611c0.529,0.837,0.942,1.589,1.281,2.319l0.021-0.011
				c-0.085-0.953-0.106-1.821-0.106-2.934v-2.986h0.868v7.138h-0.932l-2.267-3.622c-0.498-0.794-0.974-1.609-1.334-2.382
				l-0.032,0.01c0.053,0.9,0.074,1.758,0.074,2.944v3.05H306.285z"/>
			<path fill="#D6DE23" d="M316.948,432.472h-2.774v2.573h3.092v0.773h-4.014v-7.138h3.855v0.773h-2.934v2.256h2.774V432.472z"/>
			<path fill="#5DB8D9" d="M253.967,439.27v4.226c0,1.599,0.709,2.276,1.663,2.276c1.059,0,1.737-0.698,1.737-2.276v-4.226h0.932
				v4.162c0,2.192-1.154,3.092-2.7,3.092c-1.461,0-2.563-0.836-2.563-3.05v-4.204H253.967z"/>
			<path fill="#5DB8D9" d="M259.769,445.285c0.413,0.254,1.017,0.466,1.652,0.466c0.942,0,1.493-0.498,1.493-1.218
				c0-0.668-0.381-1.049-1.345-1.419c-1.165-0.413-1.885-1.017-1.885-2.023c0-1.111,0.921-1.938,2.308-1.938
				c0.731,0,1.26,0.17,1.578,0.35l-0.254,0.752c-0.233-0.127-0.709-0.339-1.355-0.339c-0.974,0-1.345,0.582-1.345,1.069
				c0,0.667,0.434,0.995,1.419,1.377c1.207,0.466,1.821,1.048,1.821,2.097c0,1.102-0.815,2.054-2.499,2.054
				c-0.688,0-1.44-0.201-1.821-0.455L259.769,445.285z"/>
			<path fill="#5DB8D9" d="M268.812,443.061h-2.774v2.573h3.092v0.773h-4.014v-7.138h3.854v0.773h-2.933v2.256h2.774V443.061z"/>
			<path fill="#5DB8D9" d="M270.326,439.365c0.466-0.096,1.133-0.148,1.769-0.148c0.985,0,1.62,0.18,2.065,0.582
				c0.36,0.318,0.562,0.806,0.562,1.355c0,0.943-0.593,1.567-1.345,1.822v0.031c0.551,0.19,0.879,0.699,1.048,1.44
				c0.233,0.995,0.402,1.684,0.551,1.959h-0.953c-0.116-0.201-0.275-0.815-0.477-1.705c-0.212-0.984-0.593-1.355-1.43-1.387h-0.868
				v3.092h-0.921V439.365z M271.247,442.616h0.942c0.985,0,1.61-0.54,1.61-1.355c0-0.921-0.667-1.324-1.642-1.334
				c-0.445,0-0.762,0.042-0.911,0.084V442.616z"/>
			<path fill="#5DB8D9" d="M275.896,445.285c0.413,0.254,1.017,0.466,1.652,0.466c0.942,0,1.493-0.498,1.493-1.218
				c0-0.668-0.381-1.049-1.345-1.419c-1.165-0.413-1.885-1.017-1.885-2.023c0-1.111,0.921-1.938,2.309-1.938
				c0.731,0,1.26,0.17,1.578,0.35l-0.254,0.752c-0.233-0.127-0.709-0.339-1.355-0.339c-0.974,0-1.345,0.582-1.345,1.069
				c0,0.667,0.434,0.995,1.419,1.377c1.208,0.466,1.821,1.048,1.821,2.097c0,1.102-0.815,2.054-2.499,2.054
				c-0.688,0-1.44-0.201-1.821-0.455L275.896,445.285z"/>
			<path fill="#5DB8D9" d="M284.409,439.27v7.138h-0.921v-7.138H284.409z"/>
			<path fill="#5DB8D9" d="M286.018,446.407v-7.138h1.006l2.287,3.611c0.529,0.837,0.942,1.589,1.281,2.319l0.021-0.011
				c-0.085-0.953-0.106-1.821-0.106-2.934v-2.986h0.868v7.138h-0.932l-2.266-3.622c-0.498-0.794-0.975-1.609-1.334-2.382
				l-0.032,0.01c0.053,0.9,0.074,1.759,0.074,2.944v3.05H286.018z"/>
			<path fill="#5DB8D9" d="M296.384,444.162l-0.741,2.245h-0.953l2.425-7.138h1.112l2.436,7.138h-0.985l-0.763-2.245H296.384z
				 M298.725,443.442l-0.699-2.055c-0.159-0.466-0.265-0.89-0.371-1.303h-0.021c-0.106,0.424-0.222,0.858-0.36,1.292l-0.699,2.065
				H298.725z"/>
			<path fill="#5DB8D9" d="M301.71,439.27h3.844v0.773h-2.923v2.372h2.7v0.763h-2.7v3.229h-0.921V439.27z"/>
			<path fill="#5DB8D9" d="M306.867,439.365c0.466-0.096,1.133-0.148,1.769-0.148c0.985,0,1.62,0.18,2.065,0.582
				c0.36,0.318,0.562,0.806,0.562,1.355c0,0.943-0.593,1.567-1.345,1.822v0.031c0.551,0.19,0.879,0.699,1.048,1.44
				c0.233,0.995,0.402,1.684,0.551,1.959h-0.953c-0.116-0.201-0.275-0.815-0.477-1.705c-0.211-0.984-0.593-1.355-1.43-1.387h-0.868
				v3.092h-0.921V439.365z M307.789,442.616h0.942c0.985,0,1.61-0.54,1.61-1.355c0-0.921-0.667-1.324-1.642-1.334
				c-0.445,0-0.762,0.042-0.911,0.084V442.616z"/>
			<path fill="#5DB8D9" d="M313.485,439.27v7.138h-0.921v-7.138H313.485z"/>
			<path fill="#5DB8D9" d="M320.083,446.174c-0.339,0.17-1.017,0.339-1.885,0.339c-2.012,0-3.526-1.271-3.526-3.61
				c0-2.234,1.514-3.749,3.728-3.749c0.889,0,1.451,0.19,1.694,0.317l-0.223,0.752c-0.349-0.169-0.847-0.296-1.44-0.296
				c-1.673,0-2.785,1.069-2.785,2.943c0,1.747,1.006,2.87,2.743,2.87c0.561,0,1.133-0.116,1.504-0.297L320.083,446.174z"/>
			<path fill="#5DB8D9" d="M322.433,444.162l-0.741,2.245h-0.953l2.425-7.138h1.112l2.436,7.138h-0.985l-0.763-2.245H322.433z
				 M324.773,443.442l-0.699-2.055c-0.159-0.466-0.265-0.89-0.371-1.303h-0.021c-0.106,0.424-0.222,0.858-0.36,1.292l-0.699,2.065
				H324.773z"/>
		</g>
		<g>
			<path fill="#D6DE23" d="M739.763,104.174c-1.202-0.067-2.739,0-4.409,0.268c-9.219,1.536-14.096,8.283-15.098,15.431h0.201
				c2.07-2.739,5.678-5.01,10.487-5.01c7.683,0,13.094,5.545,13.094,14.029c0,7.95-5.411,15.298-14.43,15.298
				c-9.285,0-15.364-7.215-15.364-18.504c0-8.551,3.073-15.298,7.349-19.573c3.606-3.541,8.417-5.745,13.895-6.413
				c1.737-0.267,3.207-0.334,4.275-0.334V104.174z M738.093,129.225c0-6.213-3.541-9.954-8.952-9.954
				c-3.54,0-6.813,2.205-8.417,5.344c-0.4,0.668-0.668,1.537-0.668,2.605c0.134,7.148,3.407,12.425,9.553,12.425
				C734.686,139.646,738.093,135.438,738.093,129.225z"/>
			<path fill="#D6DE23" d="M775.17,104.976h-16.567l-1.67,11.156c1.002-0.134,1.938-0.268,3.541-0.268
				c3.34,0,6.68,0.735,9.352,2.338c3.407,1.937,6.213,5.678,6.213,11.156c0,8.484-6.747,14.83-16.166,14.83
				c-4.743,0-8.751-1.336-10.822-2.672l1.47-4.476c1.804,1.069,5.345,2.405,9.285,2.405c5.545,0,10.288-3.607,10.288-9.419
				c-0.066-5.612-3.808-9.62-12.492-9.62c-2.472,0-4.409,0.267-6.012,0.467l2.806-20.842h20.775V104.976z"/>
			<path fill="#5DB8D9" d="M768.543,125.765c0-2.505-0.05-4.56-0.2-6.564h3.858l0.2,3.908h0.15c1.353-2.305,3.607-4.459,7.616-4.459
				c3.308,0,5.813,2.004,6.865,4.86h0.101c0.751-1.353,1.703-2.405,2.706-3.157c1.453-1.103,3.057-1.704,5.361-1.704
				c3.207,0,7.968,2.104,7.968,10.523v14.281h-4.31v-13.73c0-4.66-1.704-7.466-5.262-7.466c-2.506,0-4.46,1.854-5.211,4.009
				c-0.201,0.601-0.352,1.403-0.352,2.205v14.983h-4.31v-14.532c0-3.858-1.703-6.665-5.061-6.665c-2.756,0-4.761,2.205-5.462,4.41
				c-0.251,0.651-0.351,1.403-0.351,2.155v14.632h-4.31V125.765z"/>
		</g>
		<g>
			<rect x="715.515" y="150.895" fill="none" width="100.385" height="30.695"/>
			<path fill="#5DB8D9" d="M716.319,158.37v-7.137h1.006l2.288,3.611c0.529,0.836,0.942,1.588,1.281,2.319l0.021-0.011
				c-0.084-0.953-0.105-1.821-0.105-2.934v-2.986h0.868v7.137h-0.932l-2.267-3.622c-0.497-0.794-0.974-1.61-1.334-2.383
				l-0.032,0.011c0.054,0.9,0.074,1.758,0.074,2.944v3.05H716.319z"/>
			<path fill="#5DB8D9" d="M724.209,151.233v4.225c0,1.599,0.709,2.277,1.662,2.277c1.059,0,1.736-0.699,1.736-2.277v-4.225h0.933
				v4.162c0,2.192-1.154,3.092-2.701,3.092c-1.461,0-2.563-0.837-2.563-3.05v-4.204H724.209z"/>
			<path fill="#5DB8D9" d="M736.152,155.235c-0.053-0.995-0.116-2.192-0.105-3.082h-0.032c-0.243,0.837-0.54,1.726-0.899,2.711
				l-1.261,3.463h-0.698l-1.154-3.399c-0.339-1.006-0.625-1.928-0.826-2.775h-0.021c-0.021,0.89-0.074,2.086-0.138,3.156
				l-0.19,3.061h-0.879l0.498-7.137h1.175l1.218,3.452c0.297,0.879,0.54,1.663,0.721,2.404h0.031
				c0.181-0.72,0.435-1.504,0.752-2.404l1.271-3.452h1.176l0.444,7.137h-0.899L736.152,155.235z"/>
			<path fill="#5DB8D9" d="M738.651,151.328c0.402-0.085,1.038-0.148,1.684-0.148c0.922,0,1.515,0.159,1.959,0.519
				c0.371,0.275,0.594,0.699,0.594,1.26c0,0.688-0.456,1.292-1.208,1.567v0.021c0.678,0.169,1.473,0.73,1.473,1.79
				c0,0.614-0.244,1.08-0.604,1.43c-0.498,0.455-1.303,0.667-2.468,0.667c-0.636,0-1.122-0.042-1.43-0.084V151.328z
				 M739.573,154.251h0.836c0.975,0,1.546-0.508,1.546-1.197c0-0.836-0.635-1.165-1.567-1.165c-0.423,0-0.667,0.032-0.814,0.063
				V154.251z M739.573,157.671c0.18,0.032,0.444,0.042,0.772,0.042c0.953,0,1.832-0.349,1.832-1.387
				c0-0.974-0.837-1.376-1.843-1.376h-0.762V157.671z"/>
			<path fill="#5DB8D9" d="M748.087,155.024h-2.774v2.573h3.092v0.773h-4.014v-7.137h3.854v0.773h-2.933v2.255h2.774V155.024z"/>
			<path fill="#5DB8D9" d="M749.601,151.328c0.466-0.095,1.133-0.148,1.769-0.148c0.985,0,1.62,0.18,2.065,0.583
				c0.359,0.318,0.561,0.805,0.561,1.355c0,0.942-0.593,1.567-1.345,1.821v0.032c0.551,0.191,0.879,0.699,1.049,1.44
				c0.232,0.995,0.402,1.684,0.551,1.959h-0.953c-0.117-0.201-0.275-0.815-0.477-1.705c-0.212-0.985-0.594-1.355-1.43-1.387h-0.868
				v3.092h-0.922V151.328z M750.522,154.579h0.942c0.984,0,1.609-0.54,1.609-1.355c0-0.921-0.667-1.324-1.642-1.334
				c-0.444,0-0.763,0.042-0.91,0.085V154.579z"/>
			<path fill="#5DB8D9" d="M763.642,154.728c0,2.457-1.493,3.759-3.314,3.759c-1.885,0-3.209-1.461-3.209-3.622
				c0-2.266,1.409-3.749,3.314-3.749C762.382,151.116,763.642,152.609,763.642,154.728z M758.104,154.844
				c0,1.525,0.826,2.891,2.276,2.891c1.462,0,2.287-1.345,2.287-2.965c0-1.419-0.741-2.901-2.276-2.901
				C758.866,151.868,758.104,153.276,758.104,154.844z"/>
			<path fill="#5DB8D9" d="M764.838,151.233h3.844v0.773h-2.922v2.372h2.7v0.762h-2.7v3.23h-0.922V151.233z"/>
			<path fill="#5DB8D9" d="M772.24,151.317c0.445-0.074,1.027-0.138,1.769-0.138c0.911,0,1.578,0.212,2.002,0.593
				c0.392,0.339,0.624,0.857,0.624,1.493c0,0.646-0.19,1.154-0.551,1.525c-0.486,0.519-1.281,0.783-2.181,0.783
				c-0.275,0-0.53-0.01-0.741-0.063v2.859h-0.922V151.317z M773.162,154.759c0.201,0.053,0.455,0.074,0.762,0.074
				c1.112,0,1.79-0.54,1.79-1.525c0-0.942-0.667-1.397-1.684-1.397c-0.402,0-0.71,0.032-0.868,0.074V154.759z"/>
			<path fill="#5DB8D9" d="M781.569,155.024h-2.774v2.573h3.092v0.773h-4.014v-7.137h3.854v0.773h-2.933v2.255h2.774V155.024z"/>
			<path fill="#5DB8D9" d="M789.183,154.728c0,2.457-1.493,3.759-3.314,3.759c-1.885,0-3.209-1.461-3.209-3.622
				c0-2.266,1.409-3.749,3.314-3.749C787.923,151.116,789.183,152.609,789.183,154.728z M783.645,154.844
				c0,1.525,0.826,2.891,2.276,2.891c1.462,0,2.287-1.345,2.287-2.965c0-1.419-0.741-2.901-2.276-2.901
				C784.407,151.868,783.645,153.276,783.645,154.844z"/>
			<path fill="#5DB8D9" d="M790.379,151.317c0.445-0.074,1.027-0.138,1.769-0.138c0.911,0,1.578,0.212,2.002,0.593
				c0.392,0.339,0.624,0.857,0.624,1.493c0,0.646-0.19,1.154-0.551,1.525c-0.486,0.519-1.281,0.783-2.181,0.783
				c-0.275,0-0.53-0.01-0.741-0.063v2.859h-0.922V151.317z M791.301,154.759c0.201,0.053,0.455,0.074,0.762,0.074
				c1.112,0,1.79-0.54,1.79-1.525c0-0.942-0.667-1.397-1.684-1.397c-0.402,0-0.71,0.032-0.868,0.074V154.759z"/>
			<path fill="#5DB8D9" d="M796.012,151.233h0.922v6.364h3.05v0.773h-3.972V151.233z"/>
			<path fill="#5DB8D9" d="M804.706,155.024h-2.774v2.573h3.092v0.773h-4.014v-7.137h3.854v0.773h-2.933v2.255h2.774V155.024z"/>
			<path fill="#5DB8D9" d="M809.249,158.37l-1.811-7.137h0.974l0.848,3.611c0.212,0.89,0.402,1.779,0.529,2.467h0.021
				c0.116-0.709,0.339-1.557,0.582-2.478l0.953-3.6h0.964l0.868,3.622c0.201,0.847,0.392,1.694,0.498,2.446h0.021
				c0.148-0.784,0.35-1.578,0.572-2.468l0.942-3.6h0.942l-2.022,7.137h-0.964l-0.9-3.717c-0.222-0.911-0.37-1.61-0.466-2.33h-0.021
				c-0.128,0.71-0.286,1.409-0.551,2.33l-1.017,3.717H809.249z"/>
			<path fill="#5DB8D9" d="M817.964,151.233v2.986h3.452v-2.986h0.932v7.137h-0.932v-3.346h-3.452v3.346h-0.922v-7.137H817.964z"/>
			<path fill="#5DB8D9" d="M830.046,154.728c0,2.457-1.493,3.759-3.314,3.759c-1.885,0-3.209-1.461-3.209-3.622
				c0-2.266,1.409-3.749,3.314-3.749C828.786,151.116,830.046,152.609,830.046,154.728z M824.508,154.844
				c0,1.525,0.826,2.891,2.276,2.891c1.462,0,2.287-1.345,2.287-2.965c0-1.419-0.741-2.901-2.276-2.901
				C825.271,151.868,824.508,153.276,824.508,154.844z"/>
			<path fill="#5DB8D9" d="M717.241,161.822v2.986h3.452v-2.986h0.932v7.137h-0.932v-3.346h-3.452v3.346h-0.922v-7.137H717.241z"/>
			<path fill="#5DB8D9" d="M724.378,166.714l-0.741,2.245h-0.953l2.425-7.137h1.112l2.436,7.137h-0.985l-0.762-2.245H724.378z
				 M726.719,165.994l-0.699-2.055c-0.159-0.466-0.265-0.89-0.371-1.302h-0.021c-0.106,0.423-0.223,0.857-0.36,1.292l-0.699,2.065
				H726.719z"/>
			<path fill="#5DB8D9" d="M730.71,168.959l-2.33-7.137h0.996l1.111,3.516c0.308,0.963,0.572,1.832,0.763,2.668h0.021
				c0.201-0.826,0.497-1.726,0.815-2.658l1.207-3.526h0.984l-2.552,7.137H730.71z"/>
			<path fill="#5DB8D9" d="M738.747,165.613h-2.774v2.573h3.092v0.773h-4.014v-7.137h3.854v0.773h-2.933v2.255h2.774V165.613z"/>
			<path fill="#5DB8D9" d="M743.66,166.714l-0.741,2.245h-0.953l2.425-7.137h1.112l2.436,7.137h-0.984l-0.763-2.245H743.66z
				 M746.001,165.994l-0.699-2.055c-0.159-0.466-0.265-0.89-0.371-1.302h-0.021c-0.106,0.423-0.223,0.857-0.36,1.292l-0.699,2.065
				H746.001z"/>
			<path fill="#5DB8D9" d="M753.816,168.726c-0.339,0.169-1.017,0.339-1.886,0.339c-2.012,0-3.526-1.271-3.526-3.611
				c0-2.234,1.515-3.749,3.728-3.749c0.89,0,1.451,0.19,1.694,0.318l-0.222,0.751c-0.35-0.169-0.848-0.296-1.44-0.296
				c-1.673,0-2.785,1.07-2.785,2.944c0,1.748,1.006,2.87,2.743,2.87c0.561,0,1.133-0.117,1.503-0.297L753.816,168.726z"/>
			<path fill="#5DB8D9" d="M759.735,168.726c-0.339,0.169-1.017,0.339-1.886,0.339c-2.012,0-3.526-1.271-3.526-3.611
				c0-2.234,1.515-3.749,3.728-3.749c0.89,0,1.451,0.19,1.694,0.318l-0.222,0.751c-0.35-0.169-0.848-0.296-1.44-0.296
				c-1.673,0-2.785,1.07-2.785,2.944c0,1.748,1.006,2.87,2.743,2.87c0.561,0,1.133-0.117,1.503-0.297L759.735,168.726z"/>
			<path fill="#5DB8D9" d="M764.585,165.613h-2.774v2.573h3.092v0.773h-4.014v-7.137h3.854v0.773h-2.933v2.255h2.774V165.613z"/>
			<path fill="#5DB8D9" d="M765.972,167.836c0.413,0.254,1.017,0.466,1.652,0.466c0.942,0,1.493-0.498,1.493-1.218
				c0-0.667-0.382-1.048-1.346-1.419c-1.164-0.413-1.885-1.017-1.885-2.022c0-1.112,0.922-1.938,2.309-1.938
				c0.73,0,1.261,0.169,1.578,0.35l-0.254,0.752c-0.233-0.127-0.71-0.339-1.355-0.339c-0.975,0-1.345,0.582-1.345,1.069
				c0,0.667,0.434,0.996,1.419,1.376c1.207,0.466,1.821,1.048,1.821,2.097c0,1.101-0.815,2.054-2.499,2.054
				c-0.688,0-1.44-0.201-1.822-0.456L765.972,167.836z"/>
			<path fill="#5DB8D9" d="M771.192,167.836c0.413,0.254,1.017,0.466,1.652,0.466c0.942,0,1.493-0.498,1.493-1.218
				c0-0.667-0.382-1.048-1.346-1.419c-1.164-0.413-1.885-1.017-1.885-2.022c0-1.112,0.922-1.938,2.309-1.938
				c0.73,0,1.261,0.169,1.578,0.35l-0.254,0.752c-0.233-0.127-0.71-0.339-1.355-0.339c-0.975,0-1.345,0.582-1.345,1.069
				c0,0.667,0.434,0.996,1.419,1.376c1.207,0.466,1.821,1.048,1.821,2.097c0,1.101-0.815,2.054-2.499,2.054
				c-0.688,0-1.44-0.201-1.822-0.456L771.192,167.836z"/>
			<path fill="#5DB8D9" d="M779.707,162.605h-2.171v-0.784h5.284v0.784h-2.182v6.354h-0.932V162.605z"/>
			<path fill="#5DB8D9" d="M789.428,165.316c0,2.457-1.493,3.759-3.314,3.759c-1.885,0-3.209-1.461-3.209-3.622
				c0-2.266,1.409-3.749,3.314-3.749C788.168,161.705,789.428,163.198,789.428,165.316z M783.89,165.433
				c0,1.525,0.826,2.891,2.276,2.891c1.462,0,2.288-1.345,2.288-2.965c0-1.419-0.742-2.901-2.277-2.901
				C784.652,162.457,783.89,163.865,783.89,165.433z"/>
			<path fill="#D6DE23" d="M792.869,161.906c0.445-0.074,1.027-0.138,1.769-0.138c0.911,0,1.578,0.212,2.002,0.593
				c0.392,0.339,0.624,0.857,0.624,1.493c0,0.646-0.19,1.154-0.551,1.525c-0.486,0.519-1.281,0.783-2.181,0.783
				c-0.275,0-0.53-0.01-0.741-0.063v2.859h-0.922V161.906z M793.791,165.348c0.201,0.053,0.455,0.074,0.762,0.074
				c1.112,0,1.79-0.54,1.79-1.525c0-0.942-0.667-1.397-1.684-1.397c-0.402,0-0.71,0.032-0.868,0.074V165.348z"/>
			<path fill="#D6DE23" d="M802.198,165.613h-2.774v2.573h3.092v0.773h-4.014v-7.137h3.854v0.773h-2.933v2.255h2.774V165.613z"/>
			<path fill="#D6DE23" d="M803.712,161.917c0.466-0.095,1.133-0.148,1.769-0.148c0.985,0,1.62,0.18,2.065,0.583
				c0.359,0.318,0.561,0.805,0.561,1.355c0,0.942-0.593,1.567-1.345,1.821v0.032c0.551,0.191,0.879,0.699,1.049,1.44
				c0.232,0.995,0.402,1.684,0.551,1.959h-0.953c-0.117-0.201-0.275-0.815-0.477-1.705c-0.212-0.985-0.594-1.355-1.43-1.387h-0.868
				v3.092h-0.922V161.917z M804.634,165.168h0.942c0.984,0,1.609-0.54,1.609-1.355c0-0.921-0.667-1.324-1.642-1.334
				c-0.444,0-0.763,0.042-0.91,0.085V165.168z"/>
			<path fill="#D6DE23" d="M809.281,167.836c0.413,0.254,1.017,0.466,1.652,0.466c0.942,0,1.493-0.498,1.493-1.218
				c0-0.667-0.382-1.048-1.346-1.419c-1.164-0.413-1.885-1.017-1.885-2.022c0-1.112,0.922-1.938,2.309-1.938
				c0.73,0,1.261,0.169,1.578,0.35l-0.254,0.752c-0.233-0.127-0.71-0.339-1.355-0.339c-0.975,0-1.346,0.582-1.346,1.069
				c0,0.667,0.435,0.996,1.42,1.376c1.207,0.466,1.821,1.048,1.821,2.097c0,1.101-0.815,2.054-2.499,2.054
				c-0.688,0-1.44-0.201-1.822-0.456L809.281,167.836z"/>
			<path fill="#D6DE23" d="M820.729,165.316c0,2.457-1.493,3.759-3.314,3.759c-1.885,0-3.209-1.461-3.209-3.622
				c0-2.266,1.409-3.749,3.314-3.749C819.469,161.705,820.729,163.198,820.729,165.316z M815.19,165.433
				c0,1.525,0.826,2.891,2.276,2.891c1.462,0,2.288-1.345,2.288-2.965c0-1.419-0.742-2.901-2.277-2.901
				C815.953,162.457,815.19,163.865,815.19,165.433z"/>
			<path fill="#D6DE23" d="M821.925,168.959v-7.137h1.006l2.288,3.611c0.529,0.836,0.942,1.588,1.281,2.319l0.021-0.011
				c-0.084-0.953-0.105-1.821-0.105-2.934v-2.986h0.868v7.137h-0.932l-2.267-3.622c-0.497-0.794-0.974-1.61-1.334-2.383
				l-0.032,0.011c0.054,0.9,0.074,1.758,0.074,2.944v3.05H821.925z"/>
			<path fill="#D6DE23" d="M830.047,166.714l-0.741,2.245h-0.953l2.425-7.137h1.112l2.436,7.137h-0.984l-0.763-2.245H830.047z
				 M832.388,165.994l-0.699-2.055c-0.159-0.466-0.265-0.89-0.371-1.302h-0.021c-0.106,0.423-0.223,0.857-0.36,1.292l-0.699,2.065
				H832.388z"/>
			<path fill="#D6DE23" d="M835.373,161.822h0.922v6.364h3.05v0.773h-3.972V161.822z"/>
			<path fill="#D6DE23" d="M721.308,179.315c-0.339,0.169-1.017,0.339-1.886,0.339c-2.012,0-3.526-1.271-3.526-3.611
				c0-2.234,1.515-3.749,3.728-3.749c0.89,0,1.451,0.19,1.694,0.318l-0.222,0.751c-0.35-0.169-0.848-0.296-1.44-0.296
				c-1.673,0-2.785,1.07-2.785,2.944c0,1.748,1.006,2.87,2.743,2.87c0.561,0,1.133-0.117,1.503-0.297L721.308,179.315z"/>
			<path fill="#D6DE23" d="M728.338,175.905c0,2.457-1.493,3.759-3.314,3.759c-1.885,0-3.209-1.461-3.209-3.622
				c0-2.266,1.409-3.749,3.314-3.749C727.078,172.294,728.338,173.787,728.338,175.905z M722.8,176.021
				c0,1.525,0.826,2.891,2.276,2.891c1.462,0,2.288-1.345,2.288-2.965c0-1.419-0.742-2.901-2.277-2.901
				C723.563,173.046,722.8,174.454,722.8,176.021z"/>
			<path fill="#D6DE23" d="M735.549,176.413c-0.053-0.995-0.116-2.192-0.105-3.082h-0.032c-0.243,0.837-0.54,1.726-0.899,2.711
				l-1.261,3.463h-0.698l-1.154-3.399c-0.339-1.006-0.625-1.928-0.826-2.775h-0.021c-0.021,0.89-0.074,2.086-0.138,3.156
				l-0.19,3.061h-0.879l0.498-7.137h1.175l1.218,3.452c0.297,0.879,0.54,1.663,0.721,2.404h0.031
				c0.181-0.72,0.435-1.504,0.752-2.404l1.271-3.452h1.176l0.444,7.137h-0.899L735.549,176.413z"/>
			<path fill="#D6DE23" d="M738.048,172.495c0.445-0.074,1.027-0.138,1.769-0.138c0.911,0,1.578,0.212,2.001,0.593
				c0.393,0.339,0.625,0.857,0.625,1.493c0,0.646-0.19,1.154-0.551,1.525c-0.486,0.519-1.281,0.783-2.181,0.783
				c-0.275,0-0.53-0.01-0.741-0.063v2.859h-0.922V172.495z M738.97,175.937c0.201,0.053,0.455,0.074,0.762,0.074
				c1.112,0,1.79-0.54,1.79-1.525c0-0.942-0.667-1.397-1.684-1.397c-0.402,0-0.71,0.032-0.868,0.074V175.937z"/>
			<path fill="#D6DE23" d="M744.603,172.411v4.225c0,1.599,0.709,2.277,1.662,2.277c1.059,0,1.736-0.699,1.736-2.277v-4.225h0.933
				v4.162c0,2.192-1.154,3.092-2.701,3.092c-1.461,0-2.563-0.837-2.563-3.05v-4.204H744.603z"/>
			<path fill="#D6DE23" d="M751.887,173.194h-2.171v-0.784H755v0.784h-2.182v6.354h-0.932V173.194z"/>
			<path fill="#D6DE23" d="M759.49,176.202h-2.774v2.573h3.092v0.773h-4.014v-7.137h3.854v0.773h-2.933v2.255h2.774V176.202z"/>
			<path fill="#D6DE23" d="M761.004,172.506c0.466-0.095,1.133-0.148,1.769-0.148c0.984,0,1.62,0.18,2.065,0.583
				c0.359,0.318,0.561,0.805,0.561,1.355c0,0.942-0.593,1.567-1.345,1.821v0.032c0.551,0.191,0.879,0.699,1.049,1.44
				c0.232,0.995,0.402,1.684,0.551,1.959H764.7c-0.117-0.201-0.275-0.815-0.477-1.705c-0.212-0.985-0.594-1.355-1.43-1.387h-0.868
				v3.092h-0.922V172.506z M761.926,175.757h0.942c0.984,0,1.609-0.54,1.609-1.355c0-0.921-0.667-1.324-1.642-1.334
				c-0.444,0-0.763,0.042-0.91,0.085V175.757z"/>
			<path fill="#D6DE23" d="M766.573,178.425c0.413,0.254,1.017,0.466,1.652,0.466c0.942,0,1.493-0.498,1.493-1.218
				c0-0.667-0.382-1.048-1.346-1.419c-1.164-0.413-1.885-1.017-1.885-2.022c0-1.112,0.922-1.938,2.309-1.938
				c0.73,0,1.261,0.169,1.578,0.35l-0.254,0.752c-0.233-0.127-0.71-0.339-1.355-0.339c-0.975,0-1.345,0.582-1.345,1.069
				c0,0.667,0.434,0.996,1.419,1.376c1.207,0.466,1.821,1.048,1.821,2.097c0,1.101-0.815,2.054-2.499,2.054
				c-0.688,0-1.44-0.201-1.822-0.456L766.573,178.425z"/>
			<path fill="#5DB8D9" d="M775.088,172.411v7.137h-0.922v-7.137H775.088z"/>
			<path fill="#5DB8D9" d="M776.696,179.548v-7.137h1.006l2.288,3.611c0.529,0.836,0.942,1.588,1.281,2.319l0.021-0.011
				c-0.084-0.953-0.105-1.821-0.105-2.934v-2.986h0.868v7.137h-0.932l-2.267-3.622c-0.497-0.794-0.974-1.61-1.334-2.383
				l-0.032,0.011c0.054,0.9,0.074,1.758,0.074,2.944v3.05H776.696z"/>
			<path fill="#5DB8D9" d="M787.063,177.303l-0.741,2.245h-0.953l2.425-7.137h1.112l2.436,7.137h-0.985l-0.762-2.245H787.063z
				 M789.404,176.583l-0.699-2.055c-0.159-0.466-0.265-0.89-0.371-1.302h-0.021c-0.106,0.423-0.223,0.857-0.36,1.292l-0.699,2.065
				H789.404z"/>
			<path fill="#5DB8D9" d="M792.39,172.411h3.844v0.773h-2.922v2.372h2.7v0.762h-2.7v3.23h-0.922V172.411z"/>
			<path fill="#5DB8D9" d="M797.546,172.506c0.466-0.095,1.133-0.148,1.769-0.148c0.985,0,1.62,0.18,2.065,0.583
				c0.359,0.318,0.561,0.805,0.561,1.355c0,0.942-0.593,1.567-1.345,1.821v0.032c0.551,0.191,0.879,0.699,1.049,1.44
				c0.232,0.995,0.402,1.684,0.551,1.959h-0.953c-0.117-0.201-0.275-0.815-0.477-1.705c-0.212-0.985-0.594-1.355-1.43-1.387h-0.868
				v3.092h-0.922V172.506z M798.468,175.757h0.942c0.984,0,1.609-0.54,1.609-1.355c0-0.921-0.667-1.324-1.642-1.334
				c-0.444,0-0.763,0.042-0.91,0.085V175.757z"/>
			<path fill="#5DB8D9" d="M804.164,172.411v7.137h-0.922v-7.137H804.164z"/>
			<path fill="#5DB8D9" d="M810.761,179.315c-0.339,0.169-1.017,0.339-1.886,0.339c-2.012,0-3.526-1.271-3.526-3.611
				c0-2.234,1.515-3.749,3.728-3.749c0.89,0,1.451,0.19,1.694,0.318l-0.222,0.751c-0.35-0.169-0.848-0.296-1.44-0.296
				c-1.673,0-2.785,1.07-2.785,2.944c0,1.748,1.006,2.87,2.743,2.87c0.561,0,1.133-0.117,1.503-0.297L810.761,179.315z"/>
			<path fill="#5DB8D9" d="M813.111,177.303l-0.741,2.245h-0.953l2.425-7.137h1.112l2.436,7.137h-0.984l-0.763-2.245H813.111z
				 M815.452,176.583l-0.699-2.055c-0.159-0.466-0.265-0.89-0.371-1.302h-0.021c-0.106,0.423-0.223,0.857-0.36,1.292l-0.699,2.065
				H815.452z"/>
		</g>
		<g>
			<path fill="#D6DE23" d="M928.165,407.201h-0.1l-5.648,3.049l-0.85-3.35l7.098-3.799h3.749v32.492h-4.249V407.201z"/>
			<path fill="#D6DE23" d="M944.608,432.994c0-1.85,1.249-3.149,2.999-3.149s2.949,1.3,2.949,3.149c0,1.8-1.149,3.149-2.999,3.149
				C945.808,436.144,944.608,434.794,944.608,432.994z"/>
			<path fill="#D6DE23" d="M973.999,406.801h-12.396l-1.25,8.348c0.75-0.1,1.449-0.199,2.649-0.199c2.499,0,4.999,0.55,6.998,1.749
				c2.55,1.45,4.649,4.249,4.649,8.348c0,6.349-5.049,11.098-12.098,11.098c-3.549,0-6.548-1-8.098-1.999l1.1-3.35
				c1.35,0.8,3.999,1.8,6.948,1.8c4.149,0,7.698-2.699,7.698-7.049c-0.05-4.198-2.85-7.198-9.348-7.198
				c-1.85,0-3.299,0.2-4.499,0.351l2.1-15.597h15.546V406.801z"/>
			<path fill="#5DB8D9" d="M967.987,422.359c0-1.874-0.038-3.411-0.15-4.911h2.887l0.15,2.924h0.112
				c1.012-1.725,2.699-3.336,5.698-3.336c2.475,0,4.349,1.499,5.137,3.637h0.074c0.563-1.013,1.275-1.8,2.025-2.362
				c1.087-0.825,2.286-1.274,4.011-1.274c2.399,0,5.961,1.574,5.961,7.873v10.685h-3.224v-10.272c0-3.486-1.274-5.586-3.937-5.586
				c-1.875,0-3.337,1.387-3.899,2.999c-0.149,0.45-0.263,1.05-0.263,1.649v11.21h-3.224v-10.872c0-2.887-1.274-4.986-3.787-4.986
				c-2.062,0-3.562,1.649-4.086,3.299c-0.188,0.487-0.263,1.05-0.263,1.612v10.947h-3.224V422.359z"/>
		</g>
		<g>
			<rect x="925.859" y="441.418" fill="none" width="73.194" height="30.698"/>
			<path fill="#5DB8D9" d="M926.664,448.894v-7.138h1.006l2.288,3.611c0.529,0.837,0.942,1.589,1.281,2.319l0.021-0.011
				c-0.084-0.953-0.105-1.821-0.105-2.934v-2.986h0.868v7.138h-0.932l-2.267-3.622c-0.497-0.794-0.974-1.609-1.334-2.382
				l-0.032,0.01c0.054,0.9,0.074,1.759,0.074,2.944v3.05H926.664z"/>
			<path fill="#5DB8D9" d="M934.554,441.756v4.226c0,1.599,0.709,2.276,1.662,2.276c1.059,0,1.736-0.698,1.736-2.276v-4.226h0.933
				v4.162c0,2.192-1.154,3.092-2.701,3.092c-1.461,0-2.563-0.836-2.563-3.05v-4.204H934.554z"/>
			<path fill="#5DB8D9" d="M946.497,445.759c-0.053-0.995-0.116-2.191-0.105-3.081h-0.032c-0.243,0.836-0.54,1.726-0.899,2.711
				l-1.261,3.463h-0.698l-1.154-3.399c-0.339-1.006-0.625-1.928-0.826-2.774h-0.021c-0.021,0.89-0.074,2.086-0.138,3.155
				l-0.19,3.061h-0.879l0.498-7.138h1.175l1.218,3.452c0.297,0.879,0.54,1.663,0.721,2.404h0.031
				c0.181-0.72,0.435-1.504,0.752-2.404l1.271-3.452h1.176l0.444,7.138h-0.899L946.497,445.759z"/>
			<path fill="#5DB8D9" d="M948.996,441.852c0.402-0.085,1.038-0.148,1.684-0.148c0.922,0,1.515,0.159,1.959,0.519
				c0.371,0.275,0.594,0.699,0.594,1.261c0,0.688-0.456,1.292-1.208,1.567v0.021c0.678,0.17,1.473,0.731,1.473,1.79
				c0,0.614-0.244,1.08-0.604,1.43c-0.498,0.455-1.303,0.667-2.468,0.667c-0.636,0-1.122-0.042-1.43-0.085V441.852z
				 M949.918,444.774h0.836c0.975,0,1.546-0.509,1.546-1.197c0-0.836-0.635-1.164-1.566-1.164c-0.424,0-0.668,0.031-0.815,0.063
				V444.774z M949.918,448.194c0.18,0.032,0.444,0.043,0.772,0.043c0.953,0,1.832-0.35,1.832-1.388c0-0.974-0.837-1.377-1.843-1.377
				h-0.762V448.194z"/>
			<path fill="#5DB8D9" d="M958.432,445.547h-2.774v2.573h3.092v0.773h-4.014v-7.138h3.854v0.773h-2.933v2.256h2.774V445.547z"/>
			<path fill="#5DB8D9" d="M959.945,441.852c0.466-0.096,1.133-0.148,1.769-0.148c0.984,0,1.62,0.18,2.065,0.582
				c0.359,0.318,0.561,0.806,0.561,1.355c0,0.943-0.593,1.567-1.345,1.822v0.031c0.551,0.19,0.879,0.699,1.049,1.44
				c0.232,0.995,0.402,1.684,0.551,1.959h-0.953c-0.117-0.201-0.275-0.815-0.477-1.705c-0.212-0.984-0.594-1.355-1.43-1.387h-0.868
				v3.092h-0.922V441.852z M960.867,445.103h0.942c0.984,0,1.609-0.54,1.609-1.355c0-0.921-0.667-1.324-1.642-1.334
				c-0.444,0-0.763,0.042-0.91,0.084V445.103z"/>
			<path fill="#5DB8D9" d="M973.986,445.251c0,2.456-1.493,3.759-3.314,3.759c-1.885,0-3.209-1.461-3.209-3.621
				c0-2.267,1.409-3.749,3.314-3.749C972.727,441.64,973.986,443.133,973.986,445.251z M968.448,445.367
				c0,1.525,0.826,2.891,2.276,2.891c1.462,0,2.288-1.345,2.288-2.965c0-1.419-0.742-2.901-2.277-2.901
				C969.211,442.392,968.448,443.8,968.448,445.367z"/>
			<path fill="#5DB8D9" d="M975.183,441.756h3.844v0.773h-2.922v2.372h2.7v0.763h-2.7v3.229h-0.922V441.756z"/>
			<path fill="#5DB8D9" d="M983.506,442.54h-2.171v-0.784h5.284v0.784h-2.182v6.354h-0.932V442.54z"/>
			<path fill="#5DB8D9" d="M987.772,446.648l-0.741,2.245h-0.953l2.425-7.138h1.112l2.436,7.138h-0.985l-0.762-2.245H987.772z
				 M990.113,445.929l-0.699-2.055c-0.159-0.466-0.265-0.89-0.371-1.303h-0.021c-0.106,0.424-0.223,0.858-0.36,1.292l-0.699,2.065
				H990.113z"/>
			<path fill="#5DB8D9" d="M993.099,441.852c0.402-0.085,1.038-0.148,1.684-0.148c0.922,0,1.515,0.159,1.959,0.519
				c0.371,0.275,0.594,0.699,0.594,1.261c0,0.688-0.456,1.292-1.208,1.567v0.021c0.678,0.17,1.473,0.731,1.473,1.79
				c0,0.614-0.244,1.08-0.604,1.43c-0.498,0.455-1.303,0.667-2.468,0.667c-0.636,0-1.122-0.042-1.43-0.085V441.852z
				 M994.021,444.774h0.836c0.975,0,1.546-0.509,1.546-1.197c0-0.836-0.635-1.164-1.567-1.164c-0.423,0-0.667,0.031-0.814,0.063
				V444.774z M994.021,448.194c0.18,0.032,0.444,0.043,0.772,0.043c0.953,0,1.832-0.35,1.832-1.388c0-0.974-0.837-1.377-1.843-1.377
				h-0.762V448.194z"/>
			<path fill="#5DB8D9" d="M998.838,441.756h0.922v6.364h3.05v0.773h-3.972V441.756z"/>
			<path fill="#5DB8D9" d="M1007.532,445.547h-2.774v2.573h3.092v0.773h-4.014v-7.138h3.854v0.773h-2.933v2.256h2.774V445.547z"/>
			<path fill="#5DB8D9" d="M1010.571,442.54h-2.171v-0.784h5.284v0.784h-2.182v6.354h-0.932V442.54z"/>
			<path fill="#5DB8D9" d="M1014.288,447.771c0.413,0.254,1.017,0.466,1.652,0.466c0.942,0,1.493-0.498,1.493-1.218
				c0-0.668-0.382-1.049-1.346-1.419c-1.164-0.413-1.885-1.017-1.885-2.023c0-1.111,0.922-1.938,2.309-1.938
				c0.73,0,1.261,0.17,1.578,0.35l-0.254,0.752c-0.233-0.127-0.71-0.339-1.355-0.339c-0.975,0-1.345,0.582-1.345,1.069
				c0,0.667,0.434,0.995,1.419,1.377c1.207,0.466,1.821,1.048,1.821,2.097c0,1.102-0.815,2.054-2.499,2.054
				c-0.688,0-1.44-0.201-1.822-0.455L1014.288,447.771z"/>
			<path fill="#5DB8D9" d="M926.664,452.43c0.445-0.074,1.027-0.138,1.769-0.138c0.911,0,1.578,0.212,2.002,0.593
				c0.392,0.339,0.624,0.858,0.624,1.493c0,0.646-0.19,1.154-0.551,1.525c-0.486,0.519-1.281,0.783-2.181,0.783
				c-0.275,0-0.53-0.011-0.741-0.063v2.859h-0.922V452.43z M927.586,455.871c0.201,0.053,0.455,0.074,0.762,0.074
				c1.112,0,1.79-0.54,1.79-1.524c0-0.942-0.667-1.398-1.684-1.398c-0.402,0-0.71,0.032-0.868,0.074V455.871z"/>
			<path fill="#5DB8D9" d="M933.219,452.345v4.226c0,1.599,0.709,2.276,1.662,2.276c1.059,0,1.736-0.698,1.736-2.276v-4.226h0.933
				v4.162c0,2.192-1.154,3.092-2.701,3.092c-1.461,0-2.563-0.836-2.563-3.05v-4.204H933.219z"/>
			<path fill="#5DB8D9" d="M939.147,452.44c0.466-0.096,1.133-0.148,1.769-0.148c0.985,0,1.62,0.18,2.065,0.583
				c0.359,0.317,0.561,0.805,0.561,1.355c0,0.942-0.593,1.566-1.345,1.821v0.031c0.551,0.19,0.879,0.699,1.049,1.44
				c0.232,0.995,0.402,1.684,0.551,1.959h-0.953c-0.117-0.201-0.275-0.815-0.477-1.705c-0.212-0.984-0.594-1.355-1.43-1.387h-0.868
				v3.092h-0.922V452.44z M940.069,455.691h0.942c0.984,0,1.609-0.54,1.609-1.355c0-0.921-0.667-1.324-1.642-1.334
				c-0.444,0-0.763,0.042-0.91,0.084V455.691z"/>
			<path fill="#5DB8D9" d="M949.863,459.249c-0.339,0.17-1.017,0.339-1.886,0.339c-2.012,0-3.526-1.271-3.526-3.61
				c0-2.234,1.515-3.749,3.728-3.749c0.89,0,1.451,0.19,1.694,0.317l-0.222,0.752c-0.35-0.169-0.848-0.296-1.44-0.296
				c-1.673,0-2.785,1.069-2.785,2.943c0,1.747,1.006,2.87,2.743,2.87c0.561,0,1.133-0.116,1.503-0.297L949.863,459.249z"/>
			<path fill="#5DB8D9" d="M951.938,452.345v2.986h3.452v-2.986h0.932v7.138h-0.932v-3.347h-3.452v3.347h-0.922v-7.138H951.938z"/>
			<path fill="#5DB8D9" d="M959.075,457.237l-0.741,2.245h-0.953l2.425-7.138h1.112l2.436,7.138h-0.985l-0.762-2.245H959.075z
				 M961.416,456.518l-0.699-2.055c-0.159-0.466-0.265-0.89-0.371-1.303h-0.021c-0.106,0.424-0.223,0.858-0.36,1.292l-0.699,2.065
				H961.416z"/>
			<path fill="#5DB8D9" d="M964.274,458.36c0.413,0.254,1.017,0.466,1.652,0.466c0.942,0,1.493-0.498,1.493-1.218
				c0-0.667-0.382-1.049-1.346-1.419c-1.164-0.413-1.885-1.017-1.885-2.023c0-1.111,0.922-1.938,2.309-1.938
				c0.73,0,1.261,0.17,1.578,0.35l-0.254,0.752c-0.233-0.127-0.71-0.339-1.355-0.339c-0.975,0-1.345,0.582-1.345,1.069
				c0,0.667,0.434,0.995,1.419,1.377c1.207,0.466,1.821,1.048,1.821,2.097c0,1.101-0.815,2.054-2.499,2.054
				c-0.688,0-1.44-0.201-1.822-0.455L964.274,458.36z"/>
			<path fill="#5DB8D9" d="M973.318,456.136h-2.774v2.573h3.092v0.773h-4.014v-7.138h3.854v0.773h-2.933v2.256h2.774V456.136z"/>
			<path fill="#5DB8D9" d="M974.832,452.44c0.562-0.085,1.229-0.148,1.959-0.148c1.324,0,2.267,0.308,2.892,0.89
				c0.635,0.582,1.006,1.408,1.006,2.563c0,1.165-0.36,2.118-1.027,2.774c-0.667,0.667-1.769,1.027-3.156,1.027
				c-0.656,0-1.207-0.031-1.673-0.085V452.44z M975.754,458.752c0.232,0.042,0.571,0.053,0.932,0.053
				c1.97,0,3.039-1.102,3.039-3.028c0.011-1.684-0.942-2.754-2.891-2.754c-0.477,0-0.837,0.043-1.08,0.096V458.752z"/>
			<path fill="#5DB8D9" d="M985.051,452.345v7.138h-0.922v-7.138H985.051z"/>
			<path fill="#5DB8D9" d="M986.659,459.482v-7.138h1.006l2.288,3.611c0.529,0.837,0.942,1.589,1.281,2.319l0.021-0.011
				c-0.084-0.953-0.105-1.821-0.105-2.934v-2.986h0.868v7.138h-0.932l-2.267-3.622c-0.497-0.794-0.974-1.609-1.334-2.382
				l-0.032,0.01c0.054,0.9,0.074,1.758,0.074,2.944v3.05H986.659z"/>
			<path fill="#5DB8D9" d="M927.818,467.826l-0.741,2.245h-0.953l2.425-7.138h1.112l2.436,7.138h-0.984l-0.763-2.245H927.818z
				 M930.159,467.106l-0.699-2.055c-0.159-0.466-0.265-0.89-0.371-1.303h-0.021c-0.106,0.424-0.223,0.858-0.36,1.292l-0.699,2.065
				H930.159z"/>
			<path fill="#5DB8D9" d="M933.145,462.934h3.844v0.773h-2.922v2.372h2.7v0.763h-2.7v3.229h-0.922V462.934z"/>
			<path fill="#5DB8D9" d="M938.302,463.029c0.466-0.096,1.133-0.148,1.769-0.148c0.985,0,1.62,0.18,2.065,0.582
				c0.359,0.318,0.561,0.806,0.561,1.355c0,0.943-0.593,1.567-1.345,1.822v0.031c0.551,0.19,0.879,0.699,1.049,1.44
				c0.232,0.995,0.402,1.684,0.551,1.959h-0.953c-0.117-0.201-0.275-0.815-0.477-1.705c-0.212-0.984-0.594-1.355-1.43-1.387h-0.868
				v3.092h-0.922V463.029z M939.224,466.28h0.942c0.984,0,1.609-0.54,1.609-1.355c0-0.921-0.667-1.324-1.642-1.334
				c-0.444,0-0.763,0.042-0.91,0.084V466.28z"/>
			<path fill="#5DB8D9" d="M944.92,462.934v7.138h-0.922v-7.138H944.92z"/>
			<path fill="#5DB8D9" d="M951.517,469.838c-0.339,0.17-1.017,0.339-1.886,0.339c-2.012,0-3.526-1.271-3.526-3.61
				c0-2.234,1.515-3.749,3.728-3.749c0.89,0,1.451,0.19,1.694,0.317l-0.222,0.752c-0.35-0.169-0.848-0.296-1.44-0.296
				c-1.673,0-2.785,1.069-2.785,2.943c0,1.747,1.006,2.87,2.743,2.87c0.561,0,1.133-0.116,1.503-0.297L951.517,469.838z"/>
			<path fill="#5DB8D9" d="M953.866,467.826l-0.741,2.245h-0.953l2.425-7.138h1.112l2.436,7.138h-0.985l-0.762-2.245H953.866z
				 M956.207,467.106l-0.699-2.055c-0.159-0.466-0.265-0.89-0.371-1.303h-0.021c-0.106,0.424-0.223,0.858-0.36,1.292l-0.699,2.065
				H956.207z"/>
			<path fill="#5DB8D9" d="M961.438,463.029c0.402-0.085,1.038-0.148,1.684-0.148c0.922,0,1.515,0.159,1.959,0.519
				c0.371,0.275,0.594,0.699,0.594,1.261c0,0.688-0.456,1.292-1.208,1.567v0.021c0.678,0.17,1.473,0.731,1.473,1.79
				c0,0.614-0.244,1.08-0.604,1.43c-0.498,0.455-1.303,0.667-2.468,0.667c-0.636,0-1.122-0.042-1.43-0.085V463.029z
				 M962.359,465.952h0.836c0.975,0,1.546-0.509,1.546-1.197c0-0.836-0.635-1.164-1.566-1.164c-0.424,0-0.668,0.031-0.815,0.063
				V465.952z M962.359,469.372c0.18,0.032,0.444,0.043,0.772,0.043c0.953,0,1.832-0.35,1.832-1.388c0-0.974-0.837-1.377-1.843-1.377
				h-0.762V469.372z"/>
			<path fill="#5DB8D9" d="M968.607,470.071v-3.028l-2.256-4.109h1.048l1.007,1.97c0.275,0.54,0.486,0.975,0.709,1.473h0.021
				c0.201-0.467,0.444-0.933,0.72-1.473l1.027-1.97h1.049l-2.394,4.099v3.039H968.607z"/>
			<path fill="#5DB8D9" d="M974.664,470.071v-0.572l0.73-0.709c1.758-1.673,2.553-2.563,2.563-3.601
				c0-0.699-0.339-1.345-1.365-1.345c-0.625,0-1.145,0.317-1.462,0.582l-0.297-0.656c0.477-0.402,1.154-0.699,1.949-0.699
				c1.482,0,2.107,1.017,2.107,2.002c0,1.271-0.922,2.298-2.372,3.695l-0.551,0.509v0.021h3.092v0.773H974.664z"/>
			<path fill="#5DB8D9" d="M984.67,466.556c0,2.34-0.868,3.632-2.393,3.632c-1.345,0-2.256-1.26-2.277-3.537
				c0-2.308,0.996-3.579,2.394-3.579C983.845,463.071,984.67,464.363,984.67,466.556z M980.933,466.661
				c0,1.79,0.551,2.807,1.397,2.807c0.953,0,1.408-1.112,1.408-2.87c0-1.694-0.434-2.806-1.397-2.806
				C981.525,463.792,980.933,464.787,980.933,466.661z"/>
			<path fill="#5DB8D9" d="M987.55,464.057h-0.021l-1.196,0.646l-0.18-0.709l1.504-0.805h0.794v6.883h-0.9V464.057z"/>
			<path fill="#5DB8D9" d="M991.182,469.002c0.265,0.169,0.879,0.434,1.524,0.434c1.197,0,1.567-0.762,1.557-1.334
				c-0.011-0.964-0.879-1.377-1.779-1.377h-0.519v-0.698h0.519c0.678,0,1.536-0.35,1.536-1.165c0-0.551-0.35-1.038-1.207-1.038
				c-0.551,0-1.08,0.244-1.377,0.455l-0.243-0.678c0.359-0.265,1.059-0.529,1.8-0.529c1.355,0,1.97,0.805,1.97,1.642
				c0,0.71-0.424,1.313-1.271,1.62v0.021c0.847,0.169,1.535,0.805,1.535,1.769c0,1.102-0.857,2.064-2.51,2.064
				c-0.773,0-1.451-0.243-1.79-0.466L991.182,469.002z"/>
		</g>
	</g>
	<g>
	</g>
	<g>
	</g>
	<g>
	</g>
	<g>
	</g>
	<g>
	</g>
	<g>
	</g>
	<g>
	</g>
	<g>
	</g>
	<g>
	</g>
	<g>
	</g>
	<g>
	</g>
	<g>
	</g>
	<g>
	</g>
	<g>
	</g>
	<g>
	</g>
	<g>
	</g>
</g>
</svg>
