<?xml version="1.0" encoding="utf-8"?>
<!-- Generator: Adobe Illustrator 16.0.0, SVG Export Plug-In . SVG Version: 6.00 Build 0)  -->
<!DOCTYPE svg PUBLIC "-//W3C//DTD SVG 1.1//EN" "http://www.w3.org/Graphics/SVG/1.1/DTD/svg11.dtd">
<svg version="1.1" id="Layer_1" xmlns="http://www.w3.org/2000/svg" xmlns:xlink="http://www.w3.org/1999/xlink" x="0px" y="0px"
	 width="141.689px" height="81.985px" viewBox="0 0 141.689 81.985" enable-background="new 0 0 141.689 81.985"
	 xml:space="preserve">
<g>
	<linearGradient id="SVGID_1_" gradientUnits="userSpaceOnUse" x1="3.9419" y1="84.0093" x2="85.1096" y2="30.9149">
		<stop  offset="0" style="stop-color:#FFFFFF"/>
		<stop  offset="0.6344" style="stop-color:#FFFFFF;stop-opacity:0.0376"/>
		<stop  offset="1" style="stop-color:#FFFFFF;stop-opacity:0.2"/>
	</linearGradient>
	<path fill="url(#SVGID_1_)" d="M97.361,2.171H12.473c-4.088,0-7.402,3.313-7.402,7.402v61.291c0,2.584,1.325,4.854,3.33,6.18
		h124.978c2.005-1.326,3.329-3.596,3.329-6.18V50.852L97.361,2.171z"/>
	<linearGradient id="SVGID_2_" gradientUnits="userSpaceOnUse" x1="106.791" y1="40.1543" x2="119.6067" y2="29.1695">
		<stop  offset="0" style="stop-color:#FFFFFF"/>
		<stop  offset="0.6344" style="stop-color:#FFFFFF;stop-opacity:0.0376"/>
		<stop  offset="1" style="stop-color:#FFFFFF;stop-opacity:0.2"/>
	</linearGradient>
	<path fill="url(#SVGID_2_)" d="M141.689,57.016c-16.484-17.813-53.177-22.334-53.177-22.334c20.474-14.091,8.51-32.93,8.51-32.93
		L141.689,57.016z"/>
	<g>
		<path fill="#48768D" d="M58.345,52.84c6.677-2.768,5.827-6.031,5.827-6.031c3.789-6.388-5.935-11.206-13.931-13.469
			c-9.774-2.765-8.929-7.214-8.396-8.586C36.176,36.515,51.739,55.583,58.345,52.84z"/>
		<path fill="#48768D" d="M41.845,24.754c0.067-0.139,0.123-0.28,0.195-0.417C42.04,24.337,41.948,24.488,41.845,24.754z"/>
		<path fill="#48768D" d="M131.369,2.02H7.323C3.279,2.02,0,5.299,0,9.343v65.318c0,4.045,3.279,7.324,7.323,7.324h124.046
			c4.045,0,7.324-3.279,7.324-7.324V9.343C138.693,5.299,135.414,2.02,131.369,2.02z M133.198,77.647H108.5L95.48,67.083
			L66.6,47.877l-4.634,5.715L86.04,77.647H5.496V6.357h127.702V77.647z"/>
	</g>
	<g>
		<path fill="#FFFFFF" d="M60.023,50.821c6.677-2.768,5.827-6.031,5.827-6.031c3.79-6.388-5.935-11.206-13.931-13.469
			c-9.774-2.765-8.928-7.214-8.396-8.586C37.854,34.495,53.418,53.563,60.023,50.821z"/>
		<path fill="#FFFFFF" d="M43.523,22.734c0.067-0.139,0.123-0.28,0.195-0.417C43.719,22.317,43.628,22.469,43.523,22.734z"/>
		<path fill="#FFFFFF" d="M133.049,0H9.002C4.958,0,1.679,3.279,1.679,7.323v65.318c0,4.045,3.279,7.324,7.323,7.324h124.047
			c4.044,0,7.323-3.279,7.323-7.324V7.323C140.372,3.279,137.093,0,133.049,0z M134.877,75.627h-24.698l-13.02-10.564L68.278,45.858
			l-4.634,5.715l24.074,24.055H7.175V4.338h127.702V75.627z"/>
	</g>
</g>
</svg>
