<?xml version="1.0" encoding="utf-8"?>
<!-- Generator: Adobe Illustrator 16.0.0, SVG Export Plug-In . SVG Version: 6.00 Build 0)  -->
<!DOCTYPE svg PUBLIC "-//W3C//DTD SVG 1.1//EN" "http://www.w3.org/Graphics/SVG/1.1/DTD/svg11.dtd">
<svg version="1.1" id="Layer_1" xmlns="http://www.w3.org/2000/svg" xmlns:xlink="http://www.w3.org/1999/xlink" x="0px" y="0px"
	 width="69.937px" height="68.936px" viewBox="0 0 69.937 68.936" enable-background="new 0 0 69.937 68.936" xml:space="preserve">
<g>
	<g>
		<path fill="#48768D" d="M34.569,16.377c-6.89,0-12.494,5.604-12.494,12.493c0,4.061,1.983,7.874,5.309,10.213
			c1.281,1.212,1.297,3.375,1.297,3.396v0.999h-0.029v7.928h0.804c0.443,0,0.805,0.339,0.805,0.753v0.342
			c0,0.191,0.166,0.347,0.365,0.347h7.838c0.212,0,0.382-0.159,0.382-0.356v-0.332c0-0.414,0.361-0.753,0.804-0.753h0.805v-7.567
			v-0.36v-0.208l0.009-0.791c0-0.021,0.021-2.19,1.297-3.396l0.026-0.026c3.304-2.341,5.272-6.141,5.272-10.187
			C47.057,21.981,41.456,16.377,34.569,16.377z M35.692,43.479h-2.267V32.178l-2.578-3.902l0.303-0.269l0.548,0.598l0.728-0.601
			l0.582,0.606l0.566-0.589l0.418,0.592l0.699-0.599l0.398,0.598l0.759-0.607l0.524,0.597l0.82-0.597l0.459,0.612l0.603-0.602
			l0.103,0.129l-2.665,4.033V43.479z M41.492,38.823l0.019-0.002c-1.409,1.331-1.409,3.658-1.409,3.658l-0.01-0.009v1.008h-4.039
			V32.286l2.541-3.844l0.14,0.177l0.554-0.604l0.459,0.524l0.136-0.119l-0.591-0.676l-0.548,0.598l-0.046-0.06l0.658-0.997
			l-0.3-0.198l-0.594,0.898l-0.19-0.241l-0.599,0.598l-0.442-0.588l-0.831,0.604l-0.528-0.604l-0.741,0.594l-0.401-0.604
			l-0.703,0.603l-0.431-0.609l-0.587,0.611l-0.568-0.593l-0.725,0.6l-0.552-0.603l-0.415,0.368l-0.685-1.035l-0.301,0.198
			l0.696,1.056l-0.594-0.528l-0.119,0.135l0.734,0.653l0.096-0.085l2.489,3.77v11.192H29.04v-0.999c0,0,0-2.327-1.409-3.658
			l0.008,0.001c-3.145-2.189-5.204-5.829-5.204-9.952c0-6.702,5.431-12.133,12.134-12.133c6.698,0,12.128,5.431,12.128,12.133
			C46.697,32.993,44.638,36.634,41.492,38.823z"/>
		<g>
			<path fill="#48768D" d="M61.809,28.068l-3.482,0.627l6.96,8.231l3.65-10.143l-3.575,0.645
				C62.558,15.409,52.785,5.916,40.585,3.564l-1.77-0.342l-0.682,3.539l1.769,0.341C50.65,9.175,59.272,17.503,61.809,28.068z"/>
			<path fill="#48768D" d="M7.1,29.055C9.155,18.84,16.763,10.623,26.689,7.723l0.799,3.447l7.878-7.357L25.055,0.668l0.82,3.539
				C14.575,7.43,5.9,16.746,3.567,28.344L3.212,30.11l3.533,0.711L7.1,29.055z"/>
			<path fill="#48768D" d="M7.158,40.428l3.499-0.533L3.92,31.479L0,41.52l3.59-0.548c2.575,12.633,12.599,22.49,25.396,24.77
				l1.774,0.316l0.632-3.548l-1.773-0.315C18.341,60.186,9.497,51.533,7.158,40.428z"/>
			<path fill="#48768D" d="M62.208,39.202C60.389,50.26,52.066,59.165,41.273,61.816l-0.648-3.479l-8.189,7.008l10.163,3.59
				l-0.665-3.572c12.281-2.933,21.765-13.026,23.832-25.576l0.293-1.777l-3.556-0.586L62.208,39.202z"/>
		</g>
	</g>
	<g>
		<g>
			<path fill="#D7F0FB" d="M35.569,15.709c-6.89,0-12.494,5.604-12.494,12.493c0,4.061,1.983,7.874,5.309,10.213
				c1.281,1.212,1.297,3.375,1.297,3.396v0.999h-0.029v7.928h0.804c0.443,0,0.805,0.339,0.805,0.753v0.342
				c0,0.191,0.166,0.347,0.365,0.347h7.838c0.212,0,0.382-0.159,0.382-0.356v-0.332c0-0.414,0.361-0.753,0.804-0.753h0.805v-7.567
				v-0.36v-0.208l0.009-0.791c0-0.021,0.021-2.19,1.297-3.396l0.026-0.026c3.304-2.341,5.272-6.141,5.272-10.187
				C48.057,21.313,42.456,15.709,35.569,15.709z M36.692,42.811h-2.267V31.51l-2.578-3.902l0.303-0.269l0.548,0.598l0.728-0.601
				l0.582,0.606l0.566-0.589l0.418,0.592l0.699-0.599l0.398,0.598l0.759-0.607l0.524,0.597l0.82-0.597l0.459,0.612l0.603-0.602
				l0.103,0.129l-2.665,4.033V42.811z M42.492,38.155l0.019-0.002c-1.409,1.331-1.409,3.658-1.409,3.658l-0.01-0.009v1.008h-4.039
				V31.618l2.541-3.844l0.14,0.177l0.554-0.604l0.459,0.524l0.136-0.119l-0.591-0.676l-0.548,0.598l-0.046-0.06l0.658-0.997
				l-0.3-0.198l-0.594,0.898l-0.19-0.241l-0.599,0.598l-0.442-0.588l-0.831,0.604l-0.528-0.604l-0.741,0.594l-0.401-0.604
				l-0.703,0.603l-0.431-0.609l-0.587,0.611l-0.568-0.593l-0.725,0.6l-0.552-0.603l-0.415,0.368l-0.685-1.035l-0.301,0.198
				l0.696,1.056l-0.594-0.528l-0.119,0.135l0.734,0.653l0.096-0.085l2.489,3.77v11.192H30.04v-0.999c0,0,0-2.327-1.409-3.658
				l0.008,0.001c-3.145-2.189-5.204-5.829-5.204-9.952c0-6.702,5.431-12.133,12.134-12.133c6.698,0,12.128,5.431,12.128,12.133
				C47.697,32.325,45.638,35.966,42.492,38.155z"/>
			<g>
				<path fill="#D7F0FB" d="M62.809,27.4l-3.482,0.627l6.96,8.231l3.65-10.143l-3.575,0.645
					C63.558,14.741,53.785,5.248,41.585,2.896l-1.77-0.342l-0.682,3.539l1.769,0.341C51.65,8.507,60.272,16.835,62.809,27.4z"/>
				<path fill="#D7F0FB" d="M8.1,28.387c2.055-10.215,9.663-18.432,19.589-21.332l0.799,3.447l7.878-7.357L26.055,0l0.82,3.539
					C15.575,6.762,6.9,16.078,4.567,27.676l-0.355,1.767l3.533,0.711L8.1,28.387z"/>
				<path fill="#D7F0FB" d="M8.158,39.76l3.499-0.533L4.92,30.812L1,40.852l3.59-0.548c2.575,12.633,12.599,22.49,25.396,24.77
					l1.774,0.316l0.632-3.548l-1.773-0.315C19.341,59.518,10.497,50.865,8.158,39.76z"/>
				<path fill="#D7F0FB" d="M63.208,38.534c-1.819,11.058-10.143,19.963-20.936,22.614l-0.648-3.479l-8.189,7.008l10.163,3.59
					l-0.665-3.572c12.281-2.933,21.765-13.026,23.832-25.576l0.293-1.777l-3.556-0.586L63.208,38.534z"/>
			</g>
		</g>
	</g>
</g>
</svg>
