<?xml version="1.0" encoding="utf-8"?>
<!-- Generator: Adobe Illustrator 16.0.0, SVG Export Plug-In . SVG Version: 6.00 Build 0)  -->
<!DOCTYPE svg PUBLIC "-//W3C//DTD SVG 1.1//EN" "http://www.w3.org/Graphics/SVG/1.1/DTD/svg11.dtd">
<svg version="1.1" id="Layer_1" xmlns="http://www.w3.org/2000/svg" xmlns:xlink="http://www.w3.org/1999/xlink" x="0px" y="0px"
	 width="120.523px" height="41.217px" viewBox="0 0 120.523 41.217" enable-background="new 0 0 120.523 41.217"
	 xml:space="preserve">
<g>
	<g>
		<path fill="#FFFFFF" d="M17.291,29.438c-0.565,0-1.118-0.074-1.66-0.225c-0.542-0.148-1.024-0.377-1.449-0.685
			c-0.424-0.307-0.762-0.688-1.012-1.146c-0.252-0.457-0.377-0.984-0.377-1.583v-0.048c0-0.613,0.133-1.16,0.4-1.642
			c0.267-0.48,0.632-0.882,1.095-1.206c0.463-0.322,1.018-0.566,1.661-0.731s1.342-0.249,2.096-0.249
			c0.832,0,1.602,0.066,2.308,0.195c0.707,0.131,1.35,0.293,1.932,0.487V21.81c0-1.343-0.373-2.343-1.119-2.999
			c-0.746-0.655-1.786-0.984-3.121-0.984c-0.738,0-1.417,0.091-2.037,0.271c-0.622,0.181-1.23,0.421-1.826,0.718l-0.283-0.659
			c0.66-0.317,1.323-0.573,1.99-0.768c0.667-0.194,1.401-0.292,2.203-0.292c1.648,0,2.904,0.433,3.768,1.295
			c0.377,0.393,0.667,0.868,0.871,1.425c0.205,0.558,0.307,1.206,0.307,1.943v7.396h-0.754v-2.474
			c-0.157,0.329-0.377,0.655-0.66,0.978c-0.283,0.321-0.632,0.617-1.048,0.883c-0.416,0.268-0.899,0.482-1.448,0.648
			C18.579,29.356,17.966,29.438,17.291,29.438z M17.338,28.708c0.722,0,1.385-0.105,1.99-0.316c0.604-0.212,1.126-0.497,1.566-0.856
			c0.439-0.359,0.785-0.778,1.037-1.256c0.251-0.477,0.376-0.98,0.376-1.513v-1.455c-0.581-0.187-1.217-0.345-1.908-0.469
			c-0.691-0.126-1.483-0.188-2.378-0.188c-0.66,0-1.261,0.067-1.802,0.2c-0.542,0.134-1.006,0.329-1.391,0.587
			c-0.384,0.258-0.687,0.579-0.906,0.961c-0.221,0.383-0.33,0.818-0.33,1.303v0.047c0,0.484,0.102,0.912,0.306,1.279
			c0.205,0.367,0.479,0.676,0.824,0.926s0.743,0.438,1.19,0.563S16.835,28.708,17.338,28.708z"/>
		<path fill="#FFFFFF" d="M25.416,17.286h0.754v3.273c0.204-0.487,0.472-0.95,0.801-1.39c0.33-0.439,0.718-0.816,1.166-1.13
			c0.447-0.314,0.945-0.565,1.496-0.754c0.549-0.189,1.146-0.283,1.79-0.283c0.801,0,1.559,0.153,2.273,0.459
			c0.714,0.307,1.334,0.734,1.86,1.284c0.526,0.549,0.946,1.201,1.26,1.955c0.314,0.752,0.471,1.585,0.471,2.496v0.047
			c0,0.896-0.157,1.724-0.471,2.485s-0.734,1.418-1.26,1.967s-1.146,0.978-1.86,1.283c-0.714,0.307-1.472,0.459-2.273,0.459
			c-0.659,0-1.264-0.09-1.813-0.271c-0.55-0.18-1.048-0.432-1.495-0.754c-0.448-0.321-0.833-0.694-1.155-1.118
			c-0.322-0.424-0.585-0.879-0.789-1.366v6.995h-0.754V17.286z M31.352,28.708c0.754,0,1.445-0.134,2.073-0.4
			s1.169-0.644,1.625-1.13c0.456-0.486,0.809-1.061,1.06-1.72c0.252-0.659,0.377-1.39,0.377-2.19v-0.047
			c0-0.785-0.129-1.512-0.389-2.18c-0.259-0.667-0.616-1.248-1.072-1.743c-0.456-0.494-0.997-0.879-1.625-1.154
			c-0.628-0.274-1.312-0.413-2.049-0.413c-0.738,0-1.425,0.142-2.061,0.424c-0.636,0.283-1.189,0.671-1.66,1.166
			c-0.472,0.494-0.841,1.072-1.107,1.73c-0.267,0.66-0.4,1.375-0.4,2.144v0.047c0,0.771,0.137,1.484,0.413,2.144
			c0.274,0.66,0.647,1.236,1.118,1.732c0.472,0.494,1.025,0.883,1.661,1.165S30.629,28.708,31.352,28.708z"/>
		<path fill="#FFFFFF" d="M39.124,17.286h0.753v3.273c0.205-0.487,0.472-0.95,0.801-1.39c0.33-0.439,0.718-0.816,1.166-1.13
			c0.448-0.314,0.946-0.565,1.496-0.754c0.55-0.189,1.146-0.283,1.79-0.283c0.801,0,1.558,0.153,2.272,0.459
			c0.714,0.307,1.335,0.734,1.861,1.284c0.526,0.549,0.946,1.201,1.26,1.955c0.313,0.752,0.471,1.585,0.471,2.496v0.047
			c0,0.896-0.157,1.724-0.471,2.485c-0.314,0.762-0.734,1.418-1.26,1.967c-0.526,0.549-1.147,0.978-1.861,1.283
			c-0.714,0.307-1.472,0.459-2.272,0.459c-0.659,0-1.264-0.09-1.814-0.271c-0.549-0.18-1.048-0.432-1.495-0.754
			c-0.448-0.321-0.833-0.694-1.154-1.118c-0.322-0.424-0.585-0.879-0.79-1.366v6.995h-0.753V17.286z M45.059,28.708
			c0.754,0,1.445-0.134,2.073-0.4c0.628-0.267,1.17-0.644,1.625-1.13c0.455-0.486,0.809-1.061,1.06-1.72s0.377-1.39,0.377-2.19
			v-0.047c0-0.785-0.129-1.512-0.389-2.18c-0.258-0.667-0.616-1.248-1.07-1.743c-0.456-0.494-0.998-0.879-1.625-1.154
			c-0.629-0.274-1.311-0.413-2.05-0.413c-0.738,0-1.425,0.142-2.061,0.424s-1.189,0.671-1.661,1.166
			c-0.471,0.494-0.84,1.072-1.106,1.73c-0.267,0.66-0.4,1.375-0.4,2.144v0.047c0,0.771,0.137,1.484,0.412,2.144
			c0.274,0.66,0.647,1.236,1.119,1.732c0.471,0.494,1.024,0.883,1.661,1.165C43.658,28.567,44.337,28.708,45.059,28.708z"/>
		<path fill="#FFFFFF" d="M53.609,17.968h-1.813v-0.683h1.813v-1.484c0-1.381,0.337-2.395,1.014-3.039
			c0.58-0.581,1.357-0.871,2.331-0.871c0.361,0,0.675,0.028,0.942,0.082c0.267,0.056,0.525,0.13,0.777,0.225v0.73
			c-0.519-0.204-1.092-0.307-1.72-0.307c-0.833,0-1.472,0.259-1.92,0.778c-0.447,0.517-0.671,1.342-0.671,2.472v1.414h4.263v0.683
			h-4.263v11.188h-0.754V17.968z"/>
		<path fill="#FFFFFF" d="M59.073,17.286h0.754v3.626c0.173-0.502,0.415-0.989,0.729-1.459c0.314-0.472,0.684-0.887,1.107-1.249
			c0.424-0.362,0.906-0.648,1.448-0.86c0.542-0.212,1.127-0.31,1.755-0.293v0.776h-0.118c-0.722,0-1.386,0.161-1.989,0.483
			c-0.605,0.322-1.123,0.746-1.555,1.271c-0.432,0.526-0.77,1.134-1.013,1.825c-0.244,0.691-0.365,1.398-0.365,2.12v5.63h-0.754
			V17.286z"/>
		<path fill="#FFFFFF" d="M69.318,29.438c-0.564,0-1.118-0.074-1.66-0.225c-0.541-0.148-1.024-0.377-1.448-0.685
			c-0.425-0.307-0.762-0.688-1.013-1.146S64.82,26.399,64.82,25.8v-0.048c0-0.613,0.134-1.16,0.4-1.642
			c0.268-0.48,0.631-0.882,1.096-1.206c0.462-0.322,1.016-0.566,1.66-0.731c0.643-0.165,1.342-0.249,2.096-0.249
			c0.832,0,1.602,0.066,2.309,0.195c0.707,0.131,1.35,0.293,1.932,0.487V21.81c0-1.343-0.373-2.343-1.119-2.999
			c-0.746-0.655-1.787-0.984-3.121-0.984c-0.738,0-1.417,0.091-2.037,0.271c-0.621,0.181-1.229,0.421-1.825,0.718l-0.282-0.659
			c0.659-0.317,1.322-0.573,1.989-0.768c0.667-0.194,1.401-0.292,2.203-0.292c1.648,0,2.904,0.433,3.769,1.295
			c0.377,0.393,0.666,0.868,0.871,1.425c0.204,0.558,0.307,1.206,0.307,1.943v7.396h-0.754v-2.474
			c-0.157,0.329-0.377,0.655-0.66,0.978c-0.283,0.321-0.632,0.617-1.049,0.883c-0.416,0.268-0.897,0.482-1.447,0.648
			C70.606,29.356,69.993,29.438,69.318,29.438z M69.366,28.708c0.722,0,1.386-0.105,1.99-0.316c0.604-0.212,1.126-0.497,1.565-0.856
			s0.785-0.778,1.037-1.256c0.25-0.477,0.377-0.98,0.377-1.513v-1.455c-0.582-0.187-1.217-0.345-1.908-0.469
			c-0.691-0.126-1.483-0.188-2.379-0.188c-0.66,0-1.26,0.067-1.802,0.2c-0.542,0.134-1.005,0.329-1.39,0.587
			s-0.688,0.579-0.907,0.961c-0.22,0.383-0.329,0.818-0.329,1.303v0.047c0,0.484,0.102,0.912,0.307,1.279
			c0.203,0.367,0.479,0.676,0.824,0.926c0.344,0.25,0.741,0.438,1.189,0.563C68.389,28.646,68.863,28.708,69.366,28.708z"/>
		<path fill="#FFFFFF" d="M77.445,17.286h0.752v2.662c0.127-0.345,0.311-0.696,0.555-1.048c0.242-0.354,0.533-0.672,0.871-0.954
			c0.338-0.283,0.727-0.51,1.166-0.683c0.439-0.172,0.926-0.259,1.461-0.259c0.596,0,1.125,0.082,1.589,0.247
			c0.462,0.166,0.863,0.394,1.201,0.684c0.337,0.291,0.624,0.624,0.86,1c0.234,0.377,0.415,0.777,0.541,1.201
			c0.141-0.392,0.342-0.773,0.602-1.142c0.258-0.368,0.568-0.702,0.93-1c0.36-0.298,0.77-0.538,1.225-0.718s0.958-0.271,1.508-0.271
			c1.365,0,2.457,0.439,3.273,1.318c0.816,0.879,1.225,2.128,1.225,3.746v7.09h-0.754v-7.006c0-1.441-0.346-2.538-1.035-3.29
			c-0.691-0.752-1.61-1.128-2.757-1.128c-0.502,0-0.993,0.11-1.472,0.33c-0.479,0.218-0.904,0.528-1.271,0.927
			c-0.369,0.4-0.664,0.874-0.884,1.422c-0.22,0.548-0.33,1.161-0.33,1.833v6.911h-0.753v-7.028c0-1.426-0.346-2.515-1.037-3.268
			c-0.69-0.752-1.602-1.128-2.731-1.128c-0.519,0-1.017,0.118-1.496,0.353c-0.479,0.235-0.903,0.557-1.271,0.964
			c-0.369,0.407-0.664,0.885-0.884,1.434c-0.221,0.548-0.33,1.143-0.33,1.787v6.887h-0.752V17.286z"/>
		<path fill="#FFFFFF" d="M102.754,29.438c-0.803,0-1.563-0.145-2.279-0.436c-0.715-0.289-1.34-0.706-1.875-1.248
			s-0.96-1.197-1.275-1.967c-0.314-0.769-0.473-1.625-0.473-2.566v-0.048c0-0.864,0.142-1.673,0.426-2.426
			c0.281-0.753,0.678-1.409,1.188-1.967c0.511-0.557,1.111-0.993,1.802-1.307c0.691-0.314,1.445-0.471,2.262-0.471
			c0.895,0,1.681,0.176,2.354,0.529c0.676,0.354,1.245,0.821,1.708,1.401c0.464,0.582,0.809,1.245,1.036,1.991
			c0.228,0.746,0.342,1.519,0.342,2.319v0.26H97.652c0.031,0.797,0.193,1.521,0.485,2.168c0.292,0.649,0.667,1.196,1.124,1.643
			c0.458,0.445,0.99,0.79,1.598,1.03c0.608,0.244,1.244,0.364,1.906,0.364c0.932,0,1.76-0.212,2.486-0.636
			c0.726-0.424,1.324-0.942,1.799-1.555l0.564,0.447c-0.549,0.707-1.227,1.295-2.029,1.767S103.84,29.438,102.754,29.438z
			 M107.168,22.821c-0.031-0.642-0.154-1.267-0.366-1.876c-0.214-0.609-0.514-1.152-0.899-1.629
			c-0.388-0.477-0.868-0.86-1.444-1.149s-1.234-0.434-1.978-0.434c-0.678,0-1.305,0.129-1.881,0.387s-1.077,0.614-1.504,1.067
			c-0.425,0.454-0.764,0.992-1.017,1.618c-0.253,0.625-0.396,1.297-0.427,2.016H107.168z"/>
	</g>
	<g>
		<path fill="#FFFFFF" d="M101.65,41.217H35.58v-0.654h66.07c10.046,0,18.219-8.172,18.219-18.219v-19.4h0.654v19.4
			C120.523,32.751,112.057,41.217,101.65,41.217z"/>
	</g>
	<g>
		<path fill="#FFFFFF" d="M0.654,38.274H0V18.873C0,8.466,8.467,0,18.873,0h66.07v0.654h-66.07
			c-10.046,0-18.219,8.173-18.219,18.219V38.274z"/>
	</g>
</g>
</svg>
