<?xml version="1.0" encoding="utf-8"?>
<!-- Generator: Adobe Illustrator 16.0.0, SVG Export Plug-In . SVG Version: 6.00 Build 0)  -->
<!DOCTYPE svg PUBLIC "-//W3C//DTD SVG 1.0//EN" "http://www.w3.org/TR/2001/REC-SVG-20010904/DTD/svg10.dtd" [
	<!ENTITY ns_flows "http://ns.adobe.com/Flows/1.0/">
	<!ENTITY ns_extend "http://ns.adobe.com/Extensibility/1.0/">
	<!ENTITY ns_ai "http://ns.adobe.com/AdobeIllustrator/10.0/">
	<!ENTITY ns_graphs "http://ns.adobe.com/Graphs/1.0/">
]>
<svg version="1.0" xmlns:x="&ns_extend;" xmlns:i="&ns_ai;" xmlns:graph="&ns_graphs;"
	 xmlns="http://www.w3.org/2000/svg" xmlns:xlink="http://www.w3.org/1999/xlink" xmlns:a="http://ns.adobe.com/AdobeSVGViewerExtensions/3.0/"
	 x="0px" y="0px" width="400px" height="400px" viewBox="0 0 400 400" enable-background="new 0 0 400 400" xml:space="preserve">
<g id="Layer_2">
</g>
<g id="Layer_1">
	<g>
		<g>
			<path fill="#FFFFFF" d="M224.313,66.611c-1.336-1.379-3.988-2.705-5.893-2.94l-14.958-1.87c-1.904-0.24-5.019-0.24-6.923,0
				l-14.958,1.87c-1.904,0.235-4.556,1.562-5.889,2.94l-3.354,3.461c-1.333,1.376-1.821,3.96-1.083,5.729l13.73,32.974
				c0.735,1.766,2.91,3.221,4.829,3.221h6.699c1.919,0,5.058,0,6.977,0h6.7c1.918,0,4.092-1.455,4.832-3.221l13.726-32.974
				c0.74-1.769,0.252-4.353-1.083-5.729L224.313,66.611z"/>
			<path fill="#FFFFFF" d="M213.202,120.015c-0.339-1.89-2.188-3.437-4.105-3.437h-5.607c-1.918,0-5.057,0-6.977,0h-5.607
				c-1.917,0-3.764,1.546-4.104,3.437l-32.688,182.424c-0.338,1.888,0.529,4.51,1.926,5.825l41.421,38.983
				c1.398,1.313,3.684,1.313,5.082,0l41.423-38.983c1.396-1.315,2.262-3.938,1.924-5.825L213.202,120.015z"/>
		</g>
		<g>
			<path fill="#FFFFFF" d="M277.008,282.435c-1.447,0-2.889-0.603-3.912-1.779c-1.879-2.158-1.652-5.433,0.508-7.313
				c24.494-21.324,38.545-52.165,38.545-84.617c0.002-40.146-21.674-77.479-56.566-97.428c-2.486-1.421-3.35-4.586-1.928-7.071
				c1.42-2.485,4.59-3.346,7.07-1.927c38.113,21.792,61.789,62.572,61.789,106.426c0,35.451-15.348,69.141-42.107,92.437
				C279.426,282.015,278.213,282.435,277.008,282.435z"/>
		</g>
		<g>
			<path fill="#FFFFFF" d="M123.014,282.455c-1.206,0-2.418-0.418-3.4-1.273c-26.773-23.298-42.127-56.997-42.127-92.456
				c0-43.862,23.68-84.646,61.799-106.434c2.487-1.419,5.652-0.554,7.071,1.927c1.421,2.485,0.558,5.651-1.927,7.071
				c-34.899,19.947-56.579,57.283-56.579,97.436c0,32.46,14.058,63.309,38.567,84.637c2.159,1.881,2.386,5.152,0.507,7.311
				C125.901,281.853,124.461,282.455,123.014,282.455z"/>
		</g>
	</g>
	<g>
	</g>
	<g>
	</g>
	<g>
	</g>
	<g>
	</g>
	<g>
	</g>
	<g>
	</g>
	<g>
	</g>
	<g>
	</g>
	<g>
	</g>
	<g>
	</g>
	<g>
	</g>
	<g>
	</g>
	<g>
	</g>
	<g>
	</g>
	<g>
	</g>
</g>
</svg>
