<?xml version="1.0" encoding="utf-8"?>
<!-- Generator: Adobe Illustrator 16.0.0, SVG Export Plug-In . SVG Version: 6.00 Build 0)  -->
<!DOCTYPE svg PUBLIC "-//W3C//DTD SVG 1.1//EN" "http://www.w3.org/Graphics/SVG/1.1/DTD/svg11.dtd">
<svg version="1.1" id="Layer_1" xmlns="http://www.w3.org/2000/svg" xmlns:xlink="http://www.w3.org/1999/xlink" x="0px" y="0px"
	 width="68.667px" height="113.599px" viewBox="0 0 68.667 113.599" enable-background="new 0 0 68.667 113.599"
	 xml:space="preserve">
<g>
	<path fill="#48768D" d="M59.8,2.143H6.533C2.925,2.143,0,4.717,0,7.893v99.957c0,3.176,2.925,5.75,6.533,5.75H59.8
		c3.607,0,6.533-2.574,6.533-5.75V7.893C66.333,4.717,63.408,2.143,59.8,2.143z M39.362,109.607H26.971
		c-0.78,0-1.413-0.633-1.413-1.412c0-0.781,0.632-1.412,1.413-1.412h12.391c0.779,0,1.414,0.631,1.414,1.412
		C40.776,108.974,40.141,109.607,39.362,109.607z M61.307,102.156H5.025V7.919h56.282V102.156z"/>
	<g>
		<path fill="#FFFFFF" d="M62.133,0H8.866C5.258,0,2.333,2.574,2.333,5.75v99.957c0,3.176,2.925,5.75,6.533,5.75h53.267
			c3.607,0,6.533-2.574,6.533-5.75V5.75C68.667,2.574,65.741,0,62.133,0z M41.695,107.464H29.304c-0.78,0-1.413-0.633-1.413-1.412
			c0-0.781,0.632-1.412,1.413-1.412h12.391c0.78,0,1.413,0.631,1.413,1.412C43.108,106.832,42.475,107.464,41.695,107.464z
			 M63.641,100.013H7.358V5.776h56.283V100.013z"/>
		<linearGradient id="SVGID_1_" gradientUnits="userSpaceOnUse" x1="70.3774" y1="81.3423" x2="25.7323" y2="44.9294">
			<stop  offset="0" style="stop-color:#FFFFFF"/>
			<stop  offset="1" style="stop-color:#FFFFFF;stop-opacity:0"/>
		</linearGradient>
		<polygon fill="url(#SVGID_1_)" points="63.641,5.776 7.358,100.013 7.358,5.776 		"/>
	</g>
</g>
</svg>
