<?xml version="1.0" encoding="utf-8"?>
<!-- Generator: Adobe Illustrator 16.0.0, SVG Export Plug-In . SVG Version: 6.00 Build 0)  -->
<!DOCTYPE svg PUBLIC "-//W3C//DTD SVG 1.1//EN" "http://www.w3.org/Graphics/SVG/1.1/DTD/svg11.dtd">
<svg version="1.1" id="Layer_1" xmlns="http://www.w3.org/2000/svg" xmlns:xlink="http://www.w3.org/1999/xlink" x="0px" y="0px"
	 width="100.843px" height="65.485px" viewBox="0 0 100.843 65.485" enable-background="new 0 0 100.843 65.485"
	 xml:space="preserve">
<g>
	<g>
		<g>
			<path fill="#48768D" d="M67.613,15.201c1.16-0.065,2.132,0.805,2.197,1.965l0.031,0.559c2.18,0.198,4.135,0.731,5.909,1.596
				c0.786,0.396,1.509,1.118,1.575,2.318c0.086,1.521-1.049,2.748-2.57,2.834c-0.479,0.026-0.965-0.064-1.419-0.281
				c-1.154-0.537-2.302-0.955-3.398-1.174L70.28,29.1c6.174,1.3,8.913,3.634,9.165,8.114c0.252,4.48-3.025,7.557-8.037,8.4
				l0.119,2.119c0.065,1.16-0.803,2.135-1.963,2.199c-1.16,0.066-2.133-0.805-2.197-1.965l-0.121-2.158
				c-2.861-0.201-5.6-1.053-8.041-2.359c-0.868-0.473-1.434-1.244-1.495-2.324c-0.087-1.561,1.048-2.789,2.608-2.875
				c0.521-0.029,1.092,0.139,1.59,0.432c1.741,0.984,3.385,1.656,5.247,1.953l-0.357-6.363c-5.849-1.236-8.813-3.278-9.08-8.039
				c-0.247-4.401,2.946-7.551,7.959-8.353l-0.027-0.48C65.583,16.239,66.453,15.267,67.613,15.201z M66.46,28.271l-0.304-5.402
				c-1.905,0.388-2.69,1.396-2.618,2.677C63.608,26.786,64.214,27.594,66.46,28.271z M70.615,35.061l0.313,5.563
				c1.865-0.387,2.775-1.32,2.695-2.762C73.548,36.543,72.818,35.702,70.615,35.061z"/>
		</g>
		<path fill="#48768D" d="M93.677,43.713l3.636,1.277l1.478-4.209l-3.654-1.283c0.328-1.271,0.557-2.551,0.699-3.83l3.844,0.143
			l0.164-4.458l-3.871-0.143c-0.066-1.302-0.221-2.595-0.467-3.865l3.714-1.004l-1.164-4.306l-3.749,1.015
			c-0.447-1.22-0.977-2.406-1.588-3.553l3.256-2.063l-2.388-3.768l-3.277,2.078c-0.782-1.028-1.64-2.006-2.569-2.924l2.495-2.933
			l-3.396-2.891l-2.513,2.954c-1.047-0.743-2.157-1.419-3.324-2.022l1.517-3.547l-4.101-1.754l-1.527,3.57
			c-0.938-0.309-1.883-0.567-2.83-0.772l0.528-3.815L70.171,1L69.64,4.834c-1.306-0.066-2.605-0.039-3.894,0.077l-0.625-3.797
			l-4.399,0.725l0.631,3.83c-1.26,0.323-2.494,0.73-3.695,1.223l-1.726-3.447L51.945,5.44l1.738,3.472
			c-1.104,0.678-2.164,1.432-3.168,2.26l-2.669-2.779l-3.216,3.088l2.684,2.797c-0.849,0.969-1.633,2.004-2.351,3.103l-3.374-1.865
			l-2.157,3.902l3.399,1.88c-0.055,0.124-0.116,0.245-0.17,0.37c-0.463,1.083-0.844,2.182-1.161,3.286l-3.776-0.782l-0.904,4.367
			l3.796,0.786c-0.154,1.299-0.214,2.598-0.185,3.887l-3.834,0.373l0.431,4.438l3.859-0.373c0.238,1.279,0.566,2.537,0.979,3.766
			l-3.555,1.492l1.727,4.113l3.577-1.502c0.602,1.148,1.282,2.256,2.042,3.313l-2.946,2.475l2.868,3.416l2.969-2.492
			c0.911,0.912,1.889,1.768,2.936,2.557L49.4,58.02l3.751,2.414l2.101-3.266c0.661,0.348,1.335,0.68,2.033,0.979
			c0.505,0.215,1.015,0.412,1.524,0.596l-1.029,3.711l4.297,1.193l1.037-3.736c1.288,0.242,2.579,0.393,3.866,0.449l0.116,3.844
			l4.458-0.133l-0.116-3.877c1.293-0.152,2.57-0.395,3.822-0.725l1.253,3.645l4.219-1.447l-1.261-3.67
			c1.186-0.525,2.334-1.135,3.438-1.822l2.275,3.111l3.6-2.635L86.5,53.528c0.974-0.848,1.89-1.771,2.745-2.764l3.088,2.291
			l2.656-3.58l-3.111-2.309C92.548,46.073,93.15,44.92,93.677,43.713z M58.502,55.282c-12.534-5.361-18.349-19.867-12.988-32.4
			C50.875,10.348,65.38,4.533,77.914,9.894c12.534,5.36,18.349,19.866,12.988,32.4C85.542,54.827,71.037,60.641,58.502,55.282z"/>
		<g>
			<path fill="#48768D" d="M20.911,37.196c0.593,0.086,0.996,0.625,0.91,1.219L21.779,38.7c1.082,0.324,2.017,0.795,2.826,1.414
				c0.356,0.279,0.648,0.721,0.56,1.334c-0.112,0.779-0.813,1.283-1.591,1.17c-0.245-0.035-0.482-0.133-0.689-0.287
				c-0.529-0.391-1.066-0.719-1.599-0.943l-0.451,3.111c2.99,1.291,4.137,2.752,3.805,5.045s-2.306,3.512-4.927,3.426l-0.157,1.084
				c-0.086,0.594-0.625,0.998-1.219,0.91c-0.594-0.084-0.997-0.625-0.91-1.219l0.16-1.104c-1.426-0.395-2.724-1.105-3.825-2.018
				c-0.392-0.328-0.599-0.775-0.519-1.33c0.116-0.797,0.816-1.301,1.614-1.186c0.267,0.037,0.538,0.182,0.76,0.381
				c0.78,0.678,1.542,1.184,2.455,1.525l0.471-3.254c-2.832-1.227-4.122-2.563-3.77-4.998c0.327-2.252,2.265-3.518,4.883-3.41
				l0.036-0.246C19.777,37.512,20.317,37.11,20.911,37.196z M18.987,43.688l0.4-2.764c-1.003,0.002-1.504,0.43-1.599,1.086
				C17.696,42.645,17.921,43.116,18.987,43.688z M20.393,47.549l-0.412,2.846c0.983-0.004,1.54-0.383,1.646-1.121
				C21.725,48.6,21.442,48.098,20.393,47.549z"/>
		</g>
		<path fill="#48768D" d="M35.083,52.889l2.235,0.785l0.908-2.586l-2.246-0.789c0.202-0.781,0.342-1.568,0.43-2.355l2.362,0.088
			l0.101-2.738l-2.379-0.088c-0.041-0.801-0.136-1.596-0.287-2.377l2.282-0.617l-0.715-2.646l-2.305,0.625
			c-0.274-0.75-0.6-1.479-0.976-2.184l2.001-1.268l-1.467-2.316L33.013,35.7c-0.481-0.633-1.008-1.232-1.579-1.797l1.534-1.803
			l-2.088-1.776l-1.544,1.815c-0.643-0.456-1.326-0.872-2.043-1.243l0.932-2.181l-2.521-1.077l-0.938,2.194
			c-0.577-0.19-1.157-0.349-1.739-0.475l0.325-2.345l-2.715-0.376l-0.327,2.356c-0.802-0.042-1.602-0.024-2.393,0.048l-0.384-2.334
			l-2.705,0.444l0.388,2.354c-0.774,0.198-1.533,0.449-2.271,0.752l-1.062-2.12l-2.45,1.228l1.068,2.135
			c-0.678,0.415-1.329,0.879-1.947,1.388L6.913,31.18l-1.977,1.899l1.65,1.719c-0.521,0.596-1.004,1.232-1.445,1.906l-2.073-1.146
			l-1.327,2.398l2.09,1.156c-0.034,0.076-0.071,0.15-0.104,0.227c-0.285,0.666-0.519,1.342-0.714,2.02l-2.321-0.48l-0.556,2.686
			l2.334,0.482c-0.095,0.799-0.132,1.596-0.114,2.391L0,46.665l0.265,2.727l2.372-0.229c0.147,0.785,0.348,1.559,0.602,2.314
			l-2.185,0.918l1.061,2.527l2.199-0.924c0.369,0.705,0.789,1.387,1.255,2.037l-1.811,1.52l1.763,2.1l1.824-1.531
			c0.56,0.561,1.162,1.088,1.805,1.57l-1.28,1.99l2.306,1.482l1.291-2.006c0.406,0.213,0.821,0.416,1.25,0.6
			c0.311,0.133,0.624,0.254,0.938,0.365l-0.633,2.283l2.641,0.732l0.638-2.295c0.792,0.148,1.585,0.24,2.376,0.275l0.071,2.363
			l2.741-0.084l-0.072-2.383c0.795-0.092,1.58-0.242,2.35-0.443l0.77,2.24l2.593-0.891l-0.774-2.256
			c0.728-0.324,1.435-0.697,2.113-1.119l1.398,1.91l2.212-1.617l-1.404-1.92c0.599-0.521,1.162-1.09,1.687-1.699l1.897,1.408
			l1.634-2.201l-1.913-1.418C34.39,54.34,34.759,53.631,35.083,52.889z M13.833,59.133c-7.225-3.09-10.576-11.451-7.486-18.678
			c3.09-7.225,11.452-10.577,18.676-7.486c7.225,3.09,10.577,11.451,7.487,18.678C29.421,58.872,21.059,62.223,13.833,59.133z"/>
	</g>
	<g>
		<g>
			<g>
				<path fill="#D7F0FB" d="M68.613,14.201c1.16-0.065,2.132,0.805,2.197,1.965l0.031,0.559c2.18,0.198,4.135,0.731,5.909,1.596
					c0.786,0.396,1.509,1.118,1.575,2.318c0.086,1.521-1.049,2.748-2.57,2.834c-0.479,0.026-0.965-0.064-1.419-0.281
					c-1.154-0.537-2.302-0.955-3.398-1.174L71.28,28.1c6.174,1.3,8.913,3.634,9.165,8.114c0.252,4.48-3.025,7.557-8.037,8.4
					l0.119,2.119c0.065,1.16-0.803,2.135-1.963,2.199c-1.16,0.066-2.133-0.805-2.197-1.965l-0.121-2.158
					c-2.861-0.201-5.6-1.053-8.041-2.359c-0.868-0.473-1.434-1.244-1.495-2.324c-0.087-1.561,1.048-2.789,2.608-2.875
					c0.521-0.029,1.092,0.139,1.59,0.432c1.741,0.984,3.385,1.656,5.247,1.953l-0.357-6.363c-5.849-1.237-8.813-3.278-9.08-8.039
					c-0.247-4.401,2.946-7.551,7.959-8.353l-0.027-0.48C66.583,15.239,67.453,14.267,68.613,14.201z M67.46,27.271l-0.304-5.402
					c-1.905,0.388-2.69,1.396-2.618,2.677C64.608,25.786,65.214,26.594,67.46,27.271z M71.615,34.061l0.313,5.563
					c1.865-0.387,2.775-1.32,2.695-2.762C74.548,35.543,73.818,34.702,71.615,34.061z"/>
			</g>
			<path fill="#D7F0FB" d="M94.677,42.713l3.636,1.277l1.478-4.209l-3.654-1.283c0.328-1.271,0.557-2.551,0.699-3.83l3.844,0.143
				l0.164-4.458l-3.871-0.143c-0.066-1.302-0.221-2.595-0.467-3.865l3.714-1.004l-1.164-4.306l-3.749,1.015
				c-0.447-1.22-0.977-2.406-1.588-3.553l3.256-2.063l-2.388-3.768l-3.277,2.078c-0.782-1.028-1.64-2.006-2.569-2.924l2.495-2.933
				l-3.396-2.891l-2.513,2.954c-1.047-0.743-2.157-1.419-3.324-2.022l1.517-3.547l-4.101-1.754l-1.527,3.57
				c-0.938-0.309-1.883-0.567-2.83-0.772l0.528-3.815L71.171,0L70.64,3.834c-1.306-0.066-2.605-0.039-3.894,0.077l-0.625-3.797
				l-4.399,0.725l0.631,3.83c-1.26,0.323-2.494,0.73-3.695,1.223l-1.726-3.447L52.945,4.44l1.738,3.472
				c-1.104,0.678-2.164,1.432-3.168,2.26l-2.669-2.779l-3.216,3.088l2.684,2.797c-0.849,0.969-1.633,2.004-2.351,3.103l-3.374-1.865
				l-2.157,3.902l3.399,1.88c-0.055,0.124-0.116,0.245-0.17,0.37c-0.463,1.083-0.844,2.182-1.161,3.286l-3.776-0.782l-0.904,4.367
				l3.796,0.786c-0.154,1.299-0.214,2.598-0.185,3.888l-3.834,0.372l0.431,4.438l3.859-0.373c0.238,1.279,0.566,2.537,0.979,3.766
				l-3.555,1.492l1.727,4.113l3.577-1.502c0.602,1.148,1.282,2.256,2.042,3.313l-2.946,2.475l2.868,3.416l2.969-2.492
				c0.911,0.912,1.889,1.768,2.936,2.557L50.4,57.02l3.751,2.414l2.101-3.266c0.661,0.348,1.335,0.68,2.033,0.979
				c0.505,0.215,1.015,0.412,1.524,0.596l-1.029,3.711l4.297,1.193l1.037-3.736c1.288,0.242,2.579,0.393,3.866,0.449l0.116,3.844
				l4.458-0.133l-0.116-3.877c1.293-0.152,2.57-0.395,3.822-0.725l1.253,3.645l4.219-1.447l-1.261-3.67
				c1.186-0.525,2.334-1.135,3.438-1.822l2.275,3.111l3.6-2.635L87.5,52.528c0.974-0.848,1.89-1.771,2.745-2.764l3.088,2.291
				l2.656-3.58l-3.111-2.309C93.548,45.073,94.15,43.92,94.677,42.713z M59.502,54.282c-12.534-5.361-18.349-19.867-12.988-32.4
				C51.875,9.348,66.38,3.533,78.914,8.894c12.534,5.36,18.349,19.866,12.988,32.4C86.542,53.827,72.037,59.641,59.502,54.282z"/>
			<g>
				<path fill="#D7F0FB" d="M21.911,36.196c0.593,0.086,0.996,0.625,0.91,1.219L22.779,37.7c1.082,0.324,2.017,0.795,2.826,1.414
					c0.356,0.279,0.648,0.721,0.56,1.334c-0.112,0.779-0.813,1.283-1.591,1.17c-0.245-0.035-0.482-0.133-0.689-0.287
					c-0.529-0.391-1.066-0.719-1.599-0.943l-0.451,3.111c2.99,1.291,4.137,2.752,3.805,5.045s-2.306,3.512-4.927,3.426l-0.157,1.084
					c-0.086,0.594-0.625,0.998-1.219,0.91c-0.594-0.084-0.997-0.625-0.91-1.219l0.16-1.104c-1.426-0.395-2.724-1.105-3.825-2.018
					c-0.392-0.328-0.599-0.775-0.519-1.33c0.116-0.797,0.816-1.301,1.614-1.186c0.267,0.037,0.538,0.182,0.76,0.381
					c0.78,0.678,1.542,1.184,2.455,1.525l0.471-3.254c-2.832-1.227-4.122-2.563-3.77-4.998c0.327-2.252,2.265-3.518,4.883-3.41
					l0.036-0.246C20.777,36.512,21.317,36.11,21.911,36.196z M19.987,42.688l0.4-2.764c-1.003,0.002-1.504,0.43-1.599,1.086
					C18.696,41.645,18.921,42.116,19.987,42.688z M21.393,46.549l-0.412,2.846c0.983-0.004,1.54-0.383,1.646-1.121
					C22.725,47.6,22.442,47.098,21.393,46.549z"/>
			</g>
			<path fill="#D7F0FB" d="M36.083,51.889l2.235,0.785l0.908-2.586l-2.246-0.789c0.202-0.781,0.342-1.568,0.43-2.355l2.362,0.088
				l0.101-2.738l-2.379-0.088c-0.041-0.801-0.136-1.596-0.287-2.377l2.282-0.617l-0.715-2.646l-2.305,0.625
				c-0.274-0.75-0.6-1.479-0.976-2.184l2.001-1.268l-1.467-2.316L34.013,34.7c-0.481-0.633-1.008-1.232-1.579-1.797l1.534-1.803
				l-2.088-1.776l-1.544,1.815c-0.643-0.456-1.326-0.872-2.043-1.243l0.932-2.181l-2.521-1.077l-0.938,2.194
				c-0.577-0.19-1.157-0.349-1.739-0.475l0.325-2.345l-2.715-0.376l-0.327,2.356c-0.802-0.042-1.602-0.024-2.393,0.048l-0.384-2.334
				l-2.705,0.444l0.388,2.354c-0.774,0.198-1.533,0.449-2.271,0.752l-1.062-2.12l-2.45,1.228l1.068,2.135
				c-0.678,0.415-1.329,0.879-1.947,1.388L7.913,30.18l-1.977,1.898l1.65,1.719c-0.521,0.596-1.004,1.232-1.445,1.906l-2.073-1.146
				l-1.327,2.398l2.09,1.156c-0.034,0.076-0.071,0.15-0.104,0.227c-0.285,0.666-0.519,1.342-0.714,2.02l-2.321-0.48l-0.556,2.686
				l2.334,0.482c-0.095,0.799-0.132,1.596-0.114,2.391L1,45.665l0.265,2.727l2.372-0.229c0.147,0.785,0.348,1.559,0.602,2.314
				l-2.185,0.918l1.061,2.527l2.199-0.924c0.369,0.705,0.789,1.387,1.255,2.037l-1.811,1.52l1.763,2.1l1.824-1.531
				c0.56,0.561,1.162,1.088,1.805,1.57l-1.28,1.99l2.306,1.482l1.291-2.006c0.406,0.213,0.821,0.416,1.25,0.6
				c0.311,0.133,0.624,0.254,0.938,0.365l-0.633,2.283l2.641,0.732l0.638-2.295c0.792,0.148,1.585,0.24,2.376,0.275l0.071,2.363
				l2.741-0.084l-0.072-2.383c0.795-0.092,1.58-0.242,2.35-0.443l0.77,2.24l2.593-0.891l-0.774-2.256
				c0.728-0.324,1.435-0.697,2.113-1.119l1.398,1.91l2.212-1.617l-1.404-1.92c0.599-0.521,1.162-1.09,1.687-1.699l1.897,1.408
				l1.634-2.201l-1.913-1.418C35.39,53.34,35.759,52.631,36.083,51.889z M14.833,58.133c-7.225-3.09-10.576-11.451-7.486-18.678
				c3.09-7.224,11.452-10.577,18.676-7.486c7.225,3.089,10.577,11.451,7.487,18.677C30.421,57.872,22.059,61.223,14.833,58.133z"/>
		</g>
	</g>
</g>
</svg>
