<?xml version="1.0" encoding="utf-8"?>
<!-- Generator: Adobe Illustrator 16.0.0, SVG Export Plug-In . SVG Version: 6.00 Build 0)  -->
<!DOCTYPE svg PUBLIC "-//W3C//DTD SVG 1.0//EN" "http://www.w3.org/TR/2001/REC-SVG-20010904/DTD/svg10.dtd" [
	<!ENTITY ns_flows "http://ns.adobe.com/Flows/1.0/">
	<!ENTITY ns_extend "http://ns.adobe.com/Extensibility/1.0/">
	<!ENTITY ns_ai "http://ns.adobe.com/AdobeIllustrator/10.0/">
	<!ENTITY ns_graphs "http://ns.adobe.com/Graphs/1.0/">
]>
<svg version="1.0" xmlns:x="&ns_extend;" xmlns:i="&ns_ai;" xmlns:graph="&ns_graphs;"
	 xmlns="http://www.w3.org/2000/svg" xmlns:xlink="http://www.w3.org/1999/xlink" xmlns:a="http://ns.adobe.com/AdobeSVGViewerExtensions/3.0/"
	 x="0px" y="0px" width="400px" height="400px" viewBox="0 0 400 400" enable-background="new 0 0 400 400" xml:space="preserve">
<g id="Layer_2">
</g>
<g id="Layer_1">
	<g>
		<g>
			<path fill="#FFFFFF" d="M275.19,245.19c0,6.484-5.262,11.744-11.744,11.744H136.989c-6.481,0-11.743-5.26-11.743-11.744v-68.39
				c0-6.486,5.262-11.748,11.743-11.748h126.458c6.482,0,11.744,5.262,11.744,11.748V245.19z"/>
			<path fill="#FFFFFF" d="M179.302,162.118v-8.779c0-2.426,1.975-4.4,4.395-4.4h33.042c2.43,0,4.398,1.975,4.398,4.4v8.779h5.868
				v-8.779c0-5.666-4.606-10.274-10.267-10.274h-33.042c-5.658,0-10.269,4.608-10.269,10.274v8.779H179.302z"/>
		</g>
		<g>
			<path fill="#FFFFFF" d="M200.218,324.776c-68.803,0-124.777-55.975-124.777-124.776S131.416,75.223,200.218,75.223
				c68.8,0,124.777,55.976,124.777,124.777S269.019,324.776,200.218,324.776z M200.218,85.564
				c-63.101,0-114.436,51.334-114.436,114.436s51.335,114.435,114.436,114.435c63.099,0,114.435-51.333,114.435-114.435
				S263.317,85.564,200.218,85.564z"/>
		</g>
	</g>
	<g>
	</g>
	<g>
	</g>
	<g>
	</g>
	<g>
	</g>
	<g>
	</g>
	<g>
	</g>
	<g>
	</g>
	<g>
	</g>
	<g>
	</g>
	<g>
	</g>
	<g>
	</g>
	<g>
	</g>
	<g>
	</g>
	<g>
	</g>
	<g>
	</g>
</g>
</svg>
