<?xml version="1.0" encoding="utf-8"?>
<!-- Generator: Adobe Illustrator 16.0.0, SVG Export Plug-In . SVG Version: 6.00 Build 0)  -->
<!DOCTYPE svg PUBLIC "-//W3C//DTD SVG 1.0//EN" "http://www.w3.org/TR/2001/REC-SVG-20010904/DTD/svg10.dtd" [
	<!ENTITY ns_flows "http://ns.adobe.com/Flows/1.0/">
	<!ENTITY ns_extend "http://ns.adobe.com/Extensibility/1.0/">
	<!ENTITY ns_ai "http://ns.adobe.com/AdobeIllustrator/10.0/">
	<!ENTITY ns_graphs "http://ns.adobe.com/Graphs/1.0/">
]>
<svg version="1.0" xmlns:x="&ns_extend;" xmlns:i="&ns_ai;" xmlns:graph="&ns_graphs;"
	 xmlns="http://www.w3.org/2000/svg" xmlns:xlink="http://www.w3.org/1999/xlink" xmlns:a="http://ns.adobe.com/AdobeSVGViewerExtensions/3.0/"
	 x="0px" y="0px" width="400px" height="400px" viewBox="0 0 400 400" enable-background="new 0 0 400 400" xml:space="preserve">
<g id="Layer_2">
</g>
<g id="Layer_1">
	<g>
		<g>
			<path fill="#FFFFFF" d="M198.999,321.427c-38.425,0-74.018-17.408-97.655-47.764c-1.833-2.354-1.408-5.748,0.944-7.58
				c2.353-1.834,5.747-1.412,7.581,0.943c21.574,27.707,54.063,43.598,89.131,43.598c34.944,0,67.359-15.797,88.931-43.348
				c1.842-2.35,5.233-2.764,7.586-0.92c2.347,1.84,2.762,5.232,0.923,7.584C272.802,304.118,237.285,321.427,198.999,321.427z"/>
		</g>
		<g>
			<path fill="#FFFFFF" d="M110.817,124.286c-1.285,0-2.569-0.454-3.603-1.377c-2.221-1.989-2.411-5.402-0.422-7.628
				c23.447-26.212,57.06-41.245,92.207-41.245c34.403,0,66.362,13.789,89.986,38.824c2.047,2.168,1.947,5.586-0.222,7.633
				c-2.171,2.052-5.592,1.949-7.638-0.223c-21.56-22.848-50.725-35.432-82.127-35.432c-32.08,0-62.751,13.721-84.157,37.648
				C113.777,123.678,112.3,124.286,110.817,124.286z"/>
		</g>
		<g>
			<path fill="#FFFFFF" d="M270.929,128.772c-34.493,0-62.817,26.825-65.256,60.707h-13.346
				c-2.443-33.882-30.769-60.707-65.26-60.707c-36.088,0-65.449,29.357-65.449,65.449c0,36.087,29.361,65.45,65.449,65.45
				c34.491,0,62.817-26.826,65.26-60.708h13.346c2.439,33.881,30.763,60.708,65.256,60.708c36.092,0,65.453-29.362,65.453-65.45
				C336.382,158.129,307.021,128.772,270.929,128.772z M127.067,250.183c-30.855,0-55.965-25.103-55.965-55.961
				c0-30.859,25.109-55.965,55.965-55.965c30.856,0,55.965,25.105,55.965,55.965C183.032,225.08,157.923,250.183,127.067,250.183z
				 M270.929,250.183c-30.858,0-55.962-25.103-55.962-55.961c0-30.859,25.104-55.965,55.962-55.965
				c30.859,0,55.964,25.105,55.964,55.965C326.893,225.08,301.788,250.183,270.929,250.183z"/>
			<g>
				<path fill="#FFFFFF" d="M83.372,195.063l29.819-13.855v6.586l-22.55,9.875v0.126l22.55,9.878v6.583l-29.819-13.853V195.063z"/>
				<path fill="#FFFFFF" d="M117.775,216.742l13.298-45.038h6.272l-13.292,45.038H117.775z"/>
				<path fill="#FFFFFF" d="M170.763,200.59l-29.82,13.665v-6.583l23.046-9.878v-0.126l-23.046-9.875v-6.586l29.82,13.668V200.59z"
					/>
			</g>
			<g>
				<path fill="#FFFFFF" d="M228.513,195.038l28.947-13.451v6.395l-21.889,9.59v0.118l21.889,9.587v6.394l-28.947-13.446V195.038z"
					/>
				<path fill="#FFFFFF" d="M261.911,216.08l12.906-43.716h6.089l-12.902,43.716H261.911z"/>
				<path fill="#FFFFFF" d="M313.345,200.403l-28.946,13.267v-6.394l22.374-9.587v-0.118l-22.374-9.59v-6.395l28.946,13.27V200.403z
					"/>
			</g>
		</g>
	</g>
	<g>
	</g>
	<g>
	</g>
	<g>
	</g>
	<g>
	</g>
	<g>
	</g>
	<g>
	</g>
	<g>
	</g>
	<g>
	</g>
	<g>
	</g>
	<g>
	</g>
	<g>
	</g>
	<g>
	</g>
	<g>
	</g>
	<g>
	</g>
	<g>
	</g>
</g>
</svg>
