<?xml version="1.0" encoding="utf-8"?>
<!-- Generator: Adobe Illustrator 16.0.0, SVG Export Plug-In . SVG Version: 6.00 Build 0)  -->
<!DOCTYPE svg PUBLIC "-//W3C//DTD SVG 1.0//EN" "http://www.w3.org/TR/2001/REC-SVG-20010904/DTD/svg10.dtd" [
	<!ENTITY ns_flows "http://ns.adobe.com/Flows/1.0/">
	<!ENTITY ns_extend "http://ns.adobe.com/Extensibility/1.0/">
	<!ENTITY ns_ai "http://ns.adobe.com/AdobeIllustrator/10.0/">
	<!ENTITY ns_graphs "http://ns.adobe.com/Graphs/1.0/">
]>
<svg version="1.0" xmlns:x="&ns_extend;" xmlns:i="&ns_ai;" xmlns:graph="&ns_graphs;"
	 xmlns="http://www.w3.org/2000/svg" xmlns:xlink="http://www.w3.org/1999/xlink" xmlns:a="http://ns.adobe.com/AdobeSVGViewerExtensions/3.0/"
	 x="0px" y="0px" width="400px" height="400px" viewBox="0 0 400 400" enable-background="new 0 0 400 400" xml:space="preserve">
<g id="Layer_2">
</g>
<g id="Layer_1">
	<g>
		<g>
			<path fill="#FFFFFF" d="M141.43,354.991c-1.341,0-2.676-0.021-4.028-0.067c-68.277-2.19-122.047-59.525-119.858-127.805
				c1.766-55.019,40.243-102.804,93.567-116.204c2.81-0.706,5.698,1.006,6.407,3.834c0.711,2.828-1.006,5.695-3.833,6.407
				c-48.776,12.256-83.971,55.969-85.585,106.302c-2.003,62.458,47.183,114.906,109.644,116.913
				c1.229,0.036,2.459,0.059,3.684,0.059c60.827,0,111.267-48.472,113.23-109.706c0.39-12.035-1.109-23.941-4.449-35.394
				c-0.818-2.8,0.792-5.731,3.588-6.549c2.808-0.814,5.731,0.79,6.549,3.589c3.653,12.524,5.291,25.542,4.867,38.693
				C263.063,301.996,207.921,354.986,141.43,354.991z"/>
		</g>
		<g>
			<g>
				<polygon fill="#FFFFFF" points="282.038,105.274 277.719,113.159 268.78,114.071 274.944,120.615 273.057,129.398 
					281.18,125.56 288.951,130.076 287.813,121.159 294.503,115.162 285.67,113.494 				"/>
				<polygon fill="#FFFFFF" points="353.749,42.04 349.434,49.922 340.493,50.842 346.659,57.38 344.759,66.162 352.886,62.323 
					360.66,66.839 359.517,57.924 366.212,51.927 357.378,50.262 				"/>
				<polygon fill="#FFFFFF" points="307.958,64.079 302.73,73.628 291.9,74.744 299.366,82.667 297.078,93.314 306.921,88.656 
					316.343,94.124 314.955,83.324 323.071,76.064 312.361,74.038 				"/>
				<polygon fill="#FFFFFF" points="347.668,90.981 344.662,96.473 338.436,97.109 342.729,101.668 341.413,107.781 347.066,105.11 
					352.483,108.25 351.687,102.044 356.349,97.87 350.196,96.708 				"/>
				<polygon fill="#FFFFFF" points="381.982,41.068 380.407,43.943 377.156,44.275 379.397,46.66 378.709,49.86 381.668,48.457 
					384.502,50.1 384.084,46.853 386.521,44.67 383.301,44.066 				"/>
				<polygon fill="#FFFFFF" points="235.063,103.288 231.715,109.416 224.764,110.126 229.555,115.214 228.09,122.033 
					234.398,119.047 240.444,122.556 239.547,115.634 244.753,110.975 237.887,109.675 				"/>
				<polygon fill="#FFFFFF" points="260.539,60.675 258.527,64.344 254.363,64.771 257.233,67.822 256.353,71.914 260.142,70.124 
					263.757,72.225 263.229,68.066 266.347,65.28 262.232,64.504 				"/>
				<polygon fill="#FFFFFF" points="212.342,129.128 210.331,132.802 206.17,133.227 209.039,136.277 208.16,140.369 
					211.944,138.582 215.562,140.686 215.028,136.528 218.15,133.741 214.036,132.958 				"/>
				<polygon fill="#FFFFFF" points="209.718,88.38 207.704,92.054 203.542,92.484 206.409,95.529 205.53,99.621 209.321,97.834 
					212.936,99.933 212.404,95.784 215.521,92.987 211.41,92.211 				"/>
				<path fill="#FFFFFF" d="M354.476,77.426c0.037,0.549,0.514,0.961,1.058,0.927c0.553-0.036,0.965-0.51,0.928-1.057
					c-0.03-0.549-0.504-0.961-1.057-0.928C354.863,76.404,354.442,76.876,354.476,77.426z"/>
				<path fill="#FFFFFF" d="M319.594,54.284c0.071,1.14,1.057,2,2.196,1.926c1.14-0.07,2.001-1.055,1.927-2.191
					c-0.073-1.137-1.055-2.003-2.192-1.926C320.386,52.163,319.521,53.149,319.594,54.284z"/>
				<path fill="#FFFFFF" d="M266.86,98.216c0.034,0.492,0.455,0.872,0.953,0.84c0.494-0.031,0.871-0.461,0.841-0.957
					c-0.031-0.49-0.464-0.869-0.957-0.838C267.198,97.298,266.824,97.721,266.86,98.216z"/>
				<path fill="#FFFFFF" d="M309.782,111.003c0.065,1.134,1.048,1.999,2.193,1.923c1.136-0.072,1.992-1.055,1.923-2.191
					c-0.074-1.145-1.052-2.003-2.188-1.929C310.563,108.881,309.704,109.858,309.782,111.003z"/>
				<path fill="#FFFFFF" d="M244.584,152.084c0.063,0.846,0.789,1.49,1.64,1.433c0.844-0.051,1.491-0.783,1.439-1.626
					c-0.059-0.851-0.792-1.495-1.637-1.434C245.181,150.506,244.533,151.238,244.584,152.084z"/>
				<path fill="#FFFFFF" d="M238.727,81.764c0.075,1.137,1.055,2.003,2.197,1.929c1.137-0.072,1.995-1.06,1.925-2.194
					c-0.074-1.143-1.054-2.006-2.192-1.931C239.514,79.643,238.655,80.625,238.727,81.764z"/>
				<path fill="#FFFFFF" d="M211.488,113.659c0.036,0.549,0.518,0.967,1.066,0.928c0.553-0.034,0.969-0.511,0.933-1.06
					c-0.033-0.552-0.511-0.97-1.063-0.936C211.878,112.63,211.455,113.102,211.488,113.659z"/>
				<path fill="#FFFFFF" d="M191.289,136.367c0.072,1.14,1.049,2.006,2.191,1.934c1.137-0.077,2.003-1.057,1.931-2.199
					c-0.072-1.137-1.057-2.006-2.199-1.929C192.078,134.245,191.211,135.23,191.289,136.367z"/>
			</g>
			<path fill="#FFFFFF" d="M177.938,149.872c-3.797-1.505-8.161,0.464-9.721,4.396L94.603,339.674l13.783,5.468l73.611-185.4
				C183.562,155.806,181.74,151.385,177.938,149.872z M96.709,338.765l62.018-156.202c0.505,1.758,2.143,3.476,4.481,4.406
				c2.342,0.926,4.717,0.802,6.285-0.131l-62.02,156.202L96.709,338.765z"/>
		</g>
	</g>
	<g>
	</g>
	<g>
	</g>
	<g>
	</g>
	<g>
	</g>
	<g>
	</g>
	<g>
	</g>
	<g>
	</g>
	<g>
	</g>
	<g>
	</g>
	<g>
	</g>
	<g>
	</g>
	<g>
	</g>
	<g>
	</g>
	<g>
	</g>
	<g>
	</g>
</g>
</svg>
