<?xml version="1.0" encoding="utf-8"?>
<!-- Generator: Adobe Illustrator 16.0.0, SVG Export Plug-In . SVG Version: 6.00 Build 0)  -->
<!DOCTYPE svg PUBLIC "-//W3C//DTD SVG 1.0//EN" "http://www.w3.org/TR/2001/REC-SVG-20010904/DTD/svg10.dtd" [
	<!ENTITY ns_flows "http://ns.adobe.com/Flows/1.0/">
	<!ENTITY ns_extend "http://ns.adobe.com/Extensibility/1.0/">
	<!ENTITY ns_ai "http://ns.adobe.com/AdobeIllustrator/10.0/">
	<!ENTITY ns_graphs "http://ns.adobe.com/Graphs/1.0/">
]>
<svg version="1.0" id="Layer_1" xmlns:x="&ns_extend;" xmlns:i="&ns_ai;" xmlns:graph="&ns_graphs;"
	 xmlns="http://www.w3.org/2000/svg" xmlns:xlink="http://www.w3.org/1999/xlink" xmlns:a="http://ns.adobe.com/AdobeSVGViewerExtensions/3.0/"
	 x="0px" y="0px" width="1182px" height="560px" viewBox="49 120 1182 560" enable-background="new 49 120 1182 560"
	 xml:space="preserve">
<g>
	<g opacity="0.5">
		<circle fill="none" stroke="#FFFFFF" stroke-miterlimit="10" cx="918.037" cy="308.296" r="48.907"/>
		<circle fill="none" stroke="#FFFFFF" stroke-miterlimit="10" cx="918.038" cy="308.296" r="59.671"/>
		<circle fill="none" stroke="#FFFFFF" stroke-miterlimit="10" cx="918.038" cy="308.296" r="70.433"/>
		<circle fill="none" stroke="#FFFFFF" stroke-miterlimit="10" cx="918.038" cy="308.296" r="81.196"/>
		<circle fill="none" stroke="#FFFFFF" stroke-miterlimit="10" cx="918.038" cy="308.297" r="91.959"/>
		<circle fill="none" stroke="#FFFFFF" stroke-miterlimit="10" cx="918.038" cy="308.297" r="102.722"/>
		<circle fill="none" stroke="#FFFFFF" stroke-miterlimit="10" cx="918.038" cy="308.297" r="113.484"/>
		<circle fill="none" stroke="#FFFFFF" stroke-miterlimit="10" cx="918.038" cy="308.297" r="124.248"/>
		<circle fill="none" stroke="#FFFFFF" stroke-miterlimit="10" cx="918.038" cy="308.298" r="135.011"/>
		<circle fill="none" stroke="#FFFFFF" stroke-miterlimit="10" cx="918.038" cy="308.297" r="145.773"/>
		<circle fill="none" stroke="#FFFFFF" stroke-miterlimit="10" cx="918.038" cy="308.298" r="156.536"/>
		<circle fill="none" stroke="#FFFFFF" stroke-miterlimit="10" cx="918.038" cy="308.297" r="167.299"/>
	</g>
	<circle fill="#EFF4F5" cx="918.038" cy="308.296" r="39.88"/>
</g>
<polygon fill="#B3DAEA" points="569.504,357.876 488.644,477.072 476.608,459.33 326.07,681.24 350.142,681.24 476.608,681.24 
	569.504,681.24 627.146,681.24 788.865,681.24 "/>
<polygon fill="#8AC1D7" points="455.247,550.218 439.886,574.808 388.836,493.087 268.783,685.273 370.882,685.273 388.836,685.273 
	455.247,685.273 508.891,685.273 539.613,685.273 "/>
<polygon fill="#9ECDE1" points="783.725,413.399 746.453,468.344 737.49,455.134 581.37,685.273 599.294,685.273 737.49,685.273 
	783.725,685.273 893.612,685.273 968.157,685.273 "/>
<polygon fill="#C7E6F4" points="1109.573,397.049 1100.913,409.813 1044.616,326.827 948.366,468.71 934.923,448.893 
	777.307,681.24 804.193,681.24 916.787,681.24 934.923,681.24 1044.616,681.24 1092.543,681.24 1109.573,681.24 1285.042,681.24 
	1302.363,681.24 "/>
<g>
	<g>
		<path fill="#FFFFFF" d="M132.886,354.342h-1.899l-3.262-21.757l-3.262,21.757h-1.828l-4.301-25.305h1.792l3.405,21.506
			l3.262-21.506h1.864l3.297,21.506l3.297-21.506h1.756L132.886,354.342z"/>
		<path fill="#FFFFFF" d="M141.563,330.614v9.75h5.95v1.541h-5.95v10.86h7.205v1.577h-8.925v-25.305h8.961v1.577H141.563z"/>
		<path fill="#FFFFFF" d="M168.126,351.869c-1.04,2.796-3.942,2.903-4.731,2.903c-0.395,0-2.007-0.036-3.19-0.932
			c-0.322-0.215-0.573-0.501-0.788-0.824c-1.076-1.434-1.004-3.011-1.004-4.66v-19.319h1.721v19.606c0,1.649,0.143,2.509,0.573,3.19
			c0.395,0.609,1.219,1.29,2.796,1.29c0.251,0,1.326,0,2.079-0.609c1.183-0.896,1.147-2.258,1.147-4.875v-18.603h1.756v20.287
			C168.484,350.184,168.413,351.08,168.126,351.869z"/>
		<path fill="#FFFFFF" d="M179.957,354.342l-5.878-23.907l0.143,23.907h-1.685v-25.305h2.581l6.057,24.337l-0.251-24.337h1.721
			v25.305H179.957z"/>
		<path fill="#FFFFFF" d="M196.985,347.281c-0.144,2.15-0.502,4.086-2.223,5.556c-0.394,0.323-1.254,1.003-2.509,1.291
			c-0.824,0.215-1.828,0.215-2.007,0.215h-3.333v-25.305h2.187c2.294,0,4.588,0.179,6.201,2.079c1.398,1.685,1.721,3.979,1.721,8.28
			v5.627C197.021,345.775,197.021,346.492,196.985,347.281z M195.3,339.359c0-1.792-0.036-4.803-0.896-6.416
			c-0.752-1.397-2.115-1.899-2.616-2.043c-0.717-0.179-1.577-0.251-1.792-0.251h-1.326v22.115h1.434c1.147,0,2.115-0.179,3.118-0.86
			c1.649-1.183,2.079-3.046,2.079-6.738V339.359z"/>
		<path fill="#FFFFFF" d="M202.793,330.614v9.75h5.95v1.541h-5.95v10.86h7.205v1.577h-8.925v-25.305h8.961v1.577H202.793z"/>
		<path fill="#FFFFFF" d="M222.151,354.342l-4.624-12.33h-2.76v12.33h-1.756v-25.305h4.911c1.29,0,2.509,0.072,3.584,0.896
			c1.47,1.147,1.398,3.011,1.398,3.513v3.943c0,0.072,0,1.04-0.144,1.613c-0.466,1.756-1.864,2.366-2.437,2.617
			c-0.287,0.107-0.395,0.179-0.932,0.287l4.624,12.438H222.151z M221.04,333.911c0-1.075-0.072-2.401-1.147-3.011
			c-0.609-0.322-1.183-0.358-1.828-0.358h-3.297v9.964h3.226c0.179,0,0.896,0,1.505-0.215c1.577-0.538,1.542-1.972,1.542-2.473
			V333.911z"/>
		<path fill="#FFFFFF" d="M235.416,352.872c-0.609,0.896-1.864,1.864-4.301,1.864c-0.968,0-2.115-0.179-2.903-0.609
			c-0.179-0.108-0.466-0.287-0.824-0.609c-0.574-0.502-0.968-1.076-1.255-1.828c-0.251-0.717-0.287-1.291-0.287-2.043v-3.584h1.756
			v2.043c0,0.538-0.036,1.04,0,1.577c0.072,1.219,0.466,3.513,3.728,3.513c0.287,0,1.075,0,1.828-0.466
			c0.896-0.538,1.398-1.613,1.398-3.692c0-1.971-0.43-2.868-0.896-3.62c-0.932-1.434-2.617-3.047-2.868-3.262
			c-1.47-1.434-2.366-2.438-2.903-3.19c-0.609-0.825-1.434-2.258-1.434-4.696c0-0.143,0-1.183,0.144-1.899
			c0.25-1.434,1.075-3.692,4.624-3.692c0.394,0,1.828,0,2.975,0.717c1.756,1.147,1.756,3.298,1.756,5.125v1.828h-1.721v-2.258
			c0-0.896,0-1.183-0.107-1.685c-0.144-0.86-0.681-2.222-2.868-2.222c-0.25,0-1.075,0-1.792,0.43
			c-0.789,0.502-1.254,1.505-1.254,3.369c0,2.401,0.645,3.369,2.187,5.125c0.538,0.646,1.111,1.255,1.72,1.9
			c0.896,0.896,1.792,1.756,2.581,2.76c1.255,1.577,1.613,2.975,1.613,4.982C236.312,350.865,235.917,352.12,235.416,352.872z"/>
		<path fill="#FFFFFF" d="M244.235,330.614v23.728h-1.792v-23.728h-4.409v-1.577h10.681v1.577H244.235z"/>
		<path fill="#FFFFFF" d="M258.359,354.342l-1.291-7.706h-5.305l-1.326,7.706h-1.864l4.624-25.448h2.438l4.588,25.448H258.359z
			 M254.774,333.23c-0.144-0.789-0.251-1.577-0.358-2.366c-0.072,0.752-0.179,1.47-0.287,2.187l-2.079,11.936h4.695L254.774,333.23z
			"/>
		<path fill="#FFFFFF" d="M270.547,354.342l-5.878-23.907l0.143,23.907h-1.685v-25.305h2.581l6.057,24.337l-0.251-24.337h1.721
			v25.305H270.547z"/>
		<path fill="#FFFFFF" d="M287.576,347.281c-0.144,2.15-0.502,4.086-2.223,5.556c-0.394,0.323-1.254,1.003-2.509,1.291
			c-0.824,0.215-1.828,0.215-2.007,0.215h-3.333v-25.305h2.187c2.294,0,4.588,0.179,6.201,2.079c1.398,1.685,1.721,3.979,1.721,8.28
			v5.627C287.611,345.775,287.611,346.492,287.576,347.281z M285.891,339.359c0-1.792-0.036-4.803-0.896-6.416
			c-0.752-1.397-2.115-1.899-2.616-2.043c-0.717-0.179-1.577-0.251-1.792-0.251h-1.326v22.115h1.434c1.147,0,2.115-0.179,3.118-0.86
			c1.649-1.183,2.079-3.046,2.079-6.738V339.359z"/>
		<path fill="#FFFFFF" d="M302.705,330.614v23.728h-1.792v-23.728h-4.409v-1.577h10.681v1.577H302.705z"/>
		<path fill="#FFFFFF" d="M317.832,354.342v-12.509h-6.523v12.509h-1.72v-25.305h1.72v11.255h6.523v-11.255h1.756v25.305H317.832z"
			/>
		<path fill="#FFFFFF" d="M325.505,330.614v9.75h5.95v1.541h-5.95v10.86h7.205v1.577h-8.925v-25.305h8.961v1.577H325.505z"/>
		<path fill="#652D90" d="M136.697,426.041l-1.452-10.485h-8.55l-1.291,10.485h-7.34l8.066-56.944h9.114l8.792,56.944H136.697z
			 M130.647,379.018l-3.146,29.602h6.775L130.647,379.018z"/>
		<path fill="#652D90" d="M156.136,376.114v16.535h10.889v6.937h-10.809v26.456h-7.582v-56.944h19.519v7.017H156.136z"/>
		<path fill="#652D90" d="M188.723,426.041c-0.968-5.323-1.129-6.533-1.129-11.938v-4.033c0-1.936-0.081-3.951-0.323-5.888
			c-0.161-1.371-0.403-2.742-1.371-3.63c-0.726-0.564-1.533-0.726-2.42-0.726h-3.065v26.214h-7.501v-56.944h12.26
			c0.968,0,1.936,0,2.823,0.081c2.016,0.161,5.807,0.403,6.937,5.565c0.323,1.452,0.484,4.275,0.484,8.146
			c0,2.178,0,4.436-0.161,6.694c-0.081,1.452-0.323,3.227-0.887,4.517c-1.372,2.984-4.598,2.903-5.808,3.065
			c1.21,0.242,3.549-0.081,5.162,2.419c1.291,2.017,1.371,4.356,1.371,9.034v6.211c0,6.452,0.162,7.662,1.452,11.211H188.723z
			 M187.835,378.695c-0.081-1.21-0.322-1.855-0.806-2.258c-0.484-0.484-1.291-0.484-2.743-0.484h-3.791v17.583h3.549
			c1.936,0,3.065-0.484,3.549-2.5c0.323-1.372,0.403-4.759,0.403-8.711C187.997,381.115,187.917,379.905,187.835,378.695z"/>
		<path fill="#652D90" d="M201.951,426.041v-56.944h7.42v56.944H201.951z"/>
		<path fill="#652D90" d="M238.893,421.767c-1.372,2.016-4.275,5-10.324,5c-5.808,0-8.711-2.661-10.083-4.678
			c-2.016-2.903-2.016-6.452-2.016-9.76v-27.504c0-1.291,0.081-2.581,0.161-3.872c0.161-2.178,0.564-9.356,7.824-11.695
			c1.613-0.564,2.984-0.726,4.759-0.726c4.194,0,6.453,1.291,7.905,2.5c1.209,0.968,2.097,2.178,2.662,3.549
			c1.129,2.581,1.209,5.162,1.209,7.905v7.259h-7.582v-8.792c0-1.21,0.403-5.888-4.598-5.888c-1.613,0-2.419,0.484-3.065,0.968
			c-1.855,1.613-1.694,4.033-1.694,6.21V413.7c0,0.646,0,1.29,0.081,1.937c0.081,1.531,0.323,4.597,4.517,4.597
			c0.484,0,1.774,0.081,2.904-0.806c1.936-1.372,1.855-3.791,1.855-5.889v-11.051h7.582v10.647
			C240.989,416.281,240.748,419.023,238.893,421.767z"/>
		<path fill="#652D90" d="M263.414,426.041l-1.452-10.485h-8.55l-1.291,10.485h-7.34l8.066-56.944h9.114l8.792,56.944H263.414z
			 M257.364,379.018l-3.146,29.602h6.775L257.364,379.018z"/>
		<path fill="#652D90" d="M290.758,426.041l-9.114-41.781l0.645,41.781h-7.017v-56.944h8.065l8.953,38.796l-0.322-38.796h7.098
			v56.944H290.758z"/>
		<path fill="#652D90" d="M336.089,375.791v50.25h-7.663v-50.25h-8.63v-6.694h25.166v6.694H336.089z"/>
		<path fill="#652D90" d="M349.963,426.041v-56.944h18.793v7.098h-11.212v16.696h10.002v7.098h-9.921v18.874h11.131v7.179H349.963z"
			/>
		<path fill="#652D90" d="M390.05,426.041c-0.968-5.323-1.129-6.533-1.129-11.938v-4.033c0-1.936-0.081-3.951-0.323-5.888
			c-0.161-1.371-0.403-2.742-1.371-3.63c-0.726-0.564-1.533-0.726-2.42-0.726h-3.065v26.214h-7.501v-56.944h12.26
			c0.968,0,1.936,0,2.823,0.081c2.016,0.161,5.807,0.403,6.937,5.565c0.323,1.452,0.484,4.275,0.484,8.146
			c0,2.178,0,4.436-0.161,6.694c-0.081,1.452-0.323,3.227-0.887,4.517c-1.372,2.984-4.598,2.903-5.808,3.065
			c1.21,0.242,3.549-0.081,5.162,2.419c1.291,2.017,1.371,4.356,1.371,9.034v6.211c0,6.452,0.162,7.662,1.452,11.211H390.05z
			 M389.163,378.695c-0.081-1.21-0.322-1.855-0.807-2.258c-0.484-0.484-1.29-0.484-2.742-0.484h-3.791v17.583h3.549
			c1.936,0,3.065-0.484,3.549-2.5c0.323-1.372,0.403-4.759,0.403-8.711C389.325,381.115,389.244,379.905,389.163,378.695z"/>
		<path fill="#652D90" d="M419.41,426.041c-0.968-5.323-1.129-6.533-1.129-11.938v-4.033c0-1.936-0.081-3.951-0.323-5.888
			c-0.161-1.371-0.403-2.742-1.371-3.63c-0.726-0.564-1.533-0.726-2.42-0.726h-3.065v26.214h-7.501v-56.944h12.26
			c0.968,0,1.936,0,2.823,0.081c2.016,0.161,5.807,0.403,6.937,5.565c0.323,1.452,0.484,4.275,0.484,8.146
			c0,2.178,0,4.436-0.161,6.694c-0.081,1.452-0.323,3.227-0.887,4.517c-1.372,2.984-4.598,2.903-5.808,3.065
			c1.21,0.242,3.549-0.081,5.162,2.419c1.291,2.017,1.371,4.356,1.371,9.034v6.211c0,6.452,0.162,7.662,1.452,11.211H419.41z
			 M418.523,378.695c-0.081-1.21-0.322-1.855-0.806-2.258c-0.484-0.484-1.291-0.484-2.743-0.484h-3.791v17.583h3.549
			c1.936,0,3.065-0.484,3.549-2.5c0.323-1.372,0.403-4.759,0.403-8.711C418.685,381.115,418.604,379.905,418.523,378.695z"/>
		<path fill="#652D90" d="M448.77,426.041l-1.452-10.485h-8.55l-1.291,10.485h-7.34l8.066-56.944h9.114l8.792,56.944H448.77z
			 M442.721,379.018l-3.146,29.602h6.775L442.721,379.018z"/>
		<path fill="#652D90" d="M460.305,426.041v-56.944h7.42v56.944H460.305z"/>
		<path fill="#652D90" d="M490.391,426.041l-9.114-41.781l0.645,41.781h-7.017v-56.944h8.065l8.953,38.796l-0.322-38.796h7.098
			v56.944H490.391z"/>
		<path fill="#652D90" d="M505.072,426.041v-10.646h6.614v10.646H505.072z"/>
	</g>
</g>
<g>
	<path fill="#EE4036" d="M548.977,492.04c-0.059,2.657-0.177,5.021-1.89,7.206c-2.48,3.308-6.202,3.366-7.561,3.366
		c-3.839,0-5.729-1.477-6.792-2.657c-0.768-0.887-1.358-1.891-1.654-2.954c-0.354-1.063-0.532-2.422-0.532-4.843
		c0-0.769,0-1.536,0.059-2.304l4.902,0.059c-0.059,3.071-0.059,4.844,0.65,6.202c0.65,1.3,2.186,1.831,3.544,1.831
		c1.89,0,2.895-0.886,3.367-1.536c1.004-1.477,0.768-3.839,0.827-7.501c0-1.182,0.059-2.422,0.059-3.662
		c0-2.067-0.118-3.78-0.354-4.548c-0.236-0.887-1.122-2.658-3.603-2.658c-0.414,0-1.299,0-2.126,0.649
		c-1.063,0.768-1.358,1.891-1.358,4.253h-4.726l0.65-22.563h16.125v4.489h-11.4l-0.295,10.396c0.059-0.118,0.473-0.473,0.827-0.709
		c1.123-0.709,2.895-1.122,4.194-1.122c0.768,0,2.599,0.118,4.312,1.358c2.422,1.831,2.835,4.489,2.835,10.101
		C549.036,487.255,548.977,489.618,548.977,492.04z"/>
	<path fill="#EE4036" d="M571.422,488.496v3.662c0,3.189-0.354,6.497-3.071,8.623c-1.182,0.887-2.954,1.831-6.143,1.831
		c-0.827,0-3.308,0-5.611-1.358c-4.076-2.304-3.78-6.497-3.839-14.412c-0.059-2.953-0.118-5.906-0.059-8.919
		c0-1.654,0.059-3.367,0.059-5.08c0-1.417,0-2.894,0.118-4.312c0.295-3.426,1.299-6.084,4.43-7.679
		c2.067-1.004,4.076-1.004,4.784-1.004c0.827,0,2.954,0,5.08,1.181c3.898,2.127,4.312,6.557,4.312,10.573
		c0,3.189,0.059,6.379,0.059,9.569C571.541,483.652,571.422,486.074,571.422,488.496z M566.284,471.897
		c0-2.835-0.118-4.488-0.768-5.67c-0.413-0.709-1.417-1.713-3.367-1.713c-3.189,0-3.78,2.186-4.017,3.426
		c-0.236,1.418-0.295,5.375-0.295,9.687c0,3.662,0,7.266,0.059,10.928c0,1.831-0.059,3.604,0.118,5.435
		c0.118,1.358,0.295,2.362,1.418,3.248c1.063,0.769,2.244,0.769,2.658,0.769c2.245,0,3.367-1.123,3.721-2.067
		c0.591-1.477,0.473-5.493,0.473-6.911V471.897z"/>
	<path fill="#EE4036" d="M586.603,479.636c0,1.477-0.118,3.131-0.768,4.43c-0.649,1.24-2.126,2.658-5.257,2.658
		c-0.532,0-2.245,0.06-3.78-0.945c-2.304-1.535-2.245-3.898-2.304-8.623c0-1.182-0.059-2.422-0.059-3.662
		c0-2.009,0.059-4.017,0.059-6.025c0-3.721,0.768-5.375,2.422-6.438c1.477-0.944,3.012-1.004,3.603-1.004
		c0.532,0,1.89,0.06,3.189,0.768c2.658,1.359,2.954,4.194,2.954,6.853c0,1.89,0.059,3.839,0.059,5.729
		C586.721,475.501,586.662,477.568,586.603,479.636z M582.645,473.493c0-2.127,0.059-4.253,0-6.38
		c-0.059-1.535,0.059-3.484-2.126-3.426c-1.477,0-1.831,1.063-1.949,1.595c-0.118,0.65-0.177,2.363-0.177,4.194v3.898
		c0,1.713,0.059,3.426,0.059,5.139v2.186c0,0.59-0.059,2.422,2.067,2.422c0.414,0,1.772-0.06,2.008-1.478
		c0.059-0.472,0.177-2.126,0.177-3.721C582.704,476.446,582.645,474.97,582.645,473.493z M582.94,502.081h-2.895l20.497-41.701
		h2.717L582.94,502.081z M608.752,495.288c0,1.418-0.118,3.131-0.768,4.431c-0.65,1.24-2.126,2.657-5.257,2.657
		c-0.531,0-2.244,0.06-3.78-0.944c-2.303-1.536-2.244-3.898-2.303-8.624c0-1.182-0.059-2.422-0.059-3.662
		c0-2.009,0.059-4.017,0.059-6.024c0-3.722,0.768-5.376,2.421-6.438c1.477-0.945,3.013-1.005,3.603-1.005
		c0.532,0,1.89,0.06,3.19,0.769c2.658,1.358,2.953,4.193,2.953,6.852c0,1.89,0.059,3.78,0.059,5.729
		C608.871,491.153,608.812,493.221,608.752,495.288z M604.795,489.146c0-2.127,0.059-4.253,0-6.379
		c-0.059-1.536,0.059-3.426-2.126-3.426c-1.477,0-1.831,1.063-1.949,1.595c-0.118,0.649-0.177,2.362-0.177,4.193v3.898
		c0,1.713,0.059,3.426,0.059,5.08v2.244c0,0.531-0.059,2.422,2.067,2.422c0.414,0,1.772-0.06,2.008-1.477
		c0.059-0.473,0.177-2.127,0.177-3.722C604.854,492.099,604.795,490.622,604.795,489.146z"/>
	<path fill="#FFFFFF" d="M520.174,523.989c0,0.438-0.021,0.878-0.042,1.317c-0.083,1.067-0.251,2.343-1.108,3.097
		c-0.481,0.418-1.213,0.773-2.552,0.773c-0.418,0-1.987,0.063-2.866-1.192c-0.125-0.167-0.314-0.46-0.439-0.941
		c-0.23-0.815-0.23-2.531-0.23-4.665c0-1.339,0.021-2.656,0.042-3.995c0.042-1.695,0.272-2.532,0.795-3.201
		c0.46-0.586,1.318-1.213,2.992-1.213c0.439,0,2.259,0.021,3.033,1.631c0.209,0.419,0.314,0.858,0.355,1.318
		c0.125,1.046,0.125,3.431,0.104,4.456C520.257,522.253,520.195,523.11,520.174,523.989z M518.354,518.299
		c0-0.586,0.021-1.507-0.293-2.051c-0.167-0.292-0.607-0.731-1.423-0.731c-0.209,0-0.669,0.021-1.087,0.355
		c-0.711,0.564-0.732,1.548-0.732,3.264v1.024c0,1.423,0,2.846,0.021,4.268c0,1.067,0,1.695,0.146,2.155
		c0.146,0.439,0.502,1.088,1.59,1.088c0.606,0,1.192-0.272,1.443-0.857c0.293-0.628,0.314-1.842,0.335-3.473
		c0.021-0.649,0.021-1.298,0.021-1.967C518.375,520.349,518.375,519.324,518.354,518.299z"/>
	<path fill="#FFFFFF" d="M524.062,515.851v4.352h4.038v1.611h-4.038v7.154H522.2v-14.77h6.506v1.652H524.062z"/>
	<path fill="#FFFFFF" d="M539.705,528.968l-0.523-2.845h-3.431l-0.502,2.845h-1.904l3.18-14.77h1.841l3.264,14.77H539.705z
		 M537.425,516.938l-1.36,7.595h2.803L537.425,516.938z"/>
	<path fill="#FFFFFF" d="M544.535,515.851v4.352h4.038v1.611h-4.038v7.154h-1.862v-14.77h6.506v1.652H544.535z"/>
	<path fill="#FFFFFF" d="M556.373,528.968l-2.51-6.485h-1.527v6.485h-1.82v-14.77h3.222c0.941,0,1.966,0.042,2.761,0.69
		c1.234,1.004,1.151,2.95,1.151,3.242c0,0.628-0.042,1.234-0.146,1.842c-0.146,0.836-0.376,1.255-0.606,1.548
		c-0.46,0.564-1.004,0.69-1.234,0.753l2.636,6.694H556.373z M555.641,516.855c-0.376-1.067-1.506-0.983-2.406-0.983h-0.899v5.167
		h0.962c0.816,0,1.213-0.021,1.611-0.167c0.921-0.377,0.9-1.674,0.9-2.448C555.808,517.922,555.808,517.336,555.641,516.855z"/>
	<path fill="#FFFFFF" d="M559.654,528.968v-14.77h1.82v14.77H559.654z"/>
	<path fill="#FFFFFF" d="M570.447,525.349c0,0.126,0,0.774-0.084,1.276c-0.272,1.568-1.087,2.05-1.736,2.301
		c-0.69,0.251-1.422,0.251-1.631,0.251c-0.837,0-1.548-0.125-2.239-0.648c-0.146-0.125-0.439-0.376-0.69-0.753
		c-0.564-0.857-0.627-1.945-0.627-3.996v-2.363c0-0.837,0-1.653,0.021-2.49c0.021-1.129,0.021-2.74,0.774-3.744
		c0.648-0.879,1.883-1.213,2.908-1.213c1.318,0,2.071,0.543,2.469,0.941c0.565,0.585,0.774,1.338,0.774,2.97
		c0,0.314,0,0.648-0.021,0.963h-1.694c0-0.523,0-1.067-0.021-1.611c-0.021-0.606-0.063-1.046-0.565-1.422
		c-0.167-0.126-0.46-0.293-0.941-0.293c-0.46,0-1.401,0.104-1.673,1.297c-0.188,0.837-0.209,2.636-0.209,4.854
		c0,1.108,0.021,2.196,0.063,3.305c0.021,0.586-0.021,1.381,0.293,1.925c0.397,0.712,1.276,0.732,1.485,0.732
		c0.167,0,0.585,0,0.983-0.313c0.69-0.523,0.669-1.694,0.669-2.448v-1.088h1.716C570.468,524.303,570.468,524.825,570.447,525.349z"
		/>
	<path fill="#FFFFFF" d="M577.599,528.968l-0.523-2.845h-3.431l-0.502,2.845h-1.904l3.18-14.77h1.841l3.263,14.77H577.599z
		 M575.318,516.938l-1.36,7.595h2.803L575.318,516.938z"/>
	<path fill="#FFFFFF" d="M585.022,528.968l-2.887-12.803l0.251,12.803h-1.82v-14.77h2.531l2.992,12.929l-0.251-12.929h1.778v14.77
		H585.022z"/>
	<path fill="#FFFFFF" d="M595.081,528.55c-0.92,0.627-1.945,0.627-2.301,0.627c-0.523,0-2.636-0.042-3.326-2.029
		c-0.188-0.544-0.23-1.088-0.23-1.652v-1.632h1.736v0.732c0,1.004,0,1.464,0.167,1.945c0.146,0.397,0.585,1.067,1.652,1.067
		c0.711,0,1.402-0.314,1.695-0.963c0.167-0.355,0.167-0.732,0.167-0.879c0-1.255-0.564-1.777-1.38-2.614l-1.988-2.051
		c-1.15-1.192-1.694-1.987-1.694-3.702c0-0.21,0-0.795,0.167-1.402c0.293-0.962,1.109-2.028,3.263-2.028
		c0.502,0,2.49,0.021,2.992,1.924c0.125,0.502,0.125,1.192,0.125,1.716v0.941h-1.632c-0.021-0.921-0.021-0.69-0.021-1.214
		c0-0.669-0.105-1.317-0.795-1.652c-0.335-0.146-0.649-0.146-0.774-0.146c-0.439,0-0.816,0.104-1.108,0.397
		c-0.167,0.146-0.251,0.335-0.293,0.397c-0.084,0.188-0.146,0.502-0.146,0.983c0,0.126,0,0.502,0.125,0.857
		c0.23,0.69,0.858,1.256,1.339,1.778l2.322,2.469c0.167,0.188,0.313,0.377,0.46,0.564c0.355,0.461,0.816,1.234,0.816,2.637
		C596.42,527.378,595.708,528.131,595.081,528.55z"/>
	<path fill="#FFFFFF" d="M607.649,528.968l-0.523-2.845h-3.431l-0.502,2.845h-1.904l3.18-14.77h1.841l3.263,14.77H607.649z
		 M605.369,516.938l-1.36,7.595h2.803L605.369,516.938z"/>
	<path fill="#FFFFFF" d="M616.474,528.968l-2.51-6.485h-1.527v6.485h-1.82v-14.77h3.222c0.941,0,1.966,0.042,2.761,0.69
		c1.234,1.004,1.151,2.95,1.151,3.242c0,0.628-0.042,1.234-0.146,1.842c-0.146,0.836-0.376,1.255-0.606,1.548
		c-0.46,0.564-1.004,0.69-1.234,0.753l2.636,6.694H616.474z M615.742,516.855c-0.376-1.067-1.506-0.983-2.406-0.983h-0.899v5.167
		h0.962c0.816,0,1.213-0.021,1.611-0.167c0.921-0.377,0.9-1.674,0.9-2.448C615.91,517.922,615.91,517.336,615.742,516.855z"/>
	<path fill="#FFFFFF" d="M619.755,528.968v-14.77h6.506v1.652h-4.666v4.394h4.08v1.674h-4.08v5.397h4.812v1.652H619.755z"/>
	<path fill="#FFFFFF" d="M513.262,549.63c-0.878,0.481-1.82,0.46-2.134,0.46c-0.899,0-2.008-0.188-2.699-0.857
		c-0.146-0.146-0.418-0.481-0.606-1.004c-0.272-0.795-0.251-1.841-0.251-2.029v-11.088h1.862v9.791c0,1.255-0.042,2.154,0.167,2.678
		c0.209,0.544,0.69,0.753,0.879,0.815s0.355,0.104,0.732,0.104c0.565,0,0.983-0.084,1.339-0.544
		c0.063-0.083,0.188-0.251,0.251-0.522c0.063-0.293,0.083-1.005,0.083-1.82v-10.502h1.862v11.024
		C514.747,547.517,514.643,548.877,513.262,549.63z"/>
	<path fill="#FFFFFF" d="M521.229,549.881l-2.887-12.803l0.251,12.803h-1.82v-14.77h2.531l2.992,12.929l-0.251-12.929h1.778v14.77
		H521.229z"/>
	<path fill="#FFFFFF" d="M533.066,545.027c0,0.544-0.021,1.088-0.063,1.632c-0.104,1.172-0.46,2.238-1.548,2.824
		c-0.879,0.46-1.862,0.397-2.782,0.397h-2.762v-14.77h2.782c0.9,0,1.799-0.042,2.657,0.335c1.38,0.606,1.59,1.925,1.652,2.385
		c0.084,0.628,0.104,2.176,0.104,3.912C533.108,542.831,533.087,543.939,533.066,545.027z M531.267,539.463
		c-0.021-1.172-0.083-1.778-0.523-2.218c-0.523-0.481-1.422-0.439-2.05-0.439h-0.941v11.443h1.213c0.46,0,1.004,0,1.464-0.23
		c0.314-0.167,0.586-0.397,0.732-1.108c0.104-0.564,0.125-2.113,0.125-3.808C531.288,541.89,531.309,540.676,531.267,539.463z"/>
	<path fill="#FFFFFF" d="M535.05,549.881v-14.77h6.506v1.652h-4.666v4.394h4.08v1.674h-4.08v5.397h4.812v1.652H535.05z"/>
	<path fill="#FFFFFF" d="M549.189,549.881l-2.51-6.485h-1.527v6.485h-1.82v-14.77h3.222c0.941,0,1.966,0.042,2.761,0.69
		c1.234,1.004,1.151,2.95,1.151,3.242c0,0.628-0.042,1.234-0.146,1.842c-0.146,0.836-0.376,1.255-0.606,1.548
		c-0.46,0.564-1.004,0.69-1.234,0.753l2.636,6.694H549.189z M548.457,537.769c-0.376-1.067-1.506-0.983-2.406-0.983h-0.899v5.167
		h0.962c0.816,0,1.213-0.021,1.611-0.167c0.921-0.377,0.9-1.674,0.9-2.448C548.625,538.835,548.625,538.249,548.457,537.769z"/>
	<path fill="#FFFFFF" d="M560.606,536.764v13.117h-1.82v-13.117h-2.803v-1.652h7.427v1.652H560.606z"/>
	<path fill="#FFFFFF" d="M569.871,549.881v-6.883h-3.368v6.883h-1.841v-14.77h1.841v6.276h3.368v-6.276h1.841v14.77H569.871z"/>
	<path fill="#FFFFFF" d="M573.801,549.881v-14.77h6.506v1.652h-4.666v4.394h4.08v1.674h-4.08v5.397h4.812v1.652H573.801z"/>
	<path fill="#FFFFFF" d="M591.745,549.881l-0.523-2.845h-3.431l-0.502,2.845h-1.904l3.18-14.77h1.841l3.264,14.77H591.745z
		 M589.465,537.852l-1.36,7.595h2.803L589.465,537.852z"/>
	<path fill="#FFFFFF" d="M600.382,549.881v-1.025c-0.23,0.23-0.356,0.355-0.586,0.544c-0.313,0.23-1.067,0.712-2.113,0.69
		c-0.648,0-2.238-0.209-2.803-2.029c-0.251-0.815-0.251-1.527-0.272-3.18c-0.021-0.773-0.021-1.548-0.021-2.343
		c0-1.046,0.021-2.092,0.063-3.138c0-0.084,0-1.507,0.23-2.302c0.669-2.238,2.803-2.217,3.473-2.217
		c1.192,0,1.904,0.271,2.343,0.564c0.251,0.167,0.397,0.335,0.481,0.439c0.23,0.271,0.397,0.564,0.502,0.92
		c0.125,0.439,0.125,0.858,0.125,1.778v1.046h-1.736v-0.731c0-0.252-0.021-0.503-0.021-0.754c-0.021-0.606-0.104-1.715-1.652-1.715
		c-0.188,0-0.69,0-1.151,0.313c-0.188,0.126-0.313,0.251-0.376,0.335c-0.063,0.084-0.167,0.293-0.23,0.586
		c-0.146,0.69-0.209,2.28-0.209,4.184v1.778c0,0.837,0.021,1.652,0.063,2.489s0.042,1.214,0.209,1.59
		c0.293,0.606,0.837,0.879,1.485,0.879c0.23,0,0.816-0.021,1.339-0.481c0.104-0.084,0.335-0.313,0.481-0.648
		c0.146-0.377,0.209-1.108,0.209-2.113v-1.506h-2.176v-1.59h3.891v7.636H600.382z"/>
	<path fill="#FFFFFF" d="M603.852,549.881v-14.77h6.506v1.652h-4.666v4.394h4.08v1.674h-4.08v5.397h4.812v1.652H603.852z"/>
	<path fill="#FFFFFF" d="M623.595,544.902c0,0.438-0.021,0.878-0.042,1.317c-0.083,1.067-0.251,2.343-1.108,3.097
		c-0.481,0.418-1.213,0.773-2.552,0.773c-0.418,0-1.987,0.063-2.866-1.192c-0.125-0.167-0.314-0.46-0.439-0.941
		c-0.23-0.815-0.23-2.531-0.23-4.665c0-1.339,0.021-2.656,0.042-3.995c0.042-1.695,0.272-2.532,0.795-3.201
		c0.46-0.586,1.318-1.213,2.992-1.213c0.439,0,2.259,0.021,3.033,1.631c0.209,0.419,0.314,0.858,0.355,1.318
		c0.125,1.046,0.125,3.431,0.104,4.456C623.679,543.166,623.616,544.023,623.595,544.902z M621.775,539.212
		c0-0.586,0.021-1.507-0.293-2.05c-0.167-0.293-0.607-0.732-1.423-0.732c-0.209,0-0.669,0.021-1.087,0.355
		c-0.711,0.564-0.732,1.548-0.732,3.264v1.024c0,1.423,0,2.846,0.021,4.268c0,1.067,0,1.695,0.146,2.155
		c0.146,0.439,0.502,1.088,1.59,1.088c0.606,0,1.192-0.272,1.443-0.857c0.293-0.628,0.314-1.842,0.335-3.473
		c0.021-0.649,0.021-1.298,0.021-1.967C621.796,541.262,621.796,540.237,621.775,539.212z"/>
	<path fill="#FFFFFF" d="M627.483,536.764v4.352h4.038v1.611h-4.038v7.154h-1.862v-14.77h6.506v1.652H627.483z"/>
	<path fill="#FFFFFF" d="M560.625,570.793v-1.778l3.054-5.167c0.23-0.397,0.46-0.795,0.669-1.192
		c0.669-1.234,0.816-1.82,0.816-3.201c0-0.083,0.021-0.502-0.063-0.837c-0.209-0.982-0.878-1.108-1.318-1.108
		c-0.502,0-0.711,0.188-0.878,0.355c-0.46,0.481-0.418,1.15-0.418,1.736v1.694h-1.695v-1.841c0-0.209,0.021-0.418,0.021-0.606
		c0.021-0.439,0.021-1.82,1.234-2.573c0.523-0.313,1.13-0.439,1.715-0.439c1.967,0,2.678,1.36,2.908,2.071
		c0.104,0.335,0.23,0.921,0.23,1.778c0,0.564-0.042,1.716-0.648,3.075c-0.209,0.46-0.46,0.899-0.732,1.359l-3.033,5.084h4.602v1.59
		H560.625z"/>
	<path fill="#FFFFFF" d="M574.869,567.236c-0.021,0.941-0.063,1.778-0.669,2.553c-0.879,1.171-2.197,1.192-2.678,1.192
		c-1.36,0-2.029-0.523-2.406-0.941c-0.272-0.314-0.481-0.67-0.586-1.046c-0.125-0.377-0.188-0.858-0.188-1.716
		c0-0.271,0-0.544,0.021-0.815l1.737,0.021c-0.021,1.088-0.021,1.716,0.23,2.196c0.23,0.461,0.774,0.648,1.255,0.648
		c0.669,0,1.025-0.313,1.193-0.543c0.355-0.523,0.271-1.36,0.292-2.657c0-0.419,0.021-0.857,0.021-1.297
		c0-0.732-0.042-1.339-0.125-1.611c-0.083-0.313-0.397-0.941-1.276-0.941c-0.146,0-0.46,0-0.753,0.23
		c-0.376,0.271-0.481,0.669-0.481,1.506h-1.674l0.23-7.991h5.711v1.59h-4.038l-0.104,3.682c0.021-0.041,0.167-0.167,0.293-0.251
		c0.397-0.251,1.025-0.397,1.485-0.397c0.272,0,0.92,0.042,1.527,0.481c0.858,0.648,1.004,1.59,1.004,3.577
		C574.89,565.542,574.869,566.379,574.869,567.236z"/>
	<path fill="#FFFFFF" d="M576.457,570.793v-2.469h1.778v2.469H576.457z"/>
</g>
<g>
	<g>
		<path fill="#EE4036" d="M374.057,602.314v-21.134h-4.463v-2.556c0.61,0,1.221,0,1.792-0.076c2.022-0.19,3.167-1.03,3.205-3.166
			h2.823v26.932H374.057z"/>
		<path fill="#EE4036" d="M395.422,597.012c-0.114,1.603-0.267,2.976-1.449,4.082c-1.641,1.603-3.815,1.564-4.463,1.564
			s-2.556,0-3.967-1.26c-1.755-1.563-1.755-3.547-1.755-7.705v-11.826c0-3.776,1.03-5.378,2.823-6.256
			c0.915-0.419,1.907-0.572,2.899-0.572c2.861,0,4.272,1.183,4.921,2.289c0.877,1.411,0.801,2.899,0.763,4.463l-3.128-0.038
			c0-1.373,0.039-2.098-0.267-2.708c-0.267-0.458-0.954-1.03-2.212-1.03c-2.479,0-2.594,2.175-2.632,2.899
			c-0.077,1.221-0.039,2.441-0.039,3.662v2.06c0.572-0.687,1.564-1.945,3.739-1.945c0.305,0,1.068,0.038,1.869,0.382
			c1.145,0.457,2.136,1.411,2.556,2.594c0.381,1.145,0.458,3.052,0.458,5.76C395.537,594.608,395.499,595.791,395.422,597.012z
			 M392.218,590.642c-0.038-0.687-0.076-1.488-0.458-2.06c-0.458-0.764-1.373-1.068-2.212-1.068c-0.458,0-1.755,0.114-2.25,1.449
			c-0.305,0.878-0.343,2.479-0.343,4.616v2.67c0,0.076,0,1.487,0.419,2.289c0.61,1.145,1.945,1.183,2.289,1.183
			c1.411,0,1.983-0.764,2.212-1.297c0.343-0.764,0.381-2.518,0.381-4.654C392.256,592.739,392.256,591.71,392.218,590.642z"/>
		<path fill="#EE4036" d="M405.457,587.818c0,0.954-0.076,2.022-0.496,2.861c-0.42,0.801-1.374,1.717-3.395,1.717
			c-0.344,0-1.45,0.038-2.441-0.61c-1.488-0.992-1.45-2.518-1.488-5.569c0-0.764-0.038-1.564-0.038-2.365
			c0-1.297,0.038-2.594,0.038-3.892c0-2.403,0.496-3.471,1.564-4.157c0.954-0.61,1.945-0.648,2.327-0.648
			c0.343,0,1.221,0.038,2.06,0.495c1.717,0.878,1.907,2.709,1.907,4.426c0,1.221,0.039,2.479,0.039,3.7
			C405.534,585.148,405.495,586.483,405.457,587.818z M402.901,583.852c0-1.373,0.038-2.747,0-4.12
			c-0.038-0.992,0.038-2.251-1.373-2.213c-0.954,0-1.183,0.687-1.259,1.03c-0.076,0.42-0.114,1.526-0.114,2.709v2.518
			c0,1.105,0.038,2.212,0.038,3.318v1.411c0,0.382-0.038,1.564,1.335,1.564c0.267,0,1.144-0.038,1.297-0.954
			c0.038-0.305,0.114-1.373,0.114-2.403C402.939,585.759,402.901,584.805,402.901,583.852z M403.092,602.314h-1.87l13.237-26.932
			h1.755L403.092,602.314z M419.762,597.928c0,0.915-0.076,2.021-0.496,2.861c-0.42,0.801-1.374,1.716-3.396,1.716
			c-0.343,0-1.449,0.038-2.441-0.61c-1.487-0.991-1.449-2.518-1.487-5.569c0-0.763-0.038-1.563-0.038-2.365
			c0-1.297,0.038-2.594,0.038-3.891c0-2.403,0.496-3.472,1.564-4.158c0.954-0.61,1.945-0.648,2.327-0.648
			c0.344,0,1.221,0.038,2.06,0.496c1.717,0.877,1.907,2.708,1.907,4.425c0,1.221,0.039,2.441,0.039,3.7
			C419.839,595.257,419.8,596.593,419.762,597.928z M417.207,593.96c0-1.373,0.038-2.746,0-4.119
			c-0.038-0.992,0.038-2.213-1.374-2.213c-0.954,0-1.183,0.687-1.259,1.03c-0.076,0.419-0.114,1.525-0.114,2.708v2.518
			c0,1.106,0.038,2.213,0.038,3.281v1.449c0,0.343-0.038,1.563,1.335,1.563c0.267,0,1.145-0.038,1.297-0.953
			c0.038-0.306,0.114-1.373,0.114-2.403C417.245,595.867,417.207,594.914,417.207,593.96z"/>
		<path fill="#FFFFFF" d="M357.371,619.315c0,0.345-0.017,0.69-0.033,1.035c-0.066,0.838-0.197,1.841-0.871,2.433
			c-0.378,0.328-0.953,0.607-2.005,0.607c-0.329,0-1.562,0.05-2.251-0.937c-0.099-0.132-0.247-0.361-0.345-0.739
			c-0.181-0.641-0.181-1.988-0.181-3.665c0-1.052,0.017-2.087,0.033-3.139c0.033-1.331,0.214-1.988,0.625-2.515
			c0.362-0.46,1.035-0.953,2.35-0.953c0.345,0,1.775,0.017,2.383,1.282c0.165,0.328,0.247,0.674,0.279,1.035
			c0.099,0.821,0.099,2.695,0.083,3.5C357.437,617.951,357.387,618.625,357.371,619.315z M355.941,614.846
			c0-0.461,0.016-1.184-0.23-1.611c-0.132-0.229-0.477-0.574-1.118-0.574c-0.165,0-0.526,0.016-0.854,0.279
			c-0.559,0.443-0.575,1.216-0.575,2.563v0.805c0,1.118,0,2.235,0.017,3.353c0,0.839,0,1.331,0.115,1.693
			c0.115,0.345,0.395,0.854,1.249,0.854c0.477,0,0.937-0.214,1.134-0.674c0.23-0.493,0.247-1.446,0.263-2.729
			c0.016-0.509,0.016-1.019,0.016-1.545C355.957,616.456,355.957,615.65,355.941,614.846z"/>
		<path fill="#FFFFFF" d="M360.426,612.923v3.418h3.172v1.266h-3.172v5.62h-1.462v-11.603h5.111v1.299H360.426z"/>
		<path fill="#FFFFFF" d="M371.517,612.923v10.304h-1.43v-10.304h-2.202v-1.299h5.834v1.299H371.517z"/>
		<path fill="#FFFFFF" d="M378.796,623.227v-5.406h-2.646v5.406h-1.446v-11.603h1.446v4.931h2.646v-4.931h1.446v11.603H378.796z"/>
		<path fill="#FFFFFF" d="M381.884,623.227v-11.603h5.111v1.299h-3.665v3.451h3.205v1.314h-3.205v4.24h3.78v1.298H381.884z"/>
		<path fill="#FFFFFF" d="M399.302,623.227h-1.906l-1.266-9.613l-1.314,9.613h-1.939l-1.89-11.603h1.43l1.43,10.173l1.364-10.173
			h1.857l1.331,10.173l1.446-10.173h1.413L399.302,623.227z"/>
		<path fill="#FFFFFF" d="M407.666,619.315c0,0.345-0.017,0.69-0.033,1.035c-0.066,0.838-0.197,1.841-0.871,2.433
			c-0.378,0.328-0.953,0.607-2.005,0.607c-0.329,0-1.562,0.05-2.251-0.937c-0.099-0.132-0.247-0.361-0.345-0.739
			c-0.181-0.641-0.181-1.988-0.181-3.665c0-1.052,0.017-2.087,0.033-3.139c0.033-1.331,0.214-1.988,0.625-2.515
			c0.362-0.46,1.035-0.953,2.35-0.953c0.345,0,1.775,0.017,2.383,1.282c0.165,0.328,0.247,0.674,0.279,1.035
			c0.099,0.821,0.099,2.695,0.083,3.5C407.731,617.951,407.682,618.625,407.666,619.315z M406.236,614.846
			c0-0.461,0.016-1.184-0.23-1.611c-0.132-0.229-0.477-0.574-1.118-0.574c-0.165,0-0.526,0.016-0.854,0.279
			c-0.559,0.443-0.575,1.216-0.575,2.563v0.805c0,1.118,0,2.235,0.017,3.353c0,0.839,0,1.331,0.115,1.693
			c0.115,0.345,0.395,0.854,1.249,0.854c0.477,0,0.937-0.214,1.134-0.674c0.23-0.493,0.247-1.446,0.263-2.729
			c0.016-0.509,0.016-1.019,0.016-1.545C406.252,616.456,406.252,615.65,406.236,614.846z"/>
		<path fill="#FFFFFF" d="M413.86,623.227l-1.972-5.095h-1.2v5.095h-1.43v-11.603h2.531c0.739,0,1.545,0.033,2.169,0.543
			c0.97,0.788,0.904,2.316,0.904,2.547c0,0.493-0.033,0.97-0.115,1.446c-0.115,0.657-0.296,0.986-0.477,1.216
			c-0.361,0.444-0.789,0.543-0.97,0.592l2.071,5.259H413.86z M413.285,613.712c-0.296-0.839-1.184-0.772-1.89-0.772h-0.707v4.059
			h0.756c0.641,0,0.953-0.017,1.266-0.131c0.723-0.296,0.707-1.315,0.707-1.923C413.416,614.55,413.416,614.09,413.285,613.712z"/>
		<path fill="#FFFFFF" d="M416.438,623.227v-11.603h1.479v10.305h3.402v1.298H416.438z"/>
		<path fill="#FFFFFF" d="M427.875,619.414c0,0.427-0.016,0.854-0.049,1.281c-0.082,0.921-0.361,1.759-1.216,2.219
			c-0.69,0.361-1.463,0.313-2.186,0.313h-2.169v-11.603h2.186c0.707,0,1.414-0.032,2.087,0.264c1.085,0.477,1.249,1.512,1.298,1.873
			c0.066,0.493,0.083,1.709,0.083,3.073C427.908,617.688,427.892,618.56,427.875,619.414z M426.462,615.043
			c-0.017-0.921-0.066-1.397-0.411-1.742c-0.411-0.378-1.117-0.346-1.61-0.346h-0.739v8.989h0.953c0.361,0,0.789,0,1.15-0.181
			c0.246-0.131,0.46-0.312,0.575-0.871c0.082-0.443,0.098-1.659,0.098-2.99C426.478,616.949,426.495,615.996,426.462,615.043z"/>
		<path fill="#FFFFFF" d="M429.287,615.799v-0.839c0.559-0.147,0.625-0.607,0.625-1.101c0-0.099,0-0.214-0.017-0.313h-0.608v-1.923
			h1.397v1.989C430.684,614.697,430.47,615.568,429.287,615.799z"/>
		<path fill="#FFFFFF" d="M436.402,622.897c-0.723,0.493-1.528,0.493-1.808,0.493c-0.411,0-2.07-0.032-2.613-1.594
			c-0.148-0.428-0.181-0.854-0.181-1.298v-1.282h1.364v0.575c0,0.789,0,1.15,0.131,1.528c0.115,0.313,0.46,0.838,1.298,0.838
			c0.559,0,1.101-0.246,1.331-0.756c0.132-0.279,0.132-0.575,0.132-0.69c0-0.985-0.444-1.396-1.085-2.054l-1.561-1.61
			c-0.904-0.938-1.331-1.562-1.331-2.909c0-0.164,0-0.624,0.131-1.101c0.23-0.757,0.871-1.595,2.564-1.595
			c0.394,0,1.956,0.017,2.35,1.512c0.099,0.395,0.099,0.938,0.099,1.348v0.74h-1.282c-0.017-0.724-0.017-0.543-0.017-0.953
			c0-0.526-0.082-1.036-0.625-1.299c-0.263-0.115-0.509-0.115-0.608-0.115c-0.345,0-0.641,0.082-0.871,0.313
			c-0.131,0.115-0.197,0.263-0.23,0.313c-0.065,0.147-0.115,0.395-0.115,0.772c0,0.099,0,0.395,0.099,0.674
			c0.181,0.542,0.673,0.985,1.052,1.396l1.824,1.939c0.132,0.147,0.247,0.296,0.362,0.443c0.279,0.361,0.641,0.97,0.641,2.071
			C437.454,621.978,436.895,622.569,436.402,622.897z"/>
		<path fill="#FFFFFF" d="M362.037,634.168c-0.542,0.658-1.528,0.724-2.301,0.724h-1.216v4.766h-1.446v-11.603h3.007
			c1.134,0,1.594,0.329,1.956,0.772c0.674,0.822,0.608,1.792,0.608,2.745C362.645,631.671,362.744,633.313,362.037,634.168z
			 M361.199,630.536c-0.132-1.15-0.986-1.166-1.923-1.166h-0.756v4.256h0.969c0.641,0,1.298,0.033,1.611-0.674
			c0.131-0.279,0.131-0.641,0.131-1.298C361.232,631.276,361.232,630.914,361.199,630.536z"/>
		<path fill="#FFFFFF" d="M369.513,635.746c0,0.345-0.017,0.69-0.033,1.035c-0.066,0.838-0.197,1.841-0.871,2.433
			c-0.378,0.328-0.953,0.607-2.005,0.607c-0.329,0-1.562,0.05-2.251-0.937c-0.099-0.132-0.247-0.361-0.345-0.739
			c-0.181-0.641-0.181-1.988-0.181-3.665c0-1.052,0.017-2.087,0.033-3.139c0.033-1.331,0.214-1.988,0.625-2.515
			c0.362-0.46,1.035-0.953,2.35-0.953c0.345,0,1.775,0.017,2.383,1.282c0.165,0.328,0.247,0.674,0.279,1.035
			c0.099,0.821,0.099,2.695,0.083,3.5C369.579,634.382,369.53,635.056,369.513,635.746z M368.083,631.276
			c0-0.461,0.016-1.184-0.23-1.61c-0.132-0.23-0.477-0.575-1.118-0.575c-0.165,0-0.526,0.016-0.854,0.279
			c-0.559,0.443-0.575,1.216-0.575,2.563v0.805c0,1.118,0,2.235,0.017,3.353c0,0.839,0,1.331,0.115,1.693
			c0.115,0.345,0.395,0.854,1.249,0.854c0.477,0,0.937-0.214,1.134-0.674c0.23-0.493,0.247-1.446,0.263-2.729
			c0.016-0.509,0.016-1.019,0.016-1.545C368.1,632.887,368.1,632.081,368.083,631.276z"/>
		<path fill="#FFFFFF" d="M376.069,634.168c-0.542,0.658-1.528,0.724-2.301,0.724h-1.216v4.766h-1.446v-11.603h3.007
			c1.134,0,1.594,0.329,1.956,0.772c0.674,0.822,0.608,1.792,0.608,2.745C376.677,631.671,376.775,633.313,376.069,634.168z
			 M375.231,630.536c-0.132-1.15-0.986-1.166-1.923-1.166h-0.756v4.256h0.969c0.641,0,1.298,0.033,1.611-0.674
			c0.131-0.279,0.131-0.641,0.131-1.298C375.264,631.276,375.264,630.914,375.231,630.536z"/>
		<path fill="#FFFFFF" d="M382.378,639.46c-0.69,0.378-1.43,0.361-1.676,0.361c-0.707,0-1.578-0.147-2.12-0.674
			c-0.115-0.114-0.329-0.378-0.477-0.788c-0.214-0.625-0.197-1.446-0.197-1.595v-8.71h1.462v7.691c0,0.986-0.033,1.692,0.131,2.104
			c0.165,0.427,0.542,0.592,0.69,0.641c0.148,0.05,0.279,0.082,0.575,0.082c0.444,0,0.772-0.065,1.052-0.427
			c0.049-0.065,0.148-0.197,0.197-0.411c0.049-0.229,0.066-0.789,0.066-1.43v-8.25h1.462v8.661
			C383.545,637.8,383.463,638.868,382.378,639.46z"/>
		<path fill="#FFFFFF" d="M385.138,639.657v-11.603h1.479v10.305h3.402v1.298H385.138z"/>
		<path fill="#FFFFFF" d="M395.128,639.657l-0.411-2.235h-2.695l-0.394,2.235h-1.496l2.498-11.603h1.446l2.564,11.603H395.128z
			 M393.337,630.208l-1.068,5.965h2.202L393.337,630.208z"/>
		<path fill="#FFFFFF" d="M399.778,629.354v10.304h-1.43v-10.304h-2.202v-1.299h5.834v1.299H399.778z"/>
		<path fill="#FFFFFF" d="M402.965,639.657v-11.603h1.43v11.603H402.965z"/>
		<path fill="#FFFFFF" d="M411.625,635.746c0,0.345-0.017,0.69-0.033,1.035c-0.066,0.838-0.197,1.841-0.871,2.433
			c-0.378,0.328-0.953,0.607-2.005,0.607c-0.329,0-1.562,0.05-2.251-0.937c-0.099-0.132-0.247-0.361-0.345-0.739
			c-0.181-0.641-0.181-1.988-0.181-3.665c0-1.052,0.017-2.087,0.033-3.139c0.033-1.331,0.214-1.988,0.625-2.515
			c0.362-0.46,1.035-0.953,2.35-0.953c0.345,0,1.775,0.017,2.383,1.282c0.165,0.328,0.247,0.674,0.279,1.035
			c0.099,0.821,0.099,2.695,0.083,3.5C411.691,634.382,411.642,635.056,411.625,635.746z M410.196,631.276
			c0-0.461,0.016-1.184-0.23-1.61c-0.132-0.23-0.477-0.575-1.118-0.575c-0.165,0-0.526,0.016-0.854,0.279
			c-0.559,0.443-0.575,1.216-0.575,2.563v0.805c0,1.118,0,2.235,0.017,3.353c0,0.839,0,1.331,0.115,1.693
			c0.115,0.345,0.395,0.854,1.249,0.854c0.477,0,0.937-0.214,1.134-0.674c0.23-0.493,0.247-1.446,0.263-2.729
			c0.016-0.509,0.016-1.019,0.016-1.545C410.212,632.887,410.212,632.081,410.196,631.276z"/>
		<path fill="#FFFFFF" d="M416.719,639.657l-2.268-10.058l0.197,10.058h-1.43v-11.603h1.988l2.35,10.156l-0.197-10.156h1.397v11.603
			H416.719z"/>
		<path fill="#FFFFFF" d="M423.816,639.657v-11.603h1.43v11.603H423.816z"/>
		<path fill="#FFFFFF" d="M431.112,639.328c-0.723,0.493-1.528,0.493-1.808,0.493c-0.411,0-2.07-0.032-2.613-1.594
			c-0.148-0.428-0.181-0.854-0.181-1.298v-1.282h1.364v0.575c0,0.789,0,1.15,0.131,1.528c0.115,0.313,0.46,0.838,1.298,0.838
			c0.559,0,1.101-0.246,1.331-0.756c0.132-0.279,0.132-0.575,0.132-0.69c0-0.985-0.444-1.396-1.085-2.054l-1.561-1.61
			c-0.904-0.938-1.331-1.562-1.331-2.909c0-0.164,0-0.624,0.131-1.101c0.23-0.757,0.871-1.595,2.564-1.595
			c0.394,0,1.956,0.017,2.35,1.512c0.099,0.395,0.099,0.938,0.099,1.348v0.74h-1.282c-0.017-0.724-0.017-0.543-0.017-0.953
			c0-0.526-0.082-1.036-0.625-1.299c-0.263-0.115-0.509-0.115-0.608-0.115c-0.345,0-0.641,0.082-0.871,0.313
			c-0.131,0.115-0.197,0.263-0.23,0.313c-0.065,0.147-0.115,0.395-0.115,0.772c0,0.099,0,0.395,0.099,0.674
			c0.181,0.542,0.673,0.985,1.052,1.396l1.824,1.939c0.132,0.147,0.247,0.296,0.362,0.443c0.279,0.361,0.641,0.97,0.641,2.07
			C432.164,638.408,431.605,639,431.112,639.328z"/>
		<path fill="#FFFFFF" d="M361.98,653.246c0,0.099,0,0.607-0.066,1.002c-0.213,1.232-0.854,1.61-1.364,1.808
			c-0.542,0.197-1.118,0.197-1.282,0.197c-0.657,0-1.216-0.099-1.758-0.509c-0.115-0.099-0.345-0.296-0.542-0.592
			c-0.444-0.674-0.493-1.528-0.493-3.139v-1.857c0-0.657,0-1.298,0.017-1.955c0.016-0.888,0.016-2.153,0.608-2.942
			c0.509-0.69,1.479-0.953,2.284-0.953c1.035,0,1.627,0.428,1.939,0.739c0.444,0.461,0.608,1.053,0.608,2.334
			c0,0.247,0,0.51-0.017,0.756h-1.331c0-0.411,0-0.838-0.017-1.266c-0.016-0.477-0.049-0.821-0.443-1.117
			c-0.132-0.099-0.362-0.229-0.74-0.229c-0.361,0-1.101,0.082-1.314,1.019c-0.148,0.657-0.165,2.07-0.165,3.813
			c0,0.871,0.017,1.726,0.049,2.597c0.017,0.46-0.017,1.084,0.23,1.512c0.313,0.559,1.002,0.575,1.167,0.575
			c0.131,0,0.46,0,0.772-0.246c0.542-0.411,0.526-1.332,0.526-1.923v-0.854h1.347C361.996,652.424,361.996,652.835,361.98,653.246z"
			/>
		<path fill="#FFFFFF" d="M369.012,652.178c0,0.345-0.017,0.69-0.033,1.035c-0.066,0.838-0.197,1.841-0.871,2.433
			c-0.378,0.328-0.953,0.607-2.005,0.607c-0.329,0-1.562,0.05-2.251-0.937c-0.099-0.132-0.247-0.361-0.345-0.739
			c-0.181-0.641-0.181-1.988-0.181-3.665c0-1.052,0.017-2.087,0.033-3.139c0.033-1.331,0.214-1.988,0.625-2.515
			c0.362-0.46,1.035-0.953,2.35-0.953c0.345,0,1.775,0.017,2.383,1.282c0.165,0.328,0.247,0.674,0.279,1.035
			c0.099,0.821,0.099,2.695,0.083,3.5C369.078,650.813,369.029,651.487,369.012,652.178z M367.583,647.708
			c0-0.461,0.016-1.184-0.23-1.61c-0.132-0.23-0.477-0.575-1.118-0.575c-0.165,0-0.526,0.016-0.854,0.279
			c-0.559,0.443-0.575,1.216-0.575,2.563v0.805c0,1.118,0,2.235,0.017,3.353c0,0.839,0,1.331,0.115,1.693
			c0.115,0.345,0.395,0.854,1.249,0.854c0.477,0,0.937-0.214,1.134-0.674c0.23-0.493,0.247-1.446,0.263-2.729
			c0.016-0.509,0.016-1.019,0.016-1.545C367.599,649.318,367.599,648.513,367.583,647.708z"/>
		<path fill="#FFFFFF" d="M376.866,656.089l0.197-10.501l-1.726,10.501h-1.824l-1.726-10.501l0.23,10.501h-1.413v-11.603h2.169
			l1.627,10.354l1.594-10.354h2.202v11.603H376.866z"/>
		<path fill="#FFFFFF" d="M384.802,650.6c-0.542,0.658-1.528,0.724-2.301,0.724h-1.216v4.766h-1.446v-11.603h3.007
			c1.134,0,1.594,0.329,1.956,0.772c0.674,0.822,0.608,1.792,0.608,2.745C385.41,648.103,385.509,649.745,384.802,650.6z
			 M383.964,646.968c-0.132-1.15-0.986-1.166-1.923-1.166h-0.756v4.256h0.969c0.641,0,1.298,0.033,1.611-0.674
			c0.131-0.279,0.131-0.641,0.131-1.298C383.997,647.708,383.997,647.346,383.964,646.968z"/>
		<path fill="#FFFFFF" d="M391.292,656.089l-1.972-5.095h-1.2v5.095h-1.43v-11.603h2.531c0.739,0,1.545,0.033,2.169,0.543
			c0.97,0.788,0.904,2.316,0.904,2.547c0,0.493-0.033,0.97-0.115,1.446c-0.115,0.657-0.296,0.986-0.477,1.216
			c-0.361,0.444-0.789,0.543-0.97,0.592l2.071,5.259H391.292z M390.717,646.574c-0.296-0.839-1.184-0.772-1.89-0.772h-0.707v4.059
			h0.756c0.641,0,0.953-0.017,1.266-0.131c0.723-0.296,0.707-1.315,0.707-1.923C390.849,647.412,390.849,646.952,390.717,646.574z"
			/>
		<path fill="#FFFFFF" d="M393.871,656.089v-11.603h1.43v11.603H393.871z"/>
		<path fill="#FFFFFF" d="M401.167,655.76c-0.723,0.493-1.528,0.493-1.808,0.493c-0.411,0-2.07-0.032-2.613-1.594
			c-0.148-0.428-0.181-0.854-0.181-1.298v-1.282h1.364v0.575c0,0.789,0,1.15,0.131,1.528c0.115,0.313,0.46,0.838,1.298,0.838
			c0.559,0,1.101-0.246,1.331-0.756c0.132-0.279,0.132-0.575,0.132-0.69c0-0.985-0.444-1.396-1.085-2.054l-1.561-1.61
			c-0.904-0.938-1.331-1.562-1.331-2.909c0-0.164,0-0.624,0.131-1.101c0.23-0.757,0.871-1.595,2.563-1.595
			c0.395,0,1.956,0.017,2.35,1.512c0.099,0.395,0.099,0.938,0.099,1.348v0.74h-1.282c-0.017-0.724-0.017-0.543-0.017-0.953
			c0-0.526-0.082-1.036-0.624-1.299c-0.263-0.115-0.51-0.115-0.608-0.115c-0.345,0-0.641,0.082-0.871,0.313
			c-0.131,0.115-0.197,0.263-0.23,0.313c-0.065,0.147-0.115,0.395-0.115,0.772c0,0.099,0,0.395,0.099,0.674
			c0.181,0.542,0.674,0.985,1.052,1.396l1.824,1.939c0.132,0.147,0.247,0.296,0.362,0.443c0.279,0.361,0.641,0.97,0.641,2.07
			C402.219,654.84,401.66,655.432,401.167,655.76z"/>
		<path fill="#FFFFFF" d="M403.451,656.089v-11.603h5.111v1.299h-3.665v3.451h3.205v1.314h-3.205v4.24h3.78v1.298H403.451z"/>
		<path fill="#FFFFFF" d="M415.578,652.276c0,0.427-0.016,0.854-0.049,1.281c-0.082,0.921-0.361,1.759-1.216,2.219
			c-0.69,0.361-1.463,0.313-2.186,0.313h-2.169v-11.603h2.186c0.707,0,1.414-0.032,2.087,0.264c1.085,0.477,1.249,1.512,1.298,1.873
			c0.066,0.493,0.083,1.709,0.083,3.073C415.611,650.551,415.594,651.422,415.578,652.276z M414.165,647.905
			c-0.017-0.921-0.066-1.397-0.411-1.742c-0.411-0.378-1.117-0.346-1.61-0.346h-0.739v8.989h0.953c0.361,0,0.789,0,1.15-0.181
			c0.246-0.131,0.46-0.312,0.575-0.871c0.082-0.443,0.098-1.659,0.098-2.99C414.181,649.812,414.197,648.858,414.165,647.905z"/>
		<path fill="#FFFFFF" d="M426.143,652.178c0,0.345-0.017,0.69-0.033,1.035c-0.066,0.838-0.197,1.841-0.871,2.433
			c-0.378,0.328-0.953,0.607-2.005,0.607c-0.329,0-1.562,0.05-2.251-0.937c-0.099-0.132-0.247-0.361-0.345-0.739
			c-0.181-0.641-0.181-1.988-0.181-3.665c0-1.052,0.017-2.087,0.033-3.139c0.033-1.331,0.214-1.988,0.625-2.515
			c0.362-0.46,1.035-0.953,2.35-0.953c0.345,0,1.775,0.017,2.383,1.282c0.165,0.328,0.247,0.674,0.279,1.035
			c0.099,0.821,0.099,2.695,0.083,3.5C426.208,650.813,426.159,651.487,426.143,652.178z M424.713,647.708
			c0-0.461,0.017-1.184-0.23-1.61c-0.132-0.23-0.477-0.575-1.118-0.575c-0.165,0-0.526,0.016-0.854,0.279
			c-0.559,0.443-0.575,1.216-0.575,2.563v0.805c0,1.118,0,2.235,0.017,3.353c0,0.839,0,1.331,0.115,1.693
			c0.115,0.345,0.395,0.854,1.249,0.854c0.477,0,0.937-0.214,1.134-0.674c0.23-0.493,0.247-1.446,0.263-2.729
			c0.017-0.509,0.017-1.019,0.017-1.545C424.729,649.318,424.729,648.513,424.713,647.708z"/>
		<path fill="#FFFFFF" d="M429.198,645.785v3.418h3.172v1.266h-3.172v5.62h-1.462v-11.603h5.111v1.299H429.198z"/>
		<path fill="#FFFFFF" d="M373.054,672.52l-0.411-2.235h-2.695l-0.394,2.235h-1.496l2.498-11.603h1.446l2.564,11.603H373.054z
			 M371.263,663.07l-1.068,5.965h2.202L371.263,663.07z"/>
		<path fill="#FFFFFF" d="M376.849,662.216v3.418h3.172v1.266h-3.172v5.62h-1.462v-11.603h5.111v1.299H376.849z"/>
		<path fill="#FFFFFF" d="M386.15,672.52l-1.972-5.095h-1.2v5.095h-1.43v-11.603h2.531c0.739,0,1.545,0.033,2.169,0.543
			c0.97,0.788,0.904,2.316,0.904,2.547c0,0.493-0.033,0.97-0.115,1.446c-0.115,0.657-0.296,0.986-0.477,1.216
			c-0.361,0.444-0.789,0.543-0.97,0.592l2.071,5.259H386.15z M385.575,663.005c-0.296-0.839-1.184-0.772-1.89-0.772h-0.707v4.059
			h0.756c0.641,0,0.953-0.017,1.266-0.131c0.723-0.296,0.707-1.315,0.707-1.923C385.706,663.843,385.706,663.383,385.575,663.005z"
			/>
		<path fill="#FFFFFF" d="M388.729,672.52v-11.603h1.43v11.603H388.729z"/>
		<path fill="#FFFFFF" d="M397.208,669.677c0,0.099,0,0.607-0.066,1.002c-0.213,1.232-0.854,1.61-1.364,1.808
			c-0.542,0.197-1.118,0.197-1.282,0.197c-0.657,0-1.216-0.099-1.758-0.509c-0.115-0.099-0.345-0.296-0.542-0.592
			c-0.444-0.674-0.493-1.528-0.493-3.139v-1.857c0-0.657,0-1.298,0.017-1.956c0.016-0.887,0.016-2.152,0.608-2.941
			c0.509-0.69,1.479-0.953,2.284-0.953c1.035,0,1.627,0.428,1.939,0.74c0.444,0.46,0.608,1.051,0.608,2.333
			c0,0.247,0,0.51-0.017,0.756h-1.331c0-0.411,0-0.838-0.017-1.266c-0.016-0.477-0.049-0.821-0.443-1.117
			c-0.132-0.099-0.362-0.229-0.74-0.229c-0.361,0-1.101,0.082-1.314,1.019c-0.148,0.657-0.165,2.07-0.165,3.813
			c0,0.871,0.017,1.726,0.049,2.597c0.017,0.46-0.017,1.084,0.23,1.512c0.313,0.559,1.002,0.575,1.167,0.575
			c0.131,0,0.46,0,0.772-0.246c0.542-0.411,0.526-1.331,0.526-1.923v-0.854h1.347C397.224,668.854,397.224,669.266,397.208,669.677z
			"/>
		<path fill="#FFFFFF" d="M402.827,672.52l-0.411-2.235h-2.695l-0.394,2.235h-1.496l2.498-11.603h1.446l2.563,11.603H402.827z
			 M401.036,663.07l-1.068,5.965h2.202L401.036,663.07z"/>
		<path fill="#FFFFFF" d="M408.66,672.52l-2.268-10.058l0.197,10.058h-1.43v-11.603h1.988l2.35,10.156l-0.197-10.156h1.397v11.603
			H408.66z"/>
		<path fill="#FFFFFF" d="M416.563,672.19c-0.723,0.493-1.528,0.493-1.808,0.493c-0.411,0-2.07-0.032-2.613-1.594
			c-0.148-0.428-0.181-0.854-0.181-1.298v-1.282h1.364v0.575c0,0.789,0,1.15,0.131,1.528c0.115,0.313,0.46,0.838,1.298,0.838
			c0.559,0,1.101-0.246,1.331-0.756c0.132-0.279,0.132-0.575,0.132-0.69c0-0.985-0.444-1.396-1.085-2.054l-1.561-1.61
			c-0.904-0.938-1.331-1.562-1.331-2.909c0-0.164,0-0.624,0.131-1.101c0.23-0.757,0.871-1.595,2.564-1.595
			c0.394,0,1.956,0.017,2.35,1.512c0.099,0.395,0.099,0.938,0.099,1.348v0.74h-1.282c-0.017-0.724-0.017-0.543-0.017-0.953
			c0-0.526-0.082-1.036-0.625-1.299c-0.263-0.115-0.509-0.115-0.608-0.115c-0.345,0-0.641,0.082-0.871,0.313
			c-0.131,0.115-0.197,0.263-0.23,0.313c-0.065,0.147-0.115,0.395-0.115,0.772c0,0.099,0,0.395,0.099,0.674
			c0.181,0.542,0.673,0.985,1.052,1.396l1.824,1.939c0.132,0.147,0.247,0.296,0.362,0.443c0.279,0.361,0.641,0.97,0.641,2.071
			C417.615,671.271,417.056,671.862,416.563,672.19z"/>
		<path fill="#FFFFFF" d="M418.699,672.52v-1.939h1.397v1.939H418.699z"/>
	</g>
</g>
<g>
	<g>
		<path fill="#EE4036" d="M756.041,533.393v8.388h-4.405v-8.388h-9.715v-5.149l7.591-23.941h6.529v25.109h3.292v3.981H756.041z
			 M745.425,529.411h6.211l0.212-20.915L745.425,529.411z"/>
		<path fill="#EE4036" d="M779.029,529.57v3.292c0,2.866-0.318,5.839-2.76,7.75c-1.063,0.796-2.654,1.646-5.521,1.646
			c-0.743,0-2.973,0-5.043-1.221c-3.663-2.07-3.397-5.84-3.45-12.953c-0.054-2.654-0.106-5.309-0.054-8.016
			c0-1.486,0.054-3.025,0.054-4.565c0-1.274,0-2.601,0.105-3.875c0.266-3.079,1.168-5.468,3.981-6.901
			c1.858-0.902,3.663-0.902,4.3-0.902c0.743,0,2.654,0,4.565,1.062c3.504,1.911,3.876,5.893,3.876,9.503
			c0,2.866,0.053,5.732,0.053,8.6C779.136,525.218,779.029,527.395,779.029,529.57z M774.411,514.653
			c0-2.548-0.106-4.034-0.69-5.096c-0.371-0.637-1.273-1.54-3.025-1.54c-2.867,0-3.397,1.965-3.61,3.079
			c-0.212,1.274-0.265,4.831-0.265,8.706c0,3.291,0,6.529,0.053,9.821c0,1.646-0.053,3.238,0.106,4.884
			c0.105,1.221,0.265,2.123,1.273,2.92c0.956,0.689,2.018,0.689,2.389,0.689c2.018,0,3.026-1.009,3.345-1.857
			c0.531-1.327,0.425-4.938,0.425-6.211V514.653z"/>
		<path fill="#EE4036" d="M792.675,521.607c0,1.327-0.106,2.813-0.69,3.981c-0.584,1.115-1.911,2.39-4.725,2.39
			c-0.478,0-2.017,0.053-3.397-0.85c-2.07-1.381-2.017-3.504-2.07-7.751c0-1.062-0.053-2.176-0.053-3.291
			c0-1.805,0.053-3.609,0.053-5.415c0-3.344,0.69-4.83,2.177-5.786c1.327-0.85,2.707-0.902,3.238-0.902
			c0.478,0,1.698,0.053,2.866,0.69c2.389,1.221,2.654,3.769,2.654,6.157c0,1.699,0.054,3.451,0.054,5.149
			C792.781,517.892,792.728,519.75,792.675,521.607z M789.118,516.087c0-1.911,0.053-3.822,0-5.733
			c-0.054-1.38,0.053-3.132-1.911-3.079c-1.327,0-1.646,0.956-1.752,1.434c-0.106,0.584-0.159,2.123-0.159,3.77v3.503
			c0,1.54,0.053,3.079,0.053,4.619v1.964c0,0.53-0.053,2.177,1.858,2.177c0.371,0,1.593-0.054,1.805-1.327
			c0.053-0.425,0.159-1.911,0.159-3.345C789.171,518.741,789.118,517.414,789.118,516.087z M789.384,541.78h-2.602l18.421-37.479
			h2.441L789.384,541.78z M812.582,535.676c0,1.273-0.106,2.813-0.69,3.981c-0.584,1.114-1.911,2.389-4.725,2.389
			c-0.478,0-2.018,0.053-3.397-0.85c-2.07-1.38-2.018-3.504-2.07-7.75c0-1.063-0.053-2.177-0.053-3.292
			c0-1.805,0.053-3.609,0.053-5.414c0-3.345,0.69-4.831,2.177-5.787c1.327-0.849,2.707-0.902,3.238-0.902
			c0.478,0,1.698,0.054,2.866,0.69c2.389,1.221,2.654,3.77,2.654,6.158c0,1.698,0.053,3.397,0.053,5.149
			C812.688,531.96,812.635,533.817,812.582,535.676z M809.025,530.154c0-1.911,0.053-3.822,0-5.733
			c-0.054-1.38,0.053-3.078-1.911-3.078c-1.327,0-1.646,0.955-1.752,1.433c-0.106,0.584-0.159,2.124-0.159,3.77v3.504
			c0,1.539,0.053,3.078,0.053,4.564v2.018c0,0.478-0.053,2.177,1.858,2.177c0.371,0,1.592-0.053,1.805-1.327
			c0.053-0.425,0.159-1.911,0.159-3.345C809.078,532.809,809.025,531.481,809.025,530.154z"/>
		<path fill="#FFFFFF" d="M729.329,564.757c0,0.345-0.017,0.69-0.033,1.035c-0.065,0.838-0.197,1.841-0.871,2.433
			c-0.378,0.328-0.953,0.607-2.005,0.607c-0.328,0-1.562,0.05-2.251-0.937c-0.099-0.132-0.247-0.361-0.346-0.739
			c-0.181-0.641-0.181-1.988-0.181-3.665c0-1.052,0.017-2.087,0.033-3.139c0.032-1.331,0.214-1.988,0.624-2.515
			c0.362-0.46,1.035-0.953,2.351-0.953c0.345,0,1.774,0.017,2.383,1.282c0.164,0.328,0.246,0.674,0.279,1.035
			c0.099,0.821,0.099,2.695,0.082,3.5C729.395,563.393,729.346,564.066,729.329,564.757z M727.899,560.287
			c0-0.461,0.016-1.184-0.23-1.611c-0.132-0.229-0.477-0.574-1.117-0.574c-0.165,0-0.526,0.016-0.854,0.279
			c-0.559,0.443-0.575,1.216-0.575,2.563v0.805c0,1.118,0,2.235,0.017,3.353c0,0.839,0,1.331,0.114,1.693
			c0.115,0.345,0.395,0.854,1.249,0.854c0.477,0,0.937-0.214,1.134-0.674c0.23-0.493,0.247-1.446,0.264-2.729
			c0.016-0.509,0.016-1.019,0.016-1.545C727.915,561.897,727.915,561.092,727.899,560.287z"/>
		<path fill="#FFFFFF" d="M732.384,558.364v3.418h3.172v1.266h-3.172v5.62h-1.462v-11.603h5.11v1.299H732.384z"/>
		<path fill="#FFFFFF" d="M744.675,568.668l-0.411-2.235h-2.695l-0.394,2.235h-1.496l2.498-11.603h1.446l2.563,11.603H744.675z
			 M742.884,559.219l-1.068,5.965h2.202L742.884,559.219z"/>
		<path fill="#FFFFFF" d="M752.628,564.855c0,0.427-0.017,0.854-0.05,1.281c-0.082,0.921-0.361,1.759-1.216,2.219
			c-0.69,0.361-1.463,0.313-2.186,0.313h-2.169v-11.603h2.186c0.706,0,1.413-0.032,2.087,0.264c1.085,0.477,1.249,1.512,1.298,1.873
			c0.066,0.493,0.083,1.709,0.083,3.073C752.661,563.13,752.645,564.001,752.628,564.855z M751.215,560.484
			c-0.017-0.921-0.066-1.397-0.411-1.742c-0.411-0.378-1.117-0.346-1.61-0.346h-0.739v8.989h0.953c0.361,0,0.788,0,1.15-0.181
			c0.246-0.131,0.46-0.312,0.575-0.871c0.082-0.443,0.098-1.659,0.098-2.99C751.23,562.391,751.247,561.438,751.215,560.484z"/>
		<path fill="#FFFFFF" d="M758.608,568.471c-0.69,0.378-1.43,0.361-1.677,0.361c-0.706,0-1.577-0.147-2.119-0.674
			c-0.115-0.114-0.329-0.378-0.477-0.788c-0.214-0.625-0.197-1.446-0.197-1.595v-8.71h1.462v7.691c0,0.986-0.032,1.692,0.132,2.104
			c0.164,0.427,0.542,0.592,0.69,0.641c0.147,0.05,0.279,0.082,0.575,0.082c0.443,0,0.772-0.065,1.052-0.427
			c0.049-0.066,0.147-0.197,0.197-0.411c0.049-0.229,0.065-0.789,0.065-1.43v-8.25h1.463v8.661
			C759.775,566.811,759.693,567.879,758.608,568.471z"/>
		<path fill="#FFFFFF" d="M761.368,568.668v-11.603h1.479v10.305h3.402v1.298H761.368z"/>
		<path fill="#FFFFFF" d="M769.452,558.364v10.304h-1.43v-10.304h-2.202v-1.299h5.834v1.299H769.452z"/>
		<path fill="#FFFFFF" d="M776.862,568.339c-0.723,0.493-1.528,0.493-1.808,0.493c-0.41,0-2.07-0.032-2.612-1.594
			c-0.148-0.428-0.181-0.854-0.181-1.298v-1.282h1.363v0.575c0,0.789,0,1.15,0.132,1.528c0.115,0.313,0.46,0.838,1.298,0.838
			c0.56,0,1.102-0.246,1.331-0.756c0.132-0.279,0.132-0.575,0.132-0.69c0-0.985-0.443-1.396-1.085-2.054l-1.561-1.61
			c-0.904-0.938-1.331-1.562-1.331-2.909c0-0.164,0-0.624,0.131-1.101c0.23-0.757,0.871-1.595,2.563-1.595
			c0.395,0,1.956,0.017,2.351,1.512c0.099,0.395,0.099,0.938,0.099,1.348v0.74h-1.282c-0.017-0.724-0.017-0.543-0.017-0.953
			c0-0.526-0.082-1.036-0.624-1.299c-0.263-0.115-0.51-0.115-0.608-0.115c-0.345,0-0.641,0.082-0.871,0.313
			c-0.131,0.115-0.196,0.263-0.229,0.313c-0.065,0.147-0.115,0.395-0.115,0.772c0,0.099,0,0.395,0.099,0.674
			c0.181,0.542,0.674,0.985,1.052,1.396l1.824,1.939c0.132,0.147,0.246,0.296,0.361,0.443c0.279,0.361,0.641,0.97,0.641,2.071
			C777.914,567.419,777.355,568.011,776.862,568.339z"/>
		<path fill="#FFFFFF" d="M782.563,568.668v-11.603h1.43v11.603H782.563z"/>
		<path fill="#FFFFFF" d="M789.137,568.668l-2.268-10.058l0.197,10.058h-1.43v-11.603h1.988l2.35,10.156l-0.197-10.156h1.397v11.603
			H789.137z"/>
		<path fill="#FFFFFF" d="M800.408,568.668l-0.411-2.235h-2.695l-0.394,2.235h-1.496l2.498-11.603h1.446l2.563,11.603H800.408z
			 M798.617,559.219l-1.068,5.965h2.202L798.617,559.219z"/>
		<path fill="#FFFFFF" d="M804.203,558.364v3.418h3.172v1.266h-3.172v5.62h-1.462v-11.603h5.11v1.299H804.203z"/>
		<path fill="#FFFFFF" d="M813.504,568.668l-1.972-5.095h-1.2v5.095h-1.43v-11.603h2.531c0.739,0,1.545,0.033,2.169,0.543
			c0.97,0.788,0.904,2.316,0.904,2.547c0,0.493-0.033,0.97-0.115,1.446c-0.115,0.657-0.296,0.986-0.477,1.216
			c-0.361,0.444-0.789,0.543-0.97,0.592l2.07,5.259H813.504z M812.929,559.153c-0.296-0.839-1.184-0.772-1.89-0.772h-0.707v4.059
			h0.756c0.642,0,0.953-0.017,1.266-0.131c0.723-0.296,0.707-1.315,0.707-1.923C813.061,559.991,813.061,559.531,812.929,559.153z"
			/>
		<path fill="#FFFFFF" d="M816.083,568.668v-11.603h1.43v11.603H816.083z"/>
		<path fill="#FFFFFF" d="M824.563,565.825c0,0.099,0,0.607-0.066,1.002c-0.213,1.232-0.854,1.61-1.363,1.808
			c-0.543,0.197-1.118,0.197-1.282,0.197c-0.657,0-1.216-0.099-1.759-0.509c-0.114-0.099-0.345-0.296-0.542-0.592
			c-0.443-0.674-0.493-1.528-0.493-3.139v-1.857c0-0.657,0-1.298,0.017-1.956c0.017-0.887,0.017-2.152,0.608-2.941
			c0.509-0.69,1.479-0.953,2.284-0.953c1.035,0,1.627,0.428,1.938,0.74c0.444,0.46,0.608,1.051,0.608,2.333
			c0,0.247,0,0.51-0.017,0.756h-1.331c0-0.411,0-0.838-0.017-1.266c-0.016-0.477-0.049-0.821-0.443-1.117
			c-0.132-0.099-0.361-0.229-0.739-0.229c-0.361,0-1.102,0.082-1.314,1.019c-0.148,0.657-0.165,2.07-0.165,3.813
			c0,0.871,0.017,1.726,0.05,2.597c0.017,0.46-0.017,1.084,0.229,1.512c0.313,0.559,1.003,0.575,1.167,0.575
			c0.132,0,0.46,0,0.772-0.246c0.542-0.411,0.526-1.331,0.526-1.923v-0.854h1.347C824.578,565.003,824.578,565.414,824.563,565.825z
			"/>
		<path fill="#FFFFFF" d="M830.181,568.668l-0.41-2.235h-2.695l-0.395,2.235h-1.495l2.498-11.603h1.445l2.564,11.603H830.181z
			 M828.39,559.219l-1.068,5.965h2.202L828.39,559.219z"/>
		<path fill="#FFFFFF" d="M737.667,583.605l-0.41-2.235h-2.695l-0.395,2.235h-1.495l2.498-11.603h1.445l2.564,11.603H737.667z
			 M735.876,574.156l-1.068,5.965h2.202L735.876,574.156z"/>
		<path fill="#FFFFFF" d="M744.602,583.605l-1.972-5.095h-1.2v5.095H740v-11.603h2.531c0.739,0,1.545,0.033,2.169,0.543
			c0.97,0.788,0.904,2.316,0.904,2.547c0,0.493-0.033,0.97-0.115,1.446c-0.115,0.657-0.296,0.986-0.477,1.216
			c-0.361,0.444-0.789,0.543-0.97,0.592l2.07,5.259H744.602z M744.026,574.091c-0.296-0.839-1.184-0.772-1.89-0.772h-0.707v4.059
			h0.756c0.642,0,0.953-0.017,1.266-0.131c0.723-0.296,0.707-1.315,0.707-1.923C744.158,574.929,744.158,574.469,744.026,574.091z"
			/>
		<path fill="#FFFFFF" d="M747.181,583.605v-11.603h5.11v1.299h-3.664v3.451h3.204v1.314h-3.204v4.24h3.779v1.298H747.181z"/>
		<path fill="#FFFFFF" d="M757.104,583.605v-11.603h1.43v11.603H757.104z"/>
		<path fill="#FFFFFF" d="M760.178,583.605v-11.603h1.479v10.305h3.402v1.298H760.178z"/>
		<path fill="#FFFFFF" d="M765.994,583.605v-11.603h1.479v10.305h3.402v1.298H765.994z"/>
		<path fill="#FFFFFF" d="M771.811,583.605v-11.603h1.43v11.603H771.811z"/>
		<path fill="#FFFFFF" d="M777.857,573.302v10.304h-1.43v-10.304h-2.202v-1.299h5.834v1.299H777.857z"/>
		<path fill="#FFFFFF" d="M781.045,583.605v-11.603h5.11v1.299h-3.664v3.451h3.204v1.314h-3.204v4.24h3.779v1.298H781.045z"/>
		<path fill="#FFFFFF" d="M792.153,583.605l-1.973-5.095h-1.199v5.095h-1.43v-11.603h2.53c0.739,0,1.545,0.033,2.169,0.543
			c0.97,0.788,0.904,2.316,0.904,2.547c0,0.493-0.033,0.97-0.115,1.446c-0.115,0.657-0.296,0.986-0.477,1.216
			c-0.361,0.444-0.789,0.543-0.97,0.592l2.071,5.259H792.153z M791.578,574.091c-0.296-0.839-1.184-0.772-1.891-0.772h-0.706v4.059
			h0.756c0.641,0,0.953-0.017,1.266-0.131c0.723-0.296,0.706-1.315,0.706-1.923C791.709,574.929,791.709,574.469,791.578,574.091z"
			/>
		<path fill="#FFFFFF" d="M798.905,583.605l-0.41-2.235H795.8l-0.395,2.235h-1.495l2.498-11.603h1.445l2.564,11.603H798.905z
			 M797.114,574.156l-1.068,5.965h2.202L797.114,574.156z"/>
		<path fill="#FFFFFF" d="M803.556,573.302v10.304h-1.43v-10.304h-2.202v-1.299h5.834v1.299H803.556z"/>
		<path fill="#FFFFFF" d="M806.743,583.605v-11.603h5.11v1.299h-3.664v3.451h3.204v1.314h-3.204v4.24h3.779v1.298H806.743z"/>
		<path fill="#FFFFFF" d="M816.256,579.447v-1.281h5.275v1.281H816.256z"/>
		<path fill="#FFFFFF" d="M736.961,588.239v10.304h-1.431v-10.304h-2.201v-1.299h5.834v1.299H736.961z"/>
		<path fill="#FFFFFF" d="M747.642,598.543h-1.906l-1.266-9.613l-1.314,9.613h-1.939l-1.89-11.603h1.43l1.43,10.173l1.364-10.173
			h1.856l1.331,10.173l1.446-10.173h1.413L747.642,598.543z"/>
		<path fill="#FFFFFF" d="M756.005,594.632c0,0.345-0.017,0.69-0.033,1.035c-0.065,0.838-0.197,1.841-0.871,2.433
			c-0.378,0.328-0.953,0.607-2.005,0.607c-0.328,0-1.562,0.05-2.251-0.937c-0.099-0.132-0.247-0.361-0.346-0.739
			c-0.181-0.641-0.181-1.988-0.181-3.665c0-1.052,0.017-2.087,0.033-3.139c0.032-1.331,0.214-1.988,0.624-2.515
			c0.362-0.46,1.035-0.953,2.351-0.953c0.345,0,1.774,0.017,2.383,1.282c0.164,0.328,0.246,0.674,0.279,1.035
			c0.099,0.821,0.099,2.695,0.082,3.5C756.07,593.268,756.021,593.941,756.005,594.632z M754.575,590.162
			c0-0.461,0.016-1.184-0.23-1.611c-0.132-0.229-0.477-0.574-1.117-0.574c-0.165,0-0.526,0.016-0.854,0.279
			c-0.559,0.443-0.575,1.216-0.575,2.563v0.805c0,1.118,0,2.235,0.017,3.353c0,0.839,0,1.331,0.114,1.693
			c0.115,0.345,0.395,0.854,1.249,0.854c0.477,0,0.937-0.214,1.134-0.674c0.23-0.493,0.247-1.446,0.264-2.729
			c0.016-0.509,0.016-1.019,0.016-1.545C754.591,591.772,754.591,590.967,754.575,590.162z"/>
		<path fill="#FFFFFF" d="M757.187,594.385v-1.281h3.55v1.281H757.187z"/>
		<path fill="#FFFFFF" d="M764.352,588.239v10.304h-1.431v-10.304h-2.201v-1.299h5.834v1.299H764.352z"/>
		<path fill="#FFFFFF" d="M771.63,598.543v-5.406h-2.646v5.406h-1.446V586.94h1.446v4.931h2.646v-4.931h1.446v11.603H771.63z"/>
		<path fill="#FFFFFF" d="M774.719,598.543V586.94h1.43v11.603H774.719z"/>
		<path fill="#FFFFFF" d="M782.393,598.543l-1.972-5.095h-1.2v5.095h-1.43V586.94h2.531c0.739,0,1.545,0.033,2.169,0.543
			c0.97,0.788,0.904,2.316,0.904,2.547c0,0.493-0.033,0.97-0.115,1.446c-0.115,0.657-0.296,0.986-0.477,1.216
			c-0.361,0.444-0.789,0.543-0.97,0.592l2.07,5.259H782.393z M781.817,589.028c-0.296-0.839-1.184-0.772-1.89-0.772h-0.707v4.059
			h0.756c0.642,0,0.953-0.017,1.266-0.131c0.723-0.296,0.707-1.315,0.707-1.923C781.949,589.866,781.949,589.406,781.817,589.028z"
			/>
		<path fill="#FFFFFF" d="M790.592,594.73c0,0.427-0.017,0.854-0.05,1.281c-0.082,0.921-0.361,1.759-1.216,2.219
			c-0.69,0.361-1.463,0.313-2.186,0.313h-2.169V586.94h2.186c0.706,0,1.413-0.032,2.087,0.264c1.085,0.477,1.249,1.512,1.298,1.873
			c0.066,0.493,0.083,1.709,0.083,3.073C790.625,593.005,790.608,593.876,790.592,594.73z M789.179,590.359
			c-0.017-0.921-0.066-1.397-0.411-1.742c-0.411-0.378-1.117-0.346-1.61-0.346h-0.739v8.989h0.953c0.361,0,0.788,0,1.15-0.181
			c0.246-0.131,0.46-0.312,0.575-0.871c0.082-0.443,0.098-1.659,0.098-2.99C789.194,592.266,789.211,591.313,789.179,590.359z"/>
		<path fill="#FFFFFF" d="M796.375,598.214c-0.723,0.493-1.528,0.493-1.808,0.493c-0.411,0-2.07-0.032-2.613-1.594
			c-0.147-0.428-0.181-0.854-0.181-1.298v-1.282h1.364v0.575c0,0.789,0,1.15,0.131,1.528c0.115,0.313,0.461,0.838,1.299,0.838
			c0.559,0,1.101-0.246,1.331-0.756c0.132-0.279,0.132-0.575,0.132-0.69c0-0.985-0.444-1.396-1.085-2.054l-1.562-1.61
			c-0.903-0.938-1.331-1.562-1.331-2.909c0-0.164,0-0.624,0.132-1.101c0.229-0.757,0.871-1.595,2.563-1.595
			c0.395,0,1.956,0.017,2.35,1.512c0.099,0.395,0.099,0.938,0.099,1.348v0.74h-1.281c-0.017-0.724-0.017-0.543-0.017-0.953
			c0-0.526-0.082-1.036-0.625-1.299c-0.263-0.115-0.509-0.115-0.607-0.115c-0.346,0-0.641,0.082-0.871,0.313
			c-0.132,0.115-0.197,0.263-0.23,0.313c-0.065,0.147-0.114,0.395-0.114,0.772c0,0.099,0,0.395,0.099,0.674
			c0.181,0.542,0.673,0.985,1.052,1.396l1.823,1.939c0.132,0.147,0.247,0.296,0.362,0.443c0.279,0.361,0.641,0.97,0.641,2.071
			C797.427,597.294,796.868,597.886,796.375,598.214z"/>
		<path fill="#FFFFFF" d="M806.25,598.543l-0.411-2.235h-2.695l-0.394,2.235h-1.496l2.498-11.603h1.446l2.563,11.603H806.25z
			 M804.459,589.094l-1.068,5.965h2.202L804.459,589.094z"/>
		<path fill="#FFFFFF" d="M813.185,598.543l-1.973-5.095h-1.199v5.095h-1.43V586.94h2.53c0.739,0,1.545,0.033,2.169,0.543
			c0.97,0.788,0.904,2.316,0.904,2.547c0,0.493-0.033,0.97-0.115,1.446c-0.115,0.657-0.296,0.986-0.477,1.216
			c-0.361,0.444-0.789,0.543-0.97,0.592l2.071,5.259H813.185z M812.609,589.028c-0.296-0.839-1.184-0.772-1.891-0.772h-0.706v4.059
			h0.756c0.641,0,0.953-0.017,1.266-0.131c0.723-0.296,0.706-1.315,0.706-1.923C812.74,589.866,812.74,589.406,812.609,589.028z"/>
		<path fill="#FFFFFF" d="M815.763,598.543V586.94h5.111v1.299h-3.665v3.451h3.205v1.314h-3.205v4.24h3.779v1.298H815.763z"/>
		<path fill="#FFFFFF" d="M764.064,613.479h-1.906l-1.266-9.613l-1.314,9.613h-1.939l-1.89-11.603h1.43l1.43,10.173l1.364-10.173
			h1.856l1.331,10.173l1.446-10.173h1.413L764.064,613.479z"/>
		<path fill="#FFFFFF" d="M772.428,609.568c0,0.345-0.017,0.69-0.033,1.035c-0.065,0.838-0.197,1.841-0.871,2.433
			c-0.378,0.328-0.953,0.607-2.005,0.607c-0.328,0-1.562,0.05-2.251-0.937c-0.099-0.132-0.247-0.361-0.346-0.739
			c-0.181-0.641-0.181-1.988-0.181-3.665c0-1.052,0.017-2.087,0.033-3.139c0.032-1.331,0.214-1.988,0.624-2.515
			c0.362-0.46,1.035-0.953,2.351-0.953c0.345,0,1.774,0.017,2.383,1.282c0.164,0.328,0.246,0.674,0.279,1.035
			c0.099,0.821,0.099,2.695,0.082,3.5C772.493,608.204,772.444,608.878,772.428,609.568z M770.998,605.099
			c0-0.461,0.016-1.184-0.23-1.61c-0.132-0.23-0.477-0.575-1.117-0.575c-0.165,0-0.526,0.016-0.854,0.279
			c-0.559,0.443-0.575,1.216-0.575,2.563v0.805c0,1.118,0,2.235,0.017,3.353c0,0.839,0,1.331,0.114,1.693
			c0.115,0.345,0.395,0.854,1.249,0.854c0.477,0,0.937-0.214,1.134-0.674c0.23-0.493,0.247-1.446,0.264-2.729
			c0.016-0.509,0.016-1.019,0.016-1.545C771.014,606.709,771.014,605.903,770.998,605.099z"/>
		<path fill="#FFFFFF" d="M780.281,613.479l0.197-10.501l-1.726,10.501h-1.824l-1.726-10.501l0.23,10.501h-1.413v-11.603h2.169
			l1.627,10.354l1.594-10.354h2.202v11.603H780.281z"/>
		<path fill="#FFFFFF" d="M783.255,613.479v-11.603h5.11v1.299h-3.664v3.451h3.204v1.314h-3.204v4.24h3.779v1.298H783.255z"/>
		<path fill="#FFFFFF" d="M793.262,613.479l-2.268-10.058l0.197,10.058h-1.43v-11.603h1.988l2.35,10.156l-0.197-10.156h1.397v11.603
			H793.262z"/>
		<path fill="#FFFFFF" d="M796.794,613.479v-1.939h1.396v1.939H796.794z"/>
	</g>
</g>
<g>
	<g>
		<path fill="#EE4036" d="M1014.208,456.48c-1.078,2.323-2.572,6.057-4.314,11.781c-4.147,13.771-4.978,23.81-5.31,38.162h-7.964
			c0.249-7.301,0.829-20.74,6.72-38.079c1.576-4.646,3.401-9.292,5.227-14.021h-18.252v-6.471h25.553v5.393
			C1015.286,454.323,1014.706,455.402,1014.208,456.48z"/>
		<path fill="#EE4036" d="M1046.896,492.32c-0.083,3.733-0.249,7.052-2.654,10.121c-3.484,4.646-8.712,4.729-10.619,4.729
			c-5.393,0-8.048-2.074-9.541-3.733c-1.078-1.245-1.908-2.655-2.323-4.148c-0.497-1.493-0.746-3.401-0.746-6.803
			c0-1.079,0-2.157,0.083-3.235l6.886,0.083c-0.083,4.313-0.083,6.803,0.912,8.711c0.913,1.825,3.069,2.571,4.978,2.571
			c2.655,0,4.065-1.244,4.729-2.157c1.41-2.073,1.078-5.392,1.161-10.536c0-1.659,0.083-3.401,0.083-5.144
			c0-2.903-0.166-5.31-0.498-6.388c-0.331-1.244-1.576-3.733-5.061-3.733c-0.58,0-1.825,0-2.986,0.913
			c-1.493,1.078-1.908,2.654-1.908,5.973h-6.637l0.912-31.691h22.648v6.306h-16.012l-0.414,14.601
			c0.083-0.166,0.663-0.663,1.161-0.995c1.576-0.996,4.065-1.576,5.891-1.576c1.078,0,3.65,0.166,6.056,1.908
			c3.401,2.571,3.982,6.305,3.982,14.187C1046.979,485.601,1046.896,488.919,1046.896,492.32z"/>
		<path fill="#EE4036" d="M1068.634,474.898c0,2.074-0.166,4.396-1.078,6.222c-0.913,1.742-2.986,3.733-7.384,3.733
			c-0.746,0-3.152,0.083-5.31-1.327c-3.235-2.157-3.152-5.476-3.235-12.112c0-1.659-0.083-3.401-0.083-5.144
			c0-2.821,0.083-5.642,0.083-8.463c0-5.227,1.078-7.549,3.401-9.042c2.074-1.328,4.231-1.411,5.061-1.411
			c0.747,0,2.655,0.083,4.48,1.079c3.733,1.908,4.147,5.89,4.147,9.623c0,2.655,0.083,5.393,0.083,8.048
			C1068.8,469.091,1068.717,471.994,1068.634,474.898z M1063.076,466.271c0-2.987,0.082-5.974,0-8.96
			c-0.083-2.157,0.082-4.895-2.987-4.813c-2.074,0-2.571,1.494-2.737,2.24c-0.166,0.913-0.249,3.318-0.249,5.891v5.476
			c0,2.405,0.083,4.812,0.083,7.218v3.069c0,0.829-0.083,3.401,2.903,3.401c0.581,0,2.489-0.083,2.821-2.074
			c0.083-0.663,0.248-2.986,0.248-5.227C1063.158,470.418,1063.076,468.345,1063.076,466.271z M1063.49,506.424h-4.064
			l28.787-58.571h3.816L1063.49,506.424z M1099.745,496.883c0,1.991-0.166,4.397-1.079,6.223c-0.912,1.742-2.986,3.733-7.383,3.733
			c-0.747,0-3.153,0.083-5.31-1.327c-3.236-2.157-3.153-5.476-3.236-12.113c0-1.659-0.083-3.401-0.083-5.144
			c0-2.82,0.083-5.642,0.083-8.462c0-5.227,1.079-7.55,3.401-9.043c2.074-1.327,4.231-1.41,5.062-1.41
			c0.746,0,2.654,0.083,4.479,1.078c3.733,1.908,4.148,5.891,4.148,9.624c0,2.654,0.083,5.31,0.083,8.047
			C1099.911,491.076,1099.828,493.979,1099.745,496.883z M1094.187,488.255c0-2.986,0.083-5.973,0-8.96
			c-0.083-2.156,0.083-4.812-2.986-4.812c-2.074,0-2.572,1.493-2.738,2.24c-0.166,0.912-0.249,3.318-0.249,5.89v5.476
			c0,2.406,0.083,4.813,0.083,7.135v3.153c0,0.746-0.083,3.401,2.904,3.401c0.58,0,2.488-0.083,2.82-2.074
			c0.083-0.664,0.249-2.987,0.249-5.227C1094.27,492.403,1094.187,490.329,1094.187,488.255z"/>
		<path fill="#FFFFFF" d="M991.192,529.399c0,0.345-0.017,0.69-0.033,1.035c-0.065,0.838-0.197,1.841-0.871,2.433
			c-0.378,0.328-0.953,0.607-2.005,0.607c-0.328,0-1.561,0.05-2.251-0.937c-0.099-0.132-0.246-0.361-0.345-0.739
			c-0.182-0.641-0.182-1.988-0.182-3.665c0-1.052,0.017-2.087,0.033-3.139c0.033-1.331,0.214-1.988,0.625-2.515
			c0.361-0.46,1.035-0.953,2.35-0.953c0.345,0,1.774,0.017,2.383,1.282c0.164,0.328,0.246,0.674,0.279,1.035
			c0.099,0.821,0.099,2.695,0.082,3.5C991.258,528.035,991.209,528.709,991.192,529.399z M989.763,524.93
			c0-0.461,0.017-1.184-0.23-1.611c-0.131-0.229-0.477-0.574-1.117-0.574c-0.164,0-0.525,0.016-0.854,0.279
			c-0.559,0.443-0.575,1.216-0.575,2.563v0.805c0,1.118,0,2.235,0.017,3.353c0,0.839,0,1.331,0.115,1.693
			c0.114,0.345,0.394,0.854,1.249,0.854c0.477,0,0.937-0.214,1.134-0.674c0.229-0.493,0.246-1.446,0.263-2.729
			c0.017-0.509,0.017-1.019,0.017-1.545C989.779,526.54,989.779,525.734,989.763,524.93z"/>
		<path fill="#FFFFFF" d="M994.248,523.007v3.418h3.172v1.266h-3.172v5.62h-1.463v-11.603h5.111v1.299H994.248z"/>
		<path fill="#FFFFFF" d="M1005.34,523.007v10.304h-1.43v-10.304h-2.202v-1.299h5.834v1.299H1005.34z"/>
		<path fill="#FFFFFF" d="M1012.62,533.311v-5.406h-2.646v5.406h-1.446v-11.603h1.446v4.931h2.646v-4.931h1.445v11.603H1012.62z"/>
		<path fill="#FFFFFF" d="M1015.708,533.311v-11.603h5.111v1.299h-3.665v3.451h3.205v1.314h-3.205v4.24h3.78v1.298H1015.708z"/>
		<path fill="#FFFFFF" d="M1033.127,533.311h-1.906l-1.266-9.613l-1.314,9.613h-1.939l-1.89-11.603h1.43l1.43,10.173l1.364-10.173
			h1.856l1.331,10.173l1.446-10.173h1.414L1033.127,533.311z"/>
		<path fill="#FFFFFF" d="M1041.49,529.399c0,0.345-0.017,0.69-0.033,1.035c-0.065,0.838-0.197,1.841-0.871,2.433
			c-0.378,0.328-0.953,0.607-2.005,0.607c-0.328,0-1.561,0.05-2.251-0.937c-0.099-0.132-0.246-0.361-0.345-0.739
			c-0.182-0.641-0.182-1.988-0.182-3.665c0-1.052,0.017-2.087,0.033-3.139c0.033-1.331,0.214-1.988,0.625-2.515
			c0.361-0.46,1.035-0.953,2.35-0.953c0.345,0,1.774,0.017,2.383,1.282c0.164,0.328,0.246,0.674,0.279,1.035
			c0.099,0.821,0.099,2.695,0.082,3.5C1041.556,528.035,1041.507,528.709,1041.49,529.399z M1040.061,524.93
			c0-0.461,0.017-1.184-0.23-1.611c-0.131-0.229-0.477-0.574-1.117-0.574c-0.164,0-0.525,0.016-0.854,0.279
			c-0.559,0.443-0.575,1.216-0.575,2.563v0.805c0,1.118,0,2.235,0.017,3.353c0,0.839,0,1.331,0.115,1.693
			c0.114,0.345,0.394,0.854,1.249,0.854c0.477,0,0.937-0.214,1.134-0.674c0.229-0.493,0.246-1.446,0.263-2.729
			c0.017-0.509,0.017-1.019,0.017-1.545C1040.077,526.54,1040.077,525.734,1040.061,524.93z"/>
		<path fill="#FFFFFF" d="M1047.685,533.311l-1.972-5.095h-1.2v5.095h-1.43v-11.603h2.531c0.739,0,1.545,0.033,2.169,0.543
			c0.97,0.788,0.904,2.316,0.904,2.547c0,0.493-0.033,0.97-0.115,1.446c-0.115,0.657-0.296,0.986-0.477,1.216
			c-0.361,0.444-0.789,0.543-0.97,0.592l2.07,5.259H1047.685z M1047.109,523.796c-0.296-0.839-1.183-0.772-1.89-0.772h-0.707v4.059
			h0.757c0.641,0,0.953-0.017,1.265-0.131c0.724-0.296,0.707-1.315,0.707-1.923C1047.241,524.634,1047.241,524.174,1047.109,523.796
			z"/>
		<path fill="#FFFFFF" d="M1050.264,533.311v-11.603h1.479v10.305h3.401v1.298H1050.264z"/>
		<path fill="#FFFFFF" d="M1061.701,529.498c0,0.427-0.017,0.854-0.05,1.281c-0.082,0.921-0.361,1.759-1.216,2.219
			c-0.69,0.361-1.463,0.313-2.186,0.313h-2.17v-11.603h2.187c0.706,0,1.413-0.032,2.087,0.264c1.084,0.477,1.249,1.512,1.298,1.873
			c0.065,0.493,0.082,1.709,0.082,3.073C1061.733,527.772,1061.717,528.644,1061.701,529.498z M1060.287,525.127
			c-0.016-0.921-0.065-1.397-0.41-1.742c-0.411-0.378-1.118-0.346-1.61-0.346h-0.74v8.989h0.953c0.362,0,0.789,0,1.15-0.181
			c0.247-0.131,0.46-0.312,0.575-0.871c0.082-0.443,0.099-1.659,0.099-2.99C1060.304,527.033,1060.32,526.08,1060.287,525.127z"/>
		<path fill="#FFFFFF" d="M1063.113,525.883v-0.839c0.559-0.147,0.624-0.607,0.624-1.101c0-0.099,0-0.214-0.016-0.313h-0.608v-1.923
			h1.396v1.989C1064.51,524.781,1064.297,525.652,1063.113,525.883z"/>
		<path fill="#FFFFFF" d="M1070.229,532.981c-0.723,0.493-1.528,0.493-1.808,0.493c-0.411,0-2.07-0.032-2.613-1.594
			c-0.147-0.428-0.181-0.854-0.181-1.298v-1.282h1.364v0.575c0,0.789,0,1.15,0.132,1.528c0.115,0.313,0.46,0.838,1.298,0.838
			c0.559,0,1.102-0.246,1.331-0.756c0.132-0.279,0.132-0.575,0.132-0.69c0-0.985-0.444-1.396-1.085-2.054l-1.561-1.61
			c-0.904-0.938-1.332-1.562-1.332-2.909c0-0.164,0-0.624,0.132-1.101c0.23-0.757,0.871-1.595,2.563-1.595
			c0.395,0,1.956,0.017,2.351,1.512c0.099,0.395,0.099,0.938,0.099,1.348v0.74h-1.282c-0.017-0.724-0.017-0.543-0.017-0.953
			c0-0.526-0.082-1.036-0.624-1.299c-0.263-0.115-0.51-0.115-0.608-0.115c-0.345,0-0.641,0.082-0.871,0.313
			c-0.131,0.115-0.197,0.263-0.229,0.313c-0.066,0.147-0.115,0.395-0.115,0.772c0,0.099,0,0.395,0.099,0.674
			c0.181,0.542,0.674,0.985,1.052,1.396l1.824,1.939c0.131,0.147,0.246,0.296,0.361,0.443c0.279,0.361,0.641,0.97,0.641,2.071
			C1071.28,532.062,1070.722,532.653,1070.229,532.981z"/>
		<path fill="#FFFFFF" d="M1080.893,527.821c-0.542,0.658-1.528,0.724-2.3,0.724h-1.217v4.766h-1.446v-11.603h3.008
			c1.134,0,1.594,0.329,1.955,0.772c0.674,0.822,0.608,1.792,0.608,2.745C1081.501,525.324,1081.6,526.967,1080.893,527.821z
			 M1080.055,524.189c-0.131-1.15-0.985-1.166-1.923-1.166h-0.756v4.256h0.97c0.641,0,1.299,0.033,1.61-0.674
			c0.132-0.279,0.132-0.641,0.132-1.298C1080.088,524.93,1080.088,524.567,1080.055,524.189z"/>
		<path fill="#FFFFFF" d="M1088.369,529.399c0,0.345-0.017,0.69-0.033,1.035c-0.065,0.838-0.197,1.841-0.871,2.433
			c-0.378,0.328-0.953,0.607-2.005,0.607c-0.328,0-1.561,0.05-2.251-0.937c-0.099-0.132-0.246-0.361-0.345-0.739
			c-0.182-0.641-0.182-1.988-0.182-3.665c0-1.052,0.017-2.087,0.033-3.139c0.033-1.331,0.214-1.988,0.625-2.515
			c0.361-0.46,1.035-0.953,2.35-0.953c0.345,0,1.774,0.017,2.383,1.282c0.164,0.328,0.246,0.674,0.279,1.035
			c0.099,0.821,0.099,2.695,0.082,3.5C1088.435,528.035,1088.386,528.709,1088.369,529.399z M1086.939,524.93
			c0-0.461,0.017-1.184-0.23-1.611c-0.131-0.229-0.477-0.574-1.117-0.574c-0.164,0-0.525,0.016-0.854,0.279
			c-0.559,0.443-0.575,1.216-0.575,2.563v0.805c0,1.118,0,2.235,0.017,3.353c0,0.839,0,1.331,0.115,1.693
			c0.114,0.345,0.394,0.854,1.249,0.854c0.477,0,0.937-0.214,1.134-0.674c0.229-0.493,0.246-1.446,0.263-2.729
			c0.017-0.509,0.017-1.019,0.017-1.545C1086.956,526.54,1086.956,525.734,1086.939,524.93z"/>
		<path fill="#FFFFFF" d="M1095.55,529.399c0,0.345-0.017,0.69-0.033,1.035c-0.065,0.838-0.197,1.841-0.871,2.433
			c-0.378,0.328-0.953,0.607-2.005,0.607c-0.328,0-1.561,0.05-2.251-0.937c-0.099-0.132-0.246-0.361-0.345-0.739
			c-0.182-0.641-0.182-1.988-0.182-3.665c0-1.052,0.017-2.087,0.033-3.139c0.033-1.331,0.214-1.988,0.625-2.515
			c0.361-0.46,1.035-0.953,2.35-0.953c0.345,0,1.774,0.017,2.383,1.282c0.164,0.328,0.246,0.674,0.279,1.035
			c0.099,0.821,0.099,2.695,0.082,3.5C1095.615,528.035,1095.566,528.709,1095.55,529.399z M1094.12,524.93
			c0-0.461,0.017-1.184-0.23-1.611c-0.131-0.229-0.477-0.574-1.117-0.574c-0.164,0-0.525,0.016-0.854,0.279
			c-0.559,0.443-0.575,1.216-0.575,2.563v0.805c0,1.118,0,2.235,0.017,3.353c0,0.839,0,1.331,0.115,1.693
			c0.114,0.345,0.394,0.854,1.249,0.854c0.477,0,0.937-0.214,1.134-0.674c0.229-0.493,0.246-1.446,0.263-2.729
			c0.017-0.509,0.017-1.019,0.017-1.545C1094.137,526.54,1094.137,525.734,1094.12,524.93z"/>
		<path fill="#FFFFFF" d="M1101.744,533.311l-1.972-5.095h-1.2v5.095h-1.43v-11.603h2.531c0.739,0,1.545,0.033,2.169,0.543
			c0.97,0.788,0.904,2.316,0.904,2.547c0,0.493-0.033,0.97-0.115,1.446c-0.115,0.657-0.296,0.986-0.477,1.216
			c-0.361,0.444-0.789,0.543-0.97,0.592l2.07,5.259H1101.744z M1101.169,523.796c-0.296-0.839-1.183-0.772-1.89-0.772h-0.707v4.059
			h0.757c0.641,0,0.953-0.017,1.265-0.131c0.724-0.296,0.707-1.315,0.707-1.923C1101.301,524.634,1101.301,524.174,1101.169,523.796
			z"/>
		<path fill="#FFFFFF" d="M1103.913,529.152v-1.281h3.55v1.281H1103.913z"/>
		<path fill="#FFFFFF" d="M993.426,548.248v-11.603h5.111v1.299h-3.665v3.451h3.205v1.314h-3.205v4.24h3.78v1.298H993.426z"/>
		<path fill="#FFFFFF" d="M1004.156,547.919c-0.723,0.493-1.528,0.493-1.808,0.493c-0.411,0-2.07-0.032-2.613-1.594
			c-0.147-0.428-0.181-0.854-0.181-1.298v-1.282h1.364v0.575c0,0.789,0,1.15,0.132,1.528c0.115,0.313,0.46,0.838,1.298,0.838
			c0.559,0,1.102-0.246,1.331-0.756c0.132-0.279,0.132-0.575,0.132-0.69c0-0.985-0.444-1.396-1.085-2.054l-1.561-1.61
			c-0.904-0.938-1.332-1.562-1.332-2.909c0-0.164,0-0.624,0.132-1.101c0.23-0.757,0.871-1.595,2.563-1.595
			c0.395,0,1.956,0.017,2.351,1.512c0.099,0.395,0.099,0.938,0.099,1.348v0.74h-1.282c-0.017-0.724-0.017-0.543-0.017-0.953
			c0-0.526-0.082-1.036-0.624-1.299c-0.263-0.115-0.51-0.115-0.608-0.115c-0.345,0-0.641,0.082-0.871,0.313
			c-0.131,0.115-0.197,0.263-0.229,0.313c-0.066,0.147-0.115,0.395-0.115,0.772c0,0.099,0,0.395,0.099,0.674
			c0.181,0.542,0.674,0.985,1.052,1.396l1.824,1.939c0.131,0.147,0.246,0.296,0.361,0.443c0.279,0.361,0.641,0.97,0.641,2.071
			C1005.208,546.999,1004.649,547.591,1004.156,547.919z"/>
		<path fill="#FFFFFF" d="M1009.414,537.944v10.304h-1.43v-10.304h-2.202v-1.299h5.834v1.299H1009.414z"/>
		<path fill="#FFFFFF" d="M1021.427,545.405c0,0.099,0,0.607-0.065,1.002c-0.214,1.232-0.855,1.61-1.364,1.808
			c-0.543,0.197-1.118,0.197-1.282,0.197c-0.657,0-1.216-0.099-1.758-0.509c-0.115-0.099-0.346-0.296-0.543-0.592
			c-0.443-0.674-0.493-1.528-0.493-3.139v-1.857c0-0.657,0-1.298,0.017-1.956c0.017-0.887,0.017-2.152,0.608-2.941
			c0.51-0.69,1.479-0.953,2.284-0.953c1.035,0,1.627,0.428,1.939,0.74c0.443,0.46,0.607,1.051,0.607,2.333
			c0,0.247,0,0.51-0.016,0.756h-1.332c0-0.411,0-0.838-0.016-1.266c-0.017-0.477-0.05-0.821-0.444-1.117
			c-0.131-0.099-0.361-0.229-0.739-0.229c-0.361,0-1.101,0.082-1.314,1.019c-0.148,0.657-0.165,2.07-0.165,3.813
			c0,0.871,0.017,1.726,0.05,2.597c0.017,0.46-0.017,1.084,0.23,1.512c0.312,0.559,1.002,0.575,1.166,0.575
			c0.132,0,0.461,0,0.772-0.246c0.543-0.411,0.526-1.331,0.526-1.923v-0.854h1.348
			C1021.443,544.583,1021.443,544.994,1021.427,545.405z"/>
		<path fill="#FFFFFF" d="M1028.459,544.337c0,0.345-0.017,0.69-0.033,1.035c-0.065,0.838-0.197,1.841-0.871,2.433
			c-0.378,0.328-0.953,0.607-2.005,0.607c-0.328,0-1.561,0.05-2.251-0.937c-0.099-0.132-0.246-0.361-0.345-0.739
			c-0.182-0.641-0.182-1.988-0.182-3.665c0-1.052,0.017-2.087,0.033-3.139c0.033-1.331,0.214-1.988,0.625-2.515
			c0.361-0.46,1.035-0.953,2.35-0.953c0.345,0,1.774,0.017,2.383,1.282c0.164,0.328,0.246,0.674,0.279,1.035
			c0.099,0.821,0.099,2.695,0.082,3.5C1028.524,542.973,1028.476,543.646,1028.459,544.337z M1027.029,539.867
			c0-0.461,0.017-1.184-0.23-1.611c-0.131-0.229-0.477-0.574-1.117-0.574c-0.164,0-0.525,0.016-0.854,0.279
			c-0.559,0.443-0.575,1.216-0.575,2.563v0.805c0,1.118,0,2.235,0.017,3.353c0,0.839,0,1.331,0.115,1.693
			c0.114,0.345,0.394,0.854,1.249,0.854c0.477,0,0.937-0.214,1.134-0.674c0.229-0.493,0.246-1.446,0.263-2.729
			c0.017-0.509,0.017-1.019,0.017-1.545C1027.046,541.478,1027.046,540.672,1027.029,539.867z"/>
		<path fill="#FFFFFF" d="M1034.473,548.051c-0.69,0.378-1.43,0.361-1.676,0.361c-0.707,0-1.578-0.147-2.12-0.674
			c-0.115-0.114-0.329-0.378-0.477-0.788c-0.214-0.625-0.197-1.446-0.197-1.595v-8.71h1.463v7.691c0,0.986-0.033,1.692,0.131,2.104
			c0.165,0.427,0.543,0.592,0.69,0.641c0.147,0.05,0.279,0.082,0.575,0.082c0.443,0,0.772-0.065,1.052-0.427
			c0.049-0.066,0.147-0.197,0.197-0.411c0.049-0.229,0.065-0.789,0.065-1.43v-8.25h1.463v8.661
			C1035.64,546.391,1035.558,547.459,1034.473,548.051z"/>
		<path fill="#FFFFFF" d="M1040.733,548.248l-2.268-10.058l0.196,10.058h-1.43v-11.603h1.989l2.35,10.156l-0.197-10.156h1.396
			v11.603H1040.733z"/>
		<path fill="#FFFFFF" d="M1047.388,537.944v10.304h-1.43v-10.304h-2.202v-1.299h5.834v1.299H1047.388z"/>
		<path fill="#FFFFFF" d="M1055.177,548.248l-1.972-5.095h-1.2v5.095h-1.43v-11.603h2.531c0.739,0,1.545,0.033,2.169,0.543
			c0.97,0.788,0.904,2.316,0.904,2.547c0,0.493-0.033,0.97-0.115,1.446c-0.115,0.657-0.296,0.986-0.477,1.216
			c-0.361,0.444-0.789,0.543-0.97,0.592l2.07,5.259H1055.177z M1054.602,538.733c-0.296-0.839-1.183-0.772-1.89-0.772h-0.707v4.059
			h0.757c0.641,0,0.953-0.017,1.265-0.131c0.724-0.296,0.707-1.315,0.707-1.923C1054.733,539.571,1054.733,539.111,1054.602,538.733
			z"/>
		<path fill="#FFFFFF" d="M1057.756,548.248v-11.603h1.43v11.603H1057.756z"/>
		<path fill="#FFFFFF" d="M1060.828,548.248v-11.603h5.111v1.299h-3.665v3.451h3.205v1.314h-3.205v4.24h3.78v1.298H1060.828z"/>
		<path fill="#FFFFFF" d="M1071.559,547.919c-0.723,0.493-1.528,0.493-1.808,0.493c-0.411,0-2.07-0.032-2.613-1.594
			c-0.147-0.428-0.181-0.854-0.181-1.298v-1.282h1.364v0.575c0,0.789,0,1.15,0.132,1.528c0.115,0.313,0.46,0.838,1.298,0.838
			c0.559,0,1.102-0.246,1.331-0.756c0.132-0.279,0.132-0.575,0.132-0.69c0-0.985-0.444-1.396-1.085-2.054l-1.561-1.61
			c-0.904-0.938-1.332-1.562-1.332-2.909c0-0.164,0-0.624,0.132-1.101c0.23-0.757,0.871-1.595,2.563-1.595
			c0.395,0,1.956,0.017,2.351,1.512c0.099,0.395,0.099,0.938,0.099,1.348v0.74h-1.282c-0.017-0.724-0.017-0.543-0.017-0.953
			c0-0.526-0.082-1.036-0.624-1.299c-0.263-0.115-0.51-0.115-0.608-0.115c-0.345,0-0.641,0.082-0.871,0.313
			c-0.131,0.115-0.197,0.263-0.229,0.313c-0.066,0.147-0.115,0.395-0.115,0.772c0,0.099,0,0.395,0.099,0.674
			c0.181,0.542,0.674,0.985,1.052,1.396l1.824,1.939c0.131,0.147,0.246,0.296,0.361,0.443c0.279,0.361,0.641,0.97,0.641,2.071
			C1072.61,546.999,1072.052,547.591,1071.559,547.919z"/>
		<path fill="#FFFFFF" d="M1081.435,548.248l-0.411-2.235h-2.695l-0.395,2.235h-1.495l2.498-11.603h1.446l2.563,11.603H1081.435z
			 M1079.643,538.799l-1.067,5.965h2.202L1079.643,538.799z"/>
		<path fill="#FFFFFF" d="M1088.368,548.248l-1.972-5.095h-1.2v5.095h-1.43v-11.603h2.531c0.739,0,1.545,0.033,2.169,0.543
			c0.97,0.788,0.904,2.316,0.904,2.547c0,0.493-0.033,0.97-0.115,1.446c-0.115,0.657-0.296,0.986-0.477,1.216
			c-0.361,0.444-0.789,0.543-0.97,0.592l2.07,5.259H1088.368z M1087.793,538.733c-0.296-0.839-1.183-0.772-1.89-0.772h-0.707v4.059
			h0.757c0.641,0,0.953-0.017,1.265-0.131c0.724-0.296,0.707-1.315,0.707-1.923C1087.925,539.571,1087.925,539.111,1087.793,538.733
			z"/>
		<path fill="#FFFFFF" d="M1090.947,548.248v-11.603h5.111v1.299h-3.665v3.451h3.205v1.314h-3.205v4.24h3.78v1.298H1090.947z"/>
		<path fill="#FFFFFF" d="M994.608,563.186v-11.603h1.479v10.305h3.401v1.298H994.608z"/>
		<path fill="#FFFFFF" d="M1006.013,559.274c0,0.345-0.017,0.69-0.033,1.035c-0.065,0.838-0.197,1.841-0.871,2.433
			c-0.378,0.328-0.953,0.607-2.005,0.607c-0.328,0-1.561,0.05-2.251-0.937c-0.099-0.132-0.246-0.361-0.345-0.739
			c-0.182-0.641-0.182-1.988-0.182-3.665c0-1.052,0.017-2.087,0.033-3.139c0.033-1.331,0.214-1.988,0.625-2.515
			c0.361-0.46,1.035-0.953,2.35-0.953c0.345,0,1.774,0.017,2.383,1.282c0.164,0.328,0.246,0.674,0.279,1.035
			c0.099,0.821,0.099,2.695,0.082,3.5C1006.078,557.91,1006.029,558.584,1006.013,559.274z M1004.583,554.805
			c0-0.461,0.017-1.184-0.23-1.611c-0.131-0.229-0.477-0.574-1.117-0.574c-0.164,0-0.525,0.016-0.854,0.279
			c-0.559,0.443-0.575,1.216-0.575,2.563v0.805c0,1.118,0,2.235,0.017,3.353c0,0.839,0,1.331,0.115,1.693
			c0.114,0.345,0.394,0.854,1.249,0.854c0.477,0,0.937-0.214,1.134-0.674c0.229-0.493,0.246-1.446,0.263-2.729
			c0.017-0.509,0.017-1.019,0.017-1.545C1004.6,556.415,1004.6,555.609,1004.583,554.805z"/>
		<path fill="#FFFFFF" d="M1013.013,560.343c0,0.099,0,0.607-0.065,1.002c-0.214,1.232-0.855,1.61-1.364,1.808
			c-0.543,0.197-1.118,0.197-1.282,0.197c-0.657,0-1.216-0.099-1.758-0.509c-0.115-0.099-0.346-0.296-0.543-0.592
			c-0.443-0.674-0.493-1.528-0.493-3.139v-1.857c0-0.657,0-1.298,0.017-1.956c0.017-0.887,0.017-2.152,0.608-2.941
			c0.51-0.69,1.479-0.953,2.284-0.953c1.035,0,1.627,0.428,1.939,0.74c0.443,0.46,0.607,1.051,0.607,2.333
			c0,0.247,0,0.51-0.016,0.756h-1.332c0-0.411,0-0.838-0.016-1.266c-0.017-0.477-0.05-0.821-0.444-1.117
			c-0.131-0.099-0.361-0.229-0.739-0.229c-0.361,0-1.101,0.082-1.314,1.019c-0.148,0.657-0.165,2.07-0.165,3.813
			c0,0.871,0.017,1.726,0.05,2.597c0.017,0.46-0.017,1.084,0.23,1.512c0.312,0.559,1.002,0.575,1.166,0.575
			c0.132,0,0.461,0,0.772-0.246c0.543-0.411,0.526-1.331,0.526-1.923v-0.854h1.348
			C1013.029,559.521,1013.029,559.932,1013.013,560.343z"/>
		<path fill="#FFFFFF" d="M1018.632,563.186l-0.411-2.235h-2.695l-0.395,2.235h-1.495l2.498-11.603h1.446l2.563,11.603H1018.632z
			 M1016.84,553.736l-1.067,5.965h2.202L1016.84,553.736z"/>
		<path fill="#FFFFFF" d="M1023.281,552.882v10.304h-1.43v-10.304h-2.202v-1.299h5.834v1.299H1023.281z"/>
		<path fill="#FFFFFF" d="M1026.469,563.186v-11.603h5.111v1.299h-3.665v3.451h3.205v1.314h-3.205v4.24h3.78v1.298H1026.469z"/>
		<path fill="#FFFFFF" d="M1038.597,559.373c0,0.427-0.017,0.854-0.05,1.281c-0.082,0.921-0.361,1.759-1.216,2.219
			c-0.69,0.361-1.463,0.313-2.186,0.313h-2.17v-11.603h2.187c0.706,0,1.413-0.032,2.087,0.264c1.084,0.477,1.249,1.512,1.298,1.873
			c0.065,0.493,0.082,1.709,0.082,3.073C1038.629,557.647,1038.612,558.519,1038.597,559.373z M1037.183,555.002
			c-0.016-0.921-0.065-1.397-0.41-1.742c-0.411-0.378-1.118-0.346-1.61-0.346h-0.74v8.989h0.953c0.362,0,0.789,0,1.15-0.181
			c0.247-0.131,0.46-0.312,0.575-0.871c0.082-0.443,0.099-1.659,0.099-2.99C1037.199,556.908,1037.216,555.955,1037.183,555.002z"/>
		<path fill="#FFFFFF" d="M1043.574,563.186v-11.603h1.43v11.603H1043.574z"/>
		<path fill="#FFFFFF" d="M1050.147,563.186l-2.268-10.058l0.196,10.058h-1.43v-11.603h1.989l2.35,10.156l-0.197-10.156h1.396
			v11.603H1050.147z"/>
		<path fill="#FFFFFF" d="M1061.42,563.186l-0.411-2.235h-2.695l-0.395,2.235h-1.495l2.498-11.603h1.446l2.563,11.603H1061.42z
			 M1059.628,553.736l-1.067,5.965h2.202L1059.628,553.736z"/>
		<path fill="#FFFFFF" d="M1065.215,552.882v3.418h3.172v1.266h-3.172v5.62h-1.463v-11.603h5.111v1.299H1065.215z"/>
		<path fill="#FFFFFF" d="M1074.516,563.186l-1.972-5.095h-1.2v5.095h-1.43v-11.603h2.531c0.739,0,1.545,0.033,2.169,0.543
			c0.97,0.788,0.904,2.316,0.904,2.547c0,0.493-0.033,0.97-0.115,1.446c-0.115,0.657-0.296,0.986-0.477,1.216
			c-0.361,0.444-0.789,0.543-0.97,0.592l2.07,5.259H1074.516z M1073.94,553.671c-0.296-0.839-1.183-0.772-1.89-0.772h-0.707v4.059
			h0.757c0.641,0,0.953-0.017,1.265-0.131c0.724-0.296,0.707-1.315,0.707-1.923C1074.072,554.509,1074.072,554.049,1073.94,553.671z
			"/>
		<path fill="#FFFFFF" d="M1077.095,563.186v-11.603h1.43v11.603H1077.095z"/>
		<path fill="#FFFFFF" d="M1085.574,560.343c0,0.099,0,0.607-0.065,1.002c-0.214,1.232-0.855,1.61-1.364,1.808
			c-0.543,0.197-1.117,0.197-1.282,0.197c-0.657,0-1.216-0.099-1.758-0.509c-0.115-0.099-0.346-0.296-0.543-0.592
			c-0.443-0.674-0.493-1.528-0.493-3.139v-1.857c0-0.657,0-1.298,0.017-1.956c0.017-0.887,0.017-2.152,0.608-2.941
			c0.51-0.69,1.479-0.953,2.284-0.953c1.035,0,1.627,0.428,1.939,0.74c0.443,0.46,0.607,1.051,0.607,2.333
			c0,0.247,0,0.51-0.016,0.756h-1.332c0-0.411,0-0.838-0.016-1.266c-0.017-0.477-0.05-0.821-0.444-1.117
			c-0.131-0.099-0.361-0.229-0.739-0.229c-0.361,0-1.101,0.082-1.314,1.019c-0.148,0.657-0.165,2.07-0.165,3.813
			c0,0.871,0.017,1.726,0.05,2.597c0.017,0.46-0.017,1.084,0.23,1.512c0.312,0.559,1.002,0.575,1.166,0.575
			c0.132,0,0.461,0,0.772-0.246c0.543-0.411,0.526-1.331,0.526-1.923v-0.854h1.348
			C1085.591,559.521,1085.591,559.932,1085.574,560.343z"/>
		<path fill="#FFFFFF" d="M1091.193,563.186l-0.411-2.235h-2.695l-0.395,2.235h-1.495l2.498-11.603h1.446l2.563,11.603H1091.193z
			 M1089.401,553.736l-1.067,5.965h2.202L1089.401,553.736z"/>
		<path fill="#FFFFFF" d="M1093.378,563.186v-1.939h1.396v1.939H1093.378z"/>
	</g>
</g>
<g>
	<ellipse fill="#8BC53F" cx="76.793" cy="623.499" rx="31.362" ry="39.293"/>
	<polygon fill="#3B2314" points="95.609,612.34 95.609,603.363 94.143,603.363 94.143,611.591 88.376,615.763 88.376,612.88 
		82.12,609.753 82.12,603.363 80.654,603.363 80.654,610.658 86.91,613.787 86.91,616.823 84.955,618.237 84.955,635.548 
		78.21,638.759 78.21,631.646 72.347,624.414 72.445,605.362 66.406,600.449 65.481,601.587 70.976,606.057 70.902,620.271 
		66.677,617.62 66.677,611.183 65.21,611.183 65.21,618.431 70.893,621.995 70.878,624.931 76.745,632.165 76.745,646.062 
		66.677,640.942 66.677,633.686 59.443,628.212 59.443,621.642 57.978,621.642 57.978,628.941 65.21,634.415 65.21,641.842 
		76.745,647.706 76.745,679 78.21,679 78.21,658.462 88.002,650.936 88.002,644.234 91.854,640.442 90.825,639.397 86.537,643.62 
		86.537,650.213 78.21,656.612 78.21,640.383 86.421,636.473 86.421,633.717 93.654,629.931 93.654,620.104 92.188,620.104 
		92.188,629.044 86.421,632.063 86.421,618.986 	"/>
</g>
<g>
	<ellipse fill="#8BC53F" cx="177.31" cy="623.667" rx="34.323" ry="43.003"/>
	<polygon fill="#3B2314" points="197.902,611.454 197.902,601.631 196.297,601.631 196.297,610.634 189.986,615.2 189.986,612.046 
		183.14,608.623 183.14,601.631 181.535,601.631 181.535,609.614 188.382,613.038 188.382,616.361 186.242,617.908 186.242,636.853 
		178.861,640.367 178.861,632.582 172.444,624.668 172.551,603.818 165.942,598.441 164.93,599.686 170.943,604.578 
		170.863,620.133 166.238,617.232 166.238,610.188 164.634,610.188 164.634,618.12 170.853,622.021 170.837,625.233 177.256,633.15 
		177.256,648.359 166.238,642.757 166.238,634.815 158.322,628.824 158.322,621.635 156.717,621.635 156.717,629.623 
		164.634,635.613 164.634,643.741 177.256,650.159 177.256,679 178.861,679 178.861,661.931 189.577,653.693 189.577,646.36 
		193.792,642.21 192.666,641.066 187.973,645.688 187.973,652.902 178.861,659.906 178.861,642.145 187.847,637.866 187.847,634.85 
		195.762,630.706 195.762,619.951 194.158,619.951 194.158,629.735 187.847,633.039 187.847,618.729 	"/>
</g>
<g>
	<ellipse fill="#D6DE23" cx="239.833" cy="605.55" rx="43.521" ry="54.526"/>
	<polygon fill="#3B2314" points="265.944,590.064 265.944,577.608 263.91,577.608 263.91,589.024 255.907,594.814 255.907,590.814 
		247.226,586.475 247.226,577.608 245.191,577.608 245.191,587.731 253.873,592.072 253.873,596.286 251.16,598.248 251.16,622.27 
		241.8,626.726 241.8,616.854 233.664,606.819 233.8,580.382 225.42,573.564 224.136,575.143 231.761,581.346 231.659,601.069 
		225.795,597.392 225.795,588.459 223.761,588.459 223.761,598.517 231.646,603.463 231.626,607.536 239.766,617.575 
		239.766,636.859 225.795,629.756 225.795,619.686 215.757,612.09 215.757,602.973 213.723,602.973 213.723,613.102 
		223.761,620.697 223.761,631.004 239.766,639.142 239.766,679 241.8,679 241.8,654.067 255.389,643.623 255.389,634.324 
		260.733,629.062 259.305,627.612 253.354,633.472 253.354,642.62 241.8,651.501 241.8,628.979 253.194,623.554 253.194,619.729 
		263.231,614.476 263.231,600.839 261.197,600.839 261.197,613.244 253.194,617.434 253.194,599.288 	"/>
</g>
<g>
	<ellipse fill="#8BC53F" cx="261.548" cy="629.187" rx="31.521" ry="39.492"/>
	<polygon fill="#3B2314" points="280.459,617.971 280.459,608.949 278.986,608.949 278.986,617.218 273.19,621.411 273.19,618.515 
		266.902,615.371 266.902,608.949 265.429,608.949 265.429,616.281 271.716,619.425 271.716,622.478 269.751,623.898 
		269.751,641.296 262.973,644.523 262.973,637.374 257.08,630.106 257.179,610.958 251.109,606.021 250.179,607.164 
		255.702,611.656 255.628,625.941 251.381,623.277 251.381,616.809 249.907,616.809 249.907,624.093 255.619,627.675 
		255.604,630.625 261.5,637.896 261.5,651.863 251.381,646.718 251.381,639.425 244.111,633.923 244.111,627.32 242.638,627.32 
		242.638,634.656 249.907,640.157 249.907,647.622 261.5,653.516 261.5,679 262.973,679 262.973,664.326 272.814,656.762 
		272.814,650.027 276.685,646.215 275.651,645.166 271.341,649.409 271.341,656.035 262.973,662.468 262.973,646.156 
		271.225,642.227 271.225,639.456 278.494,635.651 278.494,625.774 277.021,625.774 277.021,634.76 271.225,637.794 
		271.225,624.651 	"/>
</g>
<rect x="-702.597" y="799.07" fill="#D6DE23" width="32" height="32"/>
<rect x="-660.043" y="804.07" fill="#8BC53F" width="32" height="32"/>
<rect x="-619.886" y="804.07" fill="#3B2314" width="32" height="32"/>
<g>
	<ellipse fill="#D6DE23" cx="137.137" cy="599.55" rx="43.521" ry="54.526"/>
	<polygon fill="#3B2314" points="163.247,584.064 163.247,571.608 161.213,571.608 161.213,583.024 153.21,588.814 153.21,584.814 
		144.529,580.475 144.529,571.608 142.495,571.608 142.495,581.731 151.176,586.072 151.176,590.286 148.463,592.248 
		148.463,616.27 139.104,620.726 139.104,610.854 130.967,600.819 131.104,574.382 122.723,567.564 121.439,569.143 
		129.064,575.346 128.962,595.069 123.099,591.392 123.099,582.459 121.064,582.459 121.064,592.517 128.95,597.463 
		128.929,601.536 137.069,611.575 137.069,630.859 123.099,623.756 123.099,613.686 113.061,606.09 113.061,596.973 
		111.026,596.973 111.026,607.102 121.064,614.697 121.064,625.004 137.069,633.142 137.069,680 139.104,680 139.104,648.067 
		152.692,637.623 152.692,628.324 158.036,623.062 156.608,621.612 150.658,627.472 150.658,636.62 139.104,645.501 
		139.104,622.979 150.498,617.554 150.498,613.729 160.534,608.476 160.534,594.839 158.5,594.839 158.5,607.244 150.498,611.434 
		150.498,593.288 	"/>
</g>
</svg>
