<?xml version="1.0" encoding="utf-8"?>
<!-- Generator: Adobe Illustrator 16.0.0, SVG Export Plug-In . SVG Version: 6.00 Build 0)  -->
<!DOCTYPE svg PUBLIC "-//W3C//DTD SVG 1.0//EN" "http://www.w3.org/TR/2001/REC-SVG-20010904/DTD/svg10.dtd" [
	<!ENTITY ns_flows "http://ns.adobe.com/Flows/1.0/">
	<!ENTITY ns_extend "http://ns.adobe.com/Extensibility/1.0/">
	<!ENTITY ns_ai "http://ns.adobe.com/AdobeIllustrator/10.0/">
	<!ENTITY ns_graphs "http://ns.adobe.com/Graphs/1.0/">
]>
<svg version="1.0" id="Layer_1" xmlns:x="&ns_extend;" xmlns:i="&ns_ai;" xmlns:graph="&ns_graphs;"
	 xmlns="http://www.w3.org/2000/svg" xmlns:xlink="http://www.w3.org/1999/xlink" xmlns:a="http://ns.adobe.com/AdobeSVGViewerExtensions/3.0/"
	 x="0px" y="0px" width="1280px" height="800px" viewBox="0 0 1280 800" enable-background="new 0 0 1280 800" xml:space="preserve"
	>
<g id="Layer_1_1_">
	<g>
		<g>
			<defs>
				<path id="SVGID_1_" d="M564.888,221.889c1.849-1.075,9.194-3.811,13.348-5.979c4.141-2.185,17.487-7.615,19.313-7.615
					c1.844,0,24.849,0.544,28.072-1.089c3.221-1.636,15.68-3.937,19.349,8.021c3.674,11.953-4.156,7.212-7.831,9.368
					c-3.688,2.18,1.378,7.074,3.206,7.074c1.844,0,8.271,7.065,11.497,7.065c3.227,0,11.054,3.811,11.054,3.811
					s7.813,7.07,11.966,7.07c4.143,0,11.149,8.435,15.755,3.01c4.589-5.448,6.785-16.608,11.396-15.521
					c4.594,1.103,9.659,5.441,15.632,5.441c5.977,0,17.029-1.087,18.875,1.629c1.85,2.718-12.43,11.959-11.513,14.134
					c0.929,2.166,2.774,1.637,7.378-4.89c4.586-6.526,11.497-6.526,17.016-8.149c5.524-1.638,8.291,8.686,9.212,11.945
					c0.914,3.261,5.06,9.244,8.275,16.317c3.229,7.066,6.425,16.846,10.118,24.467c3.688,7.62-0.429,22.884,3.262,27.773
					c3.672,4.903,13.311,9.195,15.603,15.719c2.312,6.525,7.825,13.039,9.671,13.597c1.849,0.531,9.663,13.031,10.125,16.287
					c0.447,3.263-2.766,10.342,4.582,10.893c7.385,0.535,13.819-3.817,16.124-4.9c2.296-1.076,20.239-9.247,22.539-5.991
					c2.304,3.263-3.213,17.411-3.668,21.221c-0.466,3.797-13.82,22.284-14.282,27.172c-0.447,4.903-8.275,13.612-13.328,14.691
					c-5.068,1.072-15.652,16.309-19.333,21.207c-3.684,4.882-9.671,15.747-12.43,16.834c-2.755,1.094-4.884,15.535-3.5,17.721
					c1.375,2.159,1.655,12.189,5.812,16.544c4.136,4.354,5.515,7.604,3.67,11.417c-1.839,3.787,0.936,12.494,0,19.564
					c-0.914,7.055-8.735,14.103-10.58,16.269c-1.827,2.183-10.577,8.194-14.265,13.626c-3.693,5.439-6.89,10.347-5.982,13.047
					c0.913,2.738,4.606,16.313,4.13,19.573c-0.433,3.269-12.643,4.94-16.332,7.106c-3.685,2.181,1.637,9.208,2.546,13.553
					c0.914,4.347-6.441,11.432-9.666,15.229c-3.232,3.802-11.968,16.843-17.937,21.744c-5.982,4.896-14.605,3.914-20.594,3.37
					c-5.969-0.544-15.77,4.787-18.07,7.505c-2.311,2.722-5.51,2.172-10.109-0.536c-4.611-2.732-5.077-6.527-5.524-12.526
					c-0.462-5.977-1.844-9.778-1.844-9.778s-1.377-9.227-5.536-13.573c-4.134-4.369-5.52-9.254-7.811-12.525
					c-2.294-3.251,4.258-12.526,3.796-18.51c-0.468-5.983-8.401-13-10.694-16.813c-2.308-3.816-6.915-14.146-8.761-17.949
					c-1.823-3.81-4.134-11.41-3.672-22.281c0.474-10.874,5.134-17.24,8.824-20.506c3.697-3.261,2.232-7.218-0.992-13.735
					c-3.226-6.536,0.47-17.423-2.314-21.211c-2.755-3.806-7.021-25.043-12.09-28.303c-5.065-3.27-10.438-3.23-7.686-10.837
					c2.765-7.615,0-15.224,4.608-20.119c4.598-4.893,2.293-8.149-2.766-11.426c-5.063-3.259-3.218-4.883-7.363-1.078
					c-4.148,3.803-9.667,5.982-12.872,2.165c-3.228-3.804-2.313-9.778-8.298-14.133c-5.984-4.336-15.565-2.849-17.877-1.769
					c-2.292,1.1-6.964,10.469-13.417,11.556c-6.433,1.093-11.036-0.544-17.484-0.544c-6.433,0-11.967,0.544-12.878,4.36
					c-0.912,3.795-2.293,5.976-6.437,2.166c-4.153-3.804-12.425-12.51-12.425-12.51s-7.646-14.992-9.953-21.534
					c-2.297-6.512-10.29-6.732-19.03-11.628c-8.744-4.892-3.688-10.324-4.608-15.761c-0.92-5.435-5.518-7.611-3.226-8.16
					c2.306-0.547,1.846-4.339,6.9-11.959c5.071-7.605,1.843-15.767,0.935-20.116c-0.935-4.347-5.528-10.865-0.935-17.937
					c4.608-7.07,7.488-23.934,11.161-28.284c3.693-4.346,14.614-8.697,19.672-11.397c5.063-2.735,1.844-9.787,4.603-17.944
					c2.754-8.152,6.907-11.962,8.292-11.962c1.377,0,6.484-5.643,11.946-9.23C553.376,219.705,563.048,222.972,564.888,221.889z
					 M765.969,445.331c-1.249-2.349-9.208-1.646-10.588,1.085c-1.371,2.722-2.755,15.21,1.38,16.303
					C760.902,463.807,768.269,449.682,765.969,445.331z"/>
			</defs>
			<clipPath id="SVGID_2_">
				<use xlink:href="#SVGID_1_"  overflow="visible"/>
			</clipPath>
			<g opacity="0.4" clip-path="url(#SVGID_2_)"  a:adobe-knockout="true"  a:adobe-blending-mode="screen">
				
					<path fill="none" stroke="#FFFFFF" stroke-width="0.75" stroke-miterlimit="10"  a:adobe-knockout="false"  a:adobe-blending-mode="normal" d="
					M708.273,420.45c0,9.809-7.951,17.766-17.763,17.766c-9.811,0-17.766-7.957-17.766-17.766c0-9.81,7.955-17.761,17.766-17.761
					C700.322,402.689,708.273,410.642,708.273,420.45z"/>
				
					<circle fill="none" stroke="#FFFFFF" stroke-miterlimit="10"  a:adobe-knockout="false"  a:adobe-blending-mode="normal" cx="690.512" cy="420.45" r="26.385"/>
				
					<path fill="none" stroke="#FFFFFF" stroke-width="0.75" stroke-miterlimit="10"  a:adobe-knockout="false"  a:adobe-blending-mode="normal" d="
					M690.512,455.458c-19.335,0-35.012-15.671-35.012-35.008c0-19.331,15.677-35.009,35.012-35.009
					c19.336,0,35.008,15.678,35.008,35.009C725.52,439.787,709.848,455.458,690.512,455.458z"/>
				
					<path fill="none" stroke="#FFFFFF" stroke-width="0.75" stroke-miterlimit="10"  a:adobe-knockout="false"  a:adobe-blending-mode="normal" d="
					M690.512,464.085c-24.096,0-43.633-19.541-43.633-43.635c0-24.097,19.537-43.633,43.633-43.633
					c24.101,0,43.631,19.536,43.631,43.633C734.143,444.544,714.611,464.085,690.512,464.085z"/>
				
					<circle fill="none" stroke="#FFFFFF" stroke-width="0.75" stroke-miterlimit="10"  a:adobe-knockout="false"  a:adobe-blending-mode="normal" cx="690.512" cy="420.448" r="52.256"/>
				
					<circle fill="none" stroke="#FFFFFF" stroke-width="0.75" stroke-miterlimit="10"  a:adobe-knockout="false"  a:adobe-blending-mode="normal" cx="690.51" cy="420.452" r="60.879"/>
				
					<path fill="none" stroke="#FFFFFF" stroke-width="0.75" stroke-miterlimit="10"  a:adobe-knockout="false"  a:adobe-blending-mode="normal" d="
					M690.512,489.95c-38.388,0-69.504-31.114-69.504-69.5c0-38.383,31.117-69.501,69.504-69.501c38.383,0,69.5,31.119,69.5,69.501
					C760.012,458.836,728.894,489.95,690.512,489.95z"/>
				
					<path fill="none" stroke="#FFFFFF" stroke-width="0.75" stroke-miterlimit="10"  a:adobe-knockout="false"  a:adobe-blending-mode="normal" d="
					M690.512,498.578c-43.146,0-78.126-34.983-78.126-78.128c0-43.148,34.979-78.128,78.126-78.128
					c43.147,0,78.126,34.979,78.126,78.128C768.638,463.595,733.658,498.578,690.512,498.578z"/>
				
					<path fill="none" stroke="#FFFFFF" stroke-width="0.75" stroke-miterlimit="10"  a:adobe-knockout="false"  a:adobe-blending-mode="normal" d="
					M690.512,507.197c-47.91,0-86.752-38.84-86.752-86.747c0-47.913,38.842-86.75,86.752-86.75c47.911,0,86.749,38.837,86.749,86.75
					C777.261,468.357,738.423,507.197,690.512,507.197z"/>
				
					<path fill="none" stroke="#FFFFFF" stroke-width="0.75" stroke-miterlimit="10"  a:adobe-knockout="false"  a:adobe-blending-mode="normal" d="
					M690.512,515.822c-52.673,0-95.372-42.699-95.372-95.372c0-52.67,42.699-95.377,95.372-95.377
					c52.672,0,95.372,42.707,95.372,95.377C785.884,473.123,743.184,515.822,690.512,515.822z"/>
				
					<path fill="none" stroke="#FFFFFF" stroke-width="0.75" stroke-miterlimit="10"  a:adobe-knockout="false"  a:adobe-blending-mode="normal" d="
					M690.512,524.447c-57.434,0-103.998-46.566-103.998-103.997c0-57.436,46.564-103.995,103.998-103.995
					c57.433,0,103.995,46.561,103.995,103.995C794.507,477.881,747.943,524.447,690.512,524.447z"/>
				
					<path fill="none" stroke="#FFFFFF" stroke-width="0.75" stroke-miterlimit="10"  a:adobe-knockout="false"  a:adobe-blending-mode="normal" d="
					M690.512,533.068c-62.197,0-112.62-50.425-112.62-112.618c0-62.2,50.422-112.619,112.62-112.619
					c62.196,0,112.618,50.418,112.618,112.619C803.13,482.645,752.708,533.068,690.512,533.068z"/>
				
					<path fill="none" stroke="#FFFFFF" stroke-width="0.75" stroke-miterlimit="10"  a:adobe-knockout="false"  a:adobe-blending-mode="normal" d="
					M690.512,541.694c-66.96,0-121.246-54.285-121.246-121.244c0-66.956,54.286-121.242,121.246-121.242
					c66.961,0,121.241,54.286,121.241,121.242C811.753,487.409,757.473,541.694,690.512,541.694z"/>
				
					<circle fill="none" stroke="#FFFFFF" stroke-width="0.75" stroke-miterlimit="10"  a:adobe-knockout="false"  a:adobe-blending-mode="normal" cx="690.512" cy="420.448" r="129.866"/>
				
					<path fill="none" stroke="#FFFFFF" stroke-width="0.75" stroke-miterlimit="10"  a:adobe-knockout="false"  a:adobe-blending-mode="normal" d="
					M690.512,558.938c-76.485,0-138.489-62-138.489-138.487c0-76.482,62.004-138.488,138.489-138.488
					c76.482,0,138.486,62.006,138.486,138.488C828.998,496.938,766.994,558.938,690.512,558.938z"/>
				
					<circle fill="none" stroke="#FFFFFF" stroke-width="0.75" stroke-miterlimit="10"  a:adobe-knockout="false"  a:adobe-blending-mode="normal" cx="690.512" cy="420.452" r="147.116"/>
				
					<path fill="none" stroke="#FFFFFF" stroke-width="0.75" stroke-miterlimit="10"  a:adobe-knockout="false"  a:adobe-blending-mode="normal" d="
					M690.512,576.188c-86.011,0-155.736-69.727-155.736-155.736c0-86.009,69.727-155.733,155.736-155.733
					c86.008,0,155.736,69.725,155.736,155.733C846.248,506.461,776.52,576.188,690.512,576.188z"/>
				
					<path fill="none" stroke="#FFFFFF" stroke-width="0.75" stroke-miterlimit="10"  a:adobe-knockout="false"  a:adobe-blending-mode="normal" d="
					M690.512,584.813c-90.771,0-164.36-73.593-164.36-164.361c0-90.771,73.588-164.36,164.36-164.36
					c90.771,0,164.359,73.59,164.359,164.36C854.871,511.22,781.283,584.813,690.512,584.813z"/>
				
					<path fill="none" stroke="#FFFFFF" stroke-width="0.75" stroke-miterlimit="10"  a:adobe-knockout="false"  a:adobe-blending-mode="normal" d="
					M690.512,593.438c-95.533,0-172.983-77.452-172.983-172.986s77.45-172.982,172.983-172.982
					c95.532,0,172.982,77.448,172.982,172.982S786.044,593.438,690.512,593.438z"/>
				
					<circle fill="none" stroke="#FFFFFF" stroke-width="0.75" stroke-miterlimit="10"  a:adobe-knockout="false"  a:adobe-blending-mode="normal" cx="690.512" cy="420.451" r="181.606"/>
				
					<path fill="none" stroke="#FFFFFF" stroke-width="0.75" stroke-miterlimit="10"  a:adobe-knockout="false"  a:adobe-blending-mode="normal" d="
					M690.51,610.677c-105.058,0-190.229-85.171-190.229-190.227c0-105.061,85.172-190.231,190.229-190.231
					c105.063,0,190.233,85.171,190.233,190.231C880.743,525.506,795.573,610.677,690.51,610.677z"/>
				
					<path fill="none" stroke="#FFFFFF" stroke-width="0.75" stroke-miterlimit="10"  a:adobe-knockout="false"  a:adobe-blending-mode="normal" d="
					M690.512,619.305c-109.822,0-198.854-89.033-198.854-198.854c0-109.818,89.032-198.851,198.854-198.851
					c109.822,0,198.852,89.032,198.852,198.851C889.362,530.271,800.334,619.305,690.512,619.305z"/>
				
					<path fill="none" stroke="#FFFFFF" stroke-width="0.75" stroke-miterlimit="10"  a:adobe-knockout="false"  a:adobe-blending-mode="normal" d="
					M690.51,627.93c-114.584,0-207.475-92.896-207.475-207.479s92.89-207.478,207.475-207.478s207.479,92.895,207.479,207.478
					S805.095,627.93,690.51,627.93z"/>
				
					<path fill="none" stroke="#FFFFFF" stroke-width="0.75" stroke-miterlimit="10"  a:adobe-knockout="false"  a:adobe-blending-mode="normal" d="
					M690.512,636.551c-119.348,0-216.102-96.75-216.102-216.101c0-119.347,96.754-216.099,216.102-216.099
					s216.102,96.751,216.102,216.099C906.612,539.801,809.857,636.551,690.512,636.551z"/>
				
					<path fill="none" stroke="#FFFFFF" stroke-width="0.75" stroke-miterlimit="10"  a:adobe-knockout="false"  a:adobe-blending-mode="normal" d="
					M690.512,645.176c-124.108,0-224.722-100.618-224.722-224.726c0-124.108,100.613-224.725,224.722-224.725
					c124.107,0,224.725,100.617,224.725,224.725C915.235,544.558,814.619,645.176,690.512,645.176z"/>
				
					<path fill="none" stroke="#FFFFFF" stroke-width="0.75" stroke-miterlimit="10"  a:adobe-knockout="false"  a:adobe-blending-mode="normal" d="
					M690.512,653.795c-128.873,0-233.347-104.471-233.347-233.345s104.474-233.345,233.347-233.345
					c128.868,0,233.348,104.471,233.348,233.345S819.38,653.795,690.512,653.795z"/>
				
					<path fill="none" stroke="#FFFFFF" stroke-width="0.75" stroke-miterlimit="10"  a:adobe-knockout="false"  a:adobe-blending-mode="normal" d="
					M690.512,662.421c-133.636,0-241.97-108.334-241.97-241.971c0-133.635,108.334-241.969,241.97-241.969
					c133.633,0,241.969,108.334,241.969,241.969C932.48,554.087,824.145,662.421,690.512,662.421z"/>
				
					<path fill="none" stroke="#FFFFFF" stroke-width="0.75" stroke-miterlimit="10"  a:adobe-knockout="false"  a:adobe-blending-mode="normal" d="
					M690.512,671.04c-138.397,0-250.595-112.194-250.595-250.59c0-138.396,112.197-250.594,250.595-250.594
					c138.395,0,250.592,112.198,250.592,250.594C941.104,558.846,828.905,671.04,690.512,671.04z"/>
				
					<path fill="none" stroke="#FFFFFF" stroke-width="0.75" stroke-miterlimit="10"  a:adobe-knockout="false"  a:adobe-blending-mode="normal" d="
					M690.512,679.667c-143.161,0-259.216-116.057-259.216-259.217c0-143.157,116.055-259.217,259.216-259.217
					c143.158,0,259.215,116.06,259.215,259.217C949.727,563.61,833.67,679.667,690.512,679.667z"/>
				
					<path fill="none" stroke="#FFFFFF" stroke-width="0.75" stroke-miterlimit="10"  a:adobe-knockout="false"  a:adobe-blending-mode="normal" d="
					M690.51,688.294c-147.921,0-267.84-119.92-267.84-267.844c0-147.922,119.918-267.842,267.84-267.842
					c147.924,0,267.844,119.919,267.844,267.842C958.354,568.374,838.434,688.294,690.51,688.294z"/>
				
					<path fill="none" stroke="#FFFFFF" stroke-width="0.75" stroke-miterlimit="10"  a:adobe-knockout="false"  a:adobe-blending-mode="normal" d="
					M690.512,696.913c-152.684,0-276.463-123.781-276.463-276.463c0-152.686,123.779-276.463,276.463-276.463
					c152.688,0,276.461,123.778,276.461,276.463C966.973,573.132,843.198,696.913,690.512,696.913z"/>
				
					<path fill="none" stroke="#FFFFFF" stroke-width="0.75" stroke-miterlimit="10"  a:adobe-knockout="false"  a:adobe-blending-mode="normal" d="
					M690.51,705.539c-157.443,0-285.083-127.645-285.083-285.089s127.64-285.084,285.083-285.084
					c157.445,0,285.09,127.64,285.09,285.084C975.6,577.896,847.955,705.539,690.51,705.539z"/>
				
					<path fill="none" stroke="#FFFFFF" stroke-width="0.75" stroke-miterlimit="10"  a:adobe-knockout="false"  a:adobe-blending-mode="normal" d="
					M690.512,714.159c-162.21,0-293.711-131.499-293.711-293.709c0-162.208,131.501-293.711,293.711-293.711
					c162.208,0,293.715,131.503,293.715,293.711C984.227,582.66,852.72,714.159,690.512,714.159z"/>
				
					<circle fill="none" stroke="#FFFFFF" stroke-width="0.75" stroke-miterlimit="10"  a:adobe-knockout="false"  a:adobe-blending-mode="normal" cx="690.51" cy="420.452" r="302.333"/>
				
					<path fill="none" stroke="#FFFFFF" stroke-width="0.75" stroke-miterlimit="10"  a:adobe-knockout="false"  a:adobe-blending-mode="normal" d="
					M690.512,731.412c-171.732,0-310.959-139.222-310.959-310.962c0-171.734,139.227-310.958,310.959-310.958
					c171.733,0,310.96,139.224,310.96,310.958C1001.472,592.19,862.245,731.412,690.512,731.412z"/>
				
					<path fill="none" stroke="#FFFFFF" stroke-width="0.75" stroke-miterlimit="10"  a:adobe-knockout="false"  a:adobe-blending-mode="normal" d="
					M690.51,740.032c-176.494,0-319.58-143.084-319.58-319.582c0-176.495,143.085-319.58,319.58-319.58
					c176.496,0,319.577,143.085,319.577,319.58C1010.087,596.948,867.006,740.032,690.51,740.032z"/>
				
					<path fill="none" stroke="#FFFFFF" stroke-width="0.75" stroke-miterlimit="10"  a:adobe-knockout="false"  a:adobe-blending-mode="normal" d="
					M690.512,748.659c-181.26,0-328.205-146.945-328.205-328.209c0-181.256,146.944-328.203,328.205-328.203
					c181.258,0,328.206,146.946,328.206,328.203C1018.718,601.714,871.77,748.659,690.512,748.659z"/>
				
					<path fill="none" stroke="#FFFFFF" stroke-width="0.75" stroke-miterlimit="10"  a:adobe-knockout="false"  a:adobe-blending-mode="normal" d="
					M690.512,757.278c-186.021,0-336.83-150.809-336.83-336.828c0-186.021,150.807-336.828,336.83-336.828
					c186.023,0,336.821,150.806,336.821,336.828C1027.333,606.471,876.534,757.278,690.512,757.278z"/>
				
					<path fill="none" stroke="#FFFFFF" stroke-width="0.75" stroke-miterlimit="10"  a:adobe-knockout="false"  a:adobe-blending-mode="normal" d="
					M690.512,765.904c-190.785,0-345.45-154.669-345.45-345.454C345.062,229.668,499.727,75,690.512,75
					c190.779,0,345.451,154.668,345.451,345.451C1035.963,611.235,881.291,765.904,690.512,765.904z"/>
				
					<path fill="none" stroke="#FFFFFF" stroke-width="0.75" stroke-miterlimit="10"  a:adobe-knockout="false"  a:adobe-blending-mode="normal" d="
					M690.512,774.523c-195.547,0-354.075-158.523-354.075-354.073c0-195.547,158.528-354.075,354.075-354.075
					c195.549,0,354.07,158.528,354.07,354.075C1044.582,616,886.061,774.523,690.512,774.523z"/>
				
					<path fill="none" stroke="#FFFFFF" stroke-width="0.75" stroke-miterlimit="10"  a:adobe-knockout="false"  a:adobe-blending-mode="normal" d="
					M690.512,783.15c-200.31,0-362.697-162.395-362.697-362.7c0-200.312,162.388-362.698,362.697-362.698
					c200.31,0,362.693,162.386,362.693,362.698C1053.205,620.757,890.82,783.15,690.512,783.15z"/>
				
					<path fill="none" stroke="#FFFFFF" stroke-width="0.75" stroke-miterlimit="10"  a:adobe-knockout="false"  a:adobe-blending-mode="normal" d="
					M690.512,791.766c-205.072,0-371.322-166.244-371.322-371.314S485.44,49.128,690.512,49.128
					c205.069,0,371.324,166.253,371.324,371.323S895.581,791.766,690.512,791.766z"/>
				
					<path fill="none" stroke="#FFFFFF" stroke-width="0.75" stroke-miterlimit="10"  a:adobe-knockout="false"  a:adobe-blending-mode="normal" d="
					M690.512,800.393c-209.836,0-379.944-170.104-379.944-379.941c0-209.834,170.108-379.944,379.944-379.944
					c209.834,0,379.943,170.109,379.943,379.944C1070.455,630.287,900.346,800.393,690.512,800.393z"/>
				
					<path fill="none" stroke="#FFFFFF" stroke-width="0.75" stroke-miterlimit="10"  a:adobe-knockout="false"  a:adobe-blending-mode="normal" d="
					M690.512,809.021c-214.599,0-388.568-173.978-388.568-388.571c0-214.595,173.969-388.567,388.568-388.567
					s388.566,173.972,388.566,388.567C1079.078,635.045,905.109,809.021,690.512,809.021z"/>
				
					<path fill="none" stroke="#FFFFFF" stroke-width="0.75" stroke-miterlimit="10"  a:adobe-knockout="false"  a:adobe-blending-mode="normal" d="
					M690.512,817.639c-219.359,0-397.191-177.83-397.191-397.188c0-219.358,177.831-397.192,397.191-397.192
					c219.362,0,397.189,177.833,397.189,397.191C1087.701,639.808,909.874,817.639,690.512,817.639z"/>
				
					<path fill="none" stroke="#FFFFFF" stroke-width="0.75" stroke-miterlimit="10"  a:adobe-knockout="false"  a:adobe-blending-mode="normal" d="
					M690.512,826.265c-224.122,0-405.813-181.688-405.813-405.813c0-224.122,181.691-405.814,405.813-405.814
					c224.123,0,405.815,181.692,405.815,405.814C1096.327,644.575,914.635,826.265,690.512,826.265z"/>
				
					<path fill="none" stroke="#FFFFFF" stroke-width="0.75" stroke-miterlimit="10"  a:adobe-knockout="false"  a:adobe-blending-mode="normal" d="
					M690.512,834.888c-228.884,0-414.438-185.548-414.438-414.438c0-228.883,185.555-414.435,414.438-414.435
					c228.889,0,414.436,185.552,414.436,414.435C1104.946,649.34,919.398,834.888,690.512,834.888z"/>
				
					<path fill="none" stroke="#FFFFFF" stroke-width="0.75" stroke-miterlimit="10"  a:adobe-knockout="false"  a:adobe-blending-mode="normal" d="
					M690.512,843.515c-233.647,0-423.062-189.418-423.062-423.063c0-233.644,189.414-423.062,423.062-423.062
					c233.646,0,423.059,189.418,423.059,423.062C1113.569,654.097,924.156,843.515,690.512,843.515z"/>
				
					<path fill="none" stroke="#FFFFFF" stroke-width="0.75" stroke-miterlimit="10"  a:adobe-knockout="false"  a:adobe-blending-mode="normal" d="
					M690.512,852.134c-238.41,0-431.685-193.271-431.685-431.684c0-238.408,193.274-431.683,431.685-431.683
					c238.409,0,431.688,193.275,431.688,431.683C1122.2,658.861,928.921,852.134,690.512,852.134z"/>
				
					<path fill="none" stroke="#FFFFFF" stroke-width="0.75" stroke-miterlimit="10"  a:adobe-knockout="false"  a:adobe-blending-mode="normal" d="
					M690.512,860.761c-243.172,0-440.306-197.136-440.306-440.311c0-243.17,197.134-440.309,440.306-440.309
					c243.174,0,440.305,197.139,440.305,440.309C1130.814,663.625,933.686,860.761,690.512,860.761z"/>
				
					<path fill="none" stroke="#FFFFFF" stroke-width="0.75" stroke-miterlimit="10"  a:adobe-knockout="false"  a:adobe-blending-mode="normal" d="
					M690.512,869.38c-247.936,0-448.932-200.998-448.932-448.93c0-247.932,200.997-448.931,448.932-448.931
					s448.931,200.999,448.931,448.931C1139.441,668.382,938.445,869.38,690.512,869.38z"/>
				
					<path fill="none" stroke="#FFFFFF" stroke-width="0.75" stroke-miterlimit="10"  a:adobe-knockout="false"  a:adobe-blending-mode="normal" d="
					M1148.064,420.45c0,252.696-204.858,457.556-457.554,457.556c-252.696,0-457.554-204.859-457.554-457.556
					c0-252.697,204.857-457.557,457.554-457.557C943.206-37.106,1148.064,167.753,1148.064,420.45z"/>
			</g>
		</g>
	</g>
	<g>
		<g>
			
				<line fill="none" stroke="#FFFFFF" stroke-width="3" stroke-miterlimit="10" x1="690.512" y1="420.448" x2="532.741" y2="494.162"/>
			<g>
				<circle fill="#FFFFFF" cx="533.099" cy="493.995" r="7.896"/>
			</g>
		</g>
	</g>
	<g>
		<g>
			
				<line fill="none" stroke="#FFFFFF" stroke-width="3" stroke-miterlimit="10" x1="690.512" y1="420.448" x2="924.966" y2="333.605"/>
			<g>
				<circle fill="#FFFFFF" cx="924.596" cy="333.742" r="7.896"/>
			</g>
		</g>
	</g>
	<circle fill="#FFFFFF" cx="690.513" cy="420.448" r="18.645"/>
	<g>
		<path fill="#FFFFFF" d="M97.132,177.046h-2.428l-4.168-27.805l-4.168,27.805h-2.336l-5.497-32.34h2.291l4.352,27.484l4.168-27.484
			h2.382l4.214,27.484l4.214-27.484h2.244L97.132,177.046z"/>
		<path fill="#FFFFFF" d="M108.219,146.722v12.459h7.604v1.97h-7.604v13.879h9.207v2.016H106.02v-32.34h11.452v2.016H108.219
			L108.219,146.722z"/>
		<path fill="#FFFFFF" d="M140.285,177.046l-5.909-16.765l-2.382,4.489v12.276h-2.199v-32.34h2.245v15.849l8.062-15.849h2.52
			l-6.871,12.872l6.962,19.468H140.285z"/>
		<path fill="#FFFFFF" d="M155.356,177.046l-7.512-30.553l0.183,30.553h-2.153v-32.34h3.298l7.741,31.103l-0.32-31.103h2.199v32.34
			H155.356z"/>
		<path fill="#FFFFFF" d="M176.108,174.665c-0.687,1.191-2.382,2.794-5.68,2.794c-0.641,0-3.435-0.045-5.039-1.97
			c-1.283-1.604-1.42-3.437-1.42-5.359v-18.231c0-0.367,0-2.199,0.504-3.665c0.916-2.703,3.436-3.939,6.184-3.894
			c1.466,0,2.932,0.321,4.123,1.191c2.29,1.741,2.29,4.535,2.29,7.054v17.865C177.07,171.962,176.933,173.336,176.108,174.665z
			 M174.917,153.822c0-2.703-0.137-4.214-0.779-5.451c-0.183-0.366-0.55-1.053-1.466-1.511c-0.32-0.184-1.099-0.504-2.153-0.504
			c-1.283,0-2.107,0.458-2.474,0.687c-1.97,1.283-1.878,3.848-1.878,4.397v17.819c0,1.832,0.091,2.84,0.366,3.665
			c0.321,0.87,1.466,2.52,4.031,2.52c0.916,0,1.787-0.229,2.52-0.779c1.74-1.237,1.832-3.207,1.832-5.084L174.917,153.822
			L174.917,153.822z"/>
		<path fill="#FFFFFF" d="M199.196,177.046h-2.428l-4.168-27.805l-4.168,27.805h-2.336l-5.497-32.34h2.291l4.352,27.484
			l4.168-27.484h2.382l4.214,27.484l4.214-27.484h2.244L199.196,177.046z"/>
		<path fill="#FFFFFF" d="M222.193,146.722v30.324h-2.29v-30.324h-5.634v-2.016h13.65v2.016H222.193z"/>
		<path fill="#FFFFFF" d="M241.524,177.046V161.06h-8.337v15.987h-2.199v-32.34h2.199v14.383h8.337v-14.383h2.245v32.34
			L241.524,177.046L241.524,177.046z"/>
		<path fill="#FFFFFF" d="M251.328,146.722v12.459h7.604v1.97h-7.604v13.879h9.207v2.016h-11.406v-32.34h11.452v2.016H251.328
			L251.328,146.722z"/>
		<path fill="#FFFFFF" d="M284.218,160.235c-1.649,1.97-4.352,2.061-5.772,2.061h-3.298v14.75h-2.245v-32.34h5.039
			c1.969,0,4.168-0.091,5.817,1.283c1.741,1.42,1.741,3.527,1.741,5.909v3.665C285.501,157.304,285.455,158.77,284.218,160.235z
			 M283.302,152.769c0-2.886-0.046-4.443-1.329-5.405c-0.825-0.641-1.558-0.778-3.436-0.778h-3.436v13.833h3.665
			c1.237,0,2.52-0.137,3.481-1.145c1.237-1.237,1.054-3.436,1.054-3.71L283.302,152.769L283.302,152.769z"/>
		<path fill="#FFFFFF" d="M302.038,174.665c-0.687,1.191-2.382,2.794-5.68,2.794c-0.641,0-3.436-0.045-5.039-1.97
			c-1.283-1.604-1.42-3.437-1.42-5.359v-18.231c0-0.367,0-2.199,0.504-3.665c0.916-2.703,3.436-3.939,6.184-3.894
			c1.466,0,2.932,0.321,4.123,1.191c2.29,1.741,2.29,4.535,2.29,7.054v17.865C303,171.962,302.863,173.336,302.038,174.665z
			 M300.847,153.822c0-2.703-0.137-4.214-0.779-5.451c-0.183-0.366-0.549-1.053-1.466-1.511c-0.32-0.184-1.099-0.504-2.153-0.504
			c-1.283,0-2.107,0.458-2.474,0.687c-1.97,1.283-1.878,3.848-1.878,4.397v17.819c0,1.832,0.092,2.84,0.366,3.665
			c0.321,0.87,1.466,2.52,4.031,2.52c0.916,0,1.787-0.229,2.52-0.779c1.74-1.237,1.832-3.207,1.832-5.084v-15.759H300.847z"/>
		<path fill="#FFFFFF" d="M313.812,146.722v30.324h-2.29v-30.324h-5.634v-2.016h13.65v2.016H313.812z"/>
		<path fill="#FFFFFF" d="M324.806,146.722v12.459h7.604v1.97h-7.604v13.879h9.207v2.016h-11.406v-32.34h11.452v2.016H324.806
			L324.806,146.722z"/>
		<path fill="#FFFFFF" d="M347.16,177.046l-7.512-30.553l0.183,30.553h-2.153v-32.34h3.298l7.741,31.103l-0.32-31.103h2.199v32.34
			H347.16z"/>
		<path fill="#FFFFFF" d="M361.544,146.722v30.324h-2.29v-30.324h-5.634v-2.016h13.65v2.016H361.544z"/>
		<path fill="#FFFFFF" d="M370.294,177.046v-32.34h2.336v32.34H370.294z"/>
		<path fill="#FFFFFF" d="M388.892,177.046l-1.649-9.849h-6.779l-1.695,9.849h-2.382l5.909-32.523h3.115l5.863,32.523H388.892z
			 M384.311,150.066c-0.183-1.007-0.321-2.015-0.458-3.023c-0.092,0.962-0.229,1.878-0.367,2.794l-2.657,15.254h6.001
			L384.311,150.066z"/>
		<path fill="#FFFFFF" d="M395.123,177.046v-32.34h2.245v30.324h8.428v2.016H395.123z"/>
		<path fill="#FFFFFF" d="M418.027,177.046v-32.34h2.336v32.34H418.027z"/>
		<path fill="#FFFFFF" d="M435.021,177.046l-7.513-30.553l0.184,30.553h-2.153v-32.34h3.298l7.741,31.103l-0.32-31.103h2.199v32.34
			H435.021z"/>
		<path fill="#D6DE23" d="M99.527,204.452v64.214h-9.792v-64.214H78.707v-8.555h32.159v8.555H99.527z"/>
		<path fill="#D6DE23" d="M117.255,268.667v-72.77h24.016v9.07h-14.327v21.336h12.781v9.071h-12.678v24.119h14.224v9.173
			L117.255,268.667L117.255,268.667z"/>
		<path fill="#D6DE23" d="M176.83,263.204c-1.752,2.577-5.463,6.391-13.193,6.391c-7.421,0-11.132-3.401-12.884-5.979
			c-2.577-3.71-2.577-8.246-2.577-12.472v-35.148c0-1.649,0.103-3.298,0.206-4.947c0.206-2.783,0.722-11.957,9.998-14.946
			c2.062-0.722,3.814-0.928,6.082-0.928c5.359,0,8.246,1.649,10.101,3.195c1.546,1.237,2.68,2.783,3.401,4.535
			c1.443,3.298,1.546,6.597,1.546,10.101v9.277h-9.689v-11.235c0-1.546,0.516-7.524-5.875-7.524c-2.062,0-3.092,0.618-3.917,1.237
			c-2.371,2.062-2.165,5.154-2.165,7.937v40.199c0,0.824,0,1.649,0.103,2.474c0.103,1.958,0.412,5.875,5.772,5.875
			c0.618,0,2.268,0.103,3.71-1.031c2.474-1.752,2.371-4.844,2.371-7.524V238.57h9.689v13.605
			C179.51,256.195,179.201,259.699,176.83,263.204z"/>
		<path fill="#D6DE23" d="M206.206,268.667v-33.808h-8.864v33.808h-9.585v-72.77h9.585v29.582h8.864v-29.582h9.586v72.77H206.206z"
			/>
		<path fill="#D6DE23" d="M245.269,268.667l-11.647-53.392l0.825,53.392h-8.967v-72.77h10.307l11.441,49.578l-0.413-49.578h9.07
			v72.77H245.269z"/>
		<path fill="#D6DE23" d="M294.332,260.936c-3.092,8.555-12.575,8.452-14.739,8.452c-0.825,0-3.607,0-6.082-0.928
			c-1.958-0.722-6.287-3.195-7.833-8.864c-0.618-2.165-0.721-3.504-0.721-7.627v-36.282c0-6.494,0-12.781,5.669-17.11
			c1.752-1.34,4.844-3.195,9.998-3.195c1.546,0,5.875,0,9.483,2.886c1.855,1.443,2.886,3.092,3.298,3.917
			c2.061,3.607,2.165,7.421,2.165,15.564v34.632C295.569,255.164,295.362,258.153,294.332,260.936z M285.983,214.862
			c0-4.432,0-7.215-1.134-8.967c-0.619-0.928-1.855-2.165-4.432-2.165c-0.516,0-2.165,0.103-3.504,1.031
			c-2.577,1.649-2.371,4.638-2.371,10.101v38.962c0,3.917,0.619,7.627,5.566,7.627c6.185,0,5.875-5.566,5.875-9.895V214.862z"/>
		<path fill="#D6DE23" d="M305.051,268.667v-72.77h9.586v63.802h15.873v8.967L305.051,268.667L305.051,268.667z"/>
		<path fill="#D6DE23" d="M365.141,260.936c-3.092,8.555-12.575,8.452-14.739,8.452c-0.825,0-3.607,0-6.082-0.928
			c-1.958-0.722-6.287-3.195-7.833-8.864c-0.618-2.165-0.721-3.504-0.721-7.627v-36.282c0-6.494,0-12.781,5.669-17.11
			c1.752-1.34,4.844-3.195,9.998-3.195c1.546,0,5.875,0,9.483,2.886c1.855,1.443,2.886,3.092,3.298,3.917
			c2.061,3.607,2.165,7.421,2.165,15.564v34.632C366.378,255.164,366.172,258.153,365.141,260.936z M356.792,214.862
			c0-4.432,0-7.215-1.134-8.967c-0.619-0.928-1.855-2.165-4.432-2.165c-0.516,0-2.165,0.103-3.504,1.031
			c-2.577,1.649-2.371,4.638-2.371,10.101v38.962c0,3.917,0.619,7.627,5.566,7.627c6.185,0,5.875-5.566,5.875-9.895V214.862z"/>
		<path fill="#D6DE23" d="M398.331,268.667l-0.927-3.401c-1.34,1.855-3.505,4.535-8.968,4.535c-1.443,0-4.947-0.103-8.04-2.68
			c-4.638-3.917-4.844-9.586-4.844-15.049v-36.488c0-5.979,0.206-8.658,1.237-11.544c1.134-3.401,4.329-8.967,13.399-8.967
			c1.855,0,7.215,0,10.617,4.741c1.958,2.68,2.371,5.051,2.371,11.235v7.627h-8.864v-8.246c0-0.722-0.103-1.546-0.103-2.268
			c-0.103-1.134,0-5.154-4.329-5.051c-1.443,0-2.371,0.413-2.886,0.825c-2.165,1.546-1.958,4.845-1.958,7.215V253
			c0,2.989,0.103,5.257,0.722,6.494c0.412,0.824,1.546,2.371,4.02,2.268c0.515,0,1.649,0,2.783-0.722
			c1.958-1.34,2.062-3.813,2.062-5.772v-16.492h-5.875v-8.864h15.357v38.755H398.331z"/>
		<path fill="#D6DE23" d="M430.797,238.157v30.51h-10.411V238.26l-11.028-42.363h9.792l6.699,29.066l7.318-29.066h9.688
			L430.797,238.157z"/>
		<path fill="#D6DE23" d="M443.681,268.667v-13.605h8.452v13.605H443.681z"/>
	</g>
	<g>
		<g>
			<path fill="#FFFFFF" d="M974.111,188.029h141.035v82.582h4.683v-80.086c0-4.021-3.634-7.281-8.112-7.281H977.545
				c-4.48,0-8.113,3.259-8.113,7.281v80.086h4.681L974.111,188.029L974.111,188.029z"/>
			<path fill="#FFFFFF" d="M1129.593,271.686h-48.027c-0.275,0.478-0.769,0.814-1.361,0.814h-71.15
				c-0.591,0-1.085-0.336-1.358-0.814h-48.027h-3.224v3.224c0,1.781,1.442,3.225,3.224,3.225h169.927
				c1.778,0,3.224-1.443,3.224-3.225v-3.224H1129.593z"/>
		</g>
		<g>
			<path fill="none" stroke="#FFFFFF" stroke-width="2" stroke-miterlimit="10" stroke-dasharray="1.9998,3.9997" d="
				M1182.362,235.203c0,81.208-65.837,147.041-147.04,147.041c-81.211,0-147.045-65.833-147.045-147.041
				c0-81.209,65.834-147.042,147.045-147.042C1116.525,88.162,1182.362,153.994,1182.362,235.203z"/>
		</g>
		<circle fill="#FFFFFF" cx="851.834" cy="178.257" r="101.844"/>
		<path fill="#FFFFFF" d="M850.244,125.854c0,28.941-23.466,52.404-52.404,52.404c-28.939,0-52.404-23.462-52.404-52.404
			S768.9,73.449,797.84,73.449C826.778,73.45,850.244,96.912,850.244,125.854z"/>
		<g>
			<path fill="#D6DE23" d="M781.4,105.564c-2.729,0-4.445,1.482-4.445,5.381v5.849h-8.111v-5.303c0-8.735,4.367-13.726,12.79-13.726
				s12.79,4.991,12.79,13.726c0,17.937-18.639,24.098-17.001,33.69h16.222v7.799h-24.801v-6.707
				c0-16.065,17.002-18.717,17.002-34.471C785.846,106.89,784.13,105.564,781.4,105.564z"/>
			<path fill="#D6DE23" d="M799.183,111.959c0-9.203,4.212-14.194,13.104-14.194c8.423,0,12.79,4.991,12.79,13.726v1.404h-8.111
				v-1.95c0-3.899-1.716-5.381-4.445-5.381c-3.041,0-4.757,1.482-4.757,6.707v9.982c1.481-3.12,4.134-4.835,7.955-4.835
				c6.316,0,9.515,4.445,9.515,12.478v9.982c0,8.735-4.602,13.726-13.023,13.726s-13.024-4.991-13.024-13.726v-27.919H799.183z
				 M807.762,130.598v9.826c0,3.899,1.717,5.303,4.445,5.303s4.445-1.404,4.445-5.303v-9.826c0-3.899-1.717-5.381-4.445-5.381
				S807.762,126.699,807.762,130.598z"/>
			<path fill="#D6DE23" d="M829.912,111.491c0-8.735,4.601-13.726,13.023-13.726c8.422,0,13.023,4.991,13.023,13.726v28.387
				c0,8.735-4.602,13.726-13.023,13.726c-8.423,0-13.023-4.991-13.023-13.726V111.491z M838.49,140.424
				c0,3.899,1.716,5.381,4.445,5.381c2.729,0,4.444-1.482,4.444-5.381v-29.479c0-3.899-1.716-5.381-4.444-5.381
				c-2.729,0-4.445,1.482-4.445,5.381V140.424z"/>
			<path fill="#5DB8D9" d="M889.355,152.98l0.64-32.619l-6.076,32.619h-6.449l-6.235-32.619l0.533,32.619h-6.822v-37.629h11.299
				l4.424,26.33l4.479-26.33h11.14v37.629H889.355z"/>
		</g>
		<g>
			<path fill="#5DB8D9" d="M774.335,183.751l-3.02-13.84l0.214,13.84h-2.324v-18.863h2.672l2.966,12.851l-0.106-12.851h2.352v18.863
				H774.335z"/>
			<path fill="#5DB8D9" d="M786.867,181.426c-0.695,2.485-3.073,2.619-3.821,2.619c-0.668,0-2.752-0.134-3.526-2.218
				c-0.214-0.534-0.32-1.068-0.32-2.217v-14.722h2.432v14.588c0,1.069-0.025,2.512,1.496,2.512c0.16,0,0.614,0,0.962-0.294
				c0.534-0.455,0.563-1.123,0.563-2.378v-14.428h2.458v14.294C787.107,179.342,787.107,180.545,786.867,181.426z"/>
			<path fill="#5DB8D9" d="M798.01,183.751v-15.176l-2.164,15.176h-2.11l-2.139-15.176v15.176h-2.323v-18.863h3.554l2.03,12.531
				l1.789-12.531h3.662v18.863H798.01z"/>
			<path fill="#5DB8D9" d="M809.928,180.972c-0.025,0.214,0,1.497-0.802,2.191c-0.748,0.615-1.815,0.588-2.698,0.588h-3.794v-18.863
				h4.408c0.775,0,1.604,0,2.218,0.561c0.668,0.641,0.668,1.523,0.695,3.206c0,0.321,0.025,0.641,0.025,0.962
				c0,0.588-0.025,1.175-0.054,1.763c0,0.107,0.027,0.935-0.239,1.47c-0.188,0.401-0.614,0.668-1.017,0.775
				c-0.267,0.08-0.774,0.16-0.774,0.16c0.669,0.053,1.442,0.24,1.791,0.855c0.293,0.534,0.239,1.256,0.268,2.565
				c0,0.481,0.025,0.962,0.025,1.469C809.98,179.449,809.98,180.197,809.928,180.972z M807.443,168.174
				c-0.027-0.508-0.107-0.748-0.269-0.882c-0.187-0.16-0.454-0.16-0.908-0.16h-1.229v5.664H806c0.775,0,1.336-0.026,1.443-0.962
				c0.053-0.374,0.08-0.988,0.08-1.897C807.523,169.35,807.496,168.762,807.443,168.174z M807.523,176.243
				c-0.027-0.347-0.055-0.908-0.32-1.176c-0.214-0.187-0.535-0.213-0.775-0.213h-1.39v6.572h1.283c0.561,0,1.067,0.054,1.175-0.641
				c0.027-0.294,0.081-1.549,0.081-2.645C807.577,177.499,807.55,176.884,807.523,176.243z"/>
			<path fill="#5DB8D9" d="M812.093,183.751v-18.863h6.227v2.351h-3.714v5.531h3.313v2.351h-3.286v6.252h3.688v2.378H812.093z"/>
			<path fill="#5DB8D9" d="M825.105,183.751c-0.32-1.763-0.375-2.164-0.375-3.954v-1.336c0-0.642-0.025-1.31-0.105-1.951
				c-0.054-0.454-0.134-0.908-0.454-1.202c-0.241-0.187-0.508-0.241-0.802-0.241h-1.016v8.684h-2.484v-18.863h4.061
				c0.321,0,0.643,0,0.937,0.026c0.668,0.054,1.924,0.134,2.298,1.844c0.105,0.481,0.16,1.416,0.16,2.698
				c0,0.722,0,1.47-0.055,2.218c-0.025,0.481-0.105,1.069-0.294,1.496c-0.454,0.989-1.521,0.962-1.924,1.016
				c0.401,0.08,1.176-0.027,1.71,0.801c0.428,0.668,0.455,1.443,0.455,2.993v2.057c0,2.138,0.053,2.538,0.48,3.714H825.105
				L825.105,183.751z M824.813,168.067c-0.026-0.401-0.106-0.614-0.268-0.748c-0.161-0.16-0.428-0.16-0.909-0.16h-1.255v5.824h1.175
				c0.643,0,1.017-0.16,1.177-0.828c0.106-0.454,0.134-1.576,0.134-2.886C824.865,168.869,824.839,168.468,824.813,168.067z"/>
			<path fill="#5DB8D9" d="M841.886,181.747c-0.801,2.218-3.259,2.191-3.819,2.191c-0.215,0-0.937,0-1.576-0.24
				c-0.508-0.188-1.63-0.829-2.03-2.298c-0.161-0.561-0.188-0.909-0.188-1.977v-9.405c0-1.684,0-3.313,1.471-4.436
				c0.454-0.347,1.256-0.828,2.592-0.828c0.4,0,1.521,0,2.458,0.748c0.479,0.374,0.748,0.802,0.854,1.015
				c0.533,0.936,0.562,1.924,0.562,4.035v8.977C842.207,180.251,842.153,181.026,841.886,181.747z M839.722,169.804
				c0-1.149,0-1.871-0.294-2.325c-0.16-0.24-0.479-0.561-1.147-0.561c-0.134,0-0.563,0.027-0.908,0.267
				c-0.668,0.428-0.615,1.203-0.615,2.619v10.099c0,1.016,0.161,1.978,1.443,1.978c1.603,0,1.521-1.443,1.521-2.565V169.804z"/>
			<path fill="#5DB8D9" d="M846.857,167.212v5.477h3.605v2.298h-3.58v8.764h-2.512v-18.863h6.466v2.324H846.857z"/>
			<path fill="#5DB8D9" d="M857.038,183.751v-18.863h2.458v18.863H857.038z"/>
			<path fill="#5DB8D9" d="M866.738,183.751l-3.021-13.84l0.214,13.84h-2.324v-18.863h2.673l2.966,12.851l-0.107-12.851h2.353
				v18.863H866.738z"/>
			<path fill="#5DB8D9" d="M876.225,167.105v16.646h-2.539v-16.646h-2.857v-2.217h8.336v2.217H876.225z"/>
			<path fill="#5DB8D9" d="M880.554,183.751v-18.863h6.227v2.351h-3.714v5.531h3.313v2.351h-3.286v6.252h3.688v2.378H880.554z"/>
			<path fill="#5DB8D9" d="M893.566,183.751c-0.32-1.763-0.375-2.164-0.375-3.954v-1.336c0-0.642-0.025-1.31-0.105-1.951
				c-0.054-0.454-0.134-0.908-0.454-1.202c-0.241-0.187-0.508-0.241-0.802-0.241h-1.016v8.684h-2.484v-18.863h4.061
				c0.321,0,0.643,0,0.937,0.026c0.668,0.054,1.924,0.134,2.298,1.844c0.105,0.481,0.16,1.416,0.16,2.698
				c0,0.722,0,1.47-0.055,2.218c-0.025,0.481-0.105,1.069-0.294,1.496c-0.454,0.989-1.521,0.962-1.924,1.016
				c0.401,0.08,1.176-0.027,1.71,0.801c0.428,0.668,0.455,1.443,0.455,2.993v2.057c0,2.138,0.053,2.538,0.48,3.714H893.566
				L893.566,183.751z M893.271,168.067c-0.025-0.401-0.105-0.614-0.267-0.748c-0.161-0.16-0.428-0.16-0.909-0.16h-1.255v5.824h1.175
				c0.643,0,1.017-0.16,1.176-0.828c0.107-0.454,0.135-1.576,0.135-2.886C893.326,168.869,893.3,168.468,893.271,168.067z"/>
			<path fill="#5DB8D9" d="M902.919,183.751l-3.021-13.84l0.215,13.84h-2.324v-18.863h2.672l2.966,12.851l-0.106-12.851h2.352
				v18.863H902.919z"/>
			<path fill="#5DB8D9" d="M907.836,183.751v-18.863h6.227v2.351h-3.715v5.531h3.313v2.351h-3.286v6.252h3.688v2.378H907.836z"/>
			<path fill="#5DB8D9" d="M920.208,167.105v16.646h-2.539v-16.646h-2.858v-2.217h8.336v2.217H920.208z"/>
			<path fill="#5DB8D9" d="M776.847,204.332c-0.694,2.485-3.072,2.619-3.82,2.619c-0.668,0-2.752-0.134-3.526-2.218
				c-0.214-0.534-0.321-1.068-0.321-2.217v-14.722h2.433v14.588c0,1.069-0.026,2.512,1.496,2.512c0.159,0,0.613,0,0.962-0.294
				c0.533-0.455,0.562-1.123,0.562-2.378v-14.428h2.458v14.294C777.087,202.248,777.087,203.45,776.847,204.332z"/>
			<path fill="#5DB8D9" d="M784.222,206.709c-0.319,0.134-0.827,0.294-1.655,0.294c-1.523,0-2.353-0.641-2.752-1.122
				c-0.775-0.882-0.829-1.897-0.829-2.992v-3.126h2.298v3.446c0,0.909,0.134,1.309,0.535,1.577c0.105,0.08,0.347,0.24,0.748,0.24
				c1.229-0.027,1.201-1.362,1.201-2.218c0-1.362-0.214-2.11-0.908-3.286c-0.694-1.229-1.55-2.324-2.271-3.527
				c-0.399-0.641-1.442-2.244-1.442-4.435c0-2.084,0.908-3.18,1.684-3.634c0.4-0.24,1.068-0.508,2.138-0.508
				c0.508,0,2.404-0.026,2.992,1.817c0.106,0.348,0.188,0.668,0.188,1.416v3.34h-2.271v-3.34c-0.026-0.213,0.054-1.282-0.988-1.282
				c-1.202,0-1.229,1.042-1.229,1.924c0,1.576,0.428,2.458,1.256,3.767c0.348,0.561,0.722,1.096,1.096,1.657
				c0.294,0.4,0.563,0.801,0.828,1.229c1.311,2.057,1.47,3.473,1.47,4.569C786.306,202.916,786.332,205.748,784.222,206.709z"/>
			<path fill="#5DB8D9" d="M788.15,206.656v-18.863h6.226v2.351h-3.714v5.531h3.313v2.351h-3.285v6.252h3.688v2.378H788.15z"/>
			<path fill="#5DB8D9" d="M801.163,206.656c-0.32-1.763-0.374-2.164-0.374-3.954v-1.336c0-0.642-0.026-1.31-0.106-1.951
				c-0.054-0.454-0.134-0.908-0.454-1.202c-0.24-0.187-0.508-0.241-0.802-0.241h-1.016v8.684h-2.484v-18.863h4.062
				c0.32,0,0.642,0,0.936,0.026c0.668,0.054,1.924,0.134,2.298,1.844c0.106,0.481,0.16,1.416,0.16,2.698c0,0.722,0,1.47-0.054,2.218
				c-0.026,0.481-0.106,1.069-0.294,1.496c-0.454,0.989-1.522,0.962-1.925,1.016c0.401,0.08,1.177-0.027,1.711,0.801
				c0.428,0.668,0.455,1.443,0.455,2.993v2.057c0,2.138,0.053,2.538,0.479,3.714H801.163z M800.869,190.973
				c-0.026-0.401-0.106-0.614-0.268-0.748c-0.16-0.16-0.428-0.16-0.908-0.16h-1.256v5.824h1.176c0.642,0,1.016-0.16,1.176-0.828
				c0.107-0.454,0.134-1.576,0.134-2.886C800.923,191.774,800.896,191.374,800.869,190.973z"/>
			<path fill="#5DB8D9" d="M810.382,206.709c-0.319,0.134-0.828,0.294-1.655,0.294c-1.523,0-2.353-0.641-2.753-1.122
				c-0.774-0.882-0.829-1.897-0.829-2.992v-3.126h2.299v3.446c0,0.909,0.134,1.309,0.535,1.577c0.105,0.08,0.347,0.24,0.747,0.24
				c1.229-0.027,1.202-1.362,1.202-2.218c0-1.362-0.214-2.11-0.908-3.286c-0.694-1.229-1.55-2.324-2.271-3.527
				c-0.4-0.641-1.442-2.244-1.442-4.435c0-2.084,0.908-3.18,1.684-3.634c0.4-0.24,1.068-0.508,2.138-0.508
				c0.508,0,2.404-0.026,2.992,1.817c0.106,0.348,0.188,0.668,0.188,1.416v3.34h-2.271v-3.34c-0.026-0.213,0.054-1.282-0.988-1.282
				c-1.202,0-1.229,1.042-1.229,1.924c0,1.576,0.428,2.458,1.256,3.767c0.348,0.561,0.722,1.096,1.096,1.657
				c0.294,0.4,0.563,0.801,0.828,1.229c1.31,2.057,1.47,3.473,1.47,4.569C812.466,202.916,812.492,205.748,810.382,206.709z"/>
			<path fill="#5DB8D9" d="M819.174,206.656v-18.863h2.458v18.863H819.174z"/>
			<path fill="#5DB8D9" d="M828.874,206.656l-3.021-13.84l0.215,13.84h-2.324v-18.863h2.672l2.966,12.851l-0.106-12.851h2.352
				v18.863H828.874z"/>
			<path fill="#5DB8D9" d="M843.998,206.656l-0.48-3.473h-2.832l-0.428,3.473h-2.432l2.672-18.863h3.02l2.912,18.863H843.998z
				 M841.994,191.08l-1.042,9.806h2.244L841.994,191.08z"/>
			<path fill="#5DB8D9" d="M850.172,190.118v5.477h3.606v2.298h-3.58v8.764h-2.513v-18.863h6.467v2.324H850.172L850.172,190.118z"/>
			<path fill="#5DB8D9" d="M860.699,206.656c-0.32-1.763-0.374-2.164-0.374-3.954v-1.336c0-0.642-0.026-1.31-0.106-1.951
				c-0.054-0.454-0.134-0.908-0.454-1.202c-0.241-0.187-0.508-0.241-0.802-0.241h-1.016v8.684h-2.484v-18.863h4.061
				c0.321,0,0.643,0,0.937,0.026c0.668,0.054,1.924,0.134,2.298,1.844c0.106,0.481,0.16,1.416,0.16,2.698
				c0,0.722,0,1.47-0.055,2.218c-0.025,0.481-0.105,1.069-0.293,1.496c-0.454,0.989-1.522,0.962-1.925,1.016
				c0.401,0.08,1.177-0.027,1.71,0.801c0.429,0.668,0.455,1.443,0.455,2.993v2.057c0,2.138,0.053,2.538,0.48,3.714H860.699z
				 M860.405,190.973c-0.026-0.401-0.106-0.614-0.268-0.748c-0.161-0.16-0.428-0.16-0.909-0.16h-1.255v5.824h1.175
				c0.643,0,1.017-0.16,1.177-0.828c0.106-0.454,0.134-1.576,0.134-2.886C860.459,191.774,860.433,191.374,860.405,190.973z"/>
			<path fill="#5DB8D9" d="M864.814,206.656v-18.863h2.457v18.863H864.814z"/>
			<path fill="#5DB8D9" d="M876.785,205.24c-0.454,0.668-1.416,1.656-3.42,1.656c-1.924,0-2.887-0.881-3.34-1.549
				c-0.668-0.962-0.668-2.138-0.668-3.233v-9.111c0-0.428,0.026-0.855,0.054-1.283c0.054-0.721,0.188-3.099,2.592-3.874
				c0.534-0.187,0.988-0.24,1.576-0.24c1.39,0,2.138,0.427,2.618,0.828c0.4,0.32,0.694,0.721,0.882,1.175
				c0.374,0.855,0.401,1.71,0.401,2.619v2.405h-2.513v-2.913c0-0.401,0.134-1.95-1.522-1.95c-0.534,0-0.802,0.16-1.016,0.32
				c-0.615,0.535-0.562,1.336-0.562,2.058v10.42c0,0.214,0,0.428,0.026,0.641c0.026,0.508,0.106,1.523,1.496,1.523
				c0.16,0,0.588,0.027,0.962-0.267c0.642-0.454,0.614-1.256,0.614-1.95v-3.661h2.512v3.527
				C877.48,203.423,877.4,204.332,876.785,205.24z"/>
			<path fill="#5DB8D9" d="M884.643,206.656l-0.48-3.473h-2.832l-0.428,3.473h-2.433l2.673-18.863h3.02l2.912,18.863H884.643z
				 M882.638,191.08l-1.042,9.806h2.244L882.638,191.08z"/>
			<path fill="#5DB8D9" d="M898.537,206.656l-0.48-3.473h-2.832l-0.428,3.473h-2.432l2.672-18.863h3.02l2.912,18.863H898.537z
				 M896.533,191.08l-1.042,9.806h2.244L896.533,191.08z"/>
			<path fill="#5DB8D9" d="M907.195,206.709c-0.32,0.134-0.828,0.294-1.656,0.294c-1.523,0-2.352-0.641-2.752-1.122
				c-0.775-0.882-0.828-1.897-0.828-2.992v-3.126h2.297v3.446c0,0.909,0.134,1.309,0.535,1.577c0.105,0.08,0.347,0.24,0.748,0.24
				c1.229-0.027,1.202-1.362,1.202-2.218c0-1.362-0.214-2.11-0.908-3.286c-0.695-1.229-1.55-2.324-2.271-3.527
				c-0.4-0.641-1.442-2.244-1.442-4.435c0-2.084,0.908-3.18,1.683-3.634c0.401-0.24,1.069-0.508,2.139-0.508
				c0.508,0,2.403-0.026,2.991,1.817c0.107,0.348,0.188,0.668,0.188,1.416v3.34h-2.271v-3.34c-0.025-0.213,0.055-1.282-0.987-1.282
				c-1.202,0-1.229,1.042-1.229,1.924c0,1.576,0.428,2.458,1.256,3.767c0.349,0.561,0.723,1.096,1.096,1.657
				c0.295,0.4,0.563,0.801,0.828,1.229c1.311,2.057,1.471,3.473,1.471,4.569C909.279,202.916,909.306,205.748,907.195,206.709z"/>
			<path fill="#5DB8D9" d="M776.766,227.557c-0.801,2.218-3.259,2.191-3.819,2.191c-0.214,0-0.937,0-1.576-0.24
				c-0.508-0.187-1.63-0.829-2.03-2.298c-0.161-0.561-0.188-0.909-0.188-1.977v-9.405c0-1.684,0-3.313,1.47-4.436
				c0.454-0.347,1.256-0.828,2.592-0.828c0.4,0,1.522,0,2.458,0.748c0.48,0.374,0.748,0.802,0.854,1.015
				c0.533,0.936,0.562,1.924,0.562,4.035v8.977C777.087,226.061,777.033,226.836,776.766,227.557z M774.602,215.614
				c0-1.149,0-1.87-0.294-2.325c-0.159-0.24-0.479-0.561-1.147-0.561c-0.134,0-0.563,0.027-0.908,0.267
				c-0.668,0.428-0.615,1.203-0.615,2.619v10.1c0,1.015,0.161,1.977,1.443,1.977c1.603,0,1.521-1.443,1.521-2.565V215.614
				L774.602,215.614z"/>
			<path fill="#5DB8D9" d="M781.737,213.022v5.477h3.605v2.298h-3.58v8.764h-2.512v-18.863h6.466v2.324H781.737z"/>
			<path fill="#5DB8D9" d="M796.621,212.916v16.646h-2.539v-16.646h-2.858v-2.217h8.337v2.217H796.621z"/>
			<path fill="#5DB8D9" d="M805.652,229.561v-8.764h-2.299v8.764h-2.483v-18.863h2.483v7.668h2.299v-7.668h2.484v18.863H805.652z"/>
			<path fill="#5DB8D9" d="M810.409,229.561v-18.863h6.226v2.351h-3.714v5.531h3.313v2.351h-3.286v6.252h3.688v2.378H810.409z"/>
			<path fill="#5DB8D9" d="M827.751,221.652v7.909h-2.698v-7.882l-2.858-10.981h2.538l1.736,7.534l1.896-7.534h2.512
				L827.751,221.652z"/>
			<path fill="#5DB8D9" d="M832.107,229.561v-18.863h6.226v2.351h-3.714v5.531h3.313v2.351h-3.285v6.252h3.688v2.378H832.107z"/>
			<path fill="#5DB8D9" d="M845.12,229.561l-0.48-3.473h-2.831l-0.429,3.473h-2.432l2.672-18.863h3.021l2.911,18.863H845.12z
				 M843.116,213.984l-1.042,9.806h2.244L843.116,213.984z"/>
			<path fill="#5DB8D9" d="M854.02,229.561c-0.32-1.763-0.375-2.164-0.375-3.954v-1.336c0-0.642-0.025-1.31-0.105-1.951
				c-0.055-0.454-0.134-0.908-0.454-1.202c-0.241-0.187-0.508-0.241-0.802-0.241h-1.017v8.684h-2.483v-18.863h4.061
				c0.321,0,0.643,0,0.937,0.026c0.668,0.054,1.924,0.134,2.298,1.844c0.105,0.481,0.16,1.416,0.16,2.698
				c0,0.722,0,1.47-0.055,2.218c-0.025,0.481-0.105,1.069-0.294,1.496c-0.454,0.989-1.521,0.962-1.924,1.016
				c0.401,0.08,1.176-0.027,1.71,0.801c0.428,0.668,0.455,1.443,0.455,2.993v2.057c0,2.138,0.053,2.538,0.48,3.714H854.02
				L854.02,229.561z M853.725,213.877c-0.025-0.401-0.105-0.614-0.267-0.748c-0.161-0.16-0.428-0.16-0.909-0.16h-1.255v5.824h1.175
				c0.643,0,1.016-0.16,1.176-0.828c0.107-0.454,0.135-1.576,0.135-2.886C853.778,214.679,853.752,214.278,853.725,213.877z"/>
			<path fill="#5DB8D9" d="M863.186,229.561c0-0.641-0.055-2.084,0.428-3.741c0.347-1.229,0.987-2.538,2.538-4.729
				c1.042-1.469,1.47-1.924,1.815-2.832c0.214-0.561,0.294-1.015,0.294-2.138v-1.87c0-0.374,0.134-1.87-1.416-1.87
				c-0.399,0-0.693,0.107-0.828,0.187c-0.561,0.294-0.613,0.801-0.613,1.363v3.019h-2.298v-2.859c0-0.187-0.026-0.802,0.105-1.363
				c0.588-2.298,3.126-2.191,3.607-2.191c1.016,0,2.084,0.107,2.857,0.829c0.803,0.721,0.855,1.683,0.882,2.057
				c0.055,0.641,0.055,1.282,0.055,1.924c0,1.79-0.055,2.511-0.374,3.393c-0.294,0.775-0.962,1.844-2.059,3.42
				c-0.294,0.427-1.869,2.458-2.403,4.542c-0.055,0.241-0.107,0.481-0.134,0.748h5.075v2.111H863.186L863.186,229.561z"/>
			<path fill="#5DB8D9" d="M879.163,228.84c-0.802,0.694-1.87,0.908-2.886,0.908c-0.588,0-2.967-0.027-3.635-2.244
				c-0.187-0.588-0.187-1.123-0.187-2.271v-10.901c0-0.828,0.08-1.255,0.187-1.63c0.349-1.042,1.311-2.244,3.74-2.244
				c2.405,0,3.287,1.176,3.607,2.218c0.134,0.481,0.214,0.828,0.214,1.79V225.5C880.205,227.397,879.938,228.145,879.163,228.84z
				 M877.907,214.278c0-1.096-0.16-2.004-1.576-2.004c-1.149,0-1.604,0.641-1.604,1.683v11.997c0,0.534-0.105,1.844,1.604,1.844
				c0.347,0,0.614-0.027,0.908-0.187c0.748-0.428,0.668-1.31,0.668-1.523V214.278z"/>
			<path fill="#5DB8D9" d="M884.936,229.561V215.32h-2.084l0.025-1.844c0.428-0.053,1.256-0.107,2.004-0.962
				c0.107-0.133,0.401-0.454,0.563-0.881c0.134-0.294,0.187-0.535,0.24-0.855h1.629v18.783H884.936L884.936,229.561z"/>
			<path fill="#5DB8D9" d="M898.643,227.744c-0.509,1.577-2.058,1.977-3.555,1.977c-0.293,0-1.923,0.054-2.912-0.935
				c-0.134-0.133-0.454-0.481-0.641-1.015c-0.134-0.454-0.134-0.828-0.134-1.283v-2.645h2.271v2.405
				c0,0.053-0.025,0.534,0.107,0.855c0.105,0.321,0.508,0.721,1.336,0.721c0.187,0,0.908,0,1.256-0.614
				c0.188-0.321,0.188-0.668,0.188-1.042v-3.607c0-0.642-0.055-0.989-0.188-1.256c-0.401-0.909-1.443-0.989-2.298-0.989
				c-0.294,0-0.588,0.027-0.882,0.027v-2.218c1.361,0.054,2.164-0.133,2.617-0.641c0.32-0.401,0.401-0.775,0.401-1.229v-2.752
				c0-0.508-0.054-1.256-1.256-1.256c-1.31,0-1.283,0.909-1.283,1.39v1.683H891.4v-1.683c0-0.187-0.055-0.722,0.134-1.256
				c0.319-0.989,1.282-1.924,3.5-1.924c0.267,0,2.725-0.08,3.313,1.79c0.107,0.348,0.107,0.588,0.107,1.256v2.859
				c0,1.149-0.16,1.63-0.615,2.004c-0.347,0.32-0.774,0.427-1.229,0.534c0.187,0.054,0.428,0.054,0.802,0.214
				c1.416,0.561,1.441,1.95,1.441,3.206v3.26C898.855,226.649,898.802,227.263,898.643,227.744z"/>
		</g>
		<g>
			<path fill="#FFFFFF" d="M1017.051,248.68h-6.875l-3.413-24.19l-3.813,24.19h-6.977l-6.474-35.432h6.774l3.563,26.699
				l3.814-26.699h6.173l3.714,26.699l3.714-26.699h6.624L1017.051,248.68z"/>
			<path fill="#FFFFFF" d="M1052.585,248.68h-6.875l-3.413-24.19l-3.813,24.19h-6.977l-6.474-35.432h6.773l3.563,26.699
				l3.813-26.699h6.174l3.714,26.699l3.714-26.699h6.624L1052.585,248.68z"/>
			<path fill="#FFFFFF" d="M1088.119,248.68h-6.875l-3.413-24.19l-3.813,24.19h-6.977l-6.474-35.432h6.773l3.563,26.699
				l3.813-26.699h6.173l3.715,26.699l3.714-26.699h6.624L1088.119,248.68z"/>
		</g>
	</g>
	<g>
		<path fill="#FFFFFF" d="M446.917,459.453h-63.561c-1.94,0-3.515,1.696-3.515,3.787v111.133c0,2.091,1.574,3.787,3.515,3.787
			h63.561c1.941,0,3.516-1.696,3.516-3.787V463.24C450.433,461.149,448.858,459.453,446.917,459.453z M399.737,463.796h30.8
			c0.298,0,0.541,0.242,0.541,0.541c0,0.298-0.242,0.54-0.541,0.54h-30.8c-0.298,0-0.54-0.242-0.54-0.54
			C399.198,464.038,399.439,463.796,399.737,463.796z M422.807,574.718h-15.341c-1.077,0-1.952-0.874-1.952-1.952
			c0-1.076,0.875-1.953,1.952-1.953h15.341c1.079,0,1.952,0.877,1.952,1.953C424.759,573.844,423.886,574.718,422.807,574.718z
			 M446.834,566.406H383.44v-98.951h63.394V566.406z"/>
		<g>
			
				<circle fill="none" stroke="#FFFFFF" stroke-width="2" stroke-miterlimit="10" stroke-dasharray="2.0066,4.0132" cx="415.137" cy="516.876" r="115.924"/>
		</g>
		<circle fill="#FFFFFF" cx="255.701" cy="506.974" r="94.178"/>
		<circle fill="#FFFFFF" cx="217.908" cy="455.643" r="57.912"/>
		<path fill="#FFFFFF" d="M267.548,582.914c0,31.982-25.926,57.911-57.912,57.911c-31.983,0-57.912-25.929-57.912-57.911
			c0-31.987,25.929-57.913,57.912-57.913C241.622,525.001,267.548,550.927,267.548,582.914z"/>
		<g>
			<path fill="#D6DE23" d="M183.164,465.969v4.101c0,3.152,1.387,4.288,3.595,4.288c2.207,0,3.595-1.136,3.595-4.288v-9.712
				c0-3.153-1.388-4.353-3.595-4.353c-2.208,0-3.595,1.198-3.595,4.353v1.323h-6.559l1.262-25.604h18.289v6.307h-12.045
				l-0.567,10.532c1.261-2.081,3.279-3.217,6.054-3.217c5.108,0,7.694,3.595,7.694,10.091v9.838c0,7.063-3.532,11.101-10.343,11.101
				c-6.811,0-10.343-4.036-10.343-11.101v-3.658L183.164,465.969L183.164,465.969z"/>
			<path fill="#D6DE23" d="M208.895,441.878c-2.207,0-3.594,1.198-3.594,4.353v4.729h-6.559v-4.289
				c0-7.063,3.532-11.099,10.343-11.099s10.342,4.036,10.342,11.099c0,14.505-15.072,19.487-13.748,27.244h13.118v6.307h-20.055
				v-5.424c0-12.991,13.748-15.135,13.748-27.874C212.49,442.95,211.103,441.878,208.895,441.878z"/>
			<path fill="#D6DE23" d="M226.807,465.969v4.101c0,3.152,1.387,4.288,3.595,4.288c2.207,0,3.595-1.136,3.595-4.288v-9.712
				c0-3.153-1.388-4.353-3.595-4.353c-2.208,0-3.595,1.198-3.595,4.353v1.323h-6.559l1.262-25.604h18.289v6.307h-12.045
				l-0.567,10.532c1.261-2.081,3.279-3.217,6.054-3.217c5.108,0,7.694,3.595,7.694,10.091v9.838c0,7.063-3.532,11.101-10.343,11.101
				c-6.811,0-10.343-4.036-10.343-11.101v-3.658L226.807,465.969L226.807,465.969z"/>
			<path fill="#D6DE23" d="M249.07,473.537v6.685h-6.685v-6.685H249.07z"/>
			<path fill="#D6DE23" d="M260.926,480.727c-7,0-10.847-4.035-10.847-11.1v-3.469c0-4.227,1.261-7.505,4.289-9.207
				c-2.901-1.577-4.289-4.541-4.289-8.894v-1.388c0-7.063,3.847-11.099,10.847-11.099s10.847,4.036,10.847,11.099v1.388
				c0,4.353-1.451,7.315-4.289,8.894c3.027,1.702,4.289,4.98,4.289,9.207v3.469C271.773,476.69,267.926,480.727,260.926,480.727z
				 M257.016,449.383c0,3.532,1.64,4.667,3.91,4.667c2.207,0,3.91-1.135,3.91-4.667v-2.459c0-3.974-1.703-5.046-3.91-5.046
				c-2.208,0-3.91,1.072-3.91,5.046V449.383z M260.926,474.42c2.207,0,3.847-1.072,3.91-4.981v-4.1c0-3.469-1.451-4.981-3.91-4.981
				s-3.91,1.514-3.91,4.981v4.1C257.016,473.348,258.718,474.42,260.926,474.42z"/>
			<path fill="#5DB8D9" d="M288.171,470.619l3.548-23.509h7.237v33.11h-4.919v-23.746l-3.595,23.746h-4.919l-3.879-23.415v23.415
				h-4.541v-33.11h7.237L288.171,470.619z"/>
		</g>
		<g>
			<path fill="#5DB8D9" d="M184.258,506.662v-15.176l-2.164,15.176h-2.111l-2.137-15.176v15.176h-2.325v-18.863h3.554l2.03,12.531
				l1.791-12.531h3.66v18.863H184.258z"/>
			<path fill="#5DB8D9" d="M196.417,504.658c-0.802,2.217-3.26,2.19-3.821,2.19c-0.214,0-0.935,0-1.576-0.241
				c-0.508-0.187-1.63-0.828-2.031-2.298c-0.16-0.561-0.188-0.907-0.188-1.977v-9.406c0-1.682,0-3.313,1.47-4.434
				c0.454-0.349,1.255-0.83,2.591-0.83c0.401,0,1.523,0,2.458,0.75c0.481,0.373,0.749,0.801,0.855,1.014
				c0.535,0.937,0.562,1.924,0.562,4.035v8.978C196.738,503.162,196.684,503.936,196.417,504.658z M194.253,492.715
				c0-1.147,0-1.871-0.294-2.324c-0.161-0.239-0.481-0.561-1.149-0.561c-0.134,0-0.561,0.025-0.909,0.266
				c-0.668,0.429-0.614,1.203-0.614,2.619v10.101c0,1.016,0.16,1.977,1.443,1.977c1.603,0,1.523-1.443,1.523-2.564V492.715z"/>
			<path fill="#5DB8D9" d="M206.197,503.883c-0.026,0.215,0,1.496-0.801,2.191c-0.748,0.613-1.817,0.588-2.699,0.588h-3.794v-18.863
				h4.409c0.775,0,1.603,0,2.217,0.562c0.668,0.641,0.668,1.522,0.695,3.207c0,0.319,0.027,0.641,0.027,0.961
				c0,0.588-0.027,1.176-0.054,1.764c0,0.107,0.027,0.937-0.24,1.469c-0.187,0.402-0.615,0.668-1.015,0.775
				c-0.268,0.08-0.775,0.16-0.775,0.16c0.668,0.055,1.443,0.239,1.79,0.854c0.294,0.535,0.24,1.256,0.267,2.564
				c0,0.479,0.027,0.963,0.027,1.471C206.251,502.359,206.251,503.107,206.197,503.883z M203.713,491.084
				c-0.027-0.506-0.107-0.748-0.268-0.881c-0.187-0.16-0.454-0.16-0.908-0.16h-1.229v5.664h0.962c0.775,0,1.336-0.027,1.443-0.961
				c0.053-0.375,0.08-0.99,0.08-1.898C203.793,492.26,203.766,491.672,203.713,491.084z M203.793,499.154
				c-0.027-0.349-0.054-0.908-0.321-1.177c-0.214-0.188-0.534-0.215-0.775-0.215h-1.389v6.574h1.282
				c0.561,0,1.069,0.053,1.176-0.643c0.027-0.293,0.08-1.55,0.08-2.646C203.846,500.41,203.819,499.795,203.793,499.154z"/>
			<path fill="#5DB8D9" d="M208.229,506.662v-18.863h2.458v18.863H208.229z"/>
			<path fill="#5DB8D9" d="M212.852,506.662v-18.863h2.485v16.539h4.114v2.324H212.852z"/>
			<path fill="#5DB8D9" d="M220.628,506.662v-18.863h6.226v2.353h-3.714v5.528h3.313v2.353h-3.287v6.252h3.688v2.379
				L220.628,506.662L220.628,506.662z"/>
			<path fill="#5DB8D9" d="M240.188,497.658c-0.401,0.373-0.882,0.453-1.87,0.453h-2.485v8.551h-2.432v-18.863h4.863
				c0.187,0,1.443-0.106,2.084,0.721c0.535,0.668,0.481,1.712,0.481,2.513v3.58C240.829,496.188,240.802,497.096,240.188,497.658z
				 M238.317,491.031c0-0.695-0.161-0.937-0.935-0.937h-1.523v5.771h1.576c0.668,0,0.882-0.188,0.882-0.828V491.031z"/>
			<path fill="#5DB8D9" d="M247.029,506.662v-8.764h-2.298v8.764h-2.485v-18.863h2.485v7.668h2.298v-7.668h2.485v18.863H247.029z"/>
			<path fill="#5DB8D9" d="M259.32,504.658c-0.802,2.217-3.26,2.19-3.821,2.19c-0.214,0-0.935,0-1.576-0.241
				c-0.508-0.187-1.63-0.828-2.031-2.298c-0.16-0.561-0.187-0.907-0.187-1.977v-9.406c0-1.682,0-3.313,1.47-4.434
				c0.454-0.349,1.255-0.83,2.591-0.83c0.401,0,1.523,0,2.458,0.75c0.481,0.373,0.749,0.801,0.855,1.014
				c0.535,0.937,0.562,1.924,0.562,4.035v8.978C259.641,503.162,259.587,503.936,259.32,504.658z M257.156,492.715
				c0-1.147,0-1.871-0.294-2.324c-0.161-0.239-0.481-0.561-1.149-0.561c-0.134,0-0.561,0.025-0.909,0.266
				c-0.668,0.429-0.614,1.203-0.614,2.619v10.101c0,1.016,0.16,1.977,1.443,1.977c1.603,0,1.523-1.443,1.523-2.564V492.715z"/>
			<path fill="#5DB8D9" d="M266.91,506.662l-3.019-13.84l0.214,13.84h-2.325v-18.863h2.672l2.966,12.853l-0.107-12.853h2.351v18.863
				H266.91z"/>
			<path fill="#5DB8D9" d="M271.828,506.662v-18.863h6.226v2.353h-3.714v5.528h3.313v2.353h-3.287v6.252h3.688v2.379
				L271.828,506.662L271.828,506.662z"/>
			<path fill="#5DB8D9" d="M292.242,504.338c-0.695,2.484-3.073,2.617-3.821,2.617c-0.668,0-2.752-0.133-3.527-2.217
				c-0.213-0.535-0.32-1.068-0.32-2.22v-14.721h2.431v14.588c0,1.068-0.027,2.513,1.496,2.513c0.161,0,0.615,0,0.962-0.296
				c0.535-0.452,0.561-1.12,0.561-2.377v-14.428h2.458v14.295C292.483,502.254,292.483,503.455,292.242,504.338z"/>
			<path fill="#5DB8D9" d="M299.618,506.715c-0.321,0.135-0.828,0.295-1.657,0.295c-1.523,0-2.351-0.643-2.752-1.123
				c-0.775-0.881-0.828-1.896-0.828-2.992v-3.127h2.298v3.447c0,0.908,0.133,1.31,0.534,1.576c0.107,0.08,0.348,0.24,0.748,0.24
				c1.229-0.025,1.203-1.361,1.203-2.217c0-1.363-0.214-2.111-0.909-3.287c-0.694-1.229-1.549-2.324-2.271-3.525
				c-0.401-0.643-1.443-2.246-1.443-4.436c0-2.084,0.909-3.181,1.684-3.636c0.4-0.239,1.068-0.508,2.137-0.508
				c0.508,0,2.405-0.024,2.993,1.818c0.106,0.346,0.187,0.668,0.187,1.416v3.34h-2.271v-3.34c-0.027-0.215,0.053-1.283-0.989-1.283
				c-1.202,0-1.229,1.043-1.229,1.924c0,1.576,0.427,2.457,1.256,3.769c0.347,0.561,0.721,1.096,1.095,1.655
				c0.294,0.4,0.561,0.802,0.828,1.229c1.31,2.059,1.47,3.475,1.47,4.567C301.702,502.922,301.729,505.754,299.618,506.715z"/>
			<path fill="#5DB8D9" d="M303.547,506.662v-18.863h6.226v2.353h-3.714v5.528h3.313v2.353h-3.287v6.252h3.688v2.379
				L303.547,506.662L303.547,506.662z"/>
			<path fill="#5DB8D9" d="M316.56,506.662c-0.32-1.764-0.374-2.164-0.374-3.955v-1.336c0-0.641-0.026-1.309-0.107-1.949
				c-0.053-0.455-0.133-0.91-0.454-1.203c-0.24-0.188-0.507-0.24-0.801-0.24h-1.016v8.685h-2.485V487.8h4.062
				c0.32,0,0.641,0,0.936,0.027c0.668,0.053,1.924,0.133,2.298,1.842c0.107,0.482,0.16,1.416,0.16,2.699
				c0,0.721,0,1.471-0.053,2.219c-0.027,0.48-0.107,1.068-0.294,1.496c-0.455,0.988-1.523,0.961-1.924,1.014
				c0.401,0.08,1.176-0.024,1.71,0.804c0.427,0.668,0.454,1.442,0.454,2.991v2.058c0,2.139,0.054,2.539,0.481,3.715h-2.592V506.662z
				 M316.266,490.979c-0.026-0.399-0.106-0.614-0.267-0.747c-0.16-0.16-0.427-0.16-0.908-0.16h-1.256v5.823h1.176
				c0.641,0,1.015-0.159,1.175-0.827c0.107-0.455,0.134-1.576,0.134-2.888C316.319,491.779,316.292,491.379,316.266,490.979z"/>
			<path fill="#5DB8D9" d="M325.779,506.715c-0.321,0.135-0.828,0.295-1.657,0.295c-1.523,0-2.351-0.643-2.752-1.123
				c-0.775-0.881-0.828-1.896-0.828-2.992v-3.127h2.298v3.447c0,0.908,0.133,1.31,0.534,1.576c0.107,0.08,0.348,0.24,0.748,0.24
				c1.229-0.025,1.203-1.361,1.203-2.217c0-1.363-0.214-2.111-0.909-3.287c-0.694-1.229-1.549-2.324-2.271-3.525
				c-0.401-0.643-1.443-2.246-1.443-4.436c0-2.084,0.909-3.181,1.684-3.636c0.4-0.239,1.068-0.508,2.137-0.508
				c0.508,0,2.405-0.024,2.993,1.818c0.106,0.346,0.187,0.668,0.187,1.416v3.34h-2.271v-3.34c-0.027-0.215,0.053-1.283-0.989-1.283
				c-1.202,0-1.229,1.043-1.229,1.924c0,1.576,0.427,2.457,1.256,3.769c0.347,0.561,0.721,1.096,1.095,1.655
				c0.294,0.4,0.561,0.802,0.828,1.229c1.31,2.059,1.47,3.475,1.47,4.567C327.863,502.922,327.89,505.754,325.779,506.715z"/>
			<path fill="#5DB8D9" d="M175.388,529.566v-18.863h2.458v18.863H175.388z"/>
			<path fill="#5DB8D9" d="M185.086,529.566l-3.019-13.841l0.214,13.841h-2.325v-18.863h2.672l2.966,12.852l-0.107-12.852h2.351
				v18.863H185.086z"/>
			<path fill="#5DB8D9" d="M200.211,529.566l-0.481-3.476h-2.832l-0.427,3.476h-2.432l2.672-18.863h3.019l2.913,18.863H200.211z
				 M198.208,513.988l-1.042,9.807h2.245L198.208,513.988z"/>
			<path fill="#5DB8D9" d="M206.385,513.027v5.477h3.607v2.299h-3.58v8.765H203.9v-18.863h6.466v2.324L206.385,513.027
				L206.385,513.027z"/>
			<path fill="#5DB8D9" d="M216.913,529.566c-0.32-1.765-0.374-2.164-0.374-3.955v-1.336c0-0.642-0.026-1.31-0.107-1.949
				c-0.053-0.455-0.133-0.91-0.454-1.203c-0.24-0.188-0.507-0.24-0.801-0.24h-1.016v8.685h-2.485v-18.863h4.062
				c0.32,0,0.641,0,0.935,0.027c0.668,0.053,1.924,0.133,2.298,1.842c0.107,0.481,0.16,1.416,0.16,2.698c0,0.722,0,1.472-0.053,2.22
				c-0.027,0.479-0.107,1.067-0.294,1.496c-0.455,0.987-1.523,0.961-1.924,1.014c0.401,0.08,1.176-0.025,1.71,0.803
				c0.427,0.668,0.454,1.443,0.454,2.992v2.057c0,2.14,0.054,2.539,0.481,3.716h-2.592V529.566z M216.619,513.883
				c-0.026-0.399-0.106-0.615-0.267-0.748c-0.16-0.16-0.427-0.16-0.908-0.16h-1.256v5.824h1.176c0.641,0,1.015-0.16,1.175-0.828
				c0.107-0.455,0.134-1.576,0.134-2.887C216.672,514.684,216.646,514.283,216.619,513.883z"/>
			<path fill="#5DB8D9" d="M221.029,529.566v-18.863h2.458v18.863H221.029z"/>
			<path fill="#5DB8D9" d="M232.999,528.15c-0.455,0.668-1.417,1.655-3.42,1.655c-1.924,0-2.886-0.883-3.34-1.551
				c-0.668-0.961-0.668-2.137-0.668-3.231v-9.111c0-0.426,0.026-0.854,0.053-1.281c0.054-0.723,0.187-3.1,2.592-3.875
				c0.534-0.188,0.988-0.24,1.576-0.24c1.39,0,2.138,0.429,2.619,0.828c0.401,0.32,0.694,0.724,0.881,1.176
				c0.375,0.855,0.401,1.712,0.401,2.619v2.404h-2.511v-2.912c0-0.399,0.133-1.951-1.523-1.951c-0.535,0-0.802,0.16-1.016,0.32
				c-0.614,0.535-0.561,1.336-0.561,2.059v10.421c0,0.213,0,0.428,0.027,0.641c0.027,0.508,0.107,1.522,1.496,1.522
				c0.161,0,0.588,0.025,0.962-0.268c0.641-0.455,0.615-1.256,0.615-1.951v-3.66h2.511v3.527
				C233.693,526.334,233.613,527.242,232.999,528.15z"/>
			<path fill="#5DB8D9" d="M240.855,529.566l-0.481-3.476h-2.832l-0.427,3.476h-2.432l2.672-18.863h3.019l2.913,18.863H240.855z
				 M238.852,513.988l-1.042,9.807h2.245L238.852,513.988z"/>
			<path fill="#5DB8D9" d="M244.357,533.174v-0.588c1.069-0.775,0.962-1.818,0.962-3.02h-1.069v-3.447h2.138v2.858
				C246.388,531.143,246.281,532.023,244.357,533.174z"/>
			<path fill="#5DB8D9" d="M253.362,529.566c0-0.644-0.053-2.084,0.428-3.74c0.347-1.23,0.988-2.539,2.538-4.73
				c1.042-1.469,1.469-1.924,1.817-2.832c0.213-0.561,0.294-1.016,0.294-2.137v-1.871c0-0.373,0.133-1.869-1.416-1.869
				c-0.401,0-0.695,0.105-0.829,0.187c-0.561,0.295-0.614,0.803-0.614,1.362v3.021h-2.298v-2.859c0-0.188-0.027-0.801,0.107-1.36
				c0.588-2.3,3.126-2.191,3.607-2.191c1.015,0,2.084,0.107,2.859,0.828c0.801,0.721,0.855,1.684,0.881,2.057
				c0.054,0.644,0.054,1.283,0.054,1.924c0,1.791-0.054,2.513-0.374,3.394c-0.294,0.774-0.962,1.844-2.058,3.42
				c-0.293,0.428-1.87,2.459-2.404,4.543c-0.054,0.24-0.107,0.479-0.134,0.748h5.077v2.111h-7.535V529.566z"/>
			<path fill="#5DB8D9" d="M269.341,528.844c-0.801,0.695-1.87,0.91-2.885,0.91c-0.588,0-2.966-0.027-3.634-2.246
				c-0.187-0.588-0.187-1.121-0.187-2.27v-10.902c0-0.828,0.08-1.256,0.187-1.629c0.347-1.043,1.309-2.244,3.741-2.244
				c2.404,0,3.286,1.176,3.607,2.217c0.133,0.48,0.213,0.828,0.213,1.791v11.033C270.383,527.402,270.116,528.15,269.341,528.844z
				 M268.085,514.283c0-1.096-0.161-2.004-1.577-2.004c-1.149,0-1.603,0.641-1.603,1.684v11.996c0,0.535-0.107,1.844,1.603,1.844
				c0.348,0,0.615-0.026,0.909-0.188c0.748-0.428,0.668-1.31,0.668-1.523V514.283z"/>
			<path fill="#5DB8D9" d="M275.113,529.566v-14.242h-2.084l0.027-1.842c0.427-0.056,1.256-0.107,2.004-0.964
				c0.107-0.133,0.401-0.452,0.561-0.881c0.133-0.295,0.187-0.535,0.24-0.854h1.63v18.783H275.113z"/>
			<path fill="#5DB8D9" d="M288.821,527.75c-0.507,1.576-2.057,1.977-3.553,1.977c-0.294,0-1.924,0.054-2.912-0.936
				c-0.134-0.133-0.455-0.48-0.642-1.016c-0.133-0.453-0.133-0.828-0.133-1.281v-2.646h2.271v2.404c0,0.055-0.027,0.535,0.107,0.855
				c0.107,0.319,0.507,0.723,1.336,0.723c0.187,0,0.908,0,1.255-0.615c0.188-0.32,0.188-0.668,0.188-1.043v-3.604
				c0-0.644-0.053-0.988-0.188-1.257c-0.4-0.907-1.442-0.987-2.297-0.987c-0.294,0-0.588,0.024-0.882,0.024v-2.217
				c1.363,0.053,2.164-0.135,2.618-0.641c0.321-0.402,0.401-0.775,0.401-1.23v-2.752c0-0.508-0.053-1.256-1.256-1.256
				c-1.309,0-1.282,0.908-1.282,1.392v1.682h-2.271v-1.682c0-0.188-0.054-0.724,0.133-1.257c0.321-0.987,1.283-1.924,3.5-1.924
				c0.268,0,2.726-0.08,3.313,1.789c0.106,0.349,0.106,0.588,0.106,1.256v2.859c0,1.148-0.16,1.629-0.614,2.004
				c-0.347,0.32-0.775,0.428-1.229,0.535c0.187,0.053,0.427,0.053,0.801,0.213c1.417,0.561,1.443,1.951,1.443,3.207v3.258
				C289.035,526.654,288.981,527.268,288.821,527.75z"/>
		</g>
		<circle fill="#FFFFFF" cx="241.689" cy="617.696" r="83.002"/>
		<g>
			<path fill="#D6DE23" d="M180.242,565.058c-2.207,0-3.594,1.197-3.594,4.352v4.729h-6.559v-4.289
				c0-7.063,3.532-11.099,10.343-11.099s10.342,4.036,10.342,11.099c0,14.506-15.072,19.487-13.748,27.244h13.118v6.308h-20.055
				v-5.425c0-12.99,13.748-15.135,13.748-27.874C183.836,566.129,182.449,565.058,180.242,565.058z"/>
			<path fill="#D6DE23" d="M197.775,564.805c5.36,0,6.559-2.586,7.631-5.55h4.667V603.4h-6.938v-33.678h-5.36L197.775,564.805
				L197.775,564.805z"/>
			<path fill="#D6DE23" d="M223.57,596.716v6.686h-6.685v-6.686H223.57z"/>
			<path fill="#D6DE23" d="M240.408,570.104c0-3.975-1.387-5.046-3.595-5.046c-2.207,0-3.594,1.197-3.594,4.352v2.838h-6.559v-2.396
				c0-7.063,3.532-11.1,10.343-11.1s10.343,4.036,10.343,11.1v1.136c0,4.729-1.514,7.692-4.856,9.081
				c3.468,1.514,4.856,4.793,4.856,9.271v3.469c0,7.063-3.532,11.101-10.343,11.101s-10.343-4.036-10.343-11.101v-3.657h6.559v4.1
				c0,3.153,1.387,4.352,3.594,4.352c2.208,0,3.595-1.071,3.595-4.981v-3.469c0-4.1-1.387-5.612-4.541-5.612h-2.333v-6.307h2.712
				c2.585,0,4.162-1.136,4.162-4.667V570.104z"/>
			<path fill="#5DB8D9" d="M252.676,575.351c0-3.405,1.75-5.298,5.014-5.298s5.014,1.893,5.014,5.298v10.88
				c0,3.405-1.75,5.298-5.014,5.298s-5.014-1.893-5.014-5.298V575.351z M255.987,586.466c0,1.467,0.615,2.082,1.703,2.082
				c1.041,0,1.703-0.615,1.703-2.082v-11.353c0-1.467-0.662-2.081-1.703-2.081c-1.088,0-1.703,0.614-1.703,2.081V586.466z
				 M270.746,570.289h3.075L260.765,603.4h-3.074L270.746,570.289z M269.09,587.46c0-3.406,1.75-5.298,5.014-5.298
				s5.014,1.892,5.014,5.298v10.879c0,3.406-1.75,5.298-5.014,5.298s-5.014-1.892-5.014-5.298V587.46z M272.401,598.575
				c0,1.467,0.615,2.082,1.703,2.082c1.041,0,1.703-0.615,1.703-2.082v-11.354c0-1.466-0.663-2.081-1.703-2.081
				c-1.088,0-1.703,0.615-1.703,2.081V598.575z"/>
		</g>
		<g>
			<path fill="#5DB8D9" d="M173.657,632.064c-0.321,0.133-0.828,0.293-1.657,0.293c-1.523,0-2.351-0.642-2.752-1.121
				c-0.775-0.883-0.828-1.898-0.828-2.994v-3.125h2.298v3.447c0,0.907,0.133,1.309,0.534,1.575c0.107,0.08,0.348,0.24,0.748,0.24
				c1.229-0.026,1.203-1.362,1.203-2.219c0-1.361-0.214-2.109-0.909-3.285c-0.694-1.229-1.549-2.324-2.271-3.526
				c-0.401-0.642-1.443-2.244-1.443-4.437c0-2.084,0.909-3.18,1.684-3.633c0.4-0.24,1.068-0.508,2.137-0.508
				c0.508,0,2.405-0.027,2.993,1.815c0.106,0.349,0.187,0.668,0.187,1.416v3.34h-2.271v-3.34c-0.027-0.213,0.053-1.283-0.989-1.283
				c-1.202,0-1.229,1.043-1.229,1.925c0,1.577,0.427,2.459,1.256,3.768c0.347,0.563,0.721,1.096,1.095,1.656
				c0.294,0.401,0.561,0.803,0.828,1.229c1.31,2.058,1.47,3.474,1.47,4.568C175.741,628.27,175.768,631.102,173.657,632.064z"/>
			<path fill="#5DB8D9" d="M186.323,632.01v-15.176l-2.164,15.176h-2.111l-2.137-15.176v15.176h-2.325v-18.862h3.554l2.03,12.53
				l1.791-12.53h3.66v18.862H186.323z"/>
			<path fill="#5DB8D9" d="M196.157,632.01l-0.481-3.473h-2.832l-0.427,3.473h-2.432l2.672-18.862h3.019l2.913,18.862H196.157z
				 M194.153,616.434l-1.042,9.806h2.245L194.153,616.434z"/>
			<path fill="#5DB8D9" d="M205.056,632.01c-0.32-1.764-0.374-2.164-0.374-3.953v-1.336c0-0.643-0.026-1.311-0.107-1.951
				c-0.053-0.452-0.133-0.907-0.454-1.202c-0.24-0.187-0.507-0.24-0.801-0.24h-1.016v8.684h-2.485v-18.862h4.062
				c0.32,0,0.641,0,0.935,0.026c0.668,0.054,1.924,0.133,2.298,1.845c0.107,0.479,0.16,1.416,0.16,2.698c0,0.722,0,1.47-0.053,2.217
				c-0.027,0.48-0.107,1.068-0.294,1.496c-0.455,0.988-1.523,0.963-1.924,1.017c0.401,0.08,1.176-0.027,1.71,0.801
				c0.427,0.668,0.454,1.443,0.454,2.992v2.059c0,2.137,0.054,2.537,0.481,3.713h-2.592V632.01z M204.762,616.326
				c-0.026-0.4-0.106-0.613-0.267-0.748c-0.16-0.16-0.427-0.16-0.908-0.16h-1.256v5.824h1.176c0.641,0,1.015-0.16,1.175-0.828
				c0.107-0.453,0.134-1.576,0.134-2.885C204.815,617.129,204.789,616.727,204.762,616.326z"/>
			<path fill="#5DB8D9" d="M213.874,615.365v16.645h-2.538v-16.645h-2.859v-2.219h8.336v2.219H213.874z"/>
			<path fill="#5DB8D9" d="M224.963,623.006c-0.401,0.375-0.882,0.455-1.87,0.455h-2.485v8.549h-2.432v-18.862h4.863
				c0.187,0,1.443-0.105,2.084,0.723c0.535,0.668,0.481,1.709,0.481,2.512v3.58C225.604,621.537,225.578,622.445,224.963,623.006z
				 M223.093,616.381c0-0.695-0.161-0.936-0.935-0.936h-1.523v5.771h1.576c0.668,0,0.882-0.188,0.882-0.828V616.381z"/>
			<path fill="#5DB8D9" d="M231.805,632.01v-8.764h-2.298v8.764h-2.485v-18.862h2.485v7.668h2.298v-7.668h2.485v18.862H231.805z"/>
			<path fill="#5DB8D9" d="M244.096,630.006c-0.802,2.219-3.26,2.191-3.821,2.191c-0.214,0-0.935,0-1.576-0.24
				c-0.508-0.188-1.63-0.828-2.031-2.299c-0.16-0.562-0.187-0.908-0.187-1.978v-9.403c0-1.685,0-3.313,1.47-4.437
				c0.454-0.348,1.255-0.828,2.591-0.828c0.401,0,1.523,0,2.458,0.748c0.481,0.375,0.749,0.802,0.855,1.017
				c0.535,0.936,0.562,1.924,0.562,4.032v8.979C244.417,628.51,244.363,629.285,244.096,630.006z M241.932,618.063
				c0-1.147,0-1.868-0.294-2.323c-0.161-0.24-0.481-0.562-1.149-0.562c-0.134,0-0.562,0.027-0.909,0.269
				c-0.668,0.428-0.614,1.201-0.614,2.617v10.1c0,1.016,0.16,1.979,1.443,1.979c1.603,0,1.523-1.442,1.523-2.565V618.063z"/>
			<path fill="#5DB8D9" d="M251.686,632.01l-3.019-13.84l0.214,13.84h-2.325v-18.862h2.672l2.966,12.852l-0.107-12.852h2.351v18.862
				H251.686z"/>
			<path fill="#5DB8D9" d="M256.604,632.01v-18.862h6.226v2.352h-3.714v5.531h3.313v2.352h-3.287v6.252h3.688v2.377L256.604,632.01
				L256.604,632.01z"/>
			<path fill="#5DB8D9" d="M277.018,629.686c-0.695,2.484-3.073,2.619-3.821,2.619c-0.668,0-2.752-0.135-3.527-2.219
				c-0.213-0.533-0.32-1.068-0.32-2.217v-14.723h2.431v14.59c0,1.067-0.027,2.51,1.496,2.51c0.161,0,0.615,0,0.962-0.293
				c0.535-0.455,0.561-1.123,0.561-2.379v-14.428h2.458v14.295C277.259,627.602,277.259,628.805,277.018,629.686z"/>
			<path fill="#5DB8D9" d="M284.394,632.064c-0.321,0.133-0.828,0.293-1.657,0.293c-1.523,0-2.351-0.642-2.752-1.121
				c-0.775-0.883-0.828-1.898-0.828-2.994v-3.125h2.298v3.447c0,0.907,0.133,1.309,0.534,1.575c0.106,0.08,0.348,0.24,0.748,0.24
				c1.229-0.026,1.203-1.362,1.203-2.219c0-1.361-0.214-2.109-0.909-3.285c-0.694-1.229-1.549-2.324-2.271-3.526
				c-0.401-0.642-1.443-2.244-1.443-4.437c0-2.084,0.909-3.18,1.684-3.633c0.4-0.24,1.068-0.508,2.137-0.508
				c0.508,0,2.405-0.027,2.993,1.815c0.106,0.349,0.187,0.668,0.187,1.416v3.34h-2.271v-3.34c-0.027-0.213,0.053-1.283-0.989-1.283
				c-1.202,0-1.229,1.043-1.229,1.925c0,1.577,0.427,2.459,1.256,3.768c0.347,0.563,0.721,1.096,1.095,1.656
				c0.294,0.401,0.561,0.803,0.828,1.229c1.31,2.058,1.47,3.474,1.47,4.568C286.478,628.27,286.505,631.102,284.394,632.064z"/>
			<path fill="#5DB8D9" d="M288.323,632.01v-18.862h6.226v2.352h-3.714v5.531h3.313v2.352h-3.287v6.252h3.688v2.377L288.323,632.01
				L288.323,632.01z"/>
			<path fill="#5DB8D9" d="M301.335,632.01c-0.32-1.764-0.374-2.164-0.374-3.953v-1.336c0-0.643-0.026-1.311-0.107-1.951
				c-0.053-0.452-0.133-0.907-0.454-1.202c-0.24-0.187-0.507-0.24-0.801-0.24h-1.016v8.684h-2.485v-18.862h4.062
				c0.32,0,0.641,0,0.935,0.026c0.668,0.054,1.924,0.133,2.298,1.845c0.107,0.479,0.16,1.416,0.16,2.698c0,0.722,0,1.47-0.053,2.217
				c-0.027,0.48-0.107,1.068-0.294,1.496c-0.455,0.988-1.523,0.963-1.924,1.017c0.401,0.08,1.176-0.027,1.71,0.801
				c0.427,0.668,0.454,1.443,0.454,2.992v2.059c0,2.137,0.054,2.537,0.48,3.713h-2.592V632.01z M301.042,616.326
				c-0.026-0.4-0.106-0.613-0.267-0.748c-0.16-0.16-0.427-0.16-0.908-0.16h-1.256v5.824h1.176c0.641,0,1.015-0.16,1.175-0.828
				c0.107-0.453,0.134-1.576,0.134-2.885C301.095,617.129,301.068,616.727,301.042,616.326z"/>
			<path fill="#5DB8D9" d="M310.555,632.064c-0.321,0.133-0.828,0.293-1.657,0.293c-1.523,0-2.351-0.642-2.752-1.121
				c-0.775-0.883-0.828-1.898-0.828-2.994v-3.125h2.298v3.447c0,0.907,0.133,1.309,0.534,1.575c0.107,0.08,0.348,0.24,0.748,0.24
				c1.229-0.026,1.203-1.362,1.203-2.219c0-1.361-0.214-2.109-0.909-3.285c-0.694-1.229-1.549-2.324-2.271-3.526
				c-0.401-0.642-1.443-2.244-1.443-4.437c0-2.084,0.909-3.18,1.684-3.633c0.4-0.24,1.068-0.508,2.137-0.508
				c0.508,0,2.405-0.027,2.993,1.815c0.106,0.349,0.187,0.668,0.187,1.416v3.34h-2.271v-3.34c-0.027-0.213,0.053-1.283-0.989-1.283
				c-1.202,0-1.229,1.043-1.229,1.925c0,1.577,0.427,2.459,1.256,3.768c0.347,0.563,0.721,1.096,1.095,1.656
				c0.294,0.401,0.561,0.803,0.828,1.229c1.31,2.058,1.47,3.474,1.47,4.568C312.639,628.27,312.666,631.102,310.555,632.064z"/>
		</g>
	</g>
</g>
</svg>
