<?xml version="1.0" encoding="utf-8"?>
<!-- Generator: Adobe Illustrator 16.0.0, SVG Export Plug-In . SVG Version: 6.00 Build 0)  -->
<!DOCTYPE svg PUBLIC "-//W3C//DTD SVG 1.1//EN" "http://www.w3.org/Graphics/SVG/1.1/DTD/svg11.dtd">
<svg version="1.1" id="Layer_1" xmlns="http://www.w3.org/2000/svg" xmlns:xlink="http://www.w3.org/1999/xlink" x="0px" y="0px"
	 width="158.09px" height="90.667px" viewBox="0 0 158.09 90.667" enable-background="new 0 0 158.09 90.667" xml:space="preserve">
<g>
	<g>
		<path fill="#48768D" d="M140.44,2.334H15.54c-4.171,0-7.553,3.034-7.553,6.777v74.553h4.357V6.788h131.291v76.876h4.357V9.111
			C147.993,5.368,144.61,2.334,140.44,2.334z"/>
		<path fill="#48768D" d="M152.301,84.664H3.002H0v3.001c0,1.658,1.344,3.002,3.002,3.002h149.299c1.656,0,3-1.344,3-3.002v-3.001
			H152.301z"/>
	</g>
	<g>
		<linearGradient id="SVGID_1_" gradientUnits="userSpaceOnUse" x1="110.2192" y1="77.3369" x2="65.4278" y2="24.5746">
			<stop  offset="0" style="stop-color:#FFFFFF"/>
			<stop  offset="1" style="stop-color:#FFFFFF;stop-opacity:0"/>
		</linearGradient>
		<polygon fill="url(#SVGID_1_)" points="146.422,4.454 25.002,80.859 15.133,80.859 15.133,4.454 		"/>
		<path fill="#FFFFFF" d="M143.229,0H18.328c-4.171,0-7.553,3.034-7.553,6.777V81.33h4.357V4.454h131.29V81.33h4.357V6.777
			C150.78,3.034,147.399,0,143.229,0z"/>
		<path fill="#FFFFFF" d="M155.088,82.33H5.79H2.788v3.001c0,1.658,1.344,3.002,3.002,3.002h149.298
			c1.658,0,3.002-1.344,3.002-3.002V82.33H155.088z"/>
	</g>
</g>
</svg>
